<?xml version="1.0" encoding="UTF-8" standalone="no"?>
<!DOCTYPE svg PUBLIC "-//W3C//DTD SVG 1.1//EN"
 "http://www.w3.org/Graphics/SVG/1.1/DTD/svg11.dtd">
<!-- Generated by graphviz version 2.43.0 (0)
 -->
<!-- Title: %3 Pages: 1 -->
<svg width="638pt" height="208pt"
 viewBox="0.00 0.00 637.50 207.66" xmlns="http://www.w3.org/2000/svg" xmlns:xlink="http://www.w3.org/1999/xlink">
<g id="graph0" class="graph" transform="scale(1 1) rotate(0) translate(4 203.66)">
<title>%3</title>
<polygon fill="white" stroke="transparent" points="-4,4 -4,-203.66 633.5,-203.66 633.5,4 -4,4"/>
<!-- Player_height -->
<g id="node1" class="node">
<title>Player_height</title>
<polygon fill="lightgray" stroke="black" points="80,-199.66 0,-199.66 0,-181.66 80,-181.66 80,-199.66"/>
<text text-anchor="middle" x="40" y="-188.46" font-family="Times,serif" font-size="9.00">Player_height</text>
</g>
<!-- Activate propulsor -->
<g id="node10" class="node">
<title>Activate propulsor</title>
<ellipse fill="lightblue" stroke="black" cx="319" cy="-72.83" rx="72.66" ry="72.66"/>
<text text-anchor="middle" x="319" y="-70.63" font-family="Times,serif" font-size="9.00">Activate propulsor</text>
</g>
<!-- Player_height&#45;&gt;Activate propulsor -->
<g id="edge1" class="edge">
<title>Player_height&#45;&gt;Activate propulsor</title>
<path fill="none" stroke="green" stroke-width="0.35" d="M59.62,-181.52C97.02,-165.99 180.32,-131.41 242.5,-105.59"/>
<polygon fill="green" stroke="green" stroke-width="0.35" points="244,-108.76 251.9,-101.69 241.32,-102.29 244,-108.76"/>
</g>
<!-- HCoil1 -->
<g id="node2" class="node">
<title>HCoil1</title>
<polygon fill="lightgray" stroke="black" points="146,-199.66 98,-199.66 98,-181.66 146,-181.66 146,-199.66"/>
<text text-anchor="middle" x="122" y="-188.46" font-family="Times,serif" font-size="9.00">HCoil1</text>
</g>
<!-- HCoil1&#45;&gt;Activate propulsor -->
<g id="edge2" class="edge">
<title>HCoil1&#45;&gt;Activate propulsor</title>
<path fill="none" stroke="red" stroke-width="0.14" d="M135.85,-181.52C158.91,-167.96 206.68,-139.87 247.65,-115.78"/>
<polygon fill="red" stroke="red" stroke-width="0.14" points="249.43,-118.8 256.28,-110.71 245.89,-112.76 249.43,-118.8"/>
</g>
<!-- HCoil2 -->
<g id="node3" class="node">
<title>HCoil2</title>
<polygon fill="lightgray" stroke="black" points="212,-199.66 164,-199.66 164,-181.66 212,-181.66 212,-199.66"/>
<text text-anchor="middle" x="188" y="-188.46" font-family="Times,serif" font-size="9.00">HCoil2</text>
</g>
<!-- HCoil2&#45;&gt;Activate propulsor -->
<g id="edge3" class="edge">
<title>HCoil2&#45;&gt;Activate propulsor</title>
<path fill="none" stroke="green" stroke-width="0.42" d="M197.42,-181.33C210.18,-170.05 234.03,-148.96 257.25,-128.43"/>
<polygon fill="green" stroke="green" stroke-width="0.42" points="259.58,-131.04 264.76,-121.79 254.95,-125.8 259.58,-131.04"/>
</g>
<!-- VCoil1 -->
<g id="node4" class="node">
<title>VCoil1</title>
<polygon fill="lightgray" stroke="black" points="277.5,-199.66 230.5,-199.66 230.5,-181.66 277.5,-181.66 277.5,-199.66"/>
<text text-anchor="middle" x="254" y="-188.46" font-family="Times,serif" font-size="9.00">VCoil1</text>
</g>
<!-- VCoil1&#45;&gt;Activate propulsor -->
<g id="edge4" class="edge">
<title>VCoil1&#45;&gt;Activate propulsor</title>
<path fill="none" stroke="red" stroke-width="0.48" d="M258.67,-181.33C263.21,-173.26 270.56,-160.15 278.6,-145.82"/>
<polygon fill="red" stroke="red" stroke-width="0.48" points="281.83,-147.21 283.68,-136.78 275.73,-143.79 281.83,-147.21"/>
</g>
<!-- VCoil2 -->
<g id="node5" class="node">
<title>VCoil2</title>
<polygon fill="lightgray" stroke="black" points="342.5,-199.66 295.5,-199.66 295.5,-181.66 342.5,-181.66 342.5,-199.66"/>
<text text-anchor="middle" x="319" y="-188.46" font-family="Times,serif" font-size="9.00">VCoil2</text>
</g>
<!-- VCoil2&#45;&gt;Activate propulsor -->
<g id="edge5" class="edge">
<title>VCoil2&#45;&gt;Activate propulsor</title>
<path fill="none" stroke="green" stroke-width="0.18" d="M319,-181.33C319,-175.2 319,-166.17 319,-155.9"/>
<polygon fill="green" stroke="green" stroke-width="0.18" points="322.5,-155.74 319,-145.74 315.5,-155.74 322.5,-155.74"/>
</g>
<!-- HCoil12 -->
<g id="node6" class="node">
<title>HCoil12</title>
<polygon fill="lightgray" stroke="black" points="415,-199.66 361,-199.66 361,-181.66 415,-181.66 415,-199.66"/>
<text text-anchor="middle" x="388" y="-188.46" font-family="Times,serif" font-size="9.00">HCoil12</text>
</g>
<!-- HCoil12&#45;&gt;Activate propulsor -->
<g id="edge6" class="edge">
<title>HCoil12&#45;&gt;Activate propulsor</title>
<path fill="none" stroke="red" stroke-width="0.22" d="M383.04,-181.33C378.1,-173.05 370.02,-159.48 361.23,-144.72"/>
<polygon fill="red" stroke="red" stroke-width="0.22" points="364.12,-142.73 355.99,-135.93 358.1,-146.31 364.12,-142.73"/>
</g>
<!-- HCoil22 -->
<g id="node7" class="node">
<title>HCoil22</title>
<polygon fill="lightgray" stroke="black" points="487,-199.66 433,-199.66 433,-181.66 487,-181.66 487,-199.66"/>
<text text-anchor="middle" x="460" y="-188.46" font-family="Times,serif" font-size="9.00">HCoil22</text>
</g>
<!-- HCoil22&#45;&gt;Activate propulsor -->
<g id="edge7" class="edge">
<title>HCoil22&#45;&gt;Activate propulsor</title>
<path fill="none" stroke="red" stroke-width="0.21" d="M449.86,-181.33C435.67,-169.68 408.72,-147.54 382.95,-126.37"/>
<polygon fill="red" stroke="red" stroke-width="0.21" points="384.95,-123.48 375.01,-119.84 380.51,-128.89 384.95,-123.48"/>
</g>
<!-- VCoil12 -->
<g id="node8" class="node">
<title>VCoil12</title>
<polygon fill="lightgray" stroke="black" points="558.5,-199.66 505.5,-199.66 505.5,-181.66 558.5,-181.66 558.5,-199.66"/>
<text text-anchor="middle" x="532" y="-188.46" font-family="Times,serif" font-size="9.00">VCoil12</text>
</g>
<!-- VCoil12&#45;&gt;Activate propulsor -->
<g id="edge8" class="edge">
<title>VCoil12&#45;&gt;Activate propulsor</title>
<path fill="none" stroke="red" stroke-width="0.22" d="M517.02,-181.52C491.28,-167.52 437.04,-138.02 391.82,-113.44"/>
<polygon fill="red" stroke="red" stroke-width="0.22" points="393.37,-110.29 382.91,-108.59 390.03,-116.44 393.37,-110.29"/>
</g>
<!-- VCoil22 -->
<g id="node9" class="node">
<title>VCoil22</title>
<polygon fill="lightgray" stroke="black" points="629.5,-199.66 576.5,-199.66 576.5,-181.66 629.5,-181.66 629.5,-199.66"/>
<text text-anchor="middle" x="603" y="-188.46" font-family="Times,serif" font-size="9.00">VCoil22</text>
</g>
<!-- VCoil22&#45;&gt;Activate propulsor -->
<g id="edge9" class="edge">
<title>VCoil22&#45;&gt;Activate propulsor</title>
<path fill="none" stroke="red" stroke-width="0.22" d="M583.03,-181.52C544.72,-165.89 459.09,-130.97 395.68,-105.11"/>
<polygon fill="red" stroke="red" stroke-width="0.22" points="396.68,-101.73 386.1,-101.2 394.04,-108.22 396.68,-101.73"/>
</g>
</g>
</svg>
