<?xml version="1.0" encoding="UTF-8" standalone="no"?>
<!DOCTYPE svg PUBLIC "-//W3C//DTD SVG 1.1//EN"
 "http://www.w3.org/Graphics/SVG/1.1/DTD/svg11.dtd">
<!-- Generated by graphviz version 2.43.0 (0)
 -->
<!-- Title: %3 Pages: 1 -->
<svg width="568pt" height="293pt"
 viewBox="0.00 0.00 567.50 293.16" xmlns="http://www.w3.org/2000/svg" xmlns:xlink="http://www.w3.org/1999/xlink">
<g id="graph0" class="graph" transform="scale(1 1) rotate(0) translate(4 289.16)">
<title>%3</title>
<polygon fill="white" stroke="transparent" points="-4,4 -4,-289.16 563.5,-289.16 563.5,4 -4,4"/>
<!-- Player_height -->
<g id="node1" class="node">
<title>Player_height</title>
<polygon fill="lightgray" stroke="black" points="80,-285.16 0,-285.16 0,-267.16 80,-267.16 80,-285.16"/>
<text text-anchor="middle" x="40" y="-273.96" font-family="Times,serif" font-size="9.00">Player_height</text>
</g>
<!-- HCoil1 -->
<g id="node2" class="node">
<title>HCoil1</title>
<polygon fill="lightgray" stroke="black" points="146,-285.16 98,-285.16 98,-267.16 146,-267.16 146,-285.16"/>
<text text-anchor="middle" x="122" y="-273.96" font-family="Times,serif" font-size="9.00">HCoil1</text>
</g>
<!-- 304 -->
<g id="node11" class="node">
<title>304</title>
<ellipse fill="white" stroke="black" cx="122" cy="-206.41" rx="25" ry="25"/>
<text text-anchor="middle" x="122" y="-204.21" font-family="Times,serif" font-size="9.00">304</text>
</g>
<!-- HCoil1&#45;&gt;304 -->
<g id="edge6" class="edge">
<title>HCoil1&#45;&gt;304</title>
<path fill="none" stroke="green" stroke-width="0.24" d="M122,-267.12C122,-260.69 122,-251.19 122,-241.65"/>
<polygon fill="green" stroke="green" stroke-width="0.24" points="125.5,-241.43 122,-231.43 118.5,-241.43 125.5,-241.43"/>
</g>
<!-- HCoil2 -->
<g id="node3" class="node">
<title>HCoil2</title>
<polygon fill="lightgray" stroke="black" points="213,-215.41 165,-215.41 165,-197.41 213,-197.41 213,-215.41"/>
<text text-anchor="middle" x="189" y="-204.21" font-family="Times,serif" font-size="9.00">HCoil2</text>
</g>
<!-- Activate propulsor -->
<g id="node10" class="node">
<title>Activate propulsor</title>
<ellipse fill="lightblue" stroke="black" cx="320" cy="-72.83" rx="72.66" ry="72.66"/>
<text text-anchor="middle" x="320" y="-70.63" font-family="Times,serif" font-size="9.00">Activate propulsor</text>
</g>
<!-- HCoil2&#45;&gt;Activate propulsor -->
<g id="edge1" class="edge">
<title>HCoil2&#45;&gt;Activate propulsor</title>
<path fill="none" stroke="red" stroke-width="0.37" stroke-dasharray="1,5" d="M197.19,-197.18C210.19,-184.12 236.64,-157.56 261.68,-132.41"/>
<polygon fill="red" stroke="red" stroke-width="0.37" points="264.46,-134.58 269.03,-125.02 259.5,-129.64 264.46,-134.58"/>
</g>
<!-- VCoil1 -->
<g id="node4" class="node">
<title>VCoil1</title>
<polygon fill="lightgray" stroke="black" points="278.5,-215.41 231.5,-215.41 231.5,-197.41 278.5,-197.41 278.5,-215.41"/>
<text text-anchor="middle" x="255" y="-204.21" font-family="Times,serif" font-size="9.00">VCoil1</text>
</g>
<!-- VCoil1&#45;&gt;Activate propulsor -->
<g id="edge4" class="edge">
<title>VCoil1&#45;&gt;Activate propulsor</title>
<path fill="none" stroke="red" stroke-width="0.28" d="M259.07,-197.18C264.2,-186.79 273.56,-167.84 283.43,-147.86"/>
<polygon fill="red" stroke="red" stroke-width="0.28" points="286.69,-149.15 287.99,-138.64 280.42,-146.05 286.69,-149.15"/>
</g>
<!-- VCoil2 -->
<g id="node5" class="node">
<title>VCoil2</title>
<polygon fill="lightgray" stroke="black" points="343.5,-215.41 296.5,-215.41 296.5,-197.41 343.5,-197.41 343.5,-215.41"/>
<text text-anchor="middle" x="320" y="-204.21" font-family="Times,serif" font-size="9.00">VCoil2</text>
</g>
<!-- VCoil2&#45;&gt;Activate propulsor -->
<g id="edge5" class="edge">
<title>VCoil2&#45;&gt;Activate propulsor</title>
<path fill="none" stroke="green" stroke-width="0.3" d="M320,-197.18C320,-188.2 320,-172.82 320,-155.92"/>
<polygon fill="green" stroke="green" stroke-width="0.3" points="323.5,-155.82 320,-145.82 316.5,-155.82 323.5,-155.82"/>
</g>
<!-- HCoil12 -->
<g id="node6" class="node">
<title>HCoil12</title>
<polygon fill="lightgray" stroke="black" points="416,-215.41 362,-215.41 362,-197.41 416,-197.41 416,-215.41"/>
<text text-anchor="middle" x="389" y="-204.21" font-family="Times,serif" font-size="9.00">HCoil12</text>
</g>
<!-- HCoil12&#45;&gt;Activate propulsor -->
<g id="edge2" class="edge">
<title>HCoil12&#45;&gt;Activate propulsor</title>
<path fill="none" stroke="red" stroke-width="0.25" stroke-dasharray="1,5" d="M384.68,-197.18C379.13,-186.6 368.93,-167.13 358.23,-146.74"/>
<polygon fill="red" stroke="red" stroke-width="0.25" points="361.21,-144.89 353.47,-137.66 355.01,-148.14 361.21,-144.89"/>
</g>
<!-- HCoil22 -->
<g id="node7" class="node">
<title>HCoil22</title>
<polygon fill="lightgray" stroke="black" points="488,-215.41 434,-215.41 434,-197.41 488,-197.41 488,-215.41"/>
<text text-anchor="middle" x="461" y="-204.21" font-family="Times,serif" font-size="9.00">HCoil22</text>
</g>
<!-- HCoil22&#45;&gt;Activate propulsor -->
<g id="edge3" class="edge">
<title>HCoil22&#45;&gt;Activate propulsor</title>
<path fill="none" stroke="green" stroke-width="0.31" stroke-dasharray="1,5" d="M452.18,-197.18C437.74,-183.7 407.86,-155.83 380.17,-129.98"/>
<polygon fill="green" stroke="green" stroke-width="0.31" points="382.51,-127.38 372.81,-123.11 377.73,-132.49 382.51,-127.38"/>
</g>
<!-- VCoil12 -->
<g id="node8" class="node">
<title>VCoil12</title>
<polygon fill="lightgray" stroke="black" points="559.5,-215.41 506.5,-215.41 506.5,-197.41 559.5,-197.41 559.5,-215.41"/>
<text text-anchor="middle" x="533" y="-204.21" font-family="Times,serif" font-size="9.00">VCoil12</text>
</g>
<!-- VCoil12&#45;&gt;Activate propulsor -->
<g id="edge8" class="edge">
<title>VCoil12&#45;&gt;Activate propulsor</title>
<path fill="none" stroke="green" stroke-width="0.24" d="M521.07,-197.39C514.09,-192.73 505.09,-186.8 497,-181.66 462.42,-159.73 423.61,-135.99 391.16,-116.38"/>
<polygon fill="green" stroke="green" stroke-width="0.24" points="392.55,-113.14 382.18,-110.97 388.94,-119.13 392.55,-113.14"/>
</g>
<!-- VCoil22 -->
<g id="node9" class="node">
<title>VCoil22</title>
<polygon fill="lightgray" stroke="black" points="217.5,-285.16 164.5,-285.16 164.5,-267.16 217.5,-267.16 217.5,-285.16"/>
<text text-anchor="middle" x="191" y="-273.96" font-family="Times,serif" font-size="9.00">VCoil22</text>
</g>
<!-- 304&#45;&gt;Activate propulsor -->
<g id="edge7" class="edge">
<title>304&#45;&gt;Activate propulsor</title>
<path fill="none" stroke="red" stroke-width="0.37" d="M142.07,-191.25C146.63,-188.07 151.47,-184.73 156,-181.66 186.81,-160.78 221.18,-138.09 250.46,-118.94"/>
<polygon fill="red" stroke="red" stroke-width="0.37" points="252.52,-121.77 258.98,-113.37 248.69,-115.91 252.52,-121.77"/>
</g>
</g>
</svg>
