<?xml version="1.0" encoding="UTF-8" standalone="no"?>
<!DOCTYPE svg PUBLIC "-//W3C//DTD SVG 1.1//EN"
 "http://www.w3.org/Graphics/SVG/1.1/DTD/svg11.dtd">
<!-- Generated by graphviz version 2.43.0 (0)
 -->
<!-- Title: %3 Pages: 1 -->
<svg width="507pt" height="379pt"
 viewBox="0.00 0.00 506.75 378.66" xmlns="http://www.w3.org/2000/svg" xmlns:xlink="http://www.w3.org/1999/xlink">
<g id="graph0" class="graph" transform="scale(1 1) rotate(0) translate(4 374.66)">
<title>%3</title>
<polygon fill="white" stroke="transparent" points="-4,4 -4,-374.66 502.75,-374.66 502.75,4 -4,4"/>
<!-- Player_height -->
<g id="node1" class="node">
<title>Player_height</title>
<polygon fill="lightgray" stroke="black" points="80,-215.41 0,-215.41 0,-197.41 80,-197.41 80,-215.41"/>
<text text-anchor="middle" x="40" y="-204.21" font-family="Times,serif" font-size="9.00">Player_height</text>
</g>
<!-- Activate propulsor -->
<g id="node10" class="node">
<title>Activate propulsor</title>
<ellipse fill="lightblue" stroke="black" cx="252" cy="-72.83" rx="72.66" ry="72.66"/>
<text text-anchor="middle" x="252" y="-70.63" font-family="Times,serif" font-size="9.00">Activate propulsor</text>
</g>
<!-- Player_height&#45;&gt;Activate propulsor -->
<g id="edge13" class="edge">
<title>Player_height&#45;&gt;Activate propulsor</title>
<path fill="none" stroke="green" stroke-width="0.42" d="M52.94,-197.38C78.08,-181.78 135.12,-146.37 181.73,-117.45"/>
<polygon fill="green" stroke="green" stroke-width="0.42" points="183.65,-120.37 190.3,-112.13 179.96,-114.43 183.65,-120.37"/>
</g>
<!-- HCoil1 -->
<g id="node2" class="node">
<title>HCoil1</title>
<polygon fill="lightgray" stroke="black" points="147,-370.66 99,-370.66 99,-352.66 147,-352.66 147,-370.66"/>
<text text-anchor="middle" x="123" y="-359.46" font-family="Times,serif" font-size="9.00">HCoil1</text>
</g>
<!-- HCoil1&#45;&gt;Activate propulsor -->
<g id="edge1" class="edge">
<title>HCoil1&#45;&gt;Activate propulsor</title>
<path fill="none" stroke="red" stroke-width="0.3" stroke-dasharray="1,5" d="M123.05,-352.33C123.52,-325.91 127.39,-242.18 157,-181.66 165.87,-163.53 178.62,-146.09 191.91,-130.72"/>
<polygon fill="red" stroke="red" stroke-width="0.3" points="194.86,-132.67 198.9,-122.87 189.63,-128.02 194.86,-132.67"/>
</g>
<!-- 309 -->
<g id="node12" class="node">
<title>309</title>
<ellipse fill="white" stroke="black" cx="180" cy="-291.91" rx="25" ry="25"/>
<text text-anchor="middle" x="180" y="-289.71" font-family="Times,serif" font-size="9.00">309</text>
</g>
<!-- HCoil1&#45;&gt;309 -->
<g id="edge6" class="edge">
<title>HCoil1&#45;&gt;309</title>
<path fill="none" stroke="green" stroke-width="0.63" d="M129.76,-352.62C136.66,-344.42 147.75,-331.24 157.75,-319.35"/>
<polygon fill="green" stroke="green" stroke-width="0.63" points="160.68,-321.31 164.44,-311.4 155.33,-316.8 160.68,-321.31"/>
</g>
<!-- HCoil2 -->
<g id="node3" class="node">
<title>HCoil2</title>
<polygon fill="lightgray" stroke="black" points="299,-370.66 251,-370.66 251,-352.66 299,-352.66 299,-370.66"/>
<text text-anchor="middle" x="275" y="-359.46" font-family="Times,serif" font-size="9.00">HCoil2</text>
</g>
<!-- VCoil1 -->
<g id="node4" class="node">
<title>VCoil1</title>
<polygon fill="lightgray" stroke="black" points="327.5,-215.41 280.5,-215.41 280.5,-197.41 327.5,-197.41 327.5,-215.41"/>
<text text-anchor="middle" x="304" y="-204.21" font-family="Times,serif" font-size="9.00">VCoil1</text>
</g>
<!-- VCoil1&#45;&gt;Activate propulsor -->
<g id="edge2" class="edge">
<title>VCoil1&#45;&gt;Activate propulsor</title>
<path fill="none" stroke="red" stroke-width="0.52" d="M300.75,-197.18C296.81,-187.22 289.77,-169.4 282.24,-150.35"/>
<polygon fill="red" stroke="red" stroke-width="0.52" points="285.45,-148.94 278.52,-140.93 278.94,-151.51 285.45,-148.94"/>
</g>
<!-- VCoil2 -->
<g id="node5" class="node">
<title>VCoil2</title>
<polygon fill="lightgray" stroke="black" points="392.5,-215.41 345.5,-215.41 345.5,-197.41 392.5,-197.41 392.5,-215.41"/>
<text text-anchor="middle" x="369" y="-204.21" font-family="Times,serif" font-size="9.00">VCoil2</text>
</g>
<!-- VCoil2&#45;&gt;Activate propulsor -->
<g id="edge3" class="edge">
<title>VCoil2&#45;&gt;Activate propulsor</title>
<path fill="none" stroke="green" stroke-width="0.88" d="M361.68,-197.18C350.53,-184.64 328.29,-159.63 306.74,-135.39"/>
<polygon fill="green" stroke="green" stroke-width="0.88" points="309.35,-133.06 300.09,-127.91 304.12,-137.71 309.35,-133.06"/>
</g>
<!-- HCoil12 -->
<g id="node6" class="node">
<title>HCoil12</title>
<polygon fill="lightgray" stroke="black" points="371,-370.66 317,-370.66 317,-352.66 371,-352.66 371,-370.66"/>
<text text-anchor="middle" x="344" y="-359.46" font-family="Times,serif" font-size="9.00">HCoil12</text>
</g>
<!-- HCoil22 -->
<g id="node7" class="node">
<title>HCoil22</title>
<polygon fill="lightgray" stroke="black" points="474,-300.91 420,-300.91 420,-282.91 474,-282.91 474,-300.91"/>
<text text-anchor="middle" x="447" y="-289.71" font-family="Times,serif" font-size="9.00">HCoil22</text>
</g>
<!-- HCoil22&#45;&gt;Activate propulsor -->
<g id="edge5" class="edge">
<title>HCoil22&#45;&gt;Activate propulsor</title>
<path fill="none" stroke="green" stroke-width="0.13" stroke-dasharray="1,5" d="M445.18,-282.72C440.55,-263.41 426.86,-214.21 401,-181.66 380.03,-155.27 351.01,-132.31 324.15,-114.43"/>
<polygon fill="green" stroke="green" stroke-width="0.13" points="325.81,-111.34 315.52,-108.81 321.99,-117.2 325.81,-111.34"/>
</g>
<!-- 370 -->
<g id="node11" class="node">
<title>370</title>
<ellipse fill="white" stroke="black" cx="474" cy="-206.41" rx="25" ry="25"/>
<text text-anchor="middle" x="474" y="-204.21" font-family="Times,serif" font-size="9.00">370</text>
</g>
<!-- HCoil22&#45;&gt;370 -->
<g id="edge8" class="edge">
<title>HCoil22&#45;&gt;370</title>
<path fill="none" stroke="green" stroke-width="0.17" d="M449.59,-282.9C452.77,-273.06 458.37,-255.74 463.41,-240.17"/>
<polygon fill="green" stroke="green" stroke-width="0.17" points="466.86,-240.88 466.6,-230.29 460.2,-238.73 466.86,-240.88"/>
</g>
<!-- VCoil12 -->
<g id="node8" class="node">
<title>VCoil12</title>
<polygon fill="lightgray" stroke="black" points="442.5,-370.66 389.5,-370.66 389.5,-352.66 442.5,-352.66 442.5,-370.66"/>
<text text-anchor="middle" x="416" y="-359.46" font-family="Times,serif" font-size="9.00">VCoil12</text>
</g>
<!-- VCoil22 -->
<g id="node9" class="node">
<title>VCoil22</title>
<polygon fill="lightgray" stroke="black" points="232.5,-370.66 179.5,-370.66 179.5,-352.66 232.5,-352.66 232.5,-370.66"/>
<text text-anchor="middle" x="206" y="-359.46" font-family="Times,serif" font-size="9.00">VCoil22</text>
</g>
<!-- VCoil22&#45;&gt;Activate propulsor -->
<g id="edge4" class="edge">
<title>VCoil22&#45;&gt;Activate propulsor</title>
<path fill="none" stroke="green" stroke-width="0.69" stroke-dasharray="1,5" d="M207.95,-352.52C212.77,-332.17 225.4,-277.39 233,-231.16 237,-206.81 240.53,-180.21 243.43,-155.93"/>
<polygon fill="green" stroke="green" stroke-width="0.69" points="246.94,-156.02 244.63,-145.68 239.99,-155.2 246.94,-156.02"/>
</g>
<!-- VCoil22&#45;&gt;309 -->
<g id="edge10" class="edge">
<title>VCoil22&#45;&gt;309</title>
<path fill="none" stroke="green" stroke-width="0.33" d="M202.92,-352.62C200.22,-345.59 196.12,-334.9 192.12,-324.5"/>
<polygon fill="green" stroke="green" stroke-width="0.33" points="195.38,-323.23 188.53,-315.15 188.85,-325.74 195.38,-323.23"/>
</g>
<!-- 370&#45;&gt;Activate propulsor -->
<g id="edge9" class="edge">
<title>370&#45;&gt;Activate propulsor</title>
<path fill="none" stroke="green" stroke-width="0.62" d="M452.98,-192.54C447.17,-189 440.85,-185.17 435,-181.66 398.41,-159.74 357.53,-135.62 323.7,-115.76"/>
<polygon fill="green" stroke="green" stroke-width="0.62" points="325.2,-112.58 314.81,-110.54 321.66,-118.62 325.2,-112.58"/>
</g>
<!-- 309&#45;&gt;Activate propulsor -->
<g id="edge7" class="edge">
<title>309&#45;&gt;Activate propulsor</title>
<path fill="none" stroke="green" stroke-width="0.21" d="M170.95,-268.53C163.21,-246 154.8,-210.55 165,-181.66 171.25,-163.96 181.78,-147.03 193.39,-132.05"/>
<polygon fill="green" stroke="green" stroke-width="0.21" points="196.38,-133.91 199.93,-123.93 190.93,-129.52 196.38,-133.91"/>
</g>
<!-- 416 -->
<g id="node13" class="node">
<title>416</title>
<ellipse fill="white" stroke="black" cx="199" cy="-206.41" rx="25" ry="25"/>
<text text-anchor="middle" x="199" y="-204.21" font-family="Times,serif" font-size="9.00">416</text>
</g>
<!-- 309&#45;&gt;416 -->
<g id="edge11" class="edge">
<title>309&#45;&gt;416</title>
<path fill="none" stroke="red" stroke-width="0.22" d="M185.29,-267.65C187.19,-259.31 189.37,-249.73 191.43,-240.7"/>
<polygon fill="red" stroke="red" stroke-width="0.22" points="194.86,-241.36 193.67,-230.84 188.04,-239.81 194.86,-241.36"/>
</g>
<!-- 416&#45;&gt;Activate propulsor -->
<g id="edge12" class="edge">
<title>416&#45;&gt;Activate propulsor</title>
<path fill="none" stroke="green" stroke-width="0.2" d="M207.99,-183.09C211.8,-173.63 216.49,-161.99 221.37,-149.87"/>
<polygon fill="green" stroke="green" stroke-width="0.2" points="224.64,-151.13 225.13,-140.55 218.14,-148.52 224.64,-151.13"/>
</g>
</g>
</svg>
