<?xml version="1.0" encoding="UTF-8" standalone="no"?>
<!DOCTYPE svg PUBLIC "-//W3C//DTD SVG 1.1//EN"
 "http://www.w3.org/Graphics/SVG/1.1/DTD/svg11.dtd">
<!-- Generated by graphviz version 2.43.0 (0)
 -->
<!-- Title: %3 Pages: 1 -->
<svg width="622pt" height="293pt"
 viewBox="0.00 0.00 621.50 293.16" xmlns="http://www.w3.org/2000/svg" xmlns:xlink="http://www.w3.org/1999/xlink">
<g id="graph0" class="graph" transform="scale(1 1) rotate(0) translate(4 289.16)">
<title>%3</title>
<polygon fill="white" stroke="transparent" points="-4,4 -4,-289.16 617.5,-289.16 617.5,4 -4,4"/>
<!-- Player_height -->
<g id="node1" class="node">
<title>Player_height</title>
<polygon fill="lightgray" stroke="black" points="80,-285.16 0,-285.16 0,-267.16 80,-267.16 80,-285.16"/>
<text text-anchor="middle" x="40" y="-273.96" font-family="Times,serif" font-size="9.00">Player_height</text>
</g>
<!-- HCoil1 -->
<g id="node2" class="node">
<title>HCoil1</title>
<polygon fill="lightgray" stroke="black" points="146,-285.16 98,-285.16 98,-267.16 146,-267.16 146,-285.16"/>
<text text-anchor="middle" x="122" y="-273.96" font-family="Times,serif" font-size="9.00">HCoil1</text>
</g>
<!-- HCoil2 -->
<g id="node3" class="node">
<title>HCoil2</title>
<polygon fill="lightgray" stroke="black" points="212,-285.16 164,-285.16 164,-267.16 212,-267.16 212,-285.16"/>
<text text-anchor="middle" x="188" y="-273.96" font-family="Times,serif" font-size="9.00">HCoil2</text>
</g>
<!-- 485 -->
<g id="node12" class="node">
<title>485</title>
<ellipse fill="white" stroke="black" cx="201" cy="-206.41" rx="25" ry="25"/>
<text text-anchor="middle" x="201" y="-204.21" font-family="Times,serif" font-size="9.00">485</text>
</g>
<!-- HCoil2&#45;&gt;485 -->
<g id="edge4" class="edge">
<title>HCoil2&#45;&gt;485</title>
<path fill="none" stroke="green" stroke-width="0.28" d="M189.54,-267.12C190.81,-260.52 192.7,-250.68 194.58,-240.89"/>
<polygon fill="green" stroke="green" stroke-width="0.28" points="198.06,-241.32 196.51,-230.84 191.18,-240 198.06,-241.32"/>
</g>
<!-- VCoil1 -->
<g id="node4" class="node">
<title>VCoil1</title>
<polygon fill="lightgray" stroke="black" points="277.5,-285.16 230.5,-285.16 230.5,-267.16 277.5,-267.16 277.5,-285.16"/>
<text text-anchor="middle" x="254" y="-273.96" font-family="Times,serif" font-size="9.00">VCoil1</text>
</g>
<!-- Activate propulsor -->
<g id="node10" class="node">
<title>Activate propulsor</title>
<ellipse fill="lightblue" stroke="black" cx="306" cy="-72.83" rx="72.66" ry="72.66"/>
<text text-anchor="middle" x="306" y="-70.63" font-family="Times,serif" font-size="9.00">Activate propulsor</text>
</g>
<!-- VCoil1&#45;&gt;Activate propulsor -->
<g id="edge1" class="edge">
<title>VCoil1&#45;&gt;Activate propulsor</title>
<path fill="none" stroke="red" stroke-width="0.58" d="M255.55,-266.86C258.66,-250.47 266.05,-212.87 274,-181.66 276.42,-172.16 279.13,-162.22 281.91,-152.4"/>
<polygon fill="red" stroke="red" stroke-width="0.58" points="285.32,-153.22 284.71,-142.64 278.59,-151.29 285.32,-153.22"/>
</g>
<!-- VCoil1&#45;&gt;485 -->
<g id="edge8" class="edge">
<title>VCoil1&#45;&gt;485</title>
<path fill="none" stroke="red" stroke-width="0.37" d="M247.71,-267.12C241.38,-259.04 231.27,-246.11 222.07,-234.35"/>
<polygon fill="red" stroke="red" stroke-width="0.37" points="224.83,-232.19 215.91,-226.47 219.31,-236.5 224.83,-232.19"/>
</g>
<!-- VCoil2 -->
<g id="node5" class="node">
<title>VCoil2</title>
<polygon fill="lightgray" stroke="black" points="329.5,-215.41 282.5,-215.41 282.5,-197.41 329.5,-197.41 329.5,-215.41"/>
<text text-anchor="middle" x="306" y="-204.21" font-family="Times,serif" font-size="9.00">VCoil2</text>
</g>
<!-- VCoil2&#45;&gt;Activate propulsor -->
<g id="edge2" class="edge">
<title>VCoil2&#45;&gt;Activate propulsor</title>
<path fill="none" stroke="green" stroke-width="0.78" d="M306,-197.18C306,-188.2 306,-172.82 306,-155.92"/>
<polygon fill="green" stroke="green" stroke-width="0.78" points="309.5,-155.82 306,-145.82 302.5,-155.82 309.5,-155.82"/>
</g>
<!-- HCoil12 -->
<g id="node6" class="node">
<title>HCoil12</title>
<polygon fill="lightgray" stroke="black" points="470,-285.16 416,-285.16 416,-267.16 470,-267.16 470,-285.16"/>
<text text-anchor="middle" x="443" y="-273.96" font-family="Times,serif" font-size="9.00">HCoil12</text>
</g>
<!-- 521 -->
<g id="node11" class="node">
<title>521</title>
<ellipse fill="white" stroke="black" cx="443" cy="-206.41" rx="25" ry="25"/>
<text text-anchor="middle" x="443" y="-204.21" font-family="Times,serif" font-size="9.00">521</text>
</g>
<!-- HCoil12&#45;&gt;521 -->
<g id="edge6" class="edge">
<title>HCoil12&#45;&gt;521</title>
<path fill="none" stroke="green" stroke-width="0.19" d="M443,-267.12C443,-260.69 443,-251.19 443,-241.65"/>
<polygon fill="green" stroke="green" stroke-width="0.19" points="446.5,-241.43 443,-231.43 439.5,-241.43 446.5,-241.43"/>
</g>
<!-- HCoil22 -->
<g id="node7" class="node">
<title>HCoil22</title>
<polygon fill="lightgray" stroke="black" points="542,-285.16 488,-285.16 488,-267.16 542,-267.16 542,-285.16"/>
<text text-anchor="middle" x="515" y="-273.96" font-family="Times,serif" font-size="9.00">HCoil22</text>
</g>
<!-- VCoil12 -->
<g id="node8" class="node">
<title>VCoil12</title>
<polygon fill="lightgray" stroke="black" points="613.5,-285.16 560.5,-285.16 560.5,-267.16 613.5,-267.16 613.5,-285.16"/>
<text text-anchor="middle" x="587" y="-273.96" font-family="Times,serif" font-size="9.00">VCoil12</text>
</g>
<!-- VCoil22 -->
<g id="node9" class="node">
<title>VCoil22</title>
<polygon fill="lightgray" stroke="black" points="400.5,-215.41 347.5,-215.41 347.5,-197.41 400.5,-197.41 400.5,-215.41"/>
<text text-anchor="middle" x="374" y="-204.21" font-family="Times,serif" font-size="9.00">VCoil22</text>
</g>
<!-- VCoil22&#45;&gt;Activate propulsor -->
<g id="edge3" class="edge">
<title>VCoil22&#45;&gt;Activate propulsor</title>
<path fill="none" stroke="green" stroke-width="0.23" d="M369.75,-197.18C364.3,-186.64 354.31,-167.31 343.83,-147.03"/>
<polygon fill="green" stroke="green" stroke-width="0.23" points="346.85,-145.26 339.15,-137.99 340.64,-148.48 346.85,-145.26"/>
</g>
<!-- 521&#45;&gt;Activate propulsor -->
<g id="edge7" class="edge">
<title>521&#45;&gt;Activate propulsor</title>
<path fill="none" stroke="green" stroke-width="0.81" d="M425.65,-188.75C410.45,-174.15 387.44,-152.05 365.64,-131.12"/>
<polygon fill="green" stroke="green" stroke-width="0.81" points="367.95,-128.48 358.31,-124.07 363.1,-133.53 367.95,-128.48"/>
</g>
<!-- 485&#45;&gt;Activate propulsor -->
<g id="edge5" class="edge">
<title>485&#45;&gt;Activate propulsor</title>
<path fill="none" stroke="red" stroke-width="0.31" d="M216.04,-186.56C226.27,-173.74 240.46,-155.97 254.54,-138.31"/>
<polygon fill="red" stroke="red" stroke-width="0.31" points="257.49,-140.23 260.99,-130.23 252.02,-135.86 257.49,-140.23"/>
</g>
</g>
</svg>
