<?xml version="1.0" encoding="UTF-8" standalone="no"?>
<!DOCTYPE svg PUBLIC "-//W3C//DTD SVG 1.1//EN"
 "http://www.w3.org/Graphics/SVG/1.1/DTD/svg11.dtd">
<!-- Generated by graphviz version 2.43.0 (0)
 -->
<!-- Title: %3 Pages: 1 -->
<svg width="638pt" height="208pt"
 viewBox="0.00 0.00 637.50 207.66" xmlns="http://www.w3.org/2000/svg" xmlns:xlink="http://www.w3.org/1999/xlink">
<g id="graph0" class="graph" transform="scale(1 1) rotate(0) translate(4 203.66)">
<title>%3</title>
<polygon fill="white" stroke="transparent" points="-4,4 -4,-203.66 633.5,-203.66 633.5,4 -4,4"/>
<!-- Player_height -->
<g id="node1" class="node">
<title>Player_height</title>
<polygon fill="lightgray" stroke="black" points="80,-199.66 0,-199.66 0,-181.66 80,-181.66 80,-199.66"/>
<text text-anchor="middle" x="40" y="-188.46" font-family="Times,serif" font-size="9.00">Player_height</text>
</g>
<!-- HCoil1 -->
<g id="node2" class="node">
<title>HCoil1</title>
<polygon fill="lightgray" stroke="black" points="146,-199.66 98,-199.66 98,-181.66 146,-181.66 146,-199.66"/>
<text text-anchor="middle" x="122" y="-188.46" font-family="Times,serif" font-size="9.00">HCoil1</text>
</g>
<!-- HCoil2 -->
<g id="node3" class="node">
<title>HCoil2</title>
<polygon fill="lightgray" stroke="black" points="212,-199.66 164,-199.66 164,-181.66 212,-181.66 212,-199.66"/>
<text text-anchor="middle" x="188" y="-188.46" font-family="Times,serif" font-size="9.00">HCoil2</text>
</g>
<!-- Activate propulsor -->
<g id="node10" class="node">
<title>Activate propulsor</title>
<ellipse fill="lightblue" stroke="black" cx="286" cy="-72.83" rx="72.66" ry="72.66"/>
<text text-anchor="middle" x="286" y="-70.63" font-family="Times,serif" font-size="9.00">Activate propulsor</text>
</g>
<!-- HCoil2&#45;&gt;Activate propulsor -->
<g id="edge1" class="edge">
<title>HCoil2&#45;&gt;Activate propulsor</title>
<path fill="none" stroke="red" stroke-width="0.16" stroke-dasharray="1,5" d="M195.05,-181.33C203.23,-171.66 217.51,-154.78 232.37,-137.22"/>
<polygon fill="red" stroke="red" stroke-width="0.16" points="235.43,-139.02 239.22,-129.13 230.09,-134.5 235.43,-139.02"/>
</g>
<!-- VCoil1 -->
<g id="node4" class="node">
<title>VCoil1</title>
<polygon fill="lightgray" stroke="black" points="277.5,-199.66 230.5,-199.66 230.5,-181.66 277.5,-181.66 277.5,-199.66"/>
<text text-anchor="middle" x="254" y="-188.46" font-family="Times,serif" font-size="9.00">VCoil1</text>
</g>
<!-- VCoil1&#45;&gt;Activate propulsor -->
<g id="edge2" class="edge">
<title>VCoil1&#45;&gt;Activate propulsor</title>
<path fill="none" stroke="red" stroke-width="0.6" d="M256.3,-181.33C258.15,-174.65 260.95,-164.51 264.1,-153.09"/>
<polygon fill="red" stroke="red" stroke-width="0.6" points="267.54,-153.81 266.82,-143.24 260.79,-151.95 267.54,-153.81"/>
</g>
<!-- VCoil2 -->
<g id="node5" class="node">
<title>VCoil2</title>
<polygon fill="lightgray" stroke="black" points="342.5,-199.66 295.5,-199.66 295.5,-181.66 342.5,-181.66 342.5,-199.66"/>
<text text-anchor="middle" x="319" y="-188.46" font-family="Times,serif" font-size="9.00">VCoil2</text>
</g>
<!-- VCoil2&#45;&gt;Activate propulsor -->
<g id="edge3" class="edge">
<title>VCoil2&#45;&gt;Activate propulsor</title>
<path fill="none" stroke="green" stroke-width="0.7" d="M316.63,-181.33C314.71,-174.61 311.8,-164.39 308.52,-152.88"/>
<polygon fill="green" stroke="green" stroke-width="0.7" points="311.8,-151.62 305.7,-142.96 305.07,-153.54 311.8,-151.62"/>
</g>
<!-- HCoil12 -->
<g id="node6" class="node">
<title>HCoil12</title>
<polygon fill="lightgray" stroke="black" points="486,-199.66 432,-199.66 432,-181.66 486,-181.66 486,-199.66"/>
<text text-anchor="middle" x="459" y="-188.46" font-family="Times,serif" font-size="9.00">HCoil12</text>
</g>
<!-- HCoil22 -->
<g id="node7" class="node">
<title>HCoil22</title>
<polygon fill="lightgray" stroke="black" points="558,-199.66 504,-199.66 504,-181.66 558,-181.66 558,-199.66"/>
<text text-anchor="middle" x="531" y="-188.46" font-family="Times,serif" font-size="9.00">HCoil22</text>
</g>
<!-- VCoil12 -->
<g id="node8" class="node">
<title>VCoil12</title>
<polygon fill="lightgray" stroke="black" points="629.5,-199.66 576.5,-199.66 576.5,-181.66 629.5,-181.66 629.5,-199.66"/>
<text text-anchor="middle" x="603" y="-188.46" font-family="Times,serif" font-size="9.00">VCoil12</text>
</g>
<!-- VCoil22 -->
<g id="node9" class="node">
<title>VCoil22</title>
<polygon fill="lightgray" stroke="black" points="413.5,-199.66 360.5,-199.66 360.5,-181.66 413.5,-181.66 413.5,-199.66"/>
<text text-anchor="middle" x="387" y="-188.46" font-family="Times,serif" font-size="9.00">VCoil22</text>
</g>
<!-- VCoil22&#45;&gt;Activate propulsor -->
<g id="edge4" class="edge">
<title>VCoil22&#45;&gt;Activate propulsor</title>
<path fill="none" stroke="green" stroke-width="0.5" d="M379.74,-181.33C371.11,-171.44 355.9,-154 340.21,-136"/>
<polygon fill="green" stroke="green" stroke-width="0.5" points="342.68,-133.51 333.47,-128.28 337.41,-138.11 342.68,-133.51"/>
</g>
</g>
</svg>
