<?xml version="1.0" encoding="UTF-8" standalone="no"?>
<!DOCTYPE svg PUBLIC "-//W3C//DTD SVG 1.1//EN"
 "http://www.w3.org/Graphics/SVG/1.1/DTD/svg11.dtd">
<!-- Generated by graphviz version 2.43.0 (0)
 -->
<!-- Title: %3 Pages: 1 -->
<svg width="579pt" height="379pt"
 viewBox="0.00 0.00 578.50 378.66" xmlns="http://www.w3.org/2000/svg" xmlns:xlink="http://www.w3.org/1999/xlink">
<g id="graph0" class="graph" transform="scale(1 1) rotate(0) translate(4 374.66)">
<title>%3</title>
<polygon fill="white" stroke="transparent" points="-4,4 -4,-374.66 574.5,-374.66 574.5,4 -4,4"/>
<!-- Player_height -->
<g id="node1" class="node">
<title>Player_height</title>
<polygon fill="lightgray" stroke="black" points="80,-215.41 0,-215.41 0,-197.41 80,-197.41 80,-215.41"/>
<text text-anchor="middle" x="40" y="-204.21" font-family="Times,serif" font-size="9.00">Player_height</text>
</g>
<!-- Activate propulsor -->
<g id="node10" class="node">
<title>Activate propulsor</title>
<ellipse fill="lightblue" stroke="black" cx="221" cy="-72.83" rx="72.66" ry="72.66"/>
<text text-anchor="middle" x="221" y="-70.63" font-family="Times,serif" font-size="9.00">Activate propulsor</text>
</g>
<!-- Player_height&#45;&gt;Activate propulsor -->
<g id="edge1" class="edge">
<title>Player_height&#45;&gt;Activate propulsor</title>
<path fill="none" stroke="green" stroke-width="0.32" d="M51.05,-197.38C71.33,-182.64 115.93,-150.21 154.36,-122.28"/>
<polygon fill="green" stroke="green" stroke-width="0.32" points="156.42,-125.1 162.45,-116.39 152.31,-119.44 156.42,-125.1"/>
</g>
<!-- HCoil1 -->
<g id="node2" class="node">
<title>HCoil1</title>
<polygon fill="lightgray" stroke="black" points="431,-370.66 383,-370.66 383,-352.66 431,-352.66 431,-370.66"/>
<text text-anchor="middle" x="407" y="-359.46" font-family="Times,serif" font-size="9.00">HCoil1</text>
</g>
<!-- 163 -->
<g id="node11" class="node">
<title>163</title>
<ellipse fill="white" stroke="black" cx="417" cy="-206.41" rx="25" ry="25"/>
<text text-anchor="middle" x="417" y="-204.21" font-family="Times,serif" font-size="9.00">163</text>
</g>
<!-- HCoil1&#45;&gt;163 -->
<g id="edge8" class="edge">
<title>HCoil1&#45;&gt;163</title>
<path fill="none" stroke="red" stroke-width="0.47" stroke-dasharray="1,5" d="M407.54,-352.42C408.88,-331.88 412.43,-277.47 414.78,-241.45"/>
<polygon fill="red" stroke="red" stroke-width="0.47" points="418.28,-241.58 415.44,-231.37 411.29,-241.12 418.28,-241.58"/>
</g>
<!-- 405 -->
<g id="node12" class="node">
<title>405</title>
<ellipse fill="white" stroke="black" cx="364" cy="-291.91" rx="25" ry="25"/>
<text text-anchor="middle" x="364" y="-289.71" font-family="Times,serif" font-size="9.00">405</text>
</g>
<!-- HCoil1&#45;&gt;405 -->
<g id="edge9" class="edge">
<title>HCoil1&#45;&gt;405</title>
<path fill="none" stroke="red" stroke-width="0.19" d="M401.9,-352.62C397.05,-344.99 389.47,-333.04 382.36,-321.84"/>
<polygon fill="red" stroke="red" stroke-width="0.19" points="385.13,-319.68 376.82,-313.11 379.22,-323.43 385.13,-319.68"/>
</g>
<!-- HCoil2 -->
<g id="node3" class="node">
<title>HCoil2</title>
<polygon fill="lightgray" stroke="black" points="497,-370.66 449,-370.66 449,-352.66 497,-352.66 497,-370.66"/>
<text text-anchor="middle" x="473" y="-359.46" font-family="Times,serif" font-size="9.00">HCoil2</text>
</g>
<!-- VCoil1 -->
<g id="node4" class="node">
<title>VCoil1</title>
<polygon fill="lightgray" stroke="black" points="145.5,-215.41 98.5,-215.41 98.5,-197.41 145.5,-197.41 145.5,-215.41"/>
<text text-anchor="middle" x="122" y="-204.21" font-family="Times,serif" font-size="9.00">VCoil1</text>
</g>
<!-- VCoil1&#45;&gt;Activate propulsor -->
<g id="edge2" class="edge">
<title>VCoil1&#45;&gt;Activate propulsor</title>
<path fill="none" stroke="green" stroke-width="0.2" d="M128.19,-197.18C137.09,-185.35 154.33,-162.45 171.56,-139.55"/>
<polygon fill="green" stroke="green" stroke-width="0.2" points="174.42,-141.56 177.63,-131.47 168.83,-137.36 174.42,-141.56"/>
</g>
<!-- VCoil2 -->
<g id="node5" class="node">
<title>VCoil2</title>
<polygon fill="lightgray" stroke="black" points="210.5,-215.41 163.5,-215.41 163.5,-197.41 210.5,-197.41 210.5,-215.41"/>
<text text-anchor="middle" x="187" y="-204.21" font-family="Times,serif" font-size="9.00">VCoil2</text>
</g>
<!-- VCoil2&#45;&gt;Activate propulsor -->
<g id="edge3" class="edge">
<title>VCoil2&#45;&gt;Activate propulsor</title>
<path fill="none" stroke="green" stroke-width="0.39" d="M189.13,-197.18C191.56,-187.78 195.79,-171.38 200.4,-153.56"/>
<polygon fill="green" stroke="green" stroke-width="0.39" points="203.87,-154.1 202.99,-143.54 197.1,-152.34 203.87,-154.1"/>
</g>
<!-- HCoil12 -->
<g id="node6" class="node">
<title>HCoil12</title>
<polygon fill="lightgray" stroke="black" points="283,-215.41 229,-215.41 229,-197.41 283,-197.41 283,-215.41"/>
<text text-anchor="middle" x="256" y="-204.21" font-family="Times,serif" font-size="9.00">HCoil12</text>
</g>
<!-- HCoil12&#45;&gt;Activate propulsor -->
<g id="edge4" class="edge">
<title>HCoil12&#45;&gt;Activate propulsor</title>
<path fill="none" stroke="green" stroke-width="0.39" stroke-dasharray="1,5" d="M253.81,-197.18C251.31,-187.78 246.95,-171.38 242.21,-153.56"/>
<polygon fill="green" stroke="green" stroke-width="0.39" points="245.49,-152.3 239.54,-143.54 238.73,-154.1 245.49,-152.3"/>
</g>
<!-- HCoil22 -->
<g id="node7" class="node">
<title>HCoil22</title>
<polygon fill="lightgray" stroke="black" points="499,-300.91 445,-300.91 445,-282.91 499,-282.91 499,-300.91"/>
<text text-anchor="middle" x="472" y="-289.71" font-family="Times,serif" font-size="9.00">HCoil22</text>
</g>
<!-- HCoil22&#45;&gt;163 -->
<g id="edge12" class="edge">
<title>HCoil22&#45;&gt;163</title>
<path fill="none" stroke="red" stroke-width="0.14" d="M466.73,-282.9C459.69,-272.23 446.87,-252.76 436.01,-236.27"/>
<polygon fill="red" stroke="red" stroke-width="0.14" points="438.64,-233.91 430.22,-227.48 432.8,-237.76 438.64,-233.91"/>
</g>
<!-- VCoil12 -->
<g id="node8" class="node">
<title>VCoil12</title>
<polygon fill="lightgray" stroke="black" points="355.5,-370.66 302.5,-370.66 302.5,-352.66 355.5,-352.66 355.5,-370.66"/>
<text text-anchor="middle" x="329" y="-359.46" font-family="Times,serif" font-size="9.00">VCoil12</text>
</g>
<!-- VCoil12&#45;&gt;Activate propulsor -->
<g id="edge5" class="edge">
<title>VCoil12&#45;&gt;Activate propulsor</title>
<path fill="none" stroke="green" stroke-width="0.28" d="M328.41,-352.49C326.31,-326.55 317.89,-244.1 292,-181.66 286.15,-167.57 278.4,-153.34 270.16,-140.05"/>
<polygon fill="green" stroke="green" stroke-width="0.28" points="273.01,-138.02 264.69,-131.46 267.11,-141.78 273.01,-138.02"/>
</g>
<!-- VCoil12&#45;&gt;405 -->
<g id="edge11" class="edge">
<title>VCoil12&#45;&gt;405</title>
<path fill="none" stroke="red" stroke-width="0.12" d="M333.15,-352.62C336.91,-345.36 342.68,-334.19 348.21,-323.47"/>
<polygon fill="red" stroke="red" stroke-width="0.12" points="351.49,-324.76 352.97,-314.27 345.27,-321.55 351.49,-324.76"/>
</g>
<!-- VCoil22 -->
<g id="node9" class="node">
<title>VCoil22</title>
<polygon fill="lightgray" stroke="black" points="570.5,-300.91 517.5,-300.91 517.5,-282.91 570.5,-282.91 570.5,-300.91"/>
<text text-anchor="middle" x="544" y="-289.71" font-family="Times,serif" font-size="9.00">VCoil22</text>
</g>
<!-- VCoil22&#45;&gt;163 -->
<g id="edge6" class="edge">
<title>VCoil22&#45;&gt;163</title>
<path fill="none" stroke="green" stroke-width="0.26" stroke-dasharray="1,5" d="M531.67,-282.77C524.72,-278.18 515.88,-272.35 508,-267.16 487.3,-253.54 463.92,-238.19 446.05,-226.46"/>
<polygon fill="green" stroke="green" stroke-width="0.26" points="447.53,-223.25 437.25,-220.69 443.69,-229.1 447.53,-223.25"/>
</g>
<!-- 163&#45;&gt;Activate propulsor -->
<g id="edge7" class="edge">
<title>163&#45;&gt;Activate propulsor</title>
<path fill="none" stroke="green" stroke-width="0.54" d="M396.76,-191.83C371.67,-174.98 327.58,-145.38 289.84,-120.05"/>
<polygon fill="green" stroke="green" stroke-width="0.54" points="291.65,-117.05 281.4,-114.38 287.75,-122.86 291.65,-117.05"/>
</g>
<!-- 405&#45;&gt;163 -->
<g id="edge10" class="edge">
<title>405&#45;&gt;163</title>
<path fill="none" stroke="red" stroke-width="0.23" d="M376.83,-270.7C383.36,-260.42 391.41,-247.73 398.58,-236.43"/>
<polygon fill="red" stroke="red" stroke-width="0.23" points="401.7,-238.05 404.1,-227.73 395.79,-234.3 401.7,-238.05"/>
</g>
</g>
</svg>
