<?xml version="1.0" encoding="UTF-8" standalone="no"?>
<!DOCTYPE svg PUBLIC "-//W3C//DTD SVG 1.1//EN"
 "http://www.w3.org/Graphics/SVG/1.1/DTD/svg11.dtd">
<!-- Generated by graphviz version 2.43.0 (0)
 -->
<!-- Title: %3 Pages: 1 -->
<svg width="706pt" height="239pt"
 viewBox="0.00 0.00 705.75 239.16" xmlns="http://www.w3.org/2000/svg" xmlns:xlink="http://www.w3.org/1999/xlink">
<g id="graph0" class="graph" transform="scale(1 1) rotate(0) translate(4 235.16)">
<title>%3</title>
<polygon fill="white" stroke="transparent" points="-4,4 -4,-235.16 701.75,-235.16 701.75,4 -4,4"/>
<!-- Player_height -->
<g id="node1" class="node">
<title>Player_height</title>
<polygon fill="lightgray" stroke="black" points="80,-215.41 0,-215.41 0,-197.41 80,-197.41 80,-215.41"/>
<text text-anchor="middle" x="40" y="-204.21" font-family="Times,serif" font-size="9.00">Player_height</text>
</g>
<!-- Activate propulsor -->
<g id="node10" class="node">
<title>Activate propulsor</title>
<ellipse fill="lightblue" stroke="black" cx="122" cy="-72.83" rx="72.66" ry="72.66"/>
<text text-anchor="middle" x="122" y="-70.63" font-family="Times,serif" font-size="9.00">Activate propulsor</text>
</g>
<!-- Player_height&#45;&gt;Activate propulsor -->
<g id="edge1" class="edge">
<title>Player_height&#45;&gt;Activate propulsor</title>
<path fill="none" stroke="green" stroke-width="0.3" d="M45.13,-197.18C52.06,-186.06 65.11,-165.12 78.51,-143.62"/>
<polygon fill="green" stroke="green" stroke-width="0.3" points="81.53,-145.39 83.85,-135.05 75.59,-141.68 81.53,-145.39"/>
</g>
<!-- HCoil1 -->
<g id="node2" class="node">
<title>HCoil1</title>
<polygon fill="lightgray" stroke="black" points="283,-215.41 235,-215.41 235,-197.41 283,-197.41 283,-215.41"/>
<text text-anchor="middle" x="259" y="-204.21" font-family="Times,serif" font-size="9.00">HCoil1</text>
</g>
<!-- HCoil2 -->
<g id="node3" class="node">
<title>HCoil2</title>
<polygon fill="lightgray" stroke="black" points="349,-215.41 301,-215.41 301,-197.41 349,-197.41 349,-215.41"/>
<text text-anchor="middle" x="325" y="-204.21" font-family="Times,serif" font-size="9.00">HCoil2</text>
</g>
<!-- VCoil1 -->
<g id="node4" class="node">
<title>VCoil1</title>
<polygon fill="lightgray" stroke="black" points="414.5,-215.41 367.5,-215.41 367.5,-197.41 414.5,-197.41 414.5,-215.41"/>
<text text-anchor="middle" x="391" y="-204.21" font-family="Times,serif" font-size="9.00">VCoil1</text>
</g>
<!-- VCoil2 -->
<g id="node5" class="node">
<title>VCoil2</title>
<polygon fill="lightgray" stroke="black" points="145.5,-215.41 98.5,-215.41 98.5,-197.41 145.5,-197.41 145.5,-215.41"/>
<text text-anchor="middle" x="122" y="-204.21" font-family="Times,serif" font-size="9.00">VCoil2</text>
</g>
<!-- VCoil2&#45;&gt;Activate propulsor -->
<g id="edge2" class="edge">
<title>VCoil2&#45;&gt;Activate propulsor</title>
<path fill="none" stroke="green" stroke-width="0.69" d="M122,-197.18C122,-188.2 122,-172.82 122,-155.92"/>
<polygon fill="green" stroke="green" stroke-width="0.69" points="125.5,-155.82 122,-145.82 118.5,-155.82 125.5,-155.82"/>
</g>
<!-- HCoil12 -->
<g id="node6" class="node">
<title>HCoil12</title>
<polygon fill="lightgray" stroke="black" points="487,-215.41 433,-215.41 433,-197.41 487,-197.41 487,-215.41"/>
<text text-anchor="middle" x="460" y="-204.21" font-family="Times,serif" font-size="9.00">HCoil12</text>
</g>
<!-- HCoil22 -->
<g id="node7" class="node">
<title>HCoil22</title>
<polygon fill="lightgray" stroke="black" points="559,-215.41 505,-215.41 505,-197.41 559,-197.41 559,-215.41"/>
<text text-anchor="middle" x="532" y="-204.21" font-family="Times,serif" font-size="9.00">HCoil22</text>
</g>
<!-- VCoil12 -->
<g id="node8" class="node">
<title>VCoil12</title>
<polygon fill="lightgray" stroke="black" points="216.5,-215.41 163.5,-215.41 163.5,-197.41 216.5,-197.41 216.5,-215.41"/>
<text text-anchor="middle" x="190" y="-204.21" font-family="Times,serif" font-size="9.00">VCoil12</text>
</g>
<!-- VCoil12&#45;&gt;Activate propulsor -->
<g id="edge3" class="edge">
<title>VCoil12&#45;&gt;Activate propulsor</title>
<path fill="none" stroke="green" stroke-width="0.55" d="M185.75,-197.18C180.3,-186.64 170.31,-167.31 159.83,-147.03"/>
<polygon fill="green" stroke="green" stroke-width="0.55" points="162.85,-145.26 155.15,-137.99 156.64,-148.48 162.85,-145.26"/>
</g>
<!-- VCoil22 -->
<g id="node9" class="node">
<title>VCoil22</title>
<polygon fill="lightgray" stroke="black" points="630.5,-215.41 577.5,-215.41 577.5,-197.41 630.5,-197.41 630.5,-215.41"/>
<text text-anchor="middle" x="604" y="-204.21" font-family="Times,serif" font-size="9.00">VCoil22</text>
</g>
<!-- 339 -->
<g id="node11" class="node">
<title>339</title>
<ellipse fill="white" stroke="black" cx="673" cy="-206.41" rx="25" ry="25"/>
<text text-anchor="middle" x="673" y="-204.21" font-family="Times,serif" font-size="9.00">339</text>
</g>
</g>
</svg>
