<?xml version="1.0" encoding="UTF-8" standalone="no"?>
<!DOCTYPE svg PUBLIC "-//W3C//DTD SVG 1.1//EN"
 "http://www.w3.org/Graphics/SVG/1.1/DTD/svg11.dtd">
<!-- Generated by graphviz version 2.43.0 (0)
 -->
<!-- Title: %3 Pages: 1 -->
<svg width="618pt" height="293pt"
 viewBox="0.00 0.00 618.00 293.16" xmlns="http://www.w3.org/2000/svg" xmlns:xlink="http://www.w3.org/1999/xlink">
<g id="graph0" class="graph" transform="scale(1 1) rotate(0) translate(4 289.16)">
<title>%3</title>
<polygon fill="white" stroke="transparent" points="-4,4 -4,-289.16 614,-289.16 614,4 -4,4"/>
<!-- Player_height -->
<g id="node1" class="node">
<title>Player_height</title>
<polygon fill="lightgray" stroke="black" points="80,-215.41 0,-215.41 0,-197.41 80,-197.41 80,-215.41"/>
<text text-anchor="middle" x="40" y="-204.21" font-family="Times,serif" font-size="9.00">Player_height</text>
</g>
<!-- Activate propulsor -->
<g id="node10" class="node">
<title>Activate propulsor</title>
<ellipse fill="lightblue" stroke="black" cx="221" cy="-72.83" rx="72.66" ry="72.66"/>
<text text-anchor="middle" x="221" y="-70.63" font-family="Times,serif" font-size="9.00">Activate propulsor</text>
</g>
<!-- Player_height&#45;&gt;Activate propulsor -->
<g id="edge1" class="edge">
<title>Player_height&#45;&gt;Activate propulsor</title>
<path fill="none" stroke="green" stroke-width="0.29" d="M51.05,-197.38C71.33,-182.64 115.93,-150.21 154.36,-122.28"/>
<polygon fill="green" stroke="green" stroke-width="0.29" points="156.42,-125.1 162.45,-116.39 152.31,-119.44 156.42,-125.1"/>
</g>
<!-- HCoil1 -->
<g id="node2" class="node">
<title>HCoil1</title>
<polygon fill="lightgray" stroke="black" points="400,-285.16 352,-285.16 352,-267.16 400,-267.16 400,-285.16"/>
<text text-anchor="middle" x="376" y="-273.96" font-family="Times,serif" font-size="9.00">HCoil1</text>
</g>
<!-- 163 -->
<g id="node11" class="node">
<title>163</title>
<ellipse fill="white" stroke="black" cx="442" cy="-206.41" rx="25" ry="25"/>
<text text-anchor="middle" x="442" y="-204.21" font-family="Times,serif" font-size="9.00">163</text>
</g>
<!-- HCoil1&#45;&gt;163 -->
<g id="edge8" class="edge">
<title>HCoil1&#45;&gt;163</title>
<path fill="none" stroke="green" stroke-width="0.42" stroke-dasharray="1,5" d="M383.83,-267.12C392.2,-258.53 405.89,-244.48 417.89,-232.17"/>
<polygon fill="green" stroke="green" stroke-width="0.42" points="420.6,-234.39 425.07,-224.79 415.59,-229.51 420.6,-234.39"/>
</g>
<!-- 405 -->
<g id="node12" class="node">
<title>405</title>
<ellipse fill="white" stroke="black" cx="372" cy="-206.41" rx="25" ry="25"/>
<text text-anchor="middle" x="372" y="-204.21" font-family="Times,serif" font-size="9.00">405</text>
</g>
<!-- HCoil1&#45;&gt;405 -->
<g id="edge9" class="edge">
<title>HCoil1&#45;&gt;405</title>
<path fill="none" stroke="green" stroke-width="0.25" d="M375.53,-267.12C375.14,-260.57 374.56,-250.83 373.99,-241.12"/>
<polygon fill="green" stroke="green" stroke-width="0.25" points="377.48,-240.91 373.4,-231.13 370.5,-241.32 377.48,-240.91"/>
</g>
<!-- HCoil2 -->
<g id="node3" class="node">
<title>HCoil2</title>
<polygon fill="lightgray" stroke="black" points="610,-285.16 562,-285.16 562,-267.16 610,-267.16 610,-285.16"/>
<text text-anchor="middle" x="586" y="-273.96" font-family="Times,serif" font-size="9.00">HCoil2</text>
</g>
<!-- VCoil1 -->
<g id="node4" class="node">
<title>VCoil1</title>
<polygon fill="lightgray" stroke="black" points="145.5,-215.41 98.5,-215.41 98.5,-197.41 145.5,-197.41 145.5,-215.41"/>
<text text-anchor="middle" x="122" y="-204.21" font-family="Times,serif" font-size="9.00">VCoil1</text>
</g>
<!-- VCoil1&#45;&gt;Activate propulsor -->
<g id="edge2" class="edge">
<title>VCoil1&#45;&gt;Activate propulsor</title>
<path fill="none" stroke="red" stroke-width="0.13" stroke-dasharray="1,5" d="M128.19,-197.18C137.09,-185.35 154.33,-162.45 171.56,-139.55"/>
<polygon fill="red" stroke="red" stroke-width="0.13" points="174.42,-141.56 177.63,-131.47 168.83,-137.36 174.42,-141.56"/>
</g>
<!-- VCoil2 -->
<g id="node5" class="node">
<title>VCoil2</title>
<polygon fill="lightgray" stroke="black" points="210.5,-215.41 163.5,-215.41 163.5,-197.41 210.5,-197.41 210.5,-215.41"/>
<text text-anchor="middle" x="187" y="-204.21" font-family="Times,serif" font-size="9.00">VCoil2</text>
</g>
<!-- VCoil2&#45;&gt;Activate propulsor -->
<g id="edge3" class="edge">
<title>VCoil2&#45;&gt;Activate propulsor</title>
<path fill="none" stroke="green" stroke-width="0.43" d="M189.13,-197.18C191.56,-187.78 195.79,-171.38 200.4,-153.56"/>
<polygon fill="green" stroke="green" stroke-width="0.43" points="203.87,-154.1 202.99,-143.54 197.1,-152.34 203.87,-154.1"/>
</g>
<!-- HCoil12 -->
<g id="node6" class="node">
<title>HCoil12</title>
<polygon fill="lightgray" stroke="black" points="283,-215.41 229,-215.41 229,-197.41 283,-197.41 283,-215.41"/>
<text text-anchor="middle" x="256" y="-204.21" font-family="Times,serif" font-size="9.00">HCoil12</text>
</g>
<!-- HCoil12&#45;&gt;Activate propulsor -->
<g id="edge4" class="edge">
<title>HCoil12&#45;&gt;Activate propulsor</title>
<path fill="none" stroke="green" stroke-width="0.21" stroke-dasharray="1,5" d="M253.81,-197.18C251.31,-187.78 246.95,-171.38 242.21,-153.56"/>
<polygon fill="green" stroke="green" stroke-width="0.21" points="245.49,-152.3 239.54,-143.54 238.73,-154.1 245.49,-152.3"/>
</g>
<!-- HCoil22 -->
<g id="node7" class="node">
<title>HCoil22</title>
<polygon fill="lightgray" stroke="black" points="472,-285.16 418,-285.16 418,-267.16 472,-267.16 472,-285.16"/>
<text text-anchor="middle" x="445" y="-273.96" font-family="Times,serif" font-size="9.00">HCoil22</text>
</g>
<!-- HCoil22&#45;&gt;163 -->
<g id="edge11" class="edge">
<title>HCoil22&#45;&gt;163</title>
<path fill="none" stroke="red" stroke-width="0.23" d="M444.64,-267.12C444.36,-260.69 443.94,-251.19 443.52,-241.65"/>
<polygon fill="red" stroke="red" stroke-width="0.23" points="447,-241.27 443.06,-231.43 440.01,-241.58 447,-241.27"/>
</g>
<!-- VCoil12 -->
<g id="node8" class="node">
<title>VCoil12</title>
<polygon fill="lightgray" stroke="black" points="333.5,-285.16 280.5,-285.16 280.5,-267.16 333.5,-267.16 333.5,-285.16"/>
<text text-anchor="middle" x="307" y="-273.96" font-family="Times,serif" font-size="9.00">VCoil12</text>
</g>
<!-- VCoil12&#45;&gt;Activate propulsor -->
<g id="edge5" class="edge">
<title>VCoil12&#45;&gt;Activate propulsor</title>
<path fill="none" stroke="green" stroke-width="0.28" d="M306.84,-267.11C306.26,-250.55 303.67,-211.7 292,-181.66 286.44,-167.35 278.77,-152.98 270.52,-139.61"/>
<polygon fill="green" stroke="green" stroke-width="0.28" points="273.35,-137.53 265.03,-130.97 267.44,-141.29 273.35,-137.53"/>
</g>
<!-- VCoil12&#45;&gt;405 -->
<g id="edge10" class="edge">
<title>VCoil12&#45;&gt;405</title>
<path fill="none" stroke="green" stroke-width="0.19" d="M314.71,-267.12C322.95,-258.53 336.44,-244.48 348.25,-232.17"/>
<polygon fill="green" stroke="green" stroke-width="0.19" points="350.93,-234.43 355.33,-224.79 345.88,-229.58 350.93,-234.43"/>
</g>
<!-- VCoil22 -->
<g id="node9" class="node">
<title>VCoil22</title>
<polygon fill="lightgray" stroke="black" points="543.5,-285.16 490.5,-285.16 490.5,-267.16 543.5,-267.16 543.5,-285.16"/>
<text text-anchor="middle" x="517" y="-273.96" font-family="Times,serif" font-size="9.00">VCoil22</text>
</g>
<!-- VCoil22&#45;&gt;163 -->
<g id="edge6" class="edge">
<title>VCoil22&#45;&gt;163</title>
<path fill="none" stroke="red" stroke-width="0.17" stroke-dasharray="1,5" d="M508.1,-267.12C498.15,-258.13 481.58,-243.16 467.52,-230.46"/>
<polygon fill="red" stroke="red" stroke-width="0.17" points="469.79,-227.8 460.02,-223.69 465.1,-232.99 469.79,-227.8"/>
</g>
<!-- 163&#45;&gt;Activate propulsor -->
<g id="edge7" class="edge">
<title>163&#45;&gt;Activate propulsor</title>
<path fill="none" stroke="green" stroke-width="0.53" d="M421.94,-191.9C416.79,-188.5 411.22,-184.9 406,-181.66 369.18,-158.81 327.52,-134.41 293.08,-114.61"/>
<polygon fill="green" stroke="green" stroke-width="0.53" points="294.44,-111.35 284.03,-109.41 290.96,-117.43 294.44,-111.35"/>
</g>
</g>
</svg>
