<?xml version="1.0" encoding="UTF-8" standalone="no"?>
<!DOCTYPE svg PUBLIC "-//W3C//DTD SVG 1.1//EN"
 "http://www.w3.org/Graphics/SVG/1.1/DTD/svg11.dtd">
<!-- Generated by graphviz version 2.43.0 (0)
 -->
<!-- Title: %3 Pages: 1 -->
<svg width="507pt" height="293pt"
 viewBox="0.00 0.00 506.50 293.16" xmlns="http://www.w3.org/2000/svg" xmlns:xlink="http://www.w3.org/1999/xlink">
<g id="graph0" class="graph" transform="scale(1 1) rotate(0) translate(4 289.16)">
<title>%3</title>
<polygon fill="white" stroke="transparent" points="-4,4 -4,-289.16 502.5,-289.16 502.5,4 -4,4"/>
<!-- Player_height -->
<g id="node1" class="node">
<title>Player_height</title>
<polygon fill="lightgray" stroke="black" points="80,-285.16 0,-285.16 0,-267.16 80,-267.16 80,-285.16"/>
<text text-anchor="middle" x="40" y="-273.96" font-family="Times,serif" font-size="9.00">Player_height</text>
</g>
<!-- HCoil1 -->
<g id="node2" class="node">
<title>HCoil1</title>
<polygon fill="lightgray" stroke="black" points="146,-285.16 98,-285.16 98,-267.16 146,-267.16 146,-285.16"/>
<text text-anchor="middle" x="122" y="-273.96" font-family="Times,serif" font-size="9.00">HCoil1</text>
</g>
<!-- HCoil2 -->
<g id="node3" class="node">
<title>HCoil2</title>
<polygon fill="lightgray" stroke="black" points="212,-285.16 164,-285.16 164,-267.16 212,-267.16 212,-285.16"/>
<text text-anchor="middle" x="188" y="-273.96" font-family="Times,serif" font-size="9.00">HCoil2</text>
</g>
<!-- VCoil1 -->
<g id="node4" class="node">
<title>VCoil1</title>
<polygon fill="lightgray" stroke="black" points="137.5,-215.41 90.5,-215.41 90.5,-197.41 137.5,-197.41 137.5,-215.41"/>
<text text-anchor="middle" x="114" y="-204.21" font-family="Times,serif" font-size="9.00">VCoil1</text>
</g>
<!-- Activate propulsor -->
<g id="node10" class="node">
<title>Activate propulsor</title>
<ellipse fill="lightblue" stroke="black" cx="205" cy="-72.83" rx="72.66" ry="72.66"/>
<text text-anchor="middle" x="205" y="-70.63" font-family="Times,serif" font-size="9.00">Activate propulsor</text>
</g>
<!-- VCoil1&#45;&gt;Activate propulsor -->
<g id="edge1" class="edge">
<title>VCoil1&#45;&gt;Activate propulsor</title>
<path fill="none" stroke="red" stroke-width="0.87" d="M119.69,-197.18C127.63,-185.71 142.78,-163.8 158.13,-141.6"/>
<polygon fill="red" stroke="red" stroke-width="0.87" points="161.21,-143.31 164.02,-133.09 155.45,-139.33 161.21,-143.31"/>
</g>
<!-- VCoil2 -->
<g id="node5" class="node">
<title>VCoil2</title>
<polygon fill="lightgray" stroke="black" points="202.5,-215.41 155.5,-215.41 155.5,-197.41 202.5,-197.41 202.5,-215.41"/>
<text text-anchor="middle" x="179" y="-204.21" font-family="Times,serif" font-size="9.00">VCoil2</text>
</g>
<!-- VCoil2&#45;&gt;Activate propulsor -->
<g id="edge2" class="edge">
<title>VCoil2&#45;&gt;Activate propulsor</title>
<path fill="none" stroke="green" stroke-width="0.85" d="M180.63,-197.18C182.46,-187.92 185.63,-171.88 189.09,-154.36"/>
<polygon fill="green" stroke="green" stroke-width="0.85" points="192.53,-155.01 191.03,-144.52 185.66,-153.65 192.53,-155.01"/>
</g>
<!-- HCoil12 -->
<g id="node6" class="node">
<title>HCoil12</title>
<polygon fill="lightgray" stroke="black" points="356,-285.16 302,-285.16 302,-267.16 356,-267.16 356,-285.16"/>
<text text-anchor="middle" x="329" y="-273.96" font-family="Times,serif" font-size="9.00">HCoil12</text>
</g>
<!-- HCoil22 -->
<g id="node7" class="node">
<title>HCoil22</title>
<polygon fill="lightgray" stroke="black" points="284,-285.16 230,-285.16 230,-267.16 284,-267.16 284,-285.16"/>
<text text-anchor="middle" x="257" y="-273.96" font-family="Times,serif" font-size="9.00">HCoil22</text>
</g>
<!-- HCoil22&#45;&gt;Activate propulsor -->
<g id="edge3" class="edge">
<title>HCoil22&#45;&gt;Activate propulsor</title>
<path fill="none" stroke="red" stroke-width="0.24" stroke-dasharray="1,5" d="M254.9,-267.02C249.93,-247.8 237.04,-197.9 225.61,-153.63"/>
<polygon fill="red" stroke="red" stroke-width="0.24" points="228.93,-152.5 223.05,-143.7 222.16,-154.26 228.93,-152.5"/>
</g>
<!-- 417 -->
<g id="node11" class="node">
<title>417</title>
<ellipse fill="white" stroke="black" cx="284" cy="-206.41" rx="25" ry="25"/>
<text text-anchor="middle" x="284" y="-204.21" font-family="Times,serif" font-size="9.00">417</text>
</g>
<!-- HCoil22&#45;&gt;417 -->
<g id="edge4" class="edge">
<title>HCoil22&#45;&gt;417</title>
<path fill="none" stroke="green" stroke-width="0.41" d="M260.2,-267.12C263.01,-260.09 267.26,-249.41 271.41,-239.01"/>
<polygon fill="green" stroke="green" stroke-width="0.41" points="274.69,-240.24 275.14,-229.65 268.18,-237.64 274.69,-240.24"/>
</g>
<!-- VCoil12 -->
<g id="node8" class="node">
<title>VCoil12</title>
<polygon fill="lightgray" stroke="black" points="427.5,-285.16 374.5,-285.16 374.5,-267.16 427.5,-267.16 427.5,-285.16"/>
<text text-anchor="middle" x="401" y="-273.96" font-family="Times,serif" font-size="9.00">VCoil12</text>
</g>
<!-- VCoil22 -->
<g id="node9" class="node">
<title>VCoil22</title>
<polygon fill="lightgray" stroke="black" points="498.5,-285.16 445.5,-285.16 445.5,-267.16 498.5,-267.16 498.5,-285.16"/>
<text text-anchor="middle" x="472" y="-273.96" font-family="Times,serif" font-size="9.00">VCoil22</text>
</g>
<!-- 417&#45;&gt;Activate propulsor -->
<g id="edge5" class="edge">
<title>417&#45;&gt;Activate propulsor</title>
<path fill="none" stroke="red" stroke-width="0.37" d="M271.66,-184.85C264.98,-173.74 256.3,-159.28 247.42,-144.49"/>
<polygon fill="red" stroke="red" stroke-width="0.37" points="250.33,-142.54 242.19,-135.77 244.33,-146.14 250.33,-142.54"/>
</g>
</g>
</svg>
