<?xml version="1.0" encoding="UTF-8" standalone="no"?>
<!DOCTYPE svg PUBLIC "-//W3C//DTD SVG 1.1//EN"
 "http://www.w3.org/Graphics/SVG/1.1/DTD/svg11.dtd">
<!-- Generated by graphviz version 2.43.0 (0)
 -->
<!-- Title: %3 Pages: 1 -->
<svg width="577pt" height="379pt"
 viewBox="0.00 0.00 577.00 378.66" xmlns="http://www.w3.org/2000/svg" xmlns:xlink="http://www.w3.org/1999/xlink">
<g id="graph0" class="graph" transform="scale(1 1) rotate(0) translate(4 374.66)">
<title>%3</title>
<polygon fill="white" stroke="transparent" points="-4,4 -4,-374.66 573,-374.66 573,4 -4,4"/>
<!-- Player_height -->
<g id="node1" class="node">
<title>Player_height</title>
<polygon fill="lightgray" stroke="black" points="80,-215.41 0,-215.41 0,-197.41 80,-197.41 80,-215.41"/>
<text text-anchor="middle" x="40" y="-204.21" font-family="Times,serif" font-size="9.00">Player_height</text>
</g>
<!-- Activate propulsor -->
<g id="node10" class="node">
<title>Activate propulsor</title>
<ellipse fill="lightblue" stroke="black" cx="221" cy="-72.83" rx="72.66" ry="72.66"/>
<text text-anchor="middle" x="221" y="-70.63" font-family="Times,serif" font-size="9.00">Activate propulsor</text>
</g>
<!-- Player_height&#45;&gt;Activate propulsor -->
<g id="edge1" class="edge">
<title>Player_height&#45;&gt;Activate propulsor</title>
<path fill="none" stroke="green" stroke-width="0.37" d="M51.05,-197.38C71.33,-182.64 115.93,-150.21 154.36,-122.28"/>
<polygon fill="green" stroke="green" stroke-width="0.37" points="156.42,-125.1 162.45,-116.39 152.31,-119.44 156.42,-125.1"/>
</g>
<!-- HCoil1 -->
<g id="node2" class="node">
<title>HCoil1</title>
<polygon fill="lightgray" stroke="black" points="431,-370.66 383,-370.66 383,-352.66 431,-352.66 431,-370.66"/>
<text text-anchor="middle" x="407" y="-359.46" font-family="Times,serif" font-size="9.00">HCoil1</text>
</g>
<!-- 163 -->
<g id="node11" class="node">
<title>163</title>
<ellipse fill="white" stroke="black" cx="391" cy="-206.41" rx="25" ry="25"/>
<text text-anchor="middle" x="391" y="-204.21" font-family="Times,serif" font-size="9.00">163</text>
</g>
<!-- HCoil1&#45;&gt;163 -->
<g id="edge8" class="edge">
<title>HCoil1&#45;&gt;163</title>
<path fill="none" stroke="red" stroke-width="0.25" stroke-dasharray="1,5" d="M406.26,-352.4C404.79,-336.09 401.36,-298.62 398,-267.16 397.1,-258.74 396.07,-249.67 395.08,-241.19"/>
<polygon fill="red" stroke="red" stroke-width="0.25" points="398.55,-240.76 393.91,-231.24 391.6,-241.58 398.55,-240.76"/>
</g>
<!-- 405 -->
<g id="node12" class="node">
<title>405</title>
<ellipse fill="white" stroke="black" cx="364" cy="-291.91" rx="25" ry="25"/>
<text text-anchor="middle" x="364" y="-289.71" font-family="Times,serif" font-size="9.00">405</text>
</g>
<!-- HCoil1&#45;&gt;405 -->
<g id="edge9" class="edge">
<title>HCoil1&#45;&gt;405</title>
<path fill="none" stroke="green" stroke-width="0.2" d="M401.9,-352.62C397.05,-344.99 389.47,-333.04 382.36,-321.84"/>
<polygon fill="green" stroke="green" stroke-width="0.2" points="385.13,-319.68 376.82,-313.11 379.22,-323.43 385.13,-319.68"/>
</g>
<!-- HCoil2 -->
<g id="node3" class="node">
<title>HCoil2</title>
<polygon fill="lightgray" stroke="black" points="497,-370.66 449,-370.66 449,-352.66 497,-352.66 497,-370.66"/>
<text text-anchor="middle" x="473" y="-359.46" font-family="Times,serif" font-size="9.00">HCoil2</text>
</g>
<!-- VCoil1 -->
<g id="node4" class="node">
<title>VCoil1</title>
<polygon fill="lightgray" stroke="black" points="145.5,-215.41 98.5,-215.41 98.5,-197.41 145.5,-197.41 145.5,-215.41"/>
<text text-anchor="middle" x="122" y="-204.21" font-family="Times,serif" font-size="9.00">VCoil1</text>
</g>
<!-- VCoil1&#45;&gt;Activate propulsor -->
<g id="edge2" class="edge">
<title>VCoil1&#45;&gt;Activate propulsor</title>
<path fill="none" stroke="green" stroke-width="0.16" d="M128.19,-197.18C137.09,-185.35 154.33,-162.45 171.56,-139.55"/>
<polygon fill="green" stroke="green" stroke-width="0.16" points="174.42,-141.56 177.63,-131.47 168.83,-137.36 174.42,-141.56"/>
</g>
<!-- VCoil2 -->
<g id="node5" class="node">
<title>VCoil2</title>
<polygon fill="lightgray" stroke="black" points="210.5,-215.41 163.5,-215.41 163.5,-197.41 210.5,-197.41 210.5,-215.41"/>
<text text-anchor="middle" x="187" y="-204.21" font-family="Times,serif" font-size="9.00">VCoil2</text>
</g>
<!-- VCoil2&#45;&gt;Activate propulsor -->
<g id="edge3" class="edge">
<title>VCoil2&#45;&gt;Activate propulsor</title>
<path fill="none" stroke="green" stroke-width="0.46" d="M189.13,-197.18C191.56,-187.78 195.79,-171.38 200.4,-153.56"/>
<polygon fill="green" stroke="green" stroke-width="0.46" points="203.87,-154.1 202.99,-143.54 197.1,-152.34 203.87,-154.1"/>
</g>
<!-- HCoil12 -->
<g id="node6" class="node">
<title>HCoil12</title>
<polygon fill="lightgray" stroke="black" points="283,-215.41 229,-215.41 229,-197.41 283,-197.41 283,-215.41"/>
<text text-anchor="middle" x="256" y="-204.21" font-family="Times,serif" font-size="9.00">HCoil12</text>
</g>
<!-- HCoil12&#45;&gt;Activate propulsor -->
<g id="edge4" class="edge">
<title>HCoil12&#45;&gt;Activate propulsor</title>
<path fill="none" stroke="green" stroke-width="0.39" stroke-dasharray="1,5" d="M253.81,-197.18C251.31,-187.78 246.95,-171.38 242.21,-153.56"/>
<polygon fill="green" stroke="green" stroke-width="0.39" points="245.49,-152.3 239.54,-143.54 238.73,-154.1 245.49,-152.3"/>
</g>
<!-- HCoil22 -->
<g id="node7" class="node">
<title>HCoil22</title>
<polygon fill="lightgray" stroke="black" points="569,-370.66 515,-370.66 515,-352.66 569,-352.66 569,-370.66"/>
<text text-anchor="middle" x="542" y="-359.46" font-family="Times,serif" font-size="9.00">HCoil22</text>
</g>
<!-- VCoil12 -->
<g id="node8" class="node">
<title>VCoil12</title>
<polygon fill="lightgray" stroke="black" points="355.5,-370.66 302.5,-370.66 302.5,-352.66 355.5,-352.66 355.5,-370.66"/>
<text text-anchor="middle" x="329" y="-359.46" font-family="Times,serif" font-size="9.00">VCoil12</text>
</g>
<!-- VCoil12&#45;&gt;Activate propulsor -->
<g id="edge5" class="edge">
<title>VCoil12&#45;&gt;Activate propulsor</title>
<path fill="none" stroke="green" stroke-width="0.35" d="M328.41,-352.49C326.31,-326.55 317.89,-244.1 292,-181.66 286.15,-167.57 278.4,-153.34 270.16,-140.05"/>
<polygon fill="green" stroke="green" stroke-width="0.35" points="273.01,-138.02 264.69,-131.46 267.11,-141.78 273.01,-138.02"/>
</g>
<!-- VCoil12&#45;&gt;405 -->
<g id="edge11" class="edge">
<title>VCoil12&#45;&gt;405</title>
<path fill="none" stroke="green" stroke-width="0.22" d="M333.15,-352.62C336.91,-345.36 342.68,-334.19 348.21,-323.47"/>
<polygon fill="green" stroke="green" stroke-width="0.22" points="351.49,-324.76 352.97,-314.27 345.27,-321.55 351.49,-324.76"/>
</g>
<!-- VCoil22 -->
<g id="node9" class="node">
<title>VCoil22</title>
<polygon fill="lightgray" stroke="black" points="498.5,-300.91 445.5,-300.91 445.5,-282.91 498.5,-282.91 498.5,-300.91"/>
<text text-anchor="middle" x="472" y="-289.71" font-family="Times,serif" font-size="9.00">VCoil22</text>
</g>
<!-- VCoil22&#45;&gt;163 -->
<g id="edge6" class="edge">
<title>VCoil22&#45;&gt;163</title>
<path fill="none" stroke="green" stroke-width="0.35" stroke-dasharray="1,5" d="M464.23,-282.9C453.04,-271.36 431.88,-249.55 415.17,-232.33"/>
<polygon fill="green" stroke="green" stroke-width="0.35" points="417.34,-229.53 407.86,-224.79 412.31,-234.41 417.34,-229.53"/>
</g>
<!-- 163&#45;&gt;Activate propulsor -->
<g id="edge7" class="edge">
<title>163&#45;&gt;Activate propulsor</title>
<path fill="none" stroke="green" stroke-width="0.48" d="M371.83,-190.57C351.1,-174.53 316.93,-148.08 286.34,-124.41"/>
<polygon fill="green" stroke="green" stroke-width="0.48" points="288.29,-121.49 278.24,-118.14 284.01,-127.02 288.29,-121.49"/>
</g>
<!-- 405&#45;&gt;163 -->
<g id="edge10" class="edge">
<title>405&#45;&gt;163</title>
<path fill="none" stroke="red" stroke-width="0.31" d="M371.38,-268.09C374.21,-259.35 377.49,-249.2 380.55,-239.73"/>
<polygon fill="red" stroke="red" stroke-width="0.31" points="383.88,-240.79 383.63,-230.2 377.22,-238.64 383.88,-240.79"/>
</g>
</g>
</svg>
