<?xml version="1.0" encoding="UTF-8" standalone="no"?>
<!DOCTYPE svg PUBLIC "-//W3C//DTD SVG 1.1//EN"
 "http://www.w3.org/Graphics/SVG/1.1/DTD/svg11.dtd">
<!-- Generated by graphviz version 2.43.0 (0)
 -->
<!-- Title: %3 Pages: 1 -->
<svg width="638pt" height="208pt"
 viewBox="0.00 0.00 637.50 207.66" xmlns="http://www.w3.org/2000/svg" xmlns:xlink="http://www.w3.org/1999/xlink">
<g id="graph0" class="graph" transform="scale(1 1) rotate(0) translate(4 203.66)">
<title>%3</title>
<polygon fill="white" stroke="transparent" points="-4,4 -4,-203.66 633.5,-203.66 633.5,4 -4,4"/>
<!-- Player_height -->
<g id="node1" class="node">
<title>Player_height</title>
<polygon fill="lightgray" stroke="black" points="80,-199.66 0,-199.66 0,-181.66 80,-181.66 80,-199.66"/>
<text text-anchor="middle" x="40" y="-188.46" font-family="Times,serif" font-size="9.00">Player_height</text>
</g>
<!-- Activate propulsor -->
<g id="node10" class="node">
<title>Activate propulsor</title>
<ellipse fill="lightblue" stroke="black" cx="288" cy="-72.83" rx="72.66" ry="72.66"/>
<text text-anchor="middle" x="288" y="-70.63" font-family="Times,serif" font-size="9.00">Activate propulsor</text>
</g>
<!-- Player_height&#45;&gt;Activate propulsor -->
<g id="edge1" class="edge">
<title>Player_height&#45;&gt;Activate propulsor</title>
<path fill="none" stroke="red" stroke-width="0.41" d="M57.44,-181.52C89.28,-166.65 158.55,-134.29 212.9,-108.91"/>
<polygon fill="red" stroke="red" stroke-width="0.41" points="214.6,-111.98 222.18,-104.58 211.63,-105.64 214.6,-111.98"/>
</g>
<!-- HCoil1 -->
<g id="node2" class="node">
<title>HCoil1</title>
<polygon fill="lightgray" stroke="black" points="146,-199.66 98,-199.66 98,-181.66 146,-181.66 146,-199.66"/>
<text text-anchor="middle" x="122" y="-188.46" font-family="Times,serif" font-size="9.00">HCoil1</text>
</g>
<!-- HCoil1&#45;&gt;Activate propulsor -->
<g id="edge2" class="edge">
<title>HCoil1&#45;&gt;Activate propulsor</title>
<path fill="none" stroke="red" stroke-width="0.13" d="M133.67,-181.52C151.7,-168.94 187.66,-143.85 220.33,-121.05"/>
<polygon fill="red" stroke="red" stroke-width="0.13" points="222.36,-123.9 228.56,-115.31 218.35,-118.16 222.36,-123.9"/>
</g>
<!-- HCoil2 -->
<g id="node3" class="node">
<title>HCoil2</title>
<polygon fill="lightgray" stroke="black" points="212,-199.66 164,-199.66 164,-181.66 212,-181.66 212,-199.66"/>
<text text-anchor="middle" x="188" y="-188.46" font-family="Times,serif" font-size="9.00">HCoil2</text>
</g>
<!-- HCoil2&#45;&gt;Activate propulsor -->
<g id="edge3" class="edge">
<title>HCoil2&#45;&gt;Activate propulsor</title>
<path fill="none" stroke="red" stroke-width="0.18" d="M195.19,-181.33C203.69,-171.48 218.66,-154.16 234.11,-136.25"/>
<polygon fill="red" stroke="red" stroke-width="0.18" points="236.87,-138.42 240.75,-128.56 231.57,-133.84 236.87,-138.42"/>
</g>
<!-- VCoil1 -->
<g id="node4" class="node">
<title>VCoil1</title>
<polygon fill="lightgray" stroke="black" points="629.5,-199.66 582.5,-199.66 582.5,-181.66 629.5,-181.66 629.5,-199.66"/>
<text text-anchor="middle" x="606" y="-188.46" font-family="Times,serif" font-size="9.00">VCoil1</text>
</g>
<!-- VCoil2 -->
<g id="node5" class="node">
<title>VCoil2</title>
<polygon fill="lightgray" stroke="black" points="277.5,-199.66 230.5,-199.66 230.5,-181.66 277.5,-181.66 277.5,-199.66"/>
<text text-anchor="middle" x="254" y="-188.46" font-family="Times,serif" font-size="9.00">VCoil2</text>
</g>
<!-- VCoil2&#45;&gt;Activate propulsor -->
<g id="edge4" class="edge">
<title>VCoil2&#45;&gt;Activate propulsor</title>
<path fill="none" stroke="green" stroke-width="0.1" d="M256.45,-181.33C258.42,-174.61 261.42,-164.39 264.8,-152.88"/>
<polygon fill="green" stroke="green" stroke-width="0.1" points="268.25,-153.54 267.71,-142.96 261.53,-151.57 268.25,-153.54"/>
</g>
<!-- HCoil12 -->
<g id="node6" class="node">
<title>HCoil12</title>
<polygon fill="lightgray" stroke="black" points="350,-199.66 296,-199.66 296,-181.66 350,-181.66 350,-199.66"/>
<text text-anchor="middle" x="323" y="-188.46" font-family="Times,serif" font-size="9.00">HCoil12</text>
</g>
<!-- HCoil12&#45;&gt;Activate propulsor -->
<g id="edge5" class="edge">
<title>HCoil12&#45;&gt;Activate propulsor</title>
<path fill="none" stroke="green" stroke-width="0.19" d="M320.48,-181.33C318.42,-174.5 315.26,-164.06 311.72,-152.33"/>
<polygon fill="green" stroke="green" stroke-width="0.19" points="315.05,-151.24 308.8,-142.68 308.35,-153.27 315.05,-151.24"/>
</g>
<!-- HCoil22 -->
<g id="node7" class="node">
<title>HCoil22</title>
<polygon fill="lightgray" stroke="black" points="422,-199.66 368,-199.66 368,-181.66 422,-181.66 422,-199.66"/>
<text text-anchor="middle" x="395" y="-188.46" font-family="Times,serif" font-size="9.00">HCoil22</text>
</g>
<!-- HCoil22&#45;&gt;Activate propulsor -->
<g id="edge6" class="edge">
<title>HCoil22&#45;&gt;Activate propulsor</title>
<path fill="none" stroke="green" stroke-width="0.26" d="M387.3,-181.33C377.87,-171.12 361.01,-152.87 343.83,-134.27"/>
<polygon fill="green" stroke="green" stroke-width="0.26" points="346.34,-131.83 336.99,-126.86 341.2,-136.58 346.34,-131.83"/>
</g>
<!-- VCoil12 -->
<g id="node8" class="node">
<title>VCoil12</title>
<polygon fill="lightgray" stroke="black" points="493.5,-199.66 440.5,-199.66 440.5,-181.66 493.5,-181.66 493.5,-199.66"/>
<text text-anchor="middle" x="467" y="-188.46" font-family="Times,serif" font-size="9.00">VCoil12</text>
</g>
<!-- VCoil12&#45;&gt;Activate propulsor -->
<g id="edge7" class="edge">
<title>VCoil12&#45;&gt;Activate propulsor</title>
<path fill="none" stroke="red" stroke-width="0.27" d="M454.41,-181.52C434.3,-168.5 393.49,-142.1 357.33,-118.69"/>
<polygon fill="red" stroke="red" stroke-width="0.27" points="359.03,-115.62 348.73,-113.13 355.22,-121.5 359.03,-115.62"/>
</g>
<!-- VCoil22 -->
<g id="node9" class="node">
<title>VCoil22</title>
<polygon fill="lightgray" stroke="black" points="564.5,-199.66 511.5,-199.66 511.5,-181.66 564.5,-181.66 564.5,-199.66"/>
<text text-anchor="middle" x="538" y="-188.46" font-family="Times,serif" font-size="9.00">VCoil22</text>
</g>
<!-- VCoil22&#45;&gt;Activate propulsor -->
<g id="edge8" class="edge">
<title>VCoil22&#45;&gt;Activate propulsor</title>
<path fill="none" stroke="green" stroke-width="0.18" d="M520.42,-181.52C488.22,-166.6 418.03,-134.08 363.16,-108.66"/>
<polygon fill="green" stroke="green" stroke-width="0.18" points="364.35,-105.35 353.81,-104.32 361.41,-111.7 364.35,-105.35"/>
</g>
</g>
</svg>
