<?xml version="1.0" encoding="UTF-8" standalone="no"?>
<!DOCTYPE svg PUBLIC "-//W3C//DTD SVG 1.1//EN"
 "http://www.w3.org/Graphics/SVG/1.1/DTD/svg11.dtd">
<!-- Generated by graphviz version 2.43.0 (0)
 -->
<!-- Title: %3 Pages: 1 -->
<svg width="587pt" height="293pt"
 viewBox="0.00 0.00 586.50 293.16" xmlns="http://www.w3.org/2000/svg" xmlns:xlink="http://www.w3.org/1999/xlink">
<g id="graph0" class="graph" transform="scale(1 1) rotate(0) translate(4 289.16)">
<title>%3</title>
<polygon fill="white" stroke="transparent" points="-4,4 -4,-289.16 582.5,-289.16 582.5,4 -4,4"/>
<!-- Player_height -->
<g id="node1" class="node">
<title>Player_height</title>
<polygon fill="lightgray" stroke="black" points="80,-285.16 0,-285.16 0,-267.16 80,-267.16 80,-285.16"/>
<text text-anchor="middle" x="40" y="-273.96" font-family="Times,serif" font-size="9.00">Player_height</text>
</g>
<!-- HCoil1 -->
<g id="node2" class="node">
<title>HCoil1</title>
<polygon fill="lightgray" stroke="black" points="146,-285.16 98,-285.16 98,-267.16 146,-267.16 146,-285.16"/>
<text text-anchor="middle" x="122" y="-273.96" font-family="Times,serif" font-size="9.00">HCoil1</text>
</g>
<!-- HCoil2 -->
<g id="node3" class="node">
<title>HCoil2</title>
<polygon fill="lightgray" stroke="black" points="212,-285.16 164,-285.16 164,-267.16 212,-267.16 212,-285.16"/>
<text text-anchor="middle" x="188" y="-273.96" font-family="Times,serif" font-size="9.00">HCoil2</text>
</g>
<!-- VCoil1 -->
<g id="node4" class="node">
<title>VCoil1</title>
<polygon fill="lightgray" stroke="black" points="277.5,-285.16 230.5,-285.16 230.5,-267.16 277.5,-267.16 277.5,-285.16"/>
<text text-anchor="middle" x="254" y="-273.96" font-family="Times,serif" font-size="9.00">VCoil1</text>
</g>
<!-- Activate propulsor -->
<g id="node10" class="node">
<title>Activate propulsor</title>
<ellipse fill="lightblue" stroke="black" cx="339" cy="-72.83" rx="72.66" ry="72.66"/>
<text text-anchor="middle" x="339" y="-70.63" font-family="Times,serif" font-size="9.00">Activate propulsor</text>
</g>
<!-- VCoil1&#45;&gt;Activate propulsor -->
<g id="edge1" class="edge">
<title>VCoil1&#45;&gt;Activate propulsor</title>
<path fill="none" stroke="red" stroke-width="0.71" d="M251.98,-267.11C248.21,-250.54 241.4,-211.67 252,-181.66 258.25,-163.96 268.78,-147.03 280.39,-132.05"/>
<polygon fill="red" stroke="red" stroke-width="0.71" points="283.38,-133.91 286.93,-123.93 277.93,-129.52 283.38,-133.91"/>
</g>
<!-- 485 -->
<g id="node12" class="node">
<title>485</title>
<ellipse fill="white" stroke="black" cx="286" cy="-206.41" rx="25" ry="25"/>
<text text-anchor="middle" x="286" y="-204.21" font-family="Times,serif" font-size="9.00">485</text>
</g>
<!-- VCoil1&#45;&gt;485 -->
<g id="edge7" class="edge">
<title>VCoil1&#45;&gt;485</title>
<path fill="none" stroke="red" stroke-width="0.19" d="M257.8,-267.12C261.2,-259.91 266.43,-248.86 271.45,-238.21"/>
<polygon fill="red" stroke="red" stroke-width="0.19" points="274.67,-239.6 275.77,-229.06 268.34,-236.61 274.67,-239.6"/>
</g>
<!-- VCoil2 -->
<g id="node5" class="node">
<title>VCoil2</title>
<polygon fill="lightgray" stroke="black" points="362.5,-285.16 315.5,-285.16 315.5,-267.16 362.5,-267.16 362.5,-285.16"/>
<text text-anchor="middle" x="339" y="-273.96" font-family="Times,serif" font-size="9.00">VCoil2</text>
</g>
<!-- VCoil2&#45;&gt;Activate propulsor -->
<g id="edge2" class="edge">
<title>VCoil2&#45;&gt;Activate propulsor</title>
<path fill="none" stroke="green" stroke-width="0.62" d="M339,-267.02C339,-248.11 339,-199.52 339,-155.8"/>
<polygon fill="green" stroke="green" stroke-width="0.62" points="342.5,-155.69 339,-145.69 335.5,-155.69 342.5,-155.69"/>
</g>
<!-- 521 -->
<g id="node11" class="node">
<title>521</title>
<ellipse fill="white" stroke="black" cx="392" cy="-206.41" rx="25" ry="25"/>
<text text-anchor="middle" x="392" y="-204.21" font-family="Times,serif" font-size="9.00">521</text>
</g>
<!-- VCoil2&#45;&gt;521 -->
<g id="edge8" class="edge">
<title>VCoil2&#45;&gt;521</title>
<path fill="none" stroke="red" stroke-width="0.29" d="M345.29,-267.12C351.62,-259.04 361.73,-246.11 370.93,-234.35"/>
<polygon fill="red" stroke="red" stroke-width="0.29" points="373.69,-236.5 377.09,-226.47 368.17,-232.19 373.69,-236.5"/>
</g>
<!-- HCoil12 -->
<g id="node6" class="node">
<title>HCoil12</title>
<polygon fill="lightgray" stroke="black" points="435,-285.16 381,-285.16 381,-267.16 435,-267.16 435,-285.16"/>
<text text-anchor="middle" x="408" y="-273.96" font-family="Times,serif" font-size="9.00">HCoil12</text>
</g>
<!-- HCoil12&#45;&gt;521 -->
<g id="edge5" class="edge">
<title>HCoil12&#45;&gt;521</title>
<path fill="none" stroke="green" stroke-width="0.14" stroke-dasharray="1,5" d="M406.1,-267.12C404.52,-260.45 402.17,-250.47 399.83,-240.58"/>
<polygon fill="green" stroke="green" stroke-width="0.14" points="403.24,-239.76 397.53,-230.84 396.42,-241.37 403.24,-239.76"/>
</g>
<!-- HCoil22 -->
<g id="node7" class="node">
<title>HCoil22</title>
<polygon fill="lightgray" stroke="black" points="507,-285.16 453,-285.16 453,-267.16 507,-267.16 507,-285.16"/>
<text text-anchor="middle" x="480" y="-273.96" font-family="Times,serif" font-size="9.00">HCoil22</text>
</g>
<!-- VCoil12 -->
<g id="node8" class="node">
<title>VCoil12</title>
<polygon fill="lightgray" stroke="black" points="578.5,-285.16 525.5,-285.16 525.5,-267.16 578.5,-267.16 578.5,-285.16"/>
<text text-anchor="middle" x="552" y="-273.96" font-family="Times,serif" font-size="9.00">VCoil12</text>
</g>
<!-- VCoil22 -->
<g id="node9" class="node">
<title>VCoil22</title>
<polygon fill="lightgray" stroke="black" points="487.5,-215.41 434.5,-215.41 434.5,-197.41 487.5,-197.41 487.5,-215.41"/>
<text text-anchor="middle" x="461" y="-204.21" font-family="Times,serif" font-size="9.00">VCoil22</text>
</g>
<!-- VCoil22&#45;&gt;Activate propulsor -->
<g id="edge3" class="edge">
<title>VCoil22&#45;&gt;Activate propulsor</title>
<path fill="none" stroke="red" stroke-width="0.15" d="M453.37,-197.18C441.6,-184.49 417.99,-159.02 395.26,-134.51"/>
<polygon fill="red" stroke="red" stroke-width="0.15" points="397.61,-131.9 388.25,-126.95 392.48,-136.66 397.61,-131.9"/>
</g>
<!-- 521&#45;&gt;Activate propulsor -->
<g id="edge6" class="edge">
<title>521&#45;&gt;Activate propulsor</title>
<path fill="none" stroke="green" stroke-width="0.68" d="M383.01,-183.09C379.2,-173.63 374.51,-161.99 369.63,-149.87"/>
<polygon fill="green" stroke="green" stroke-width="0.68" points="372.86,-148.52 365.87,-140.55 366.36,-151.13 372.86,-148.52"/>
</g>
<!-- 485&#45;&gt;Activate propulsor -->
<g id="edge4" class="edge">
<title>485&#45;&gt;Activate propulsor</title>
<path fill="none" stroke="red" stroke-width="0.5" d="M294.99,-183.09C298.8,-173.63 303.49,-161.99 308.37,-149.87"/>
<polygon fill="red" stroke="red" stroke-width="0.5" points="311.64,-151.13 312.13,-140.55 305.14,-148.52 311.64,-151.13"/>
</g>
</g>
</svg>
