<?xml version="1.0" encoding="UTF-8" standalone="no"?>
<!DOCTYPE svg PUBLIC "-//W3C//DTD SVG 1.1//EN"
 "http://www.w3.org/Graphics/SVG/1.1/DTD/svg11.dtd">
<!-- Generated by graphviz version 2.43.0 (0)
 -->
<!-- Title: %3 Pages: 1 -->
<svg width="638pt" height="293pt"
 viewBox="0.00 0.00 638.00 293.16" xmlns="http://www.w3.org/2000/svg" xmlns:xlink="http://www.w3.org/1999/xlink">
<g id="graph0" class="graph" transform="scale(1 1) rotate(0) translate(4 289.16)">
<title>%3</title>
<polygon fill="white" stroke="transparent" points="-4,4 -4,-289.16 634,-289.16 634,4 -4,4"/>
<!-- Player_height -->
<g id="node1" class="node">
<title>Player_height</title>
<polygon fill="lightgray" stroke="black" points="80,-215.41 0,-215.41 0,-197.41 80,-197.41 80,-215.41"/>
<text text-anchor="middle" x="40" y="-204.21" font-family="Times,serif" font-size="9.00">Player_height</text>
</g>
<!-- Activate propulsor -->
<g id="node10" class="node">
<title>Activate propulsor</title>
<ellipse fill="lightblue" stroke="black" cx="221" cy="-72.83" rx="72.66" ry="72.66"/>
<text text-anchor="middle" x="221" y="-70.63" font-family="Times,serif" font-size="9.00">Activate propulsor</text>
</g>
<!-- Player_height&#45;&gt;Activate propulsor -->
<g id="edge1" class="edge">
<title>Player_height&#45;&gt;Activate propulsor</title>
<path fill="none" stroke="red" stroke-width="0.25" d="M51.05,-197.38C71.33,-182.64 115.93,-150.21 154.36,-122.28"/>
<polygon fill="red" stroke="red" stroke-width="0.25" points="156.42,-125.1 162.45,-116.39 152.31,-119.44 156.42,-125.1"/>
</g>
<!-- HCoil1 -->
<g id="node2" class="node">
<title>HCoil1</title>
<polygon fill="lightgray" stroke="black" points="420,-285.16 372,-285.16 372,-267.16 420,-267.16 420,-285.16"/>
<text text-anchor="middle" x="396" y="-273.96" font-family="Times,serif" font-size="9.00">HCoil1</text>
</g>
<!-- 163 -->
<g id="node12" class="node">
<title>163</title>
<ellipse fill="white" stroke="black" cx="397" cy="-206.41" rx="25" ry="25"/>
<text text-anchor="middle" x="397" y="-204.21" font-family="Times,serif" font-size="9.00">163</text>
</g>
<!-- HCoil1&#45;&gt;163 -->
<g id="edge8" class="edge">
<title>HCoil1&#45;&gt;163</title>
<path fill="none" stroke="red" stroke-width="0.38" d="M396.12,-267.12C396.21,-260.69 396.35,-251.19 396.49,-241.65"/>
<polygon fill="red" stroke="red" stroke-width="0.38" points="400,-241.48 396.65,-231.43 393,-241.38 400,-241.48"/>
</g>
<!-- HCoil2 -->
<g id="node3" class="node">
<title>HCoil2</title>
<polygon fill="lightgray" stroke="black" points="558,-285.16 510,-285.16 510,-267.16 558,-267.16 558,-285.16"/>
<text text-anchor="middle" x="534" y="-273.96" font-family="Times,serif" font-size="9.00">HCoil2</text>
</g>
<!-- VCoil1 -->
<g id="node4" class="node">
<title>VCoil1</title>
<polygon fill="lightgray" stroke="black" points="145.5,-215.41 98.5,-215.41 98.5,-197.41 145.5,-197.41 145.5,-215.41"/>
<text text-anchor="middle" x="122" y="-204.21" font-family="Times,serif" font-size="9.00">VCoil1</text>
</g>
<!-- VCoil1&#45;&gt;Activate propulsor -->
<g id="edge2" class="edge">
<title>VCoil1&#45;&gt;Activate propulsor</title>
<path fill="none" stroke="red" stroke-width="0.34" d="M128.19,-197.18C137.09,-185.35 154.33,-162.45 171.56,-139.55"/>
<polygon fill="red" stroke="red" stroke-width="0.34" points="174.42,-141.56 177.63,-131.47 168.83,-137.36 174.42,-141.56"/>
</g>
<!-- VCoil2 -->
<g id="node5" class="node">
<title>VCoil2</title>
<polygon fill="lightgray" stroke="black" points="210.5,-215.41 163.5,-215.41 163.5,-197.41 210.5,-197.41 210.5,-215.41"/>
<text text-anchor="middle" x="187" y="-204.21" font-family="Times,serif" font-size="9.00">VCoil2</text>
</g>
<!-- VCoil2&#45;&gt;Activate propulsor -->
<g id="edge3" class="edge">
<title>VCoil2&#45;&gt;Activate propulsor</title>
<path fill="none" stroke="green" stroke-width="0.46" d="M189.13,-197.18C191.56,-187.78 195.79,-171.38 200.4,-153.56"/>
<polygon fill="green" stroke="green" stroke-width="0.46" points="203.87,-154.1 202.99,-143.54 197.1,-152.34 203.87,-154.1"/>
</g>
<!-- HCoil12 -->
<g id="node6" class="node">
<title>HCoil12</title>
<polygon fill="lightgray" stroke="black" points="283,-215.41 229,-215.41 229,-197.41 283,-197.41 283,-215.41"/>
<text text-anchor="middle" x="256" y="-204.21" font-family="Times,serif" font-size="9.00">HCoil12</text>
</g>
<!-- HCoil12&#45;&gt;Activate propulsor -->
<g id="edge4" class="edge">
<title>HCoil12&#45;&gt;Activate propulsor</title>
<path fill="none" stroke="green" stroke-width="0.21" d="M253.81,-197.18C251.31,-187.78 246.95,-171.38 242.21,-153.56"/>
<polygon fill="green" stroke="green" stroke-width="0.21" points="245.49,-152.3 239.54,-143.54 238.73,-154.1 245.49,-152.3"/>
</g>
<!-- HCoil22 -->
<g id="node7" class="node">
<title>HCoil22</title>
<polygon fill="lightgray" stroke="black" points="630,-285.16 576,-285.16 576,-267.16 630,-267.16 630,-285.16"/>
<text text-anchor="middle" x="603" y="-273.96" font-family="Times,serif" font-size="9.00">HCoil22</text>
</g>
<!-- VCoil12 -->
<g id="node8" class="node">
<title>VCoil12</title>
<polygon fill="lightgray" stroke="black" points="354.5,-215.41 301.5,-215.41 301.5,-197.41 354.5,-197.41 354.5,-215.41"/>
<text text-anchor="middle" x="328" y="-204.21" font-family="Times,serif" font-size="9.00">VCoil12</text>
</g>
<!-- VCoil12&#45;&gt;Activate propulsor -->
<g id="edge5" class="edge">
<title>VCoil12&#45;&gt;Activate propulsor</title>
<path fill="none" stroke="green" stroke-width="0.47" d="M321.31,-197.18C311.44,-185.05 292.1,-161.26 273,-137.78"/>
<polygon fill="green" stroke="green" stroke-width="0.47" points="275.58,-135.4 266.55,-129.85 270.15,-139.82 275.58,-135.4"/>
</g>
<!-- VCoil22 -->
<g id="node9" class="node">
<title>VCoil22</title>
<polygon fill="lightgray" stroke="black" points="491.5,-285.16 438.5,-285.16 438.5,-267.16 491.5,-267.16 491.5,-285.16"/>
<text text-anchor="middle" x="465" y="-273.96" font-family="Times,serif" font-size="9.00">VCoil22</text>
</g>
<!-- 266 -->
<g id="node11" class="node">
<title>266</title>
<ellipse fill="white" stroke="black" cx="465" cy="-206.41" rx="25" ry="25"/>
<text text-anchor="middle" x="465" y="-204.21" font-family="Times,serif" font-size="9.00">266</text>
</g>
<!-- VCoil22&#45;&gt;266 -->
<g id="edge9" class="edge">
<title>VCoil22&#45;&gt;266</title>
<path fill="none" stroke="red" stroke-width="0.11" d="M465,-267.12C465,-260.69 465,-251.19 465,-241.65"/>
<polygon fill="red" stroke="red" stroke-width="0.11" points="468.5,-241.43 465,-231.43 461.5,-241.43 468.5,-241.43"/>
</g>
<!-- VCoil22&#45;&gt;163 -->
<g id="edge6" class="edge">
<title>VCoil22&#45;&gt;163</title>
<path fill="none" stroke="green" stroke-width="0.31" stroke-dasharray="1,5" d="M456.93,-267.12C448.25,-258.47 434.01,-244.29 421.6,-231.92"/>
<polygon fill="green" stroke="green" stroke-width="0.31" points="423.72,-229.09 414.16,-224.51 418.78,-234.05 423.72,-229.09"/>
</g>
<!-- 163&#45;&gt;Activate propulsor -->
<g id="edge7" class="edge">
<title>163&#45;&gt;Activate propulsor</title>
<path fill="none" stroke="green" stroke-width="0.46" d="M377.49,-190.83C355.71,-174.54 319.28,-147.31 287.04,-123.21"/>
<polygon fill="green" stroke="green" stroke-width="0.46" points="289.05,-120.34 278.95,-117.16 284.86,-125.95 289.05,-120.34"/>
</g>
</g>
</svg>
