<?xml version="1.0" encoding="UTF-8" standalone="no"?>
<!DOCTYPE svg PUBLIC "-//W3C//DTD SVG 1.1//EN"
 "http://www.w3.org/Graphics/SVG/1.1/DTD/svg11.dtd">
<!-- Generated by graphviz version 2.43.0 (0)
 -->
<!-- Title: %3 Pages: 1 -->
<svg width="430pt" height="293pt"
 viewBox="0.00 0.00 429.50 293.16" xmlns="http://www.w3.org/2000/svg" xmlns:xlink="http://www.w3.org/1999/xlink">
<g id="graph0" class="graph" transform="scale(1 1) rotate(0) translate(4 289.16)">
<title>%3</title>
<polygon fill="white" stroke="transparent" points="-4,4 -4,-289.16 425.5,-289.16 425.5,4 -4,4"/>
<!-- Player_height -->
<g id="node1" class="node">
<title>Player_height</title>
<polygon fill="lightgray" stroke="black" points="80,-285.16 0,-285.16 0,-267.16 80,-267.16 80,-285.16"/>
<text text-anchor="middle" x="40" y="-273.96" font-family="Times,serif" font-size="9.00">Player_height</text>
</g>
<!-- HCoil1 -->
<g id="node2" class="node">
<title>HCoil1</title>
<polygon fill="lightgray" stroke="black" points="146,-285.16 98,-285.16 98,-267.16 146,-267.16 146,-285.16"/>
<text text-anchor="middle" x="122" y="-273.96" font-family="Times,serif" font-size="9.00">HCoil1</text>
</g>
<!-- HCoil2 -->
<g id="node3" class="node">
<title>HCoil2</title>
<polygon fill="lightgray" stroke="black" points="212,-285.16 164,-285.16 164,-267.16 212,-267.16 212,-285.16"/>
<text text-anchor="middle" x="188" y="-273.96" font-family="Times,serif" font-size="9.00">HCoil2</text>
</g>
<!-- 485 -->
<g id="node11" class="node">
<title>485</title>
<ellipse fill="white" stroke="black" cx="188" cy="-206.41" rx="25" ry="25"/>
<text text-anchor="middle" x="188" y="-204.21" font-family="Times,serif" font-size="9.00">485</text>
</g>
<!-- HCoil2&#45;&gt;485 -->
<g id="edge4" class="edge">
<title>HCoil2&#45;&gt;485</title>
<path fill="none" stroke="green" stroke-width="0.16" d="M188,-267.12C188,-260.69 188,-251.19 188,-241.65"/>
<polygon fill="green" stroke="green" stroke-width="0.16" points="191.5,-241.43 188,-231.43 184.5,-241.43 191.5,-241.43"/>
</g>
<!-- VCoil1 -->
<g id="node4" class="node">
<title>VCoil1</title>
<polygon fill="lightgray" stroke="black" points="277.5,-285.16 230.5,-285.16 230.5,-267.16 277.5,-267.16 277.5,-285.16"/>
<text text-anchor="middle" x="254" y="-273.96" font-family="Times,serif" font-size="9.00">VCoil1</text>
</g>
<!-- VCoil2 -->
<g id="node5" class="node">
<title>VCoil2</title>
<polygon fill="lightgray" stroke="black" points="277.5,-215.41 230.5,-215.41 230.5,-197.41 277.5,-197.41 277.5,-215.41"/>
<text text-anchor="middle" x="254" y="-204.21" font-family="Times,serif" font-size="9.00">VCoil2</text>
</g>
<!-- Activate propulsor -->
<g id="node10" class="node">
<title>Activate propulsor</title>
<ellipse fill="lightblue" stroke="black" cx="288" cy="-72.83" rx="72.66" ry="72.66"/>
<text text-anchor="middle" x="288" y="-70.63" font-family="Times,serif" font-size="9.00">Activate propulsor</text>
</g>
<!-- VCoil2&#45;&gt;Activate propulsor -->
<g id="edge1" class="edge">
<title>VCoil2&#45;&gt;Activate propulsor</title>
<path fill="none" stroke="green" stroke-width="0.59" d="M256.13,-197.18C258.56,-187.78 262.79,-171.38 267.4,-153.56"/>
<polygon fill="green" stroke="green" stroke-width="0.59" points="270.87,-154.1 269.99,-143.54 264.1,-152.34 270.87,-154.1"/>
</g>
<!-- HCoil12 -->
<g id="node6" class="node">
<title>HCoil12</title>
<polygon fill="lightgray" stroke="black" points="350,-215.41 296,-215.41 296,-197.41 350,-197.41 350,-215.41"/>
<text text-anchor="middle" x="323" y="-204.21" font-family="Times,serif" font-size="9.00">HCoil12</text>
</g>
<!-- HCoil12&#45;&gt;Activate propulsor -->
<g id="edge3" class="edge">
<title>HCoil12&#45;&gt;Activate propulsor</title>
<path fill="none" stroke="green" stroke-width="0.82" d="M320.81,-197.18C318.31,-187.78 313.95,-171.38 309.21,-153.56"/>
<polygon fill="green" stroke="green" stroke-width="0.82" points="312.49,-152.3 306.54,-143.54 305.73,-154.1 312.49,-152.3"/>
</g>
<!-- HCoil22 -->
<g id="node7" class="node">
<title>HCoil22</title>
<polygon fill="lightgray" stroke="black" points="350,-285.16 296,-285.16 296,-267.16 350,-267.16 350,-285.16"/>
<text text-anchor="middle" x="323" y="-273.96" font-family="Times,serif" font-size="9.00">HCoil22</text>
</g>
<!-- VCoil12 -->
<g id="node8" class="node">
<title>VCoil12</title>
<polygon fill="lightgray" stroke="black" points="421.5,-285.16 368.5,-285.16 368.5,-267.16 421.5,-267.16 421.5,-285.16"/>
<text text-anchor="middle" x="395" y="-273.96" font-family="Times,serif" font-size="9.00">VCoil12</text>
</g>
<!-- VCoil22 -->
<g id="node9" class="node">
<title>VCoil22</title>
<polygon fill="lightgray" stroke="black" points="421.5,-215.41 368.5,-215.41 368.5,-197.41 421.5,-197.41 421.5,-215.41"/>
<text text-anchor="middle" x="395" y="-204.21" font-family="Times,serif" font-size="9.00">VCoil22</text>
</g>
<!-- VCoil22&#45;&gt;Activate propulsor -->
<g id="edge2" class="edge">
<title>VCoil22&#45;&gt;Activate propulsor</title>
<path fill="none" stroke="green" stroke-width="0.43" d="M388.31,-197.18C378.44,-185.05 359.1,-161.26 340,-137.78"/>
<polygon fill="green" stroke="green" stroke-width="0.43" points="342.58,-135.4 333.55,-129.85 337.15,-139.82 342.58,-135.4"/>
</g>
<!-- 485&#45;&gt;Activate propulsor -->
<g id="edge5" class="edge">
<title>485&#45;&gt;Activate propulsor</title>
<path fill="none" stroke="red" stroke-width="0.17" d="M202.54,-186.28C211.99,-173.85 224.92,-156.83 237.87,-139.8"/>
<polygon fill="red" stroke="red" stroke-width="0.17" points="240.94,-141.54 244.21,-131.46 235.37,-137.3 240.94,-141.54"/>
</g>
</g>
</svg>
