<?xml version="1.0" encoding="UTF-8" standalone="no"?>
<!DOCTYPE svg PUBLIC "-//W3C//DTD SVG 1.1//EN"
 "http://www.w3.org/Graphics/SVG/1.1/DTD/svg11.dtd">
<!-- Generated by graphviz version 2.43.0 (0)
 -->
<!-- Title: %3 Pages: 1 -->
<svg width="495pt" height="293pt"
 viewBox="0.00 0.00 494.50 293.16" xmlns="http://www.w3.org/2000/svg" xmlns:xlink="http://www.w3.org/1999/xlink">
<g id="graph0" class="graph" transform="scale(1 1) rotate(0) translate(4 289.16)">
<title>%3</title>
<polygon fill="white" stroke="transparent" points="-4,4 -4,-289.16 490.5,-289.16 490.5,4 -4,4"/>
<!-- Player_height -->
<g id="node1" class="node">
<title>Player_height</title>
<polygon fill="lightgray" stroke="black" points="80,-285.16 0,-285.16 0,-267.16 80,-267.16 80,-285.16"/>
<text text-anchor="middle" x="40" y="-273.96" font-family="Times,serif" font-size="9.00">Player_height</text>
</g>
<!-- HCoil1 -->
<g id="node2" class="node">
<title>HCoil1</title>
<polygon fill="lightgray" stroke="black" points="146,-285.16 98,-285.16 98,-267.16 146,-267.16 146,-285.16"/>
<text text-anchor="middle" x="122" y="-273.96" font-family="Times,serif" font-size="9.00">HCoil1</text>
</g>
<!-- HCoil2 -->
<g id="node3" class="node">
<title>HCoil2</title>
<polygon fill="lightgray" stroke="black" points="212,-285.16 164,-285.16 164,-267.16 212,-267.16 212,-285.16"/>
<text text-anchor="middle" x="188" y="-273.96" font-family="Times,serif" font-size="9.00">HCoil2</text>
</g>
<!-- 485 -->
<g id="node11" class="node">
<title>485</title>
<ellipse fill="white" stroke="black" cx="188" cy="-206.41" rx="25" ry="25"/>
<text text-anchor="middle" x="188" y="-204.21" font-family="Times,serif" font-size="9.00">485</text>
</g>
<!-- HCoil2&#45;&gt;485 -->
<g id="edge5" class="edge">
<title>HCoil2&#45;&gt;485</title>
<path fill="none" stroke="green" stroke-width="0.16" d="M188,-267.12C188,-260.69 188,-251.19 188,-241.65"/>
<polygon fill="green" stroke="green" stroke-width="0.16" points="191.5,-241.43 188,-231.43 184.5,-241.43 191.5,-241.43"/>
</g>
<!-- VCoil1 -->
<g id="node4" class="node">
<title>VCoil1</title>
<polygon fill="lightgray" stroke="black" points="277.5,-215.41 230.5,-215.41 230.5,-197.41 277.5,-197.41 277.5,-215.41"/>
<text text-anchor="middle" x="254" y="-204.21" font-family="Times,serif" font-size="9.00">VCoil1</text>
</g>
<!-- Activate propulsor -->
<g id="node10" class="node">
<title>Activate propulsor</title>
<ellipse fill="lightblue" stroke="black" cx="319" cy="-72.83" rx="72.66" ry="72.66"/>
<text text-anchor="middle" x="319" y="-70.63" font-family="Times,serif" font-size="9.00">Activate propulsor</text>
</g>
<!-- VCoil1&#45;&gt;Activate propulsor -->
<g id="edge1" class="edge">
<title>VCoil1&#45;&gt;Activate propulsor</title>
<path fill="none" stroke="red" stroke-width="0.49" d="M258.07,-197.18C263.2,-186.79 272.56,-167.84 282.43,-147.86"/>
<polygon fill="red" stroke="red" stroke-width="0.49" points="285.69,-149.15 286.99,-138.64 279.42,-146.05 285.69,-149.15"/>
</g>
<!-- VCoil2 -->
<g id="node5" class="node">
<title>VCoil2</title>
<polygon fill="lightgray" stroke="black" points="342.5,-215.41 295.5,-215.41 295.5,-197.41 342.5,-197.41 342.5,-215.41"/>
<text text-anchor="middle" x="319" y="-204.21" font-family="Times,serif" font-size="9.00">VCoil2</text>
</g>
<!-- VCoil2&#45;&gt;Activate propulsor -->
<g id="edge2" class="edge">
<title>VCoil2&#45;&gt;Activate propulsor</title>
<path fill="none" stroke="green" stroke-width="0.79" d="M319,-197.18C319,-188.2 319,-172.82 319,-155.92"/>
<polygon fill="green" stroke="green" stroke-width="0.79" points="322.5,-155.82 319,-145.82 315.5,-155.82 322.5,-155.82"/>
</g>
<!-- HCoil12 -->
<g id="node6" class="node">
<title>HCoil12</title>
<polygon fill="lightgray" stroke="black" points="415,-215.41 361,-215.41 361,-197.41 415,-197.41 415,-215.41"/>
<text text-anchor="middle" x="388" y="-204.21" font-family="Times,serif" font-size="9.00">HCoil12</text>
</g>
<!-- HCoil12&#45;&gt;Activate propulsor -->
<g id="edge4" class="edge">
<title>HCoil12&#45;&gt;Activate propulsor</title>
<path fill="none" stroke="green" stroke-width="0.19" d="M383.68,-197.18C378.13,-186.6 367.93,-167.13 357.23,-146.74"/>
<polygon fill="green" stroke="green" stroke-width="0.19" points="360.21,-144.89 352.47,-137.66 354.01,-148.14 360.21,-144.89"/>
</g>
<!-- HCoil22 -->
<g id="node7" class="node">
<title>HCoil22</title>
<polygon fill="lightgray" stroke="black" points="284,-285.16 230,-285.16 230,-267.16 284,-267.16 284,-285.16"/>
<text text-anchor="middle" x="257" y="-273.96" font-family="Times,serif" font-size="9.00">HCoil22</text>
</g>
<!-- VCoil12 -->
<g id="node8" class="node">
<title>VCoil12</title>
<polygon fill="lightgray" stroke="black" points="355.5,-285.16 302.5,-285.16 302.5,-267.16 355.5,-267.16 355.5,-285.16"/>
<text text-anchor="middle" x="329" y="-273.96" font-family="Times,serif" font-size="9.00">VCoil12</text>
</g>
<!-- VCoil22 -->
<g id="node9" class="node">
<title>VCoil22</title>
<polygon fill="lightgray" stroke="black" points="486.5,-215.41 433.5,-215.41 433.5,-197.41 486.5,-197.41 486.5,-215.41"/>
<text text-anchor="middle" x="460" y="-204.21" font-family="Times,serif" font-size="9.00">VCoil22</text>
</g>
<!-- VCoil22&#45;&gt;Activate propulsor -->
<g id="edge3" class="edge">
<title>VCoil22&#45;&gt;Activate propulsor</title>
<path fill="none" stroke="green" stroke-width="0.46" d="M451.18,-197.18C436.74,-183.7 406.86,-155.83 379.17,-129.98"/>
<polygon fill="green" stroke="green" stroke-width="0.46" points="381.51,-127.38 371.81,-123.11 376.73,-132.49 381.51,-127.38"/>
</g>
<!-- 485&#45;&gt;Activate propulsor -->
<g id="edge6" class="edge">
<title>485&#45;&gt;Activate propulsor</title>
<path fill="none" stroke="red" stroke-width="0.33" d="M205.13,-188.21C219.39,-173.88 240.58,-152.6 260.83,-132.26"/>
<polygon fill="red" stroke="red" stroke-width="0.33" points="263.36,-134.68 267.94,-125.12 258.4,-129.74 263.36,-134.68"/>
</g>
</g>
</svg>
