<?xml version="1.0" encoding="UTF-8" standalone="no"?>
<!DOCTYPE svg PUBLIC "-//W3C//DTD SVG 1.1//EN"
 "http://www.w3.org/Graphics/SVG/1.1/DTD/svg11.dtd">
<!-- Generated by graphviz version 2.43.0 (0)
 -->
<!-- Title: %3 Pages: 1 -->
<svg width="555pt" height="293pt"
 viewBox="0.00 0.00 555.00 293.16" xmlns="http://www.w3.org/2000/svg" xmlns:xlink="http://www.w3.org/1999/xlink">
<g id="graph0" class="graph" transform="scale(1 1) rotate(0) translate(4 289.16)">
<title>%3</title>
<polygon fill="white" stroke="transparent" points="-4,4 -4,-289.16 551,-289.16 551,4 -4,4"/>
<!-- Player_height -->
<g id="node1" class="node">
<title>Player_height</title>
<polygon fill="lightgray" stroke="black" points="80,-285.16 0,-285.16 0,-267.16 80,-267.16 80,-285.16"/>
<text text-anchor="middle" x="40" y="-273.96" font-family="Times,serif" font-size="9.00">Player_height</text>
</g>
<!-- 888 -->
<g id="node12" class="node">
<title>888</title>
<ellipse fill="white" stroke="black" cx="58" cy="-206.41" rx="25" ry="25"/>
<text text-anchor="middle" x="58" y="-204.21" font-family="Times,serif" font-size="9.00">888</text>
</g>
<!-- Player_height&#45;&gt;888 -->
<g id="edge12" class="edge">
<title>Player_height&#45;&gt;888</title>
<path fill="none" stroke="green" stroke-width="0.39" d="M42.14,-267.12C43.92,-260.39 46.6,-250.31 49.25,-240.34"/>
<polygon fill="green" stroke="green" stroke-width="0.39" points="52.67,-241.1 51.86,-230.54 45.91,-239.3 52.67,-241.1"/>
</g>
<!-- HCoil1 -->
<g id="node2" class="node">
<title>HCoil1</title>
<polygon fill="lightgray" stroke="black" points="475,-285.16 427,-285.16 427,-267.16 475,-267.16 475,-285.16"/>
<text text-anchor="middle" x="451" y="-273.96" font-family="Times,serif" font-size="9.00">HCoil1</text>
</g>
<!-- HCoil2 -->
<g id="node3" class="node">
<title>HCoil2</title>
<polygon fill="lightgray" stroke="black" points="290,-285.16 242,-285.16 242,-267.16 290,-267.16 290,-285.16"/>
<text text-anchor="middle" x="266" y="-273.96" font-family="Times,serif" font-size="9.00">HCoil2</text>
</g>
<!-- 485 -->
<g id="node13" class="node">
<title>485</title>
<ellipse fill="white" stroke="black" cx="250" cy="-206.41" rx="25" ry="25"/>
<text text-anchor="middle" x="250" y="-204.21" font-family="Times,serif" font-size="9.00">485</text>
</g>
<!-- HCoil2&#45;&gt;485 -->
<g id="edge4" class="edge">
<title>HCoil2&#45;&gt;485</title>
<path fill="none" stroke="red" stroke-width="0.17" d="M264.1,-267.12C262.52,-260.45 260.17,-250.47 257.83,-240.58"/>
<polygon fill="red" stroke="red" stroke-width="0.17" points="261.24,-239.76 255.53,-230.84 254.42,-241.37 261.24,-239.76"/>
</g>
<!-- VCoil1 -->
<g id="node4" class="node">
<title>VCoil1</title>
<polygon fill="lightgray" stroke="black" points="408.5,-285.16 361.5,-285.16 361.5,-267.16 408.5,-267.16 408.5,-285.16"/>
<text text-anchor="middle" x="385" y="-273.96" font-family="Times,serif" font-size="9.00">VCoil1</text>
</g>
<!-- Activate propulsor -->
<g id="node10" class="node">
<title>Activate propulsor</title>
<ellipse fill="lightblue" stroke="black" cx="316" cy="-72.83" rx="72.66" ry="72.66"/>
<text text-anchor="middle" x="316" y="-70.63" font-family="Times,serif" font-size="9.00">Activate propulsor</text>
</g>
<!-- VCoil1&#45;&gt;Activate propulsor -->
<g id="edge1" class="edge">
<title>VCoil1&#45;&gt;Activate propulsor</title>
<path fill="none" stroke="red" stroke-width="0.63" d="M394.22,-267.16C402.77,-259.07 414.92,-245.72 420,-231.16 427.25,-210.39 428.23,-202.06 420,-181.66 411.47,-160.54 396.61,-141.25 380.74,-125.01"/>
<polygon fill="red" stroke="red" stroke-width="0.63" points="382.97,-122.3 373.4,-117.76 378.06,-127.28 382.97,-122.3"/>
</g>
<!-- VCoil1&#45;&gt;485 -->
<g id="edge6" class="edge">
<title>VCoil1&#45;&gt;485</title>
<path fill="none" stroke="green" stroke-width="0.58" d="M363.12,-267.09C342.25,-259.05 310.2,-245.83 284,-231.16 282.01,-230.05 279.99,-228.84 277.98,-227.59"/>
<polygon fill="green" stroke="green" stroke-width="0.58" points="279.62,-224.49 269.35,-221.91 275.78,-230.33 279.62,-224.49"/>
</g>
<!-- VCoil2 -->
<g id="node5" class="node">
<title>VCoil2</title>
<polygon fill="lightgray" stroke="black" points="339.5,-215.41 292.5,-215.41 292.5,-197.41 339.5,-197.41 339.5,-215.41"/>
<text text-anchor="middle" x="316" y="-204.21" font-family="Times,serif" font-size="9.00">VCoil2</text>
</g>
<!-- VCoil2&#45;&gt;Activate propulsor -->
<g id="edge2" class="edge">
<title>VCoil2&#45;&gt;Activate propulsor</title>
<path fill="none" stroke="green" stroke-width="0.65" d="M316,-197.18C316,-188.2 316,-172.82 316,-155.92"/>
<polygon fill="green" stroke="green" stroke-width="0.65" points="319.5,-155.82 316,-145.82 312.5,-155.82 319.5,-155.82"/>
</g>
<!-- HCoil12 -->
<g id="node6" class="node">
<title>HCoil12</title>
<polygon fill="lightgray" stroke="black" points="547,-285.16 493,-285.16 493,-267.16 547,-267.16 547,-285.16"/>
<text text-anchor="middle" x="520" y="-273.96" font-family="Times,serif" font-size="9.00">HCoil12</text>
</g>
<!-- HCoil22 -->
<g id="node7" class="node">
<title>HCoil22</title>
<polygon fill="lightgray" stroke="black" points="152,-285.16 98,-285.16 98,-267.16 152,-267.16 152,-285.16"/>
<text text-anchor="middle" x="125" y="-273.96" font-family="Times,serif" font-size="9.00">HCoil22</text>
</g>
<!-- 521 -->
<g id="node11" class="node">
<title>521</title>
<ellipse fill="white" stroke="black" cx="134" cy="-206.41" rx="25" ry="25"/>
<text text-anchor="middle" x="134" y="-204.21" font-family="Times,serif" font-size="9.00">521</text>
</g>
<!-- HCoil22&#45;&gt;521 -->
<g id="edge7" class="edge">
<title>HCoil22&#45;&gt;521</title>
<path fill="none" stroke="red" stroke-width="0.13" d="M126.07,-267.12C126.94,-260.57 128.23,-250.83 129.52,-241.12"/>
<polygon fill="red" stroke="red" stroke-width="0.13" points="133,-241.51 130.85,-231.13 126.06,-240.59 133,-241.51"/>
</g>
<!-- VCoil12 -->
<g id="node8" class="node">
<title>VCoil12</title>
<polygon fill="lightgray" stroke="black" points="410.5,-215.41 357.5,-215.41 357.5,-197.41 410.5,-197.41 410.5,-215.41"/>
<text text-anchor="middle" x="384" y="-204.21" font-family="Times,serif" font-size="9.00">VCoil12</text>
</g>
<!-- VCoil12&#45;&gt;Activate propulsor -->
<g id="edge11" class="edge">
<title>VCoil12&#45;&gt;Activate propulsor</title>
<path fill="none" stroke="green" stroke-width="0.24" d="M379.75,-197.18C374.3,-186.64 364.31,-167.31 353.83,-147.03"/>
<polygon fill="green" stroke="green" stroke-width="0.24" points="356.85,-145.26 349.15,-137.99 350.64,-148.48 356.85,-145.26"/>
</g>
<!-- VCoil22 -->
<g id="node9" class="node">
<title>VCoil22</title>
<polygon fill="lightgray" stroke="black" points="223.5,-285.16 170.5,-285.16 170.5,-267.16 223.5,-267.16 223.5,-285.16"/>
<text text-anchor="middle" x="197" y="-273.96" font-family="Times,serif" font-size="9.00">VCoil22</text>
</g>
<!-- VCoil22&#45;&gt;Activate propulsor -->
<g id="edge3" class="edge">
<title>VCoil22&#45;&gt;Activate propulsor</title>
<path fill="none" stroke="green" stroke-width="0.15" d="M197.2,-266.92C197.91,-250.01 201.18,-210.55 216,-181.66 225.72,-162.73 239.71,-144.69 254.16,-128.97"/>
<polygon fill="green" stroke="green" stroke-width="0.15" points="256.95,-131.12 261.28,-121.45 251.86,-126.31 256.95,-131.12"/>
</g>
<!-- VCoil22&#45;&gt;521 -->
<g id="edge9" class="edge">
<title>VCoil22&#45;&gt;521</title>
<path fill="none" stroke="red" stroke-width="0.3" d="M189.53,-267.12C181.59,-258.59 168.65,-244.67 157.25,-232.42"/>
<polygon fill="red" stroke="red" stroke-width="0.3" points="159.79,-230 150.41,-225.07 154.66,-234.77 159.79,-230"/>
</g>
<!-- VCoil22&#45;&gt;888 -->
<g id="edge8" class="edge">
<title>VCoil22&#45;&gt;888</title>
<path fill="none" stroke="green" stroke-width="0.3" d="M177.8,-267.05C158.06,-258.58 126.54,-244.65 100,-231.16 96.14,-229.2 92.12,-227.06 88.17,-224.89"/>
<polygon fill="green" stroke="green" stroke-width="0.3" points="89.6,-221.69 79.17,-219.87 86.19,-227.8 89.6,-221.69"/>
</g>
<!-- VCoil22&#45;&gt;485 -->
<g id="edge10" class="edge">
<title>VCoil22&#45;&gt;485</title>
<path fill="none" stroke="green" stroke-width="0.28" d="M203.29,-267.12C209.62,-259.04 219.73,-246.11 228.93,-234.35"/>
<polygon fill="green" stroke="green" stroke-width="0.28" points="231.69,-236.5 235.09,-226.47 226.17,-232.19 231.69,-236.5"/>
</g>
<!-- 485&#45;&gt;Activate propulsor -->
<g id="edge5" class="edge">
<title>485&#45;&gt;Activate propulsor</title>
<path fill="none" stroke="green" stroke-width="0.15" d="M260.75,-183.98C265.89,-173.74 272.36,-160.83 279.06,-147.47"/>
<polygon fill="green" stroke="green" stroke-width="0.15" points="282.37,-148.69 283.72,-138.18 276.11,-145.55 282.37,-148.69"/>
</g>
</g>
</svg>
