<?xml version="1.0" encoding="UTF-8" standalone="no"?>
<!DOCTYPE svg PUBLIC "-//W3C//DTD SVG 1.1//EN"
 "http://www.w3.org/Graphics/SVG/1.1/DTD/svg11.dtd">
<!-- Generated by graphviz version 2.43.0 (0)
 -->
<!-- Title: %3 Pages: 1 -->
<svg width="645pt" height="293pt"
 viewBox="0.00 0.00 645.00 293.16" xmlns="http://www.w3.org/2000/svg" xmlns:xlink="http://www.w3.org/1999/xlink">
<g id="graph0" class="graph" transform="scale(1 1) rotate(0) translate(4 289.16)">
<title>%3</title>
<polygon fill="white" stroke="transparent" points="-4,4 -4,-289.16 641,-289.16 641,4 -4,4"/>
<!-- Player_height -->
<g id="node1" class="node">
<title>Player_height</title>
<polygon fill="lightgray" stroke="black" points="80,-285.16 0,-285.16 0,-267.16 80,-267.16 80,-285.16"/>
<text text-anchor="middle" x="40" y="-273.96" font-family="Times,serif" font-size="9.00">Player_height</text>
</g>
<!-- HCoil1 -->
<g id="node2" class="node">
<title>HCoil1</title>
<polygon fill="lightgray" stroke="black" points="146,-285.16 98,-285.16 98,-267.16 146,-267.16 146,-285.16"/>
<text text-anchor="middle" x="122" y="-273.96" font-family="Times,serif" font-size="9.00">HCoil1</text>
</g>
<!-- HCoil2 -->
<g id="node3" class="node">
<title>HCoil2</title>
<polygon fill="lightgray" stroke="black" points="212,-285.16 164,-285.16 164,-267.16 212,-267.16 212,-285.16"/>
<text text-anchor="middle" x="188" y="-273.96" font-family="Times,serif" font-size="9.00">HCoil2</text>
</g>
<!-- 485 -->
<g id="node12" class="node">
<title>485</title>
<ellipse fill="white" stroke="black" cx="268" cy="-206.41" rx="25" ry="25"/>
<text text-anchor="middle" x="268" y="-204.21" font-family="Times,serif" font-size="9.00">485</text>
</g>
<!-- HCoil2&#45;&gt;485 -->
<g id="edge4" class="edge">
<title>HCoil2&#45;&gt;485</title>
<path fill="none" stroke="green" stroke-width="0.38" d="M197.49,-267.12C208.25,-258.01 226.25,-242.77 241.37,-229.96"/>
<polygon fill="green" stroke="green" stroke-width="0.38" points="244.04,-232.29 249.41,-223.16 239.52,-226.95 244.04,-232.29"/>
</g>
<!-- VCoil1 -->
<g id="node4" class="node">
<title>VCoil1</title>
<polygon fill="lightgray" stroke="black" points="348.5,-285.16 301.5,-285.16 301.5,-267.16 348.5,-267.16 348.5,-285.16"/>
<text text-anchor="middle" x="325" y="-273.96" font-family="Times,serif" font-size="9.00">VCoil1</text>
</g>
<!-- Activate propulsor -->
<g id="node10" class="node">
<title>Activate propulsor</title>
<ellipse fill="lightblue" stroke="black" cx="361" cy="-72.83" rx="72.66" ry="72.66"/>
<text text-anchor="middle" x="361" y="-70.63" font-family="Times,serif" font-size="9.00">Activate propulsor</text>
</g>
<!-- VCoil1&#45;&gt;Activate propulsor -->
<g id="edge1" class="edge">
<title>VCoil1&#45;&gt;Activate propulsor</title>
<path fill="none" stroke="red" stroke-width="0.54" d="M326.46,-267.02C329.87,-247.94 338.69,-198.61 346.56,-154.58"/>
<polygon fill="red" stroke="red" stroke-width="0.54" points="350.01,-155.15 348.33,-144.69 343.12,-153.92 350.01,-155.15"/>
</g>
<!-- VCoil1&#45;&gt;485 -->
<g id="edge6" class="edge">
<title>VCoil1&#45;&gt;485</title>
<path fill="none" stroke="red" stroke-width="0.2" d="M318.24,-267.12C311.34,-258.92 300.25,-245.74 290.25,-233.85"/>
<polygon fill="red" stroke="red" stroke-width="0.2" points="292.67,-231.3 283.56,-225.9 287.32,-235.81 292.67,-231.3"/>
</g>
<!-- VCoil2 -->
<g id="node5" class="node">
<title>VCoil2</title>
<polygon fill="lightgray" stroke="black" points="418.5,-285.16 371.5,-285.16 371.5,-267.16 418.5,-267.16 418.5,-285.16"/>
<text text-anchor="middle" x="395" y="-273.96" font-family="Times,serif" font-size="9.00">VCoil2</text>
</g>
<!-- VCoil2&#45;&gt;Activate propulsor -->
<g id="edge2" class="edge">
<title>VCoil2&#45;&gt;Activate propulsor</title>
<path fill="none" stroke="green" stroke-width="0.37" d="M391.59,-266.88C388.14,-258.14 382.91,-243.91 380,-231.16 374.46,-206.88 370.46,-180.1 367.61,-155.62"/>
<polygon fill="green" stroke="green" stroke-width="0.37" points="371.08,-155.19 366.49,-145.64 364.12,-155.97 371.08,-155.19"/>
</g>
<!-- 712 -->
<g id="node13" class="node">
<title>712</title>
<ellipse fill="white" stroke="black" cx="414" cy="-206.41" rx="25" ry="25"/>
<text text-anchor="middle" x="414" y="-204.21" font-family="Times,serif" font-size="9.00">712</text>
</g>
<!-- VCoil2&#45;&gt;712 -->
<g id="edge9" class="edge">
<title>VCoil2&#45;&gt;712</title>
<path fill="none" stroke="red" stroke-width="0.12" d="M397.25,-267.12C399.14,-260.39 401.97,-250.31 404.76,-240.34"/>
<polygon fill="red" stroke="red" stroke-width="0.12" points="408.18,-241.11 407.51,-230.54 401.44,-239.22 408.18,-241.11"/>
</g>
<!-- HCoil12 -->
<g id="node6" class="node">
<title>HCoil12</title>
<polygon fill="lightgray" stroke="black" points="565,-285.16 511,-285.16 511,-267.16 565,-267.16 565,-285.16"/>
<text text-anchor="middle" x="538" y="-273.96" font-family="Times,serif" font-size="9.00">HCoil12</text>
</g>
<!-- HCoil22 -->
<g id="node7" class="node">
<title>HCoil22</title>
<polygon fill="lightgray" stroke="black" points="637,-285.16 583,-285.16 583,-267.16 637,-267.16 637,-285.16"/>
<text text-anchor="middle" x="610" y="-273.96" font-family="Times,serif" font-size="9.00">HCoil22</text>
</g>
<!-- 521 -->
<g id="node11" class="node">
<title>521</title>
<ellipse fill="white" stroke="black" cx="610" cy="-206.41" rx="25" ry="25"/>
<text text-anchor="middle" x="610" y="-204.21" font-family="Times,serif" font-size="9.00">521</text>
</g>
<!-- HCoil22&#45;&gt;521 -->
<g id="edge10" class="edge">
<title>HCoil22&#45;&gt;521</title>
<path fill="none" stroke="green" stroke-width="0.24" d="M610,-267.12C610,-260.69 610,-251.19 610,-241.65"/>
<polygon fill="green" stroke="green" stroke-width="0.24" points="613.5,-241.43 610,-231.43 606.5,-241.43 613.5,-241.43"/>
</g>
<!-- VCoil12 -->
<g id="node8" class="node">
<title>VCoil12</title>
<polygon fill="lightgray" stroke="black" points="283.5,-285.16 230.5,-285.16 230.5,-267.16 283.5,-267.16 283.5,-285.16"/>
<text text-anchor="middle" x="257" y="-273.96" font-family="Times,serif" font-size="9.00">VCoil12</text>
</g>
<!-- VCoil12&#45;&gt;485 -->
<g id="edge11" class="edge">
<title>VCoil12&#45;&gt;485</title>
<path fill="none" stroke="green" stroke-width="0.34" d="M258.31,-267.12C259.37,-260.57 260.95,-250.83 262.53,-241.12"/>
<polygon fill="green" stroke="green" stroke-width="0.34" points="266,-241.57 264.15,-231.13 259.09,-240.44 266,-241.57"/>
</g>
<!-- VCoil22 -->
<g id="node9" class="node">
<title>VCoil22</title>
<polygon fill="lightgray" stroke="black" points="492.5,-285.16 439.5,-285.16 439.5,-267.16 492.5,-267.16 492.5,-285.16"/>
<text text-anchor="middle" x="466" y="-273.96" font-family="Times,serif" font-size="9.00">VCoil22</text>
</g>
<!-- VCoil22&#45;&gt;Activate propulsor -->
<g id="edge3" class="edge">
<title>VCoil22&#45;&gt;Activate propulsor</title>
<path fill="none" stroke="red" stroke-width="0.21" d="M465.74,-267C464.94,-250.25 461.64,-211.05 448,-181.66 440.22,-164.91 429.29,-148.51 417.78,-133.75"/>
<polygon fill="red" stroke="red" stroke-width="0.21" points="420.34,-131.34 411.35,-125.73 414.88,-135.72 420.34,-131.34"/>
</g>
<!-- VCoil22&#45;&gt;712 -->
<g id="edge7" class="edge">
<title>VCoil22&#45;&gt;712</title>
<path fill="none" stroke="green" stroke-width="0.19" d="M459.83,-267.12C453.68,-259.11 443.89,-246.36 434.94,-234.69"/>
<polygon fill="green" stroke="green" stroke-width="0.19" points="437.49,-232.27 428.63,-226.47 431.94,-236.53 437.49,-232.27"/>
</g>
<!-- 485&#45;&gt;Activate propulsor -->
<g id="edge5" class="edge">
<title>485&#45;&gt;Activate propulsor</title>
<path fill="none" stroke="red" stroke-width="0.11" d="M281.92,-185.71C290.42,-173.69 301.84,-157.53 313.36,-141.24"/>
<polygon fill="red" stroke="red" stroke-width="0.11" points="316.46,-142.92 319.37,-132.73 310.74,-138.88 316.46,-142.92"/>
</g>
<!-- 712&#45;&gt;Activate propulsor -->
<g id="edge8" class="edge">
<title>712&#45;&gt;Activate propulsor</title>
<path fill="none" stroke="green" stroke-width="0.21" d="M405.01,-183.09C401.2,-173.63 396.51,-161.99 391.63,-149.87"/>
<polygon fill="green" stroke="green" stroke-width="0.21" points="394.86,-148.52 387.87,-140.55 388.36,-151.13 394.86,-148.52"/>
</g>
</g>
</svg>
