<?xml version="1.0" encoding="UTF-8" standalone="no"?>
<!DOCTYPE svg PUBLIC "-//W3C//DTD SVG 1.1//EN"
 "http://www.w3.org/Graphics/SVG/1.1/DTD/svg11.dtd">
<!-- Generated by graphviz version 2.43.0 (0)
 -->
<!-- Title: %3 Pages: 1 -->
<svg width="638pt" height="293pt"
 viewBox="0.00 0.00 638.00 293.16" xmlns="http://www.w3.org/2000/svg" xmlns:xlink="http://www.w3.org/1999/xlink">
<g id="graph0" class="graph" transform="scale(1 1) rotate(0) translate(4 289.16)">
<title>%3</title>
<polygon fill="white" stroke="transparent" points="-4,4 -4,-289.16 634,-289.16 634,4 -4,4"/>
<!-- Player_height -->
<g id="node1" class="node">
<title>Player_height</title>
<polygon fill="lightgray" stroke="black" points="80,-285.16 0,-285.16 0,-267.16 80,-267.16 80,-285.16"/>
<text text-anchor="middle" x="40" y="-273.96" font-family="Times,serif" font-size="9.00">Player_height</text>
</g>
<!-- HCoil1 -->
<g id="node2" class="node">
<title>HCoil1</title>
<polygon fill="lightgray" stroke="black" points="146,-285.16 98,-285.16 98,-267.16 146,-267.16 146,-285.16"/>
<text text-anchor="middle" x="122" y="-273.96" font-family="Times,serif" font-size="9.00">HCoil1</text>
</g>
<!-- HCoil2 -->
<g id="node3" class="node">
<title>HCoil2</title>
<polygon fill="lightgray" stroke="black" points="414,-285.16 366,-285.16 366,-267.16 414,-267.16 414,-285.16"/>
<text text-anchor="middle" x="390" y="-273.96" font-family="Times,serif" font-size="9.00">HCoil2</text>
</g>
<!-- 485 -->
<g id="node13" class="node">
<title>485</title>
<ellipse fill="white" stroke="black" cx="415" cy="-158.33" rx="25" ry="25"/>
<text text-anchor="middle" x="415" y="-156.13" font-family="Times,serif" font-size="9.00">485</text>
</g>
<!-- HCoil2&#45;&gt;485 -->
<g id="edge4" class="edge">
<title>HCoil2&#45;&gt;485</title>
<path fill="none" stroke="red" stroke-width="0.1" d="M391.8,-266.83C395.08,-251.6 402.23,-218.5 407.73,-193.02"/>
<polygon fill="red" stroke="red" stroke-width="0.1" points="411.2,-193.51 409.89,-182.99 404.36,-192.03 411.2,-193.51"/>
</g>
<!-- VCoil1 -->
<g id="node4" class="node">
<title>VCoil1</title>
<polygon fill="lightgray" stroke="black" points="347.5,-285.16 300.5,-285.16 300.5,-267.16 347.5,-267.16 347.5,-285.16"/>
<text text-anchor="middle" x="324" y="-273.96" font-family="Times,serif" font-size="9.00">VCoil1</text>
</g>
<!-- Activate propulsor -->
<g id="node10" class="node">
<title>Activate propulsor</title>
<ellipse fill="lightblue" stroke="black" cx="289" cy="-158.33" rx="72.66" ry="72.66"/>
<text text-anchor="middle" x="289" y="-156.13" font-family="Times,serif" font-size="9.00">Activate propulsor</text>
</g>
<!-- VCoil1&#45;&gt;Activate propulsor -->
<g id="edge1" class="edge">
<title>VCoil1&#45;&gt;Activate propulsor</title>
<path fill="none" stroke="red" stroke-width="0.64" d="M321.48,-266.83C319.42,-260 316.26,-249.56 312.72,-237.82"/>
<polygon fill="red" stroke="red" stroke-width="0.64" points="316.05,-236.74 309.8,-228.18 309.35,-238.77 316.05,-236.74"/>
</g>
<!-- VCoil1&#45;&gt;485 -->
<g id="edge6" class="edge">
<title>VCoil1&#45;&gt;485</title>
<path fill="none" stroke="red" stroke-width="0.48" d="M334.1,-267.09C344.17,-258.74 359.7,-245.02 371,-231.16 381.44,-218.36 391.23,-202.87 398.91,-189.56"/>
<polygon fill="red" stroke="red" stroke-width="0.48" points="402.02,-191.18 403.88,-180.75 395.92,-187.75 402.02,-191.18"/>
</g>
<!-- VCoil2 -->
<g id="node5" class="node">
<title>VCoil2</title>
<polygon fill="lightgray" stroke="black" points="211.5,-285.16 164.5,-285.16 164.5,-267.16 211.5,-267.16 211.5,-285.16"/>
<text text-anchor="middle" x="188" y="-273.96" font-family="Times,serif" font-size="9.00">VCoil2</text>
</g>
<!-- VCoil2&#45;&gt;Activate propulsor -->
<g id="edge2" class="edge">
<title>VCoil2&#45;&gt;Activate propulsor</title>
<path fill="none" stroke="green" stroke-width="0.69" d="M195.26,-266.83C203.89,-256.94 219.1,-239.49 234.79,-221.5"/>
<polygon fill="green" stroke="green" stroke-width="0.69" points="237.59,-223.61 241.53,-213.77 232.32,-219.01 237.59,-223.61"/>
</g>
<!-- 521 -->
<g id="node11" class="node">
<title>521</title>
<ellipse fill="white" stroke="black" cx="478" cy="-24.75" rx="25" ry="25"/>
<text text-anchor="middle" x="478" y="-22.55" font-family="Times,serif" font-size="9.00">521</text>
</g>
<!-- VCoil2&#45;&gt;521 -->
<g id="edge11" class="edge">
<title>VCoil2&#45;&gt;521</title>
<path fill="none" stroke="red" stroke-width="0.21" d="M185.87,-267.03C178.81,-238.13 159.28,-139.16 207,-85.5 237.93,-50.71 376.58,-34.4 442.7,-28.49"/>
<polygon fill="red" stroke="red" stroke-width="0.21" points="443.38,-31.94 453.04,-27.6 442.78,-24.97 443.38,-31.94"/>
</g>
<!-- HCoil12 -->
<g id="node6" class="node">
<title>HCoil12</title>
<polygon fill="lightgray" stroke="black" points="558,-285.16 504,-285.16 504,-267.16 558,-267.16 558,-285.16"/>
<text text-anchor="middle" x="531" y="-273.96" font-family="Times,serif" font-size="9.00">HCoil12</text>
</g>
<!-- HCoil12&#45;&gt;521 -->
<g id="edge5" class="edge">
<title>HCoil12&#45;&gt;521</title>
<path fill="none" stroke="green" stroke-width="0.75" d="M522.32,-266.99C514.23,-258.79 502.59,-245.35 497,-231.16 474.55,-174.14 473.62,-101.58 475.48,-59.72"/>
<polygon fill="green" stroke="green" stroke-width="0.75" points="478.98,-59.69 476.01,-49.52 471.99,-59.32 478.98,-59.69"/>
</g>
<!-- 689 -->
<g id="node12" class="node">
<title>689</title>
<ellipse fill="white" stroke="black" cx="531" cy="-158.33" rx="25" ry="25"/>
<text text-anchor="middle" x="531" y="-156.13" font-family="Times,serif" font-size="9.00">689</text>
</g>
<!-- HCoil12&#45;&gt;689 -->
<g id="edge8" class="edge">
<title>HCoil12&#45;&gt;689</title>
<path fill="none" stroke="red" stroke-width="0.27" d="M531,-266.83C531,-251.69 531,-218.89 531,-193.48"/>
<polygon fill="red" stroke="red" stroke-width="0.27" points="534.5,-193.46 531,-183.46 527.5,-193.46 534.5,-193.46"/>
</g>
<!-- HCoil12&#45;&gt;485 -->
<g id="edge7" class="edge">
<title>HCoil12&#45;&gt;485</title>
<path fill="none" stroke="red" stroke-width="0.29" d="M515.13,-267.08C500.7,-259.22 479.39,-246.28 464,-231.16 451.46,-218.84 440.18,-202.86 431.62,-189.1"/>
<polygon fill="red" stroke="red" stroke-width="0.29" points="434.56,-187.19 426.4,-180.44 428.57,-190.81 434.56,-187.19"/>
</g>
<!-- HCoil22 -->
<g id="node7" class="node">
<title>HCoil22</title>
<polygon fill="lightgray" stroke="black" points="630,-285.16 576,-285.16 576,-267.16 630,-267.16 630,-285.16"/>
<text text-anchor="middle" x="603" y="-273.96" font-family="Times,serif" font-size="9.00">HCoil22</text>
</g>
<!-- VCoil12 -->
<g id="node8" class="node">
<title>VCoil12</title>
<polygon fill="lightgray" stroke="black" points="485.5,-285.16 432.5,-285.16 432.5,-267.16 485.5,-267.16 485.5,-285.16"/>
<text text-anchor="middle" x="459" y="-273.96" font-family="Times,serif" font-size="9.00">VCoil12</text>
</g>
<!-- VCoil12&#45;&gt;485 -->
<g id="edge10" class="edge">
<title>VCoil12&#45;&gt;485</title>
<path fill="none" stroke="green" stroke-width="0.13" d="M455.84,-266.83C449.89,-251.19 436.79,-216.7 427.02,-190.97"/>
<polygon fill="green" stroke="green" stroke-width="0.13" points="430.28,-189.71 423.46,-181.6 423.74,-192.19 430.28,-189.71"/>
</g>
<!-- VCoil22 -->
<g id="node9" class="node">
<title>VCoil22</title>
<polygon fill="lightgray" stroke="black" points="282.5,-285.16 229.5,-285.16 229.5,-267.16 282.5,-267.16 282.5,-285.16"/>
<text text-anchor="middle" x="256" y="-273.96" font-family="Times,serif" font-size="9.00">VCoil22</text>
</g>
<!-- VCoil22&#45;&gt;Activate propulsor -->
<g id="edge3" class="edge">
<title>VCoil22&#45;&gt;Activate propulsor</title>
<path fill="none" stroke="green" stroke-width="0.13" d="M258.37,-266.83C260.29,-260.1 263.2,-249.89 266.48,-238.38"/>
<polygon fill="green" stroke="green" stroke-width="0.13" points="269.93,-239.04 269.3,-228.46 263.2,-237.12 269.93,-239.04"/>
</g>
<!-- 689&#45;&gt;521 -->
<g id="edge9" class="edge">
<title>689&#45;&gt;521</title>
<path fill="none" stroke="red" stroke-width="0.17" d="M522.01,-135.01C513.44,-113.74 500.46,-81.51 490.81,-57.56"/>
<polygon fill="red" stroke="red" stroke-width="0.17" points="494.02,-56.15 487.03,-48.18 487.52,-58.76 494.02,-56.15"/>
</g>
</g>
</svg>
