<?xml version="1.0" encoding="UTF-8" standalone="no"?>
<!DOCTYPE svg PUBLIC "-//W3C//DTD SVG 1.1//EN"
 "http://www.w3.org/Graphics/SVG/1.1/DTD/svg11.dtd">
<!-- Generated by graphviz version 2.43.0 (0)
 -->
<!-- Title: %3 Pages: 1 -->
<svg width="639pt" height="208pt"
 viewBox="0.00 0.00 638.50 207.66" xmlns="http://www.w3.org/2000/svg" xmlns:xlink="http://www.w3.org/1999/xlink">
<g id="graph0" class="graph" transform="scale(1 1) rotate(0) translate(4 203.66)">
<title>%3</title>
<polygon fill="white" stroke="transparent" points="-4,4 -4,-203.66 634.5,-203.66 634.5,4 -4,4"/>
<!-- Player_height -->
<g id="node1" class="node">
<title>Player_height</title>
<polygon fill="lightgray" stroke="black" points="80,-199.66 0,-199.66 0,-181.66 80,-181.66 80,-199.66"/>
<text text-anchor="middle" x="40" y="-188.46" font-family="Times,serif" font-size="9.00">Player_height</text>
</g>
<!-- HCoil1 -->
<g id="node2" class="node">
<title>HCoil1</title>
<polygon fill="lightgray" stroke="black" points="146,-199.66 98,-199.66 98,-181.66 146,-181.66 146,-199.66"/>
<text text-anchor="middle" x="122" y="-188.46" font-family="Times,serif" font-size="9.00">HCoil1</text>
</g>
<!-- HCoil2 -->
<g id="node3" class="node">
<title>HCoil2</title>
<polygon fill="lightgray" stroke="black" points="212,-199.66 164,-199.66 164,-181.66 212,-181.66 212,-199.66"/>
<text text-anchor="middle" x="188" y="-188.46" font-family="Times,serif" font-size="9.00">HCoil2</text>
</g>
<!-- VCoil1 -->
<g id="node4" class="node">
<title>VCoil1</title>
<polygon fill="lightgray" stroke="black" points="277.5,-199.66 230.5,-199.66 230.5,-181.66 277.5,-181.66 277.5,-199.66"/>
<text text-anchor="middle" x="254" y="-188.46" font-family="Times,serif" font-size="9.00">VCoil1</text>
</g>
<!-- Activate propulsor -->
<g id="node10" class="node">
<title>Activate propulsor</title>
<ellipse fill="lightblue" stroke="black" cx="353" cy="-72.83" rx="72.66" ry="72.66"/>
<text text-anchor="middle" x="353" y="-70.63" font-family="Times,serif" font-size="9.00">Activate propulsor</text>
</g>
<!-- VCoil1&#45;&gt;Activate propulsor -->
<g id="edge1" class="edge">
<title>VCoil1&#45;&gt;Activate propulsor</title>
<path fill="none" stroke="red" stroke-width="0.5" d="M261.12,-181.33C269.5,-171.53 284.21,-154.31 299.44,-136.5"/>
<polygon fill="red" stroke="red" stroke-width="0.5" points="302.15,-138.72 305.98,-128.84 296.82,-134.17 302.15,-138.72"/>
</g>
<!-- VCoil2 -->
<g id="node5" class="node">
<title>VCoil2</title>
<polygon fill="lightgray" stroke="black" points="342.5,-199.66 295.5,-199.66 295.5,-181.66 342.5,-181.66 342.5,-199.66"/>
<text text-anchor="middle" x="319" y="-188.46" font-family="Times,serif" font-size="9.00">VCoil2</text>
</g>
<!-- VCoil2&#45;&gt;Activate propulsor -->
<g id="edge4" class="edge">
<title>VCoil2&#45;&gt;Activate propulsor</title>
<path fill="none" stroke="green" stroke-width="0.36" d="M321.45,-181.33C323.42,-174.61 326.42,-164.39 329.8,-152.88"/>
<polygon fill="green" stroke="green" stroke-width="0.36" points="333.25,-153.54 332.71,-142.96 326.53,-151.57 333.25,-153.54"/>
</g>
<!-- HCoil12 -->
<g id="node6" class="node">
<title>HCoil12</title>
<polygon fill="lightgray" stroke="black" points="559,-199.66 505,-199.66 505,-181.66 559,-181.66 559,-199.66"/>
<text text-anchor="middle" x="532" y="-188.46" font-family="Times,serif" font-size="9.00">HCoil12</text>
</g>
<!-- HCoil22 -->
<g id="node7" class="node">
<title>HCoil22</title>
<polygon fill="lightgray" stroke="black" points="415,-199.66 361,-199.66 361,-181.66 415,-181.66 415,-199.66"/>
<text text-anchor="middle" x="388" y="-188.46" font-family="Times,serif" font-size="9.00">HCoil22</text>
</g>
<!-- HCoil22&#45;&gt;Activate propulsor -->
<g id="edge2" class="edge">
<title>HCoil22&#45;&gt;Activate propulsor</title>
<path fill="none" stroke="green" stroke-width="0.33" stroke-dasharray="1,5" d="M385.48,-181.33C383.42,-174.5 380.26,-164.06 376.72,-152.33"/>
<polygon fill="green" stroke="green" stroke-width="0.33" points="380.05,-151.24 373.8,-142.68 373.35,-153.27 380.05,-151.24"/>
</g>
<!-- VCoil12 -->
<g id="node8" class="node">
<title>VCoil12</title>
<polygon fill="lightgray" stroke="black" points="630.5,-199.66 577.5,-199.66 577.5,-181.66 630.5,-181.66 630.5,-199.66"/>
<text text-anchor="middle" x="604" y="-188.46" font-family="Times,serif" font-size="9.00">VCoil12</text>
</g>
<!-- VCoil22 -->
<g id="node9" class="node">
<title>VCoil22</title>
<polygon fill="lightgray" stroke="black" points="486.5,-199.66 433.5,-199.66 433.5,-181.66 486.5,-181.66 486.5,-199.66"/>
<text text-anchor="middle" x="460" y="-188.46" font-family="Times,serif" font-size="9.00">VCoil22</text>
</g>
<!-- VCoil22&#45;&gt;Activate propulsor -->
<g id="edge3" class="edge">
<title>VCoil22&#45;&gt;Activate propulsor</title>
<path fill="none" stroke="red" stroke-width="0.29" d="M452.3,-181.33C442.87,-171.12 426.01,-152.87 408.83,-134.27"/>
<polygon fill="red" stroke="red" stroke-width="0.29" points="411.34,-131.83 401.99,-126.86 406.2,-136.58 411.34,-131.83"/>
</g>
</g>
</svg>
