<?xml version="1.0" encoding="UTF-8" standalone="no"?>
<!DOCTYPE svg PUBLIC "-//W3C//DTD SVG 1.1//EN"
 "http://www.w3.org/Graphics/SVG/1.1/DTD/svg11.dtd">
<!-- Generated by graphviz version 2.43.0 (0)
 -->
<!-- Title: %3 Pages: 1 -->
<svg width="638pt" height="293pt"
 viewBox="0.00 0.00 638.00 293.16" xmlns="http://www.w3.org/2000/svg" xmlns:xlink="http://www.w3.org/1999/xlink">
<g id="graph0" class="graph" transform="scale(1 1) rotate(0) translate(4 289.16)">
<title>%3</title>
<polygon fill="white" stroke="transparent" points="-4,4 -4,-289.16 634,-289.16 634,4 -4,4"/>
<!-- Player_height -->
<g id="node1" class="node">
<title>Player_height</title>
<polygon fill="lightgray" stroke="black" points="80,-285.16 0,-285.16 0,-267.16 80,-267.16 80,-285.16"/>
<text text-anchor="middle" x="40" y="-273.96" font-family="Times,serif" font-size="9.00">Player_height</text>
</g>
<!-- HCoil1 -->
<g id="node2" class="node">
<title>HCoil1</title>
<polygon fill="lightgray" stroke="black" points="146,-285.16 98,-285.16 98,-267.16 146,-267.16 146,-285.16"/>
<text text-anchor="middle" x="122" y="-273.96" font-family="Times,serif" font-size="9.00">HCoil1</text>
</g>
<!-- HCoil2 -->
<g id="node3" class="node">
<title>HCoil2</title>
<polygon fill="lightgray" stroke="black" points="414,-285.16 366,-285.16 366,-267.16 414,-267.16 414,-285.16"/>
<text text-anchor="middle" x="390" y="-273.96" font-family="Times,serif" font-size="9.00">HCoil2</text>
</g>
<!-- 485 -->
<g id="node13" class="node">
<title>485</title>
<ellipse fill="white" stroke="black" cx="407" cy="-158.33" rx="25" ry="25"/>
<text text-anchor="middle" x="407" y="-156.13" font-family="Times,serif" font-size="9.00">485</text>
</g>
<!-- HCoil2&#45;&gt;485 -->
<g id="edge4" class="edge">
<title>HCoil2&#45;&gt;485</title>
<path fill="none" stroke="green" stroke-width="0.25" d="M391.22,-266.83C393.46,-251.6 398.32,-218.5 402.06,-193.02"/>
<polygon fill="green" stroke="green" stroke-width="0.25" points="405.54,-193.39 403.53,-182.99 398.61,-192.38 405.54,-193.39"/>
</g>
<!-- VCoil1 -->
<g id="node4" class="node">
<title>VCoil1</title>
<polygon fill="lightgray" stroke="black" points="347.5,-285.16 300.5,-285.16 300.5,-267.16 347.5,-267.16 347.5,-285.16"/>
<text text-anchor="middle" x="324" y="-273.96" font-family="Times,serif" font-size="9.00">VCoil1</text>
</g>
<!-- Activate propulsor -->
<g id="node10" class="node">
<title>Activate propulsor</title>
<ellipse fill="lightblue" stroke="black" cx="256" cy="-158.33" rx="72.66" ry="72.66"/>
<text text-anchor="middle" x="256" y="-156.13" font-family="Times,serif" font-size="9.00">Activate propulsor</text>
</g>
<!-- VCoil1&#45;&gt;Activate propulsor -->
<g id="edge1" class="edge">
<title>VCoil1&#45;&gt;Activate propulsor</title>
<path fill="none" stroke="red" stroke-width="0.46" d="M319.11,-266.83C314.25,-258.55 306.28,-244.98 297.62,-230.22"/>
<polygon fill="red" stroke="red" stroke-width="0.46" points="300.54,-228.28 292.46,-221.43 294.5,-231.82 300.54,-228.28"/>
</g>
<!-- VCoil1&#45;&gt;485 -->
<g id="edge6" class="edge">
<title>VCoil1&#45;&gt;485</title>
<path fill="none" stroke="green" stroke-width="0.1" d="M329.97,-266.83C341.72,-250.43 368.35,-213.27 386.99,-187.26"/>
<polygon fill="green" stroke="green" stroke-width="0.1" points="389.99,-189.08 392.97,-178.91 384.3,-185 389.99,-189.08"/>
</g>
<!-- VCoil2 -->
<g id="node5" class="node">
<title>VCoil2</title>
<polygon fill="lightgray" stroke="black" points="211.5,-285.16 164.5,-285.16 164.5,-267.16 211.5,-267.16 211.5,-285.16"/>
<text text-anchor="middle" x="188" y="-273.96" font-family="Times,serif" font-size="9.00">VCoil2</text>
</g>
<!-- VCoil2&#45;&gt;Activate propulsor -->
<g id="edge2" class="edge">
<title>VCoil2&#45;&gt;Activate propulsor</title>
<path fill="none" stroke="green" stroke-width="0.59" d="M192.89,-266.83C197.75,-258.55 205.72,-244.98 214.38,-230.22"/>
<polygon fill="green" stroke="green" stroke-width="0.59" points="217.5,-231.82 219.54,-221.43 211.46,-228.28 217.5,-231.82"/>
</g>
<!-- HCoil12 -->
<g id="node6" class="node">
<title>HCoil12</title>
<polygon fill="lightgray" stroke="black" points="558,-285.16 504,-285.16 504,-267.16 558,-267.16 558,-285.16"/>
<text text-anchor="middle" x="531" y="-273.96" font-family="Times,serif" font-size="9.00">HCoil12</text>
</g>
<!-- 521 -->
<g id="node11" class="node">
<title>521</title>
<ellipse fill="white" stroke="black" cx="530" cy="-24.75" rx="25" ry="25"/>
<text text-anchor="middle" x="530" y="-22.55" font-family="Times,serif" font-size="9.00">521</text>
</g>
<!-- HCoil12&#45;&gt;521 -->
<g id="edge5" class="edge">
<title>HCoil12&#45;&gt;521</title>
<path fill="none" stroke="green" stroke-width="0.26" stroke-dasharray="1,5" d="M529.09,-267.11C527.11,-258.33 524.14,-243.84 523,-231.16 517.19,-166.68 519.23,-150.13 523,-85.5 523.49,-77.05 524.38,-67.96 525.35,-59.48"/>
<polygon fill="green" stroke="green" stroke-width="0.26" points="528.83,-59.88 526.57,-49.53 521.88,-59.03 528.83,-59.88"/>
</g>
<!-- 689 -->
<g id="node12" class="node">
<title>689</title>
<ellipse fill="white" stroke="black" cx="557" cy="-158.33" rx="25" ry="25"/>
<text text-anchor="middle" x="557" y="-156.13" font-family="Times,serif" font-size="9.00">689</text>
</g>
<!-- HCoil12&#45;&gt;689 -->
<g id="edge8" class="edge">
<title>HCoil12&#45;&gt;689</title>
<path fill="none" stroke="red" stroke-width="0.11" d="M532.87,-266.83C536.31,-251.51 543.81,-218.1 549.54,-192.56"/>
<polygon fill="red" stroke="red" stroke-width="0.11" points="553.02,-193.05 551.79,-182.53 546.19,-191.52 553.02,-193.05"/>
</g>
<!-- HCoil12&#45;&gt;485 -->
<g id="edge7" class="edge">
<title>HCoil12&#45;&gt;485</title>
<path fill="none" stroke="green" stroke-width="0.39" d="M522.08,-266.83C503.5,-249.48 460.07,-208.9 432.19,-182.86"/>
<polygon fill="green" stroke="green" stroke-width="0.39" points="434.48,-180.21 424.78,-175.94 429.7,-185.32 434.48,-180.21"/>
</g>
<!-- HCoil22 -->
<g id="node7" class="node">
<title>HCoil22</title>
<polygon fill="lightgray" stroke="black" points="630,-285.16 576,-285.16 576,-267.16 630,-267.16 630,-285.16"/>
<text text-anchor="middle" x="603" y="-273.96" font-family="Times,serif" font-size="9.00">HCoil22</text>
</g>
<!-- VCoil12 -->
<g id="node8" class="node">
<title>VCoil12</title>
<polygon fill="lightgray" stroke="black" points="485.5,-285.16 432.5,-285.16 432.5,-267.16 485.5,-267.16 485.5,-285.16"/>
<text text-anchor="middle" x="459" y="-273.96" font-family="Times,serif" font-size="9.00">VCoil12</text>
</g>
<!-- VCoil12&#45;&gt;485 -->
<g id="edge10" class="edge">
<title>VCoil12&#45;&gt;485</title>
<path fill="none" stroke="red" stroke-width="0.24" d="M455.26,-266.83C448.2,-251.1 432.57,-216.29 421,-190.52"/>
<polygon fill="red" stroke="red" stroke-width="0.24" points="424.08,-188.84 416.79,-181.15 417.7,-191.7 424.08,-188.84"/>
</g>
<!-- VCoil22 -->
<g id="node9" class="node">
<title>VCoil22</title>
<polygon fill="lightgray" stroke="black" points="282.5,-285.16 229.5,-285.16 229.5,-267.16 282.5,-267.16 282.5,-285.16"/>
<text text-anchor="middle" x="256" y="-273.96" font-family="Times,serif" font-size="9.00">VCoil22</text>
</g>
<!-- VCoil22&#45;&gt;Activate propulsor -->
<g id="edge3" class="edge">
<title>VCoil22&#45;&gt;Activate propulsor</title>
<path fill="none" stroke="red" stroke-width="0.17" d="M256,-266.83C256,-260.7 256,-251.67 256,-241.4"/>
<polygon fill="red" stroke="red" stroke-width="0.17" points="259.5,-241.24 256,-231.24 252.5,-241.24 259.5,-241.24"/>
</g>
<!-- 689&#45;&gt;521 -->
<g id="edge9" class="edge">
<title>689&#45;&gt;521</title>
<path fill="none" stroke="green" stroke-width="0.18" d="M552.17,-133.81C547.89,-112.94 541.59,-82.25 536.8,-58.9"/>
<polygon fill="green" stroke="green" stroke-width="0.18" points="540.22,-58.16 534.79,-49.07 533.37,-59.57 540.22,-58.16"/>
</g>
</g>
</svg>
