<?xml version="1.0" encoding="UTF-8" standalone="no"?>
<!DOCTYPE svg PUBLIC "-//W3C//DTD SVG 1.1//EN"
 "http://www.w3.org/Graphics/SVG/1.1/DTD/svg11.dtd">
<!-- Generated by graphviz version 2.43.0 (0)
 -->
<!-- Title: %3 Pages: 1 -->
<svg width="670pt" height="308pt"
 viewBox="0.00 0.00 669.50 307.69" xmlns="http://www.w3.org/2000/svg" xmlns:xlink="http://www.w3.org/1999/xlink">
<g id="graph0" class="graph" transform="scale(1 1) rotate(0) translate(4 303.69)">
<title>%3</title>
<polygon fill="white" stroke="transparent" points="-4,4 -4,-303.69 665.5,-303.69 665.5,4 -4,4"/>
<!-- Player_height -->
<g id="node1" class="node">
<title>Player_height</title>
<polygon fill="lightgray" stroke="black" points="80,-211.17 0,-211.17 0,-193.17 80,-193.17 80,-211.17"/>
<text text-anchor="middle" x="40" y="-199.97" font-family="Times,serif" font-size="9.00">Player_height</text>
</g>
<!-- Activate propulsor -->
<g id="node10" class="node">
<title>Activate propulsor</title>
<ellipse fill="lightblue" stroke="black" cx="318" cy="-72.83" rx="72.66" ry="72.66"/>
<text text-anchor="middle" x="318" y="-70.63" font-family="Times,serif" font-size="9.00">Activate propulsor</text>
</g>
<!-- Player_height&#45;&gt;Activate propulsor -->
<g id="edge1" class="edge">
<title>Player_height&#45;&gt;Activate propulsor</title>
<path fill="none" stroke="green" stroke-width="0.18" d="M57.81,-193.01C94.42,-176.24 179.97,-137.06 243.02,-108.18"/>
<polygon fill="green" stroke="green" stroke-width="0.18" points="244.52,-111.34 252.15,-103.99 241.6,-104.98 244.52,-111.34"/>
</g>
<!-- HCoil1 -->
<g id="node2" class="node">
<title>HCoil1</title>
<polygon fill="lightgray" stroke="black" points="156,-288.18 108,-288.18 108,-270.18 156,-270.18 156,-288.18"/>
<text text-anchor="middle" x="132" y="-276.98" font-family="Times,serif" font-size="9.00">HCoil1</text>
</g>
<!-- HCoil1&#45;&gt;Activate propulsor -->
<g id="edge2" class="edge">
<title>HCoil1&#45;&gt;Activate propulsor</title>
<path fill="none" stroke="red" stroke-width="0.26" stroke-dasharray="1,5" d="M128.77,-269.98C122.4,-252.4 110.25,-210.36 127,-181.66 151.04,-140.48 197.28,-113.78 238.23,-97.25"/>
<polygon fill="red" stroke="red" stroke-width="0.26" points="239.64,-100.46 247.7,-93.58 237.11,-93.94 239.64,-100.46"/>
</g>
<!-- 78 -->
<g id="node12" class="node">
<title>78</title>
<ellipse fill="white" stroke="black" cx="157" cy="-202.17" rx="20.51" ry="20.51"/>
<text text-anchor="middle" x="157" y="-199.97" font-family="Times,serif" font-size="9.00">78</text>
</g>
<!-- HCoil1&#45;&gt;78 -->
<g id="edge10" class="edge">
<title>HCoil1&#45;&gt;78</title>
<path fill="none" stroke="green" stroke-width="0.38" d="M134.68,-270.15C137.74,-260.97 142.92,-245.41 147.52,-231.6"/>
<polygon fill="green" stroke="green" stroke-width="0.38" points="150.89,-232.57 150.73,-221.97 144.25,-230.35 150.89,-232.57"/>
</g>
<!-- HCoil2 -->
<g id="node3" class="node">
<title>HCoil2</title>
<polygon fill="lightgray" stroke="black" points="244,-211.17 196,-211.17 196,-193.17 244,-193.17 244,-211.17"/>
<text text-anchor="middle" x="220" y="-199.97" font-family="Times,serif" font-size="9.00">HCoil2</text>
</g>
<!-- HCoil2&#45;&gt;Activate propulsor -->
<g id="edge3" class="edge">
<title>HCoil2&#45;&gt;Activate propulsor</title>
<path fill="none" stroke="red" stroke-width="0.47" stroke-dasharray="1,5" d="M226.43,-192.82C235.08,-181.58 251.27,-160.54 267.66,-139.24"/>
<polygon fill="red" stroke="red" stroke-width="0.47" points="270.61,-141.15 273.94,-131.09 265.06,-136.88 270.61,-141.15"/>
</g>
<!-- VCoil1 -->
<g id="node4" class="node">
<title>VCoil1</title>
<polygon fill="lightgray" stroke="black" points="309.5,-211.17 262.5,-211.17 262.5,-193.17 309.5,-193.17 309.5,-211.17"/>
<text text-anchor="middle" x="286" y="-199.97" font-family="Times,serif" font-size="9.00">VCoil1</text>
</g>
<!-- VCoil1&#45;&gt;Activate propulsor -->
<g id="edge4" class="edge">
<title>VCoil1&#45;&gt;Activate propulsor</title>
<path fill="none" stroke="green" stroke-width="0.13" stroke-dasharray="1,5" d="M288.1,-192.82C290.28,-184.15 293.92,-169.67 297.92,-153.73"/>
<polygon fill="green" stroke="green" stroke-width="0.13" points="301.41,-154.21 300.45,-143.66 294.62,-152.51 301.41,-154.21"/>
</g>
<!-- VCoil2 -->
<g id="node5" class="node">
<title>VCoil2</title>
<polygon fill="lightgray" stroke="black" points="374.5,-211.17 327.5,-211.17 327.5,-193.17 374.5,-193.17 374.5,-211.17"/>
<text text-anchor="middle" x="351" y="-199.97" font-family="Times,serif" font-size="9.00">VCoil2</text>
</g>
<!-- VCoil2&#45;&gt;Activate propulsor -->
<g id="edge5" class="edge">
<title>VCoil2&#45;&gt;Activate propulsor</title>
<path fill="none" stroke="green" stroke-width="0.2" d="M348.83,-192.82C346.59,-184.15 342.84,-169.67 338.71,-153.73"/>
<polygon fill="green" stroke="green" stroke-width="0.2" points="341.99,-152.46 336.1,-143.66 335.22,-154.22 341.99,-152.46"/>
</g>
<!-- HCoil12 -->
<g id="node6" class="node">
<title>HCoil12</title>
<polygon fill="lightgray" stroke="black" points="447,-211.17 393,-211.17 393,-193.17 447,-193.17 447,-211.17"/>
<text text-anchor="middle" x="420" y="-199.97" font-family="Times,serif" font-size="9.00">HCoil12</text>
</g>
<!-- HCoil12&#45;&gt;Activate propulsor -->
<g id="edge6" class="edge">
<title>HCoil12&#45;&gt;Activate propulsor</title>
<path fill="none" stroke="green" stroke-width="0.2" d="M413.31,-192.82C404.15,-181.38 386.86,-159.8 369.5,-138.12"/>
<polygon fill="green" stroke="green" stroke-width="0.2" points="372.09,-135.76 363.11,-130.15 366.63,-140.14 372.09,-135.76"/>
</g>
<!-- HCoil22 -->
<g id="node7" class="node">
<title>HCoil22</title>
<polygon fill="lightgray" stroke="black" points="519,-211.17 465,-211.17 465,-193.17 519,-193.17 519,-211.17"/>
<text text-anchor="middle" x="492" y="-199.97" font-family="Times,serif" font-size="9.00">HCoil22</text>
</g>
<!-- HCoil22&#45;&gt;Activate propulsor -->
<g id="edge7" class="edge">
<title>HCoil22&#45;&gt;Activate propulsor</title>
<path fill="none" stroke="green" stroke-width="0.12" d="M480.85,-193.01C461.53,-178.87 420.45,-148.81 384.38,-122.41"/>
<polygon fill="green" stroke="green" stroke-width="0.12" points="386.43,-119.58 376.3,-116.5 382.3,-125.23 386.43,-119.58"/>
</g>
<!-- VCoil12 -->
<g id="node8" class="node">
<title>VCoil12</title>
<polygon fill="lightgray" stroke="black" points="590.5,-211.17 537.5,-211.17 537.5,-193.17 590.5,-193.17 590.5,-211.17"/>
<text text-anchor="middle" x="564" y="-199.97" font-family="Times,serif" font-size="9.00">VCoil12</text>
</g>
<!-- VCoil12&#45;&gt;Activate propulsor -->
<g id="edge8" class="edge">
<title>VCoil12&#45;&gt;Activate propulsor</title>
<path fill="none" stroke="green" stroke-width="0.19" d="M549.33,-193.12C542.81,-189.58 535.04,-185.38 528,-181.66 483.01,-157.93 432.28,-131.86 391.96,-111.3"/>
<polygon fill="green" stroke="green" stroke-width="0.19" points="393.49,-108.16 382.99,-106.74 390.32,-114.4 393.49,-108.16"/>
</g>
<!-- VCoil22 -->
<g id="node9" class="node">
<title>VCoil22</title>
<polygon fill="lightgray" stroke="black" points="661.5,-211.17 608.5,-211.17 608.5,-193.17 661.5,-193.17 661.5,-211.17"/>
<text text-anchor="middle" x="635" y="-199.97" font-family="Times,serif" font-size="9.00">VCoil22</text>
</g>
<!-- VCoil22&#45;&gt;Activate propulsor -->
<g id="edge9" class="edge">
<title>VCoil22&#45;&gt;Activate propulsor</title>
<path fill="none" stroke="red" stroke-width="0.23" d="M621.61,-193.11C615.18,-189.4 607.31,-185.08 600,-181.66 532.88,-150.32 453.93,-120.72 396.66,-100.49"/>
<polygon fill="red" stroke="red" stroke-width="0.23" points="397.54,-97.09 386.94,-97.08 395.22,-103.7 397.54,-97.09"/>
</g>
<!-- 32 -->
<g id="node11" class="node">
<title>32</title>
<ellipse fill="white" stroke="black" cx="195" cy="-279.18" rx="20.51" ry="20.51"/>
<text text-anchor="middle" x="195" y="-276.98" font-family="Times,serif" font-size="9.00">32</text>
</g>
<!-- 78&#45;&gt;Activate propulsor -->
<g id="edge11" class="edge">
<title>78&#45;&gt;Activate propulsor</title>
<path fill="none" stroke="red" stroke-width="0.19" d="M172.73,-188.73C191.39,-173.97 223.68,-148.43 253.09,-125.17"/>
<polygon fill="red" stroke="red" stroke-width="0.19" points="255.62,-127.63 261.29,-118.69 251.27,-122.14 255.62,-127.63"/>
</g>
</g>
</svg>
