<?xml version="1.0" encoding="UTF-8" standalone="no"?>
<!DOCTYPE svg PUBLIC "-//W3C//DTD SVG 1.1//EN"
 "http://www.w3.org/Graphics/SVG/1.1/DTD/svg11.dtd">
<!-- Generated by graphviz version 2.43.0 (0)
 -->
<!-- Title: %3 Pages: 1 -->
<svg width="566pt" height="293pt"
 viewBox="0.00 0.00 566.00 293.16" xmlns="http://www.w3.org/2000/svg" xmlns:xlink="http://www.w3.org/1999/xlink">
<g id="graph0" class="graph" transform="scale(1 1) rotate(0) translate(4 289.16)">
<title>%3</title>
<polygon fill="white" stroke="transparent" points="-4,4 -4,-289.16 562,-289.16 562,4 -4,4"/>
<!-- Player_height -->
<g id="node1" class="node">
<title>Player_height</title>
<polygon fill="lightgray" stroke="black" points="80,-285.16 0,-285.16 0,-267.16 80,-267.16 80,-285.16"/>
<text text-anchor="middle" x="40" y="-273.96" font-family="Times,serif" font-size="9.00">Player_height</text>
</g>
<!-- HCoil1 -->
<g id="node2" class="node">
<title>HCoil1</title>
<polygon fill="lightgray" stroke="black" points="146,-285.16 98,-285.16 98,-267.16 146,-267.16 146,-285.16"/>
<text text-anchor="middle" x="122" y="-273.96" font-family="Times,serif" font-size="9.00">HCoil1</text>
</g>
<!-- HCoil2 -->
<g id="node3" class="node">
<title>HCoil2</title>
<polygon fill="lightgray" stroke="black" points="212,-285.16 164,-285.16 164,-267.16 212,-267.16 212,-285.16"/>
<text text-anchor="middle" x="188" y="-273.96" font-family="Times,serif" font-size="9.00">HCoil2</text>
</g>
<!-- VCoil1 -->
<g id="node4" class="node">
<title>VCoil1</title>
<polygon fill="lightgray" stroke="black" points="277.5,-285.16 230.5,-285.16 230.5,-267.16 277.5,-267.16 277.5,-285.16"/>
<text text-anchor="middle" x="254" y="-273.96" font-family="Times,serif" font-size="9.00">VCoil1</text>
</g>
<!-- Activate propulsor -->
<g id="node10" class="node">
<title>Activate propulsor</title>
<ellipse fill="lightblue" stroke="black" cx="321" cy="-72.83" rx="72.66" ry="72.66"/>
<text text-anchor="middle" x="321" y="-70.63" font-family="Times,serif" font-size="9.00">Activate propulsor</text>
</g>
<!-- VCoil1&#45;&gt;Activate propulsor -->
<g id="edge1" class="edge">
<title>VCoil1&#45;&gt;Activate propulsor</title>
<path fill="none" stroke="red" stroke-width="0.71" d="M245.03,-267.1C236.72,-258.97 224.93,-245.6 220,-231.16 212.89,-210.34 211.91,-202.12 220,-181.66 228.13,-161.08 242.26,-142.12 257.41,-126.03"/>
<polygon fill="red" stroke="red" stroke-width="0.71" points="259.95,-128.45 264.43,-118.85 254.94,-123.56 259.95,-128.45"/>
</g>
<!-- 485 -->
<g id="node12" class="node">
<title>485</title>
<ellipse fill="white" stroke="black" cx="321" cy="-206.41" rx="25" ry="25"/>
<text text-anchor="middle" x="321" y="-204.21" font-family="Times,serif" font-size="9.00">485</text>
</g>
<!-- VCoil1&#45;&gt;485 -->
<g id="edge5" class="edge">
<title>VCoil1&#45;&gt;485</title>
<path fill="none" stroke="red" stroke-width="0.15" d="M261.95,-267.12C270.5,-258.47 284.53,-244.29 296.77,-231.92"/>
<polygon fill="red" stroke="red" stroke-width="0.15" points="299.55,-234.08 304.09,-224.51 294.57,-229.16 299.55,-234.08"/>
</g>
<!-- 801 -->
<g id="node13" class="node">
<title>801</title>
<ellipse fill="white" stroke="black" cx="254" cy="-206.41" rx="25" ry="25"/>
<text text-anchor="middle" x="254" y="-204.21" font-family="Times,serif" font-size="9.00">801</text>
</g>
<!-- VCoil1&#45;&gt;801 -->
<g id="edge9" class="edge">
<title>VCoil1&#45;&gt;801</title>
<path fill="none" stroke="red" stroke-width="0.23" d="M254,-267.12C254,-260.69 254,-251.19 254,-241.65"/>
<polygon fill="red" stroke="red" stroke-width="0.23" points="257.5,-241.43 254,-231.43 250.5,-241.43 257.5,-241.43"/>
</g>
<!-- VCoil2 -->
<g id="node5" class="node">
<title>VCoil2</title>
<polygon fill="lightgray" stroke="black" points="410.5,-215.41 363.5,-215.41 363.5,-197.41 410.5,-197.41 410.5,-215.41"/>
<text text-anchor="middle" x="387" y="-204.21" font-family="Times,serif" font-size="9.00">VCoil2</text>
</g>
<!-- VCoil2&#45;&gt;Activate propulsor -->
<g id="edge2" class="edge">
<title>VCoil2&#45;&gt;Activate propulsor</title>
<path fill="none" stroke="green" stroke-width="0.56" d="M382.87,-197.18C377.61,-186.69 367.98,-167.49 357.86,-147.31"/>
<polygon fill="green" stroke="green" stroke-width="0.56" points="360.96,-145.68 353.34,-138.31 354.7,-148.82 360.96,-145.68"/>
</g>
<!-- HCoil12 -->
<g id="node6" class="node">
<title>HCoil12</title>
<polygon fill="lightgray" stroke="black" points="486,-285.16 432,-285.16 432,-267.16 486,-267.16 486,-285.16"/>
<text text-anchor="middle" x="459" y="-273.96" font-family="Times,serif" font-size="9.00">HCoil12</text>
</g>
<!-- 689 -->
<g id="node11" class="node">
<title>689</title>
<ellipse fill="white" stroke="black" cx="524" cy="-206.41" rx="25" ry="25"/>
<text text-anchor="middle" x="524" y="-204.21" font-family="Times,serif" font-size="9.00">689</text>
</g>
<!-- HCoil12&#45;&gt;689 -->
<g id="edge7" class="edge">
<title>HCoil12&#45;&gt;689</title>
<path fill="none" stroke="red" stroke-width="0.28" d="M466.71,-267.12C474.95,-258.53 488.44,-244.48 500.25,-232.17"/>
<polygon fill="red" stroke="red" stroke-width="0.28" points="502.93,-234.43 507.33,-224.79 497.88,-229.58 502.93,-234.43"/>
</g>
<!-- HCoil12&#45;&gt;485 -->
<g id="edge6" class="edge">
<title>HCoil12&#45;&gt;485</title>
<path fill="none" stroke="green" stroke-width="0.56" d="M435.77,-267.16C414.01,-259.27 380.91,-246.22 354,-231.16 352.24,-230.18 350.47,-229.12 348.71,-228.02"/>
<polygon fill="green" stroke="green" stroke-width="0.56" points="350.32,-224.88 340.06,-222.24 346.43,-230.7 350.32,-224.88"/>
</g>
<!-- HCoil22 -->
<g id="node7" class="node">
<title>HCoil22</title>
<polygon fill="lightgray" stroke="black" points="558,-285.16 504,-285.16 504,-267.16 558,-267.16 558,-285.16"/>
<text text-anchor="middle" x="531" y="-273.96" font-family="Times,serif" font-size="9.00">HCoil22</text>
</g>
<!-- VCoil12 -->
<g id="node8" class="node">
<title>VCoil12</title>
<polygon fill="lightgray" stroke="black" points="348.5,-285.16 295.5,-285.16 295.5,-267.16 348.5,-267.16 348.5,-285.16"/>
<text text-anchor="middle" x="322" y="-273.96" font-family="Times,serif" font-size="9.00">VCoil12</text>
</g>
<!-- VCoil12&#45;&gt;485 -->
<g id="edge8" class="edge">
<title>VCoil12&#45;&gt;485</title>
<path fill="none" stroke="red" stroke-width="0.33" d="M321.88,-267.12C321.79,-260.69 321.65,-251.19 321.51,-241.65"/>
<polygon fill="red" stroke="red" stroke-width="0.33" points="325,-241.38 321.35,-231.43 318,-241.48 325,-241.38"/>
</g>
<!-- VCoil22 -->
<g id="node9" class="node">
<title>VCoil22</title>
<polygon fill="lightgray" stroke="black" points="481.5,-215.41 428.5,-215.41 428.5,-197.41 481.5,-197.41 481.5,-215.41"/>
<text text-anchor="middle" x="455" y="-204.21" font-family="Times,serif" font-size="9.00">VCoil22</text>
</g>
<!-- VCoil22&#45;&gt;Activate propulsor -->
<g id="edge3" class="edge">
<title>VCoil22&#45;&gt;Activate propulsor</title>
<path fill="none" stroke="red" stroke-width="0.21" d="M446.62,-197.18C433.16,-183.96 405.61,-156.91 379.73,-131.5"/>
<polygon fill="red" stroke="red" stroke-width="0.21" points="382.07,-128.89 372.48,-124.39 377.17,-133.89 382.07,-128.89"/>
</g>
<!-- 485&#45;&gt;Activate propulsor -->
<g id="edge4" class="edge">
<title>485&#45;&gt;Activate propulsor</title>
<path fill="none" stroke="red" stroke-width="0.29" d="M321,-181.58C321,-174.02 321,-165.2 321,-155.91"/>
<polygon fill="red" stroke="red" stroke-width="0.29" points="324.5,-155.68 321,-145.68 317.5,-155.68 324.5,-155.68"/>
</g>
<!-- 801&#45;&gt;Activate propulsor -->
<g id="edge10" class="edge">
<title>801&#45;&gt;Activate propulsor</title>
<path fill="none" stroke="green" stroke-width="0.35" d="M264.91,-183.98C270.13,-173.74 276.7,-160.83 283.5,-147.47"/>
<polygon fill="green" stroke="green" stroke-width="0.35" points="286.81,-148.68 288.23,-138.18 280.58,-145.51 286.81,-148.68"/>
</g>
</g>
</svg>
