<?xml version="1.0" encoding="UTF-8" standalone="no"?>
<!DOCTYPE svg PUBLIC "-//W3C//DTD SVG 1.1//EN"
 "http://www.w3.org/Graphics/SVG/1.1/DTD/svg11.dtd">
<!-- Generated by graphviz version 2.43.0 (0)
 -->
<!-- Title: %3 Pages: 1 -->
<svg width="517pt" height="293pt"
 viewBox="0.00 0.00 516.50 293.16" xmlns="http://www.w3.org/2000/svg" xmlns:xlink="http://www.w3.org/1999/xlink">
<g id="graph0" class="graph" transform="scale(1 1) rotate(0) translate(4 289.16)">
<title>%3</title>
<polygon fill="white" stroke="transparent" points="-4,4 -4,-289.16 512.5,-289.16 512.5,4 -4,4"/>
<!-- Player_height -->
<g id="node1" class="node">
<title>Player_height</title>
<polygon fill="lightgray" stroke="black" points="80,-215.41 0,-215.41 0,-197.41 80,-197.41 80,-215.41"/>
<text text-anchor="middle" x="40" y="-204.21" font-family="Times,serif" font-size="9.00">Player_height</text>
</g>
<!-- Activate propulsor -->
<g id="node10" class="node">
<title>Activate propulsor</title>
<ellipse fill="lightblue" stroke="black" cx="174" cy="-72.83" rx="72.66" ry="72.66"/>
<text text-anchor="middle" x="174" y="-70.63" font-family="Times,serif" font-size="9.00">Activate propulsor</text>
</g>
<!-- Player_height&#45;&gt;Activate propulsor -->
<g id="edge8" class="edge">
<title>Player_height&#45;&gt;Activate propulsor</title>
<path fill="none" stroke="green" stroke-width="0.16" d="M48.38,-197.18C61.84,-183.96 89.39,-156.91 115.27,-131.5"/>
<polygon fill="green" stroke="green" stroke-width="0.16" points="117.83,-133.89 122.52,-124.39 112.93,-128.89 117.83,-133.89"/>
</g>
<!-- HCoil1 -->
<g id="node2" class="node">
<title>HCoil1</title>
<polygon fill="lightgray" stroke="black" points="293,-285.16 245,-285.16 245,-267.16 293,-267.16 293,-285.16"/>
<text text-anchor="middle" x="269" y="-273.96" font-family="Times,serif" font-size="9.00">HCoil1</text>
</g>
<!-- HCoil2 -->
<g id="node3" class="node">
<title>HCoil2</title>
<polygon fill="lightgray" stroke="black" points="383,-215.41 335,-215.41 335,-197.41 383,-197.41 383,-215.41"/>
<text text-anchor="middle" x="359" y="-204.21" font-family="Times,serif" font-size="9.00">HCoil2</text>
</g>
<!-- 485 -->
<g id="node11" class="node">
<title>485</title>
<ellipse fill="white" stroke="black" cx="326" cy="-72.83" rx="25" ry="25"/>
<text text-anchor="middle" x="326" y="-70.63" font-family="Times,serif" font-size="9.00">485</text>
</g>
<!-- HCoil2&#45;&gt;485 -->
<g id="edge4" class="edge">
<title>HCoil2&#45;&gt;485</title>
<path fill="none" stroke="green" stroke-width="0.32" d="M356.94,-197.18C352.52,-179.57 341.94,-137.37 334.38,-107.24"/>
<polygon fill="green" stroke="green" stroke-width="0.32" points="337.68,-106 331.85,-97.15 330.89,-107.7 337.68,-106"/>
</g>
<!-- VCoil1 -->
<g id="node4" class="node">
<title>VCoil1</title>
<polygon fill="lightgray" stroke="black" points="316.5,-215.41 269.5,-215.41 269.5,-197.41 316.5,-197.41 316.5,-215.41"/>
<text text-anchor="middle" x="293" y="-204.21" font-family="Times,serif" font-size="9.00">VCoil1</text>
</g>
<!-- VCoil1&#45;&gt;Activate propulsor -->
<g id="edge1" class="edge">
<title>VCoil1&#45;&gt;Activate propulsor</title>
<path fill="none" stroke="red" stroke-width="0.59" d="M285.56,-197.18C274.17,-184.59 251.41,-159.43 229.41,-135.1"/>
<polygon fill="red" stroke="red" stroke-width="0.59" points="231.92,-132.66 222.62,-127.59 226.73,-137.35 231.92,-132.66"/>
</g>
<!-- VCoil1&#45;&gt;485 -->
<g id="edge5" class="edge">
<title>VCoil1&#45;&gt;485</title>
<path fill="none" stroke="green" stroke-width="0.4" d="M295.06,-197.18C299.48,-179.57 310.06,-137.37 317.62,-107.24"/>
<polygon fill="green" stroke="green" stroke-width="0.4" points="321.11,-107.7 320.15,-97.15 314.32,-106 321.11,-107.7"/>
</g>
<!-- VCoil2 -->
<g id="node5" class="node">
<title>VCoil2</title>
<polygon fill="lightgray" stroke="black" points="145.5,-215.41 98.5,-215.41 98.5,-197.41 145.5,-197.41 145.5,-215.41"/>
<text text-anchor="middle" x="122" y="-204.21" font-family="Times,serif" font-size="9.00">VCoil2</text>
</g>
<!-- VCoil2&#45;&gt;Activate propulsor -->
<g id="edge2" class="edge">
<title>VCoil2&#45;&gt;Activate propulsor</title>
<path fill="none" stroke="green" stroke-width="0.63" d="M125.25,-197.18C129.19,-187.22 136.23,-169.4 143.76,-150.35"/>
<polygon fill="green" stroke="green" stroke-width="0.63" points="147.06,-151.51 147.48,-140.93 140.55,-148.94 147.06,-151.51"/>
</g>
<!-- HCoil12 -->
<g id="node6" class="node">
<title>HCoil12</title>
<polygon fill="lightgray" stroke="black" points="365,-285.16 311,-285.16 311,-267.16 365,-267.16 365,-285.16"/>
<text text-anchor="middle" x="338" y="-273.96" font-family="Times,serif" font-size="9.00">HCoil12</text>
</g>
<!-- HCoil22 -->
<g id="node7" class="node">
<title>HCoil22</title>
<polygon fill="lightgray" stroke="black" points="437,-285.16 383,-285.16 383,-267.16 437,-267.16 437,-285.16"/>
<text text-anchor="middle" x="410" y="-273.96" font-family="Times,serif" font-size="9.00">HCoil22</text>
</g>
<!-- VCoil12 -->
<g id="node8" class="node">
<title>VCoil12</title>
<polygon fill="lightgray" stroke="black" points="508.5,-285.16 455.5,-285.16 455.5,-267.16 508.5,-267.16 508.5,-285.16"/>
<text text-anchor="middle" x="482" y="-273.96" font-family="Times,serif" font-size="9.00">VCoil12</text>
</g>
<!-- VCoil22 -->
<g id="node9" class="node">
<title>VCoil22</title>
<polygon fill="lightgray" stroke="black" points="226.5,-285.16 173.5,-285.16 173.5,-267.16 226.5,-267.16 226.5,-285.16"/>
<text text-anchor="middle" x="200" y="-273.96" font-family="Times,serif" font-size="9.00">VCoil22</text>
</g>
<!-- VCoil22&#45;&gt;Activate propulsor -->
<g id="edge3" class="edge">
<title>VCoil22&#45;&gt;Activate propulsor</title>
<path fill="none" stroke="red" stroke-width="0.58" stroke-dasharray="1,5" d="M198.62,-267.07C197.14,-258.25 194.76,-243.72 193,-231.16 189.58,-206.72 186.23,-180.1 183.31,-155.82"/>
<polygon fill="red" stroke="red" stroke-width="0.58" points="186.75,-155.08 182.09,-145.57 179.8,-155.91 186.75,-155.08"/>
</g>
<!-- 727 -->
<g id="node12" class="node">
<title>727</title>
<ellipse fill="white" stroke="black" cx="227" cy="-206.41" rx="25" ry="25"/>
<text text-anchor="middle" x="227" y="-204.21" font-family="Times,serif" font-size="9.00">727</text>
</g>
<!-- VCoil22&#45;&gt;727 -->
<g id="edge6" class="edge">
<title>VCoil22&#45;&gt;727</title>
<path fill="none" stroke="green" stroke-width="0.46" d="M203.2,-267.12C206.01,-260.09 210.26,-249.41 214.41,-239.01"/>
<polygon fill="green" stroke="green" stroke-width="0.46" points="217.69,-240.24 218.14,-229.65 211.18,-237.64 217.69,-240.24"/>
</g>
<!-- 727&#45;&gt;Activate propulsor -->
<g id="edge7" class="edge">
<title>727&#45;&gt;Activate propulsor</title>
<path fill="none" stroke="red" stroke-width="0.13" d="M218.01,-183.09C214.2,-173.63 209.51,-161.99 204.63,-149.87"/>
<polygon fill="red" stroke="red" stroke-width="0.13" points="207.86,-148.52 200.87,-140.55 201.36,-151.13 207.86,-148.52"/>
</g>
</g>
</svg>
