<?xml version="1.0" encoding="UTF-8" standalone="no"?>
<!DOCTYPE svg PUBLIC "-//W3C//DTD SVG 1.1//EN"
 "http://www.w3.org/Graphics/SVG/1.1/DTD/svg11.dtd">
<!-- Generated by graphviz version 2.43.0 (0)
 -->
<!-- Title: %3 Pages: 1 -->
<svg width="639pt" height="208pt"
 viewBox="0.00 0.00 638.50 207.66" xmlns="http://www.w3.org/2000/svg" xmlns:xlink="http://www.w3.org/1999/xlink">
<g id="graph0" class="graph" transform="scale(1 1) rotate(0) translate(4 203.66)">
<title>%3</title>
<polygon fill="white" stroke="transparent" points="-4,4 -4,-203.66 634.5,-203.66 634.5,4 -4,4"/>
<!-- Player_height -->
<g id="node1" class="node">
<title>Player_height</title>
<polygon fill="lightgray" stroke="black" points="80,-199.66 0,-199.66 0,-181.66 80,-181.66 80,-199.66"/>
<text text-anchor="middle" x="40" y="-188.46" font-family="Times,serif" font-size="9.00">Player_height</text>
</g>
<!-- HCoil1 -->
<g id="node2" class="node">
<title>HCoil1</title>
<polygon fill="lightgray" stroke="black" points="146,-199.66 98,-199.66 98,-181.66 146,-181.66 146,-199.66"/>
<text text-anchor="middle" x="122" y="-188.46" font-family="Times,serif" font-size="9.00">HCoil1</text>
</g>
<!-- HCoil2 -->
<g id="node3" class="node">
<title>HCoil2</title>
<polygon fill="lightgray" stroke="black" points="343,-199.66 295,-199.66 295,-181.66 343,-181.66 343,-199.66"/>
<text text-anchor="middle" x="319" y="-188.46" font-family="Times,serif" font-size="9.00">HCoil2</text>
</g>
<!-- Activate propulsor -->
<g id="node10" class="node">
<title>Activate propulsor</title>
<ellipse fill="lightblue" stroke="black" cx="258" cy="-72.83" rx="72.66" ry="72.66"/>
<text text-anchor="middle" x="258" y="-70.63" font-family="Times,serif" font-size="9.00">Activate propulsor</text>
</g>
<!-- HCoil2&#45;&gt;Activate propulsor -->
<g id="edge1" class="edge">
<title>HCoil2&#45;&gt;Activate propulsor</title>
<path fill="none" stroke="green" stroke-width="0.32" stroke-dasharray="1,5" d="M314.61,-181.33C310.43,-173.39 303.68,-160.57 296.27,-146.51"/>
<polygon fill="green" stroke="green" stroke-width="0.32" points="299.35,-144.84 291.6,-137.63 293.16,-148.11 299.35,-144.84"/>
</g>
<!-- 265 -->
<g id="node11" class="node">
<title>265</title>
<ellipse fill="white" stroke="black" cx="379" cy="-72.83" rx="25" ry="25"/>
<text text-anchor="middle" x="379" y="-70.63" font-family="Times,serif" font-size="9.00">265</text>
</g>
<!-- HCoil2&#45;&gt;265 -->
<g id="edge7" class="edge">
<title>HCoil2&#45;&gt;265</title>
<path fill="none" stroke="green" stroke-width="0.51" d="M323.32,-181.33C331.55,-165.44 349.87,-130.08 363.25,-104.23"/>
<polygon fill="green" stroke="green" stroke-width="0.51" points="366.44,-105.68 367.93,-95.2 360.23,-102.47 366.44,-105.68"/>
</g>
<!-- VCoil1 -->
<g id="node4" class="node">
<title>VCoil1</title>
<polygon fill="lightgray" stroke="black" points="211.5,-199.66 164.5,-199.66 164.5,-181.66 211.5,-181.66 211.5,-199.66"/>
<text text-anchor="middle" x="188" y="-188.46" font-family="Times,serif" font-size="9.00">VCoil1</text>
</g>
<!-- VCoil1&#45;&gt;Activate propulsor -->
<g id="edge3" class="edge">
<title>VCoil1&#45;&gt;Activate propulsor</title>
<path fill="none" stroke="red" stroke-width="0.67" d="M193.03,-181.33C198.07,-173.01 206.33,-159.34 215.3,-144.49"/>
<polygon fill="red" stroke="red" stroke-width="0.67" points="218.47,-146.02 220.64,-135.65 212.48,-142.4 218.47,-146.02"/>
</g>
<!-- VCoil2 -->
<g id="node5" class="node">
<title>VCoil2</title>
<polygon fill="lightgray" stroke="black" points="276.5,-199.66 229.5,-199.66 229.5,-181.66 276.5,-181.66 276.5,-199.66"/>
<text text-anchor="middle" x="253" y="-188.46" font-family="Times,serif" font-size="9.00">VCoil2</text>
</g>
<!-- VCoil2&#45;&gt;Activate propulsor -->
<g id="edge2" class="edge">
<title>VCoil2&#45;&gt;Activate propulsor</title>
<path fill="none" stroke="green" stroke-width="0.38" stroke-dasharray="1,5" d="M253.36,-181.33C253.62,-175.2 254.01,-166.17 254.46,-155.9"/>
<polygon fill="green" stroke="green" stroke-width="0.38" points="257.96,-155.88 254.9,-145.74 250.97,-155.58 257.96,-155.88"/>
</g>
<!-- HCoil12 -->
<g id="node6" class="node">
<title>HCoil12</title>
<polygon fill="lightgray" stroke="black" points="487,-199.66 433,-199.66 433,-181.66 487,-181.66 487,-199.66"/>
<text text-anchor="middle" x="460" y="-188.46" font-family="Times,serif" font-size="9.00">HCoil12</text>
</g>
<!-- HCoil22 -->
<g id="node7" class="node">
<title>HCoil22</title>
<polygon fill="lightgray" stroke="black" points="559,-199.66 505,-199.66 505,-181.66 559,-181.66 559,-199.66"/>
<text text-anchor="middle" x="532" y="-188.46" font-family="Times,serif" font-size="9.00">HCoil22</text>
</g>
<!-- 319 -->
<g id="node12" class="node">
<title>319</title>
<ellipse fill="white" stroke="black" cx="532" cy="-72.83" rx="25" ry="25"/>
<text text-anchor="middle" x="532" y="-70.63" font-family="Times,serif" font-size="9.00">319</text>
</g>
<!-- HCoil22&#45;&gt;319 -->
<g id="edge6" class="edge">
<title>HCoil22&#45;&gt;319</title>
<path fill="none" stroke="red" stroke-width="0.14" d="M532,-181.33C532,-166.2 532,-133.4 532,-107.98"/>
<polygon fill="red" stroke="red" stroke-width="0.14" points="535.5,-107.96 532,-97.96 528.5,-107.96 535.5,-107.96"/>
</g>
<!-- VCoil12 -->
<g id="node8" class="node">
<title>VCoil12</title>
<polygon fill="lightgray" stroke="black" points="630.5,-199.66 577.5,-199.66 577.5,-181.66 630.5,-181.66 630.5,-199.66"/>
<text text-anchor="middle" x="604" y="-188.46" font-family="Times,serif" font-size="9.00">VCoil12</text>
</g>
<!-- VCoil22 -->
<g id="node9" class="node">
<title>VCoil22</title>
<polygon fill="lightgray" stroke="black" points="414.5,-199.66 361.5,-199.66 361.5,-181.66 414.5,-181.66 414.5,-199.66"/>
<text text-anchor="middle" x="388" y="-188.46" font-family="Times,serif" font-size="9.00">VCoil22</text>
</g>
<!-- VCoil22&#45;&gt;Activate propulsor -->
<g id="edge5" class="edge">
<title>VCoil22&#45;&gt;Activate propulsor</title>
<path fill="none" stroke="green" stroke-width="0.14" d="M378.65,-181.33C366.1,-170.15 342.72,-149.32 319.86,-128.95"/>
<polygon fill="green" stroke="green" stroke-width="0.14" points="321.94,-126.11 312.14,-122.07 317.28,-131.34 321.94,-126.11"/>
</g>
<!-- VCoil22&#45;&gt;265 -->
<g id="edge4" class="edge">
<title>VCoil22&#45;&gt;265</title>
<path fill="none" stroke="green" stroke-width="0.41" d="M387.35,-181.33C386.18,-166.2 383.63,-133.4 381.65,-107.98"/>
<polygon fill="green" stroke="green" stroke-width="0.41" points="385.14,-107.66 380.88,-97.96 378.16,-108.21 385.14,-107.66"/>
</g>
</g>
</svg>
