<?xml version="1.0" encoding="UTF-8" standalone="no"?>
<!DOCTYPE svg PUBLIC "-//W3C//DTD SVG 1.1//EN"
 "http://www.w3.org/Graphics/SVG/1.1/DTD/svg11.dtd">
<!-- Generated by graphviz version 2.43.0 (0)
 -->
<!-- Title: %3 Pages: 1 -->
<svg width="697pt" height="231pt"
 viewBox="0.00 0.00 696.50 230.68" xmlns="http://www.w3.org/2000/svg" xmlns:xlink="http://www.w3.org/1999/xlink">
<g id="graph0" class="graph" transform="scale(1 1) rotate(0) translate(4 226.68)">
<title>%3</title>
<polygon fill="white" stroke="transparent" points="-4,4 -4,-226.68 692.5,-226.68 692.5,4 -4,4"/>
<!-- Player_height -->
<g id="node1" class="node">
<title>Player_height</title>
<polygon fill="lightgray" stroke="black" points="80,-211.17 0,-211.17 0,-193.17 80,-193.17 80,-211.17"/>
<text text-anchor="middle" x="40" y="-199.97" font-family="Times,serif" font-size="9.00">Player_height</text>
</g>
<!-- Activate propulsor -->
<g id="node10" class="node">
<title>Activate propulsor</title>
<ellipse fill="lightblue" stroke="black" cx="319" cy="-72.83" rx="72.66" ry="72.66"/>
<text text-anchor="middle" x="319" y="-70.63" font-family="Times,serif" font-size="9.00">Activate propulsor</text>
</g>
<!-- Player_height&#45;&gt;Activate propulsor -->
<g id="edge1" class="edge">
<title>Player_height&#45;&gt;Activate propulsor</title>
<path fill="none" stroke="green" stroke-width="0.37" d="M57.88,-193.01C94.62,-176.24 180.47,-137.06 243.75,-108.18"/>
<polygon fill="green" stroke="green" stroke-width="0.37" points="245.27,-111.33 252.91,-103.99 242.36,-104.96 245.27,-111.33"/>
</g>
<!-- HCoil1 -->
<g id="node2" class="node">
<title>HCoil1</title>
<polygon fill="lightgray" stroke="black" points="146,-211.17 98,-211.17 98,-193.17 146,-193.17 146,-211.17"/>
<text text-anchor="middle" x="122" y="-199.97" font-family="Times,serif" font-size="9.00">HCoil1</text>
</g>
<!-- HCoil1&#45;&gt;Activate propulsor -->
<g id="edge2" class="edge">
<title>HCoil1&#45;&gt;Activate propulsor</title>
<path fill="none" stroke="red" stroke-width="0.26" d="M134.62,-193.01C157.5,-178.22 207.36,-145.99 249.47,-118.78"/>
<polygon fill="red" stroke="red" stroke-width="0.26" points="251.55,-121.6 258.05,-113.23 247.75,-115.72 251.55,-121.6"/>
</g>
<!-- HCoil2 -->
<g id="node3" class="node">
<title>HCoil2</title>
<polygon fill="lightgray" stroke="black" points="212,-211.17 164,-211.17 164,-193.17 212,-193.17 212,-211.17"/>
<text text-anchor="middle" x="188" y="-199.97" font-family="Times,serif" font-size="9.00">HCoil2</text>
</g>
<!-- HCoil2&#45;&gt;Activate propulsor -->
<g id="edge3" class="edge">
<title>HCoil2&#45;&gt;Activate propulsor</title>
<path fill="none" stroke="red" stroke-width="0.23" d="M196.6,-192.82C209.6,-180.17 235.37,-155.13 259.92,-131.26"/>
<polygon fill="red" stroke="red" stroke-width="0.23" points="262.41,-133.72 267.14,-124.24 257.53,-128.7 262.41,-133.72"/>
</g>
<!-- VCoil1 -->
<g id="node4" class="node">
<title>VCoil1</title>
<polygon fill="lightgray" stroke="black" points="277.5,-211.17 230.5,-211.17 230.5,-193.17 277.5,-193.17 277.5,-211.17"/>
<text text-anchor="middle" x="254" y="-199.97" font-family="Times,serif" font-size="9.00">VCoil1</text>
</g>
<!-- VCoil1&#45;&gt;Activate propulsor -->
<g id="edge4" class="edge">
<title>VCoil1&#45;&gt;Activate propulsor</title>
<path fill="none" stroke="green" stroke-width="0.31" d="M258.26,-192.82C263.29,-182.97 272.15,-165.61 281.58,-147.13"/>
<polygon fill="green" stroke="green" stroke-width="0.31" points="284.81,-148.5 286.24,-138 278.58,-145.32 284.81,-148.5"/>
</g>
<!-- VCoil2 -->
<g id="node5" class="node">
<title>VCoil2</title>
<polygon fill="lightgray" stroke="black" points="342.5,-211.17 295.5,-211.17 295.5,-193.17 342.5,-193.17 342.5,-211.17"/>
<text text-anchor="middle" x="319" y="-199.97" font-family="Times,serif" font-size="9.00">VCoil2</text>
</g>
<!-- VCoil2&#45;&gt;Activate propulsor -->
<g id="edge5" class="edge">
<title>VCoil2&#45;&gt;Activate propulsor</title>
<path fill="none" stroke="red" stroke-width="0.11" d="M319,-192.82C319,-184.55 319,-170.99 319,-155.93"/>
<polygon fill="red" stroke="red" stroke-width="0.11" points="322.5,-155.85 319,-145.85 315.5,-155.85 322.5,-155.85"/>
</g>
<!-- HCoil12 -->
<g id="node6" class="node">
<title>HCoil12</title>
<polygon fill="lightgray" stroke="black" points="415,-211.17 361,-211.17 361,-193.17 415,-193.17 415,-211.17"/>
<text text-anchor="middle" x="388" y="-199.97" font-family="Times,serif" font-size="9.00">HCoil12</text>
</g>
<!-- HCoil12&#45;&gt;Activate propulsor -->
<g id="edge6" class="edge">
<title>HCoil12&#45;&gt;Activate propulsor</title>
<path fill="none" stroke="green" stroke-width="0.61" stroke-dasharray="1,5" d="M383.47,-192.82C378.06,-182.83 368.46,-165.11 358.29,-146.34"/>
<polygon fill="green" stroke="green" stroke-width="0.61" points="361.27,-144.5 353.43,-137.37 355.12,-147.83 361.27,-144.5"/>
</g>
<!-- HCoil22 -->
<g id="node7" class="node">
<title>HCoil22</title>
<polygon fill="lightgray" stroke="black" points="487,-211.17 433,-211.17 433,-193.17 487,-193.17 487,-211.17"/>
<text text-anchor="middle" x="460" y="-199.97" font-family="Times,serif" font-size="9.00">HCoil22</text>
</g>
<!-- HCoil22&#45;&gt;Activate propulsor -->
<g id="edge7" class="edge">
<title>HCoil22&#45;&gt;Activate propulsor</title>
<path fill="none" stroke="red" stroke-width="0.17" d="M450.75,-192.82C436.36,-179.82 407.44,-153.7 380.35,-129.24"/>
<polygon fill="red" stroke="red" stroke-width="0.17" points="382.54,-126.5 372.77,-122.39 377.85,-131.69 382.54,-126.5"/>
</g>
<!-- VCoil12 -->
<g id="node8" class="node">
<title>VCoil12</title>
<polygon fill="lightgray" stroke="black" points="688.5,-211.17 635.5,-211.17 635.5,-193.17 688.5,-193.17 688.5,-211.17"/>
<text text-anchor="middle" x="662" y="-199.97" font-family="Times,serif" font-size="9.00">VCoil12</text>
</g>
<!-- VCoil22 -->
<g id="node9" class="node">
<title>VCoil22</title>
<polygon fill="lightgray" stroke="black" points="558.5,-211.17 505.5,-211.17 505.5,-193.17 558.5,-193.17 558.5,-211.17"/>
<text text-anchor="middle" x="532" y="-199.97" font-family="Times,serif" font-size="9.00">VCoil22</text>
</g>
<!-- VCoil22&#45;&gt;Activate propulsor -->
<g id="edge8" class="edge">
<title>VCoil22&#45;&gt;Activate propulsor</title>
<path fill="none" stroke="red" stroke-width="0.12" d="M518.35,-193.01C492.91,-177.8 436.6,-144.14 390.29,-116.45"/>
<polygon fill="red" stroke="red" stroke-width="0.12" points="391.86,-113.31 381.48,-111.18 388.27,-119.32 391.86,-113.31"/>
</g>
<!-- 69 -->
<g id="node11" class="node">
<title>69</title>
<ellipse fill="white" stroke="black" cx="597" cy="-202.17" rx="20.51" ry="20.51"/>
<text text-anchor="middle" x="597" y="-199.97" font-family="Times,serif" font-size="9.00">69</text>
</g>
<!-- 69&#45;&gt;Activate propulsor -->
<g id="edge9" class="edge">
<title>69&#45;&gt;Activate propulsor</title>
<path fill="none" stroke="green" stroke-width="0.67" d="M580.77,-189.49C576.69,-186.77 572.26,-183.99 568,-181.66 512.38,-151.25 446.42,-123.01 396.37,-103.07"/>
<polygon fill="green" stroke="green" stroke-width="0.67" points="397.49,-99.74 386.9,-99.32 394.91,-106.25 397.49,-99.74"/>
</g>
</g>
</svg>
