<?xml version="1.0" encoding="UTF-8" standalone="no"?>
<!DOCTYPE svg PUBLIC "-//W3C//DTD SVG 1.1//EN"
 "http://www.w3.org/Graphics/SVG/1.1/DTD/svg11.dtd">
<!-- Generated by graphviz version 2.43.0 (0)
 -->
<!-- Title: %3 Pages: 1 -->
<svg width="805pt" height="379pt"
 viewBox="0.00 0.00 805.44 378.66" xmlns="http://www.w3.org/2000/svg" xmlns:xlink="http://www.w3.org/1999/xlink">
<g id="graph0" class="graph" transform="scale(1 1) rotate(0) translate(4 374.66)">
<title>%3</title>
<polygon fill="white" stroke="transparent" points="-4,4 -4,-374.66 801.44,-374.66 801.44,4 -4,4"/>
<!-- Player_height -->
<g id="node1" class="node">
<title>Player_height</title>
<polygon fill="lightgray" stroke="black" points="174.94,-300.91 94.94,-300.91 94.94,-282.91 174.94,-282.91 174.94,-300.91"/>
<text text-anchor="middle" x="134.94" y="-289.71" font-family="Times,serif" font-size="9.00">Player_height</text>
</g>
<!-- 712 -->
<g id="node12" class="node">
<title>712</title>
<ellipse fill="white" stroke="black" cx="134.94" cy="-206.41" rx="25" ry="25"/>
<text text-anchor="middle" x="134.94" y="-204.21" font-family="Times,serif" font-size="9.00">712</text>
</g>
<!-- Player_height&#45;&gt;712 -->
<g id="edge14" class="edge">
<title>Player_height&#45;&gt;712</title>
<path fill="none" stroke="green" stroke-width="0.43" d="M134.94,-282.9C134.94,-273.35 134.94,-256.76 134.94,-241.56"/>
<polygon fill="green" stroke="green" stroke-width="0.43" points="138.44,-241.37 134.94,-231.37 131.44,-241.37 138.44,-241.37"/>
</g>
<!-- HCoil1 -->
<g id="node2" class="node">
<title>HCoil1</title>
<polygon fill="lightgray" stroke="black" points="653.94,-370.66 605.94,-370.66 605.94,-352.66 653.94,-352.66 653.94,-370.66"/>
<text text-anchor="middle" x="629.94" y="-359.46" font-family="Times,serif" font-size="9.00">HCoil1</text>
</g>
<!-- HCoil2 -->
<g id="node3" class="node">
<title>HCoil2</title>
<polygon fill="lightgray" stroke="black" points="517.94,-300.91 469.94,-300.91 469.94,-282.91 517.94,-282.91 517.94,-300.91"/>
<text text-anchor="middle" x="493.94" y="-289.71" font-family="Times,serif" font-size="9.00">HCoil2</text>
</g>
<!-- 485 -->
<g id="node11" class="node">
<title>485</title>
<ellipse fill="white" stroke="black" cx="399.94" cy="-206.41" rx="25" ry="25"/>
<text text-anchor="middle" x="399.94" y="-204.21" font-family="Times,serif" font-size="9.00">485</text>
</g>
<!-- HCoil2&#45;&gt;485 -->
<g id="edge4" class="edge">
<title>HCoil2&#45;&gt;485</title>
<path fill="none" stroke="green" stroke-width="0.19" d="M484.92,-282.9C471.43,-270.92 445.47,-247.86 425.78,-230.37"/>
<polygon fill="green" stroke="green" stroke-width="0.19" points="427.84,-227.52 418.04,-223.5 423.2,-232.76 427.84,-227.52"/>
</g>
<!-- VCoil1 -->
<g id="node4" class="node">
<title>VCoil1</title>
<polygon fill="lightgray" stroke="black" points="345.44,-300.91 298.44,-300.91 298.44,-282.91 345.44,-282.91 345.44,-300.91"/>
<text text-anchor="middle" x="321.94" y="-289.71" font-family="Times,serif" font-size="9.00">VCoil1</text>
</g>
<!-- Activate propulsor -->
<g id="node10" class="node">
<title>Activate propulsor</title>
<ellipse fill="lightblue" stroke="black" cx="107.94" cy="-72.83" rx="72.66" ry="72.66"/>
<text text-anchor="middle" x="107.94" y="-70.63" font-family="Times,serif" font-size="9.00">Activate propulsor</text>
</g>
<!-- VCoil1&#45;&gt;Activate propulsor -->
<g id="edge1" class="edge">
<title>VCoil1&#45;&gt;Activate propulsor</title>
<path fill="none" stroke="red" stroke-width="0.54" d="M313.81,-282.67C289.89,-258.4 218.17,-185.65 166.1,-132.83"/>
<polygon fill="red" stroke="red" stroke-width="0.54" points="168.4,-130.18 158.89,-125.52 163.42,-135.1 168.4,-130.18"/>
</g>
<!-- VCoil1&#45;&gt;485 -->
<g id="edge5" class="edge">
<title>VCoil1&#45;&gt;485</title>
<path fill="none" stroke="green" stroke-width="0.66" stroke-dasharray="1,5" d="M329.41,-282.9C340.13,-271.44 360.32,-249.82 376.36,-232.65"/>
<polygon fill="green" stroke="green" stroke-width="0.66" points="379.12,-234.82 383.39,-225.12 374.01,-230.04 379.12,-234.82"/>
</g>
<!-- VCoil2 -->
<g id="node5" class="node">
<title>VCoil2</title>
<polygon fill="lightgray" stroke="black" points="76.44,-300.91 29.44,-300.91 29.44,-282.91 76.44,-282.91 76.44,-300.91"/>
<text text-anchor="middle" x="52.94" y="-289.71" font-family="Times,serif" font-size="9.00">VCoil2</text>
</g>
<!-- VCoil2&#45;&gt;Activate propulsor -->
<g id="edge2" class="edge">
<title>VCoil2&#45;&gt;Activate propulsor</title>
<path fill="none" stroke="green" stroke-width="0.7" d="M55.02,-282.67C60.4,-261.43 75.2,-203.04 87.78,-153.38"/>
<polygon fill="green" stroke="green" stroke-width="0.7" points="91.2,-154.13 90.26,-143.58 84.41,-152.41 91.2,-154.13"/>
</g>
<!-- VCoil2&#45;&gt;712 -->
<g id="edge8" class="edge">
<title>VCoil2&#45;&gt;712</title>
<path fill="none" stroke="green" stroke-width="0.3" d="M60.8,-282.9C72.13,-271.36 93.55,-249.55 110.46,-232.33"/>
<polygon fill="green" stroke="green" stroke-width="0.3" points="113.36,-234.38 117.87,-224.79 108.36,-229.48 113.36,-234.38"/>
</g>
<!-- HCoil12 -->
<g id="node6" class="node">
<title>HCoil12</title>
<polygon fill="lightgray" stroke="black" points="725.94,-370.66 671.94,-370.66 671.94,-352.66 725.94,-352.66 725.94,-370.66"/>
<text text-anchor="middle" x="698.94" y="-359.46" font-family="Times,serif" font-size="9.00">HCoil12</text>
</g>
<!-- HCoil22 -->
<g id="node7" class="node">
<title>HCoil22</title>
<polygon fill="lightgray" stroke="black" points="587.94,-370.66 533.94,-370.66 533.94,-352.66 587.94,-352.66 587.94,-370.66"/>
<text text-anchor="middle" x="560.94" y="-359.46" font-family="Times,serif" font-size="9.00">HCoil22</text>
</g>
<!-- 521 -->
<g id="node13" class="node">
<title>521</title>
<ellipse fill="white" stroke="black" cx="560.94" cy="-291.91" rx="25" ry="25"/>
<text text-anchor="middle" x="560.94" y="-289.71" font-family="Times,serif" font-size="9.00">521</text>
</g>
<!-- HCoil22&#45;&gt;521 -->
<g id="edge9" class="edge">
<title>HCoil22&#45;&gt;521</title>
<path fill="none" stroke="green" stroke-width="0.46" d="M560.94,-352.62C560.94,-346.19 560.94,-336.69 560.94,-327.15"/>
<polygon fill="green" stroke="green" stroke-width="0.46" points="564.44,-326.93 560.94,-316.93 557.44,-326.93 564.44,-326.93"/>
</g>
<!-- VCoil12 -->
<g id="node8" class="node">
<title>VCoil12</title>
<polygon fill="lightgray" stroke="black" points="797.44,-370.66 744.44,-370.66 744.44,-352.66 797.44,-352.66 797.44,-370.66"/>
<text text-anchor="middle" x="770.94" y="-359.46" font-family="Times,serif" font-size="9.00">VCoil12</text>
</g>
<!-- VCoil22 -->
<g id="node9" class="node">
<title>VCoil22</title>
<polygon fill="lightgray" stroke="black" points="341.44,-370.66 288.44,-370.66 288.44,-352.66 341.44,-352.66 341.44,-370.66"/>
<text text-anchor="middle" x="314.94" y="-359.46" font-family="Times,serif" font-size="9.00">VCoil22</text>
</g>
<!-- VCoil22&#45;&gt;Activate propulsor -->
<g id="edge3" class="edge">
<title>VCoil22&#45;&gt;Activate propulsor</title>
<path fill="none" stroke="green" stroke-width="0.27" d="M288.12,-360.9C222.09,-360.87 54.5,-356.76 19.94,-316.66 -24.55,-265.05 14.78,-189.16 54.09,-135.99"/>
<polygon fill="green" stroke="green" stroke-width="0.27" points="56.9,-138.08 60.14,-127.99 51.32,-133.86 56.9,-138.08"/>
</g>
<!-- VCoil22&#45;&gt;485 -->
<g id="edge13" class="edge">
<title>VCoil22&#45;&gt;485</title>
<path fill="none" stroke="green" stroke-width="0.48" stroke-dasharray="1,5" d="M323.86,-352.63C332.68,-344.31 346.1,-330.62 354.94,-316.66 370.16,-292.61 382.1,-262.54 389.84,-240.04"/>
<polygon fill="green" stroke="green" stroke-width="0.48" points="393.25,-240.87 393.1,-230.28 386.61,-238.65 393.25,-240.87"/>
</g>
<!-- VCoil22&#45;&gt;712 -->
<g id="edge6" class="edge">
<title>VCoil22&#45;&gt;712</title>
<path fill="none" stroke="green" stroke-width="0.48" stroke-dasharray="1,5" d="M290.23,-352.64C270.38,-345.37 242.51,-333.26 221.94,-316.66 200.35,-299.24 201.18,-288.89 183.94,-267.16 175.18,-256.13 165.37,-244.11 156.84,-233.75"/>
<polygon fill="green" stroke="green" stroke-width="0.48" points="159.39,-231.34 150.32,-225.86 153.99,-235.8 159.39,-231.34"/>
</g>
<!-- VCoil22&#45;&gt;521 -->
<g id="edge12" class="edge">
<title>VCoil22&#45;&gt;521</title>
<path fill="none" stroke="green" stroke-width="0.34" d="M341.75,-358.58C383.02,-354.62 463.94,-343.83 526.94,-316.66 529.03,-315.76 531.13,-314.71 533.19,-313.58"/>
<polygon fill="green" stroke="green" stroke-width="0.34" points="535.29,-316.4 541.96,-308.16 531.61,-310.44 535.29,-316.4"/>
</g>
<!-- 888 -->
<g id="node14" class="node">
<title>888</title>
<ellipse fill="white" stroke="black" cx="255.94" cy="-291.91" rx="25" ry="25"/>
<text text-anchor="middle" x="255.94" y="-289.71" font-family="Times,serif" font-size="9.00">888</text>
</g>
<!-- VCoil22&#45;&gt;888 -->
<g id="edge10" class="edge">
<title>VCoil22&#45;&gt;888</title>
<path fill="none" stroke="red" stroke-width="0.46" d="M307.94,-352.62C300.67,-344.28 288.93,-330.8 278.45,-318.76"/>
<polygon fill="red" stroke="red" stroke-width="0.46" points="281,-316.36 271.79,-311.12 275.72,-320.96 281,-316.36"/>
</g>
<!-- 987 -->
<g id="node15" class="node">
<title>987</title>
<ellipse fill="white" stroke="black" cx="426.94" cy="-291.91" rx="25" ry="25"/>
<text text-anchor="middle" x="426.94" y="-289.71" font-family="Times,serif" font-size="9.00">987</text>
</g>
<!-- VCoil22&#45;&gt;987 -->
<g id="edge15" class="edge">
<title>VCoil22&#45;&gt;987</title>
<path fill="none" stroke="green" stroke-width="0.27" d="M328.4,-352.57C343.06,-343.75 367.18,-329.23 387.94,-316.66 390.94,-314.84 394.08,-312.93 397.21,-311.03"/>
<polygon fill="green" stroke="green" stroke-width="0.27" points="399.17,-313.93 405.9,-305.75 395.53,-307.95 399.17,-313.93"/>
</g>
<!-- 712&#45;&gt;Activate propulsor -->
<g id="edge7" class="edge">
<title>712&#45;&gt;Activate propulsor</title>
<path fill="none" stroke="red" stroke-width="0.31" d="M130.11,-181.89C128.46,-173.85 126.51,-164.35 124.46,-154.38"/>
<polygon fill="red" stroke="red" stroke-width="0.31" points="127.83,-153.37 122.39,-144.28 120.97,-154.78 127.83,-153.37"/>
</g>
<!-- 888&#45;&gt;712 -->
<g id="edge11" class="edge">
<title>888&#45;&gt;712</title>
<path fill="none" stroke="green" stroke-width="0.25" d="M235.95,-277.12C216.16,-263.46 185.66,-242.42 163.35,-227.02"/>
<polygon fill="green" stroke="green" stroke-width="0.25" points="165.16,-224.02 154.95,-221.22 161.19,-229.78 165.16,-224.02"/>
</g>
<!-- 987&#45;&gt;485 -->
<g id="edge16" class="edge">
<title>987&#45;&gt;485</title>
<path fill="none" stroke="green" stroke-width="0.13" d="M419.56,-268.09C416.73,-259.35 413.45,-249.2 410.39,-239.73"/>
<polygon fill="green" stroke="green" stroke-width="0.13" points="413.71,-238.64 407.3,-230.2 407.05,-240.79 413.71,-238.64"/>
</g>
</g>
</svg>
