<?xml version="1.0" encoding="UTF-8" standalone="no"?>
<!DOCTYPE svg PUBLIC "-//W3C//DTD SVG 1.1//EN"
 "http://www.w3.org/Graphics/SVG/1.1/DTD/svg11.dtd">
<!-- Generated by graphviz version 2.43.0 (0)
 -->
<!-- Title: %3 Pages: 1 -->
<svg width="501pt" height="293pt"
 viewBox="0.00 0.00 500.50 293.16" xmlns="http://www.w3.org/2000/svg" xmlns:xlink="http://www.w3.org/1999/xlink">
<g id="graph0" class="graph" transform="scale(1 1) rotate(0) translate(4 289.16)">
<title>%3</title>
<polygon fill="white" stroke="transparent" points="-4,4 -4,-289.16 496.5,-289.16 496.5,4 -4,4"/>
<!-- Player_height -->
<g id="node1" class="node">
<title>Player_height</title>
<polygon fill="lightgray" stroke="black" points="80,-285.16 0,-285.16 0,-267.16 80,-267.16 80,-285.16"/>
<text text-anchor="middle" x="40" y="-273.96" font-family="Times,serif" font-size="9.00">Player_height</text>
</g>
<!-- HCoil1 -->
<g id="node2" class="node">
<title>HCoil1</title>
<polygon fill="lightgray" stroke="black" points="146,-285.16 98,-285.16 98,-267.16 146,-267.16 146,-285.16"/>
<text text-anchor="middle" x="122" y="-273.96" font-family="Times,serif" font-size="9.00">HCoil1</text>
</g>
<!-- HCoil2 -->
<g id="node3" class="node">
<title>HCoil2</title>
<polygon fill="lightgray" stroke="black" points="74,-215.41 26,-215.41 26,-197.41 74,-197.41 74,-215.41"/>
<text text-anchor="middle" x="50" y="-204.21" font-family="Times,serif" font-size="9.00">HCoil2</text>
</g>
<!-- Activate propulsor -->
<g id="node10" class="node">
<title>Activate propulsor</title>
<ellipse fill="lightblue" stroke="black" cx="119" cy="-72.83" rx="72.66" ry="72.66"/>
<text text-anchor="middle" x="119" y="-70.63" font-family="Times,serif" font-size="9.00">Activate propulsor</text>
</g>
<!-- HCoil2&#45;&gt;Activate propulsor -->
<g id="edge1" class="edge">
<title>HCoil2&#45;&gt;Activate propulsor</title>
<path fill="none" stroke="green" stroke-width="0.11" stroke-dasharray="1,5" d="M54.32,-197.18C59.87,-186.6 70.07,-167.13 80.77,-146.74"/>
<polygon fill="green" stroke="green" stroke-width="0.11" points="83.99,-148.14 85.53,-137.66 77.79,-144.89 83.99,-148.14"/>
</g>
<!-- VCoil1 -->
<g id="node4" class="node">
<title>VCoil1</title>
<polygon fill="lightgray" stroke="black" points="211.5,-285.16 164.5,-285.16 164.5,-267.16 211.5,-267.16 211.5,-285.16"/>
<text text-anchor="middle" x="188" y="-273.96" font-family="Times,serif" font-size="9.00">VCoil1</text>
</g>
<!-- 428 -->
<g id="node11" class="node">
<title>428</title>
<ellipse fill="white" stroke="black" cx="188" cy="-206.41" rx="25" ry="25"/>
<text text-anchor="middle" x="188" y="-204.21" font-family="Times,serif" font-size="9.00">428</text>
</g>
<!-- VCoil1&#45;&gt;428 -->
<g id="edge4" class="edge">
<title>VCoil1&#45;&gt;428</title>
<path fill="none" stroke="green" stroke-width="0.29" d="M188,-267.12C188,-260.69 188,-251.19 188,-241.65"/>
<polygon fill="green" stroke="green" stroke-width="0.29" points="191.5,-241.43 188,-231.43 184.5,-241.43 191.5,-241.43"/>
</g>
<!-- VCoil2 -->
<g id="node5" class="node">
<title>VCoil2</title>
<polygon fill="lightgray" stroke="black" points="276.5,-285.16 229.5,-285.16 229.5,-267.16 276.5,-267.16 276.5,-285.16"/>
<text text-anchor="middle" x="253" y="-273.96" font-family="Times,serif" font-size="9.00">VCoil2</text>
</g>
<!-- HCoil12 -->
<g id="node6" class="node">
<title>HCoil12</title>
<polygon fill="lightgray" stroke="black" points="349,-285.16 295,-285.16 295,-267.16 349,-267.16 349,-285.16"/>
<text text-anchor="middle" x="322" y="-273.96" font-family="Times,serif" font-size="9.00">HCoil12</text>
</g>
<!-- HCoil22 -->
<g id="node7" class="node">
<title>HCoil22</title>
<polygon fill="lightgray" stroke="black" points="421,-285.16 367,-285.16 367,-267.16 421,-267.16 421,-285.16"/>
<text text-anchor="middle" x="394" y="-273.96" font-family="Times,serif" font-size="9.00">HCoil22</text>
</g>
<!-- 319 -->
<g id="node12" class="node">
<title>319</title>
<ellipse fill="white" stroke="black" cx="394" cy="-206.41" rx="25" ry="25"/>
<text text-anchor="middle" x="394" y="-204.21" font-family="Times,serif" font-size="9.00">319</text>
</g>
<!-- HCoil22&#45;&gt;319 -->
<g id="edge3" class="edge">
<title>HCoil22&#45;&gt;319</title>
<path fill="none" stroke="green" stroke-width="0.54" d="M394,-267.12C394,-260.69 394,-251.19 394,-241.65"/>
<polygon fill="green" stroke="green" stroke-width="0.54" points="397.5,-241.43 394,-231.43 390.5,-241.43 397.5,-241.43"/>
</g>
<!-- VCoil12 -->
<g id="node8" class="node">
<title>VCoil12</title>
<polygon fill="lightgray" stroke="black" points="492.5,-285.16 439.5,-285.16 439.5,-267.16 492.5,-267.16 492.5,-285.16"/>
<text text-anchor="middle" x="466" y="-273.96" font-family="Times,serif" font-size="9.00">VCoil12</text>
</g>
<!-- VCoil22 -->
<g id="node9" class="node">
<title>VCoil22</title>
<polygon fill="lightgray" stroke="black" points="145.5,-215.41 92.5,-215.41 92.5,-197.41 145.5,-197.41 145.5,-215.41"/>
<text text-anchor="middle" x="119" y="-204.21" font-family="Times,serif" font-size="9.00">VCoil22</text>
</g>
<!-- VCoil22&#45;&gt;Activate propulsor -->
<g id="edge2" class="edge">
<title>VCoil22&#45;&gt;Activate propulsor</title>
<path fill="none" stroke="green" stroke-width="0.4" d="M119,-197.18C119,-188.2 119,-172.82 119,-155.92"/>
<polygon fill="green" stroke="green" stroke-width="0.4" points="122.5,-155.82 119,-145.82 115.5,-155.82 122.5,-155.82"/>
</g>
<!-- 428&#45;&gt;Activate propulsor -->
<g id="edge5" class="edge">
<title>428&#45;&gt;Activate propulsor</title>
<path fill="none" stroke="red" stroke-width="0.11" d="M176.91,-184.27C171.41,-173.78 164.41,-160.43 157.19,-146.66"/>
<polygon fill="red" stroke="red" stroke-width="0.11" points="160.17,-144.81 152.43,-137.57 153.97,-148.06 160.17,-144.81"/>
</g>
</g>
</svg>
