<?xml version="1.0" encoding="UTF-8" standalone="no"?>
<!DOCTYPE svg PUBLIC "-//W3C//DTD SVG 1.1//EN"
 "http://www.w3.org/Graphics/SVG/1.1/DTD/svg11.dtd">
<!-- Generated by graphviz version 2.43.0 (0)
 -->
<!-- Title: %3 Pages: 1 -->
<svg width="420pt" height="473pt"
 viewBox="0.00 0.00 419.50 472.64" xmlns="http://www.w3.org/2000/svg" xmlns:xlink="http://www.w3.org/1999/xlink">
<g id="graph0" class="graph" transform="scale(1 1) rotate(0) translate(4 468.64)">
<title>%3</title>
<polygon fill="white" stroke="transparent" points="-4,4 -4,-468.64 415.5,-468.64 415.5,4 -4,4"/>
<!-- Player_height -->
<g id="node1" class="node">
<title>Player_height</title>
<polygon fill="lightgray" stroke="black" points="109,-464.64 29,-464.64 29,-446.64 109,-446.64 109,-464.64"/>
<text text-anchor="middle" x="69" y="-453.44" font-family="Times,serif" font-size="9.00">Player_height</text>
</g>
<!-- HCoil1 -->
<g id="node2" class="node">
<title>HCoil1</title>
<polygon fill="lightgray" stroke="black" points="175,-464.64 127,-464.64 127,-446.64 175,-446.64 175,-464.64"/>
<text text-anchor="middle" x="151" y="-453.44" font-family="Times,serif" font-size="9.00">HCoil1</text>
</g>
<!-- HCoil2 -->
<g id="node3" class="node">
<title>HCoil2</title>
<polygon fill="lightgray" stroke="black" points="48,-305.15 0,-305.15 0,-287.15 48,-287.15 48,-305.15"/>
<text text-anchor="middle" x="24" y="-293.95" font-family="Times,serif" font-size="9.00">HCoil2</text>
</g>
<!-- 485 -->
<g id="node11" class="node">
<title>485</title>
<ellipse fill="white" stroke="black" cx="61" cy="-206.41" rx="25" ry="25"/>
<text text-anchor="middle" x="61" y="-204.21" font-family="Times,serif" font-size="9.00">485</text>
</g>
<!-- HCoil2&#45;&gt;485 -->
<g id="edge4" class="edge">
<title>HCoil2&#45;&gt;485</title>
<path fill="none" stroke="green" stroke-width="0.52" stroke-dasharray="1,5" d="M27.41,-287.06C32.03,-276.1 40.53,-255.94 47.83,-238.65"/>
<polygon fill="green" stroke="green" stroke-width="0.52" points="51.06,-239.99 51.72,-229.41 44.61,-237.27 51.06,-239.99"/>
</g>
<!-- VCoil1 -->
<g id="node4" class="node">
<title>VCoil1</title>
<polygon fill="lightgray" stroke="black" points="150.5,-215.41 103.5,-215.41 103.5,-197.41 150.5,-197.41 150.5,-215.41"/>
<text text-anchor="middle" x="127" y="-204.21" font-family="Times,serif" font-size="9.00">VCoil1</text>
</g>
<!-- Activate propulsor -->
<g id="node10" class="node">
<title>Activate propulsor</title>
<ellipse fill="lightblue" stroke="black" cx="179" cy="-72.83" rx="72.66" ry="72.66"/>
<text text-anchor="middle" x="179" y="-70.63" font-family="Times,serif" font-size="9.00">Activate propulsor</text>
</g>
<!-- VCoil1&#45;&gt;Activate propulsor -->
<g id="edge1" class="edge">
<title>VCoil1&#45;&gt;Activate propulsor</title>
<path fill="none" stroke="red" stroke-width="0.46" d="M130.25,-197.18C134.19,-187.22 141.23,-169.4 148.76,-150.35"/>
<polygon fill="red" stroke="red" stroke-width="0.46" points="152.06,-151.51 152.48,-140.93 145.55,-148.94 152.06,-151.51"/>
</g>
<!-- VCoil2 -->
<g id="node5" class="node">
<title>VCoil2</title>
<polygon fill="lightgray" stroke="black" points="240.5,-464.64 193.5,-464.64 193.5,-446.64 240.5,-446.64 240.5,-464.64"/>
<text text-anchor="middle" x="217" y="-453.44" font-family="Times,serif" font-size="9.00">VCoil2</text>
</g>
<!-- VCoil2&#45;&gt;Activate propulsor -->
<g id="edge2" class="edge">
<title>VCoil2&#45;&gt;Activate propulsor</title>
<path fill="none" stroke="green" stroke-width="0.47" d="M216.17,-446.33C212.44,-408.94 196.96,-253.78 187.19,-155.89"/>
<polygon fill="green" stroke="green" stroke-width="0.47" points="190.65,-155.32 186.17,-145.72 183.68,-156.02 190.65,-155.32"/>
</g>
<!-- 712 -->
<g id="node12" class="node">
<title>712</title>
<ellipse fill="white" stroke="black" cx="255" cy="-206.41" rx="25" ry="25"/>
<text text-anchor="middle" x="255" y="-204.21" font-family="Times,serif" font-size="9.00">712</text>
</g>
<!-- VCoil2&#45;&gt;712 -->
<g id="edge8" class="edge">
<title>VCoil2&#45;&gt;712</title>
<path fill="none" stroke="green" stroke-width="0.29" stroke-dasharray="1,5" d="M218.26,-446.42C223.14,-414.71 240.88,-299.3 249.8,-241.24"/>
<polygon fill="green" stroke="green" stroke-width="0.29" points="253.3,-241.52 251.36,-231.1 246.38,-240.46 253.3,-241.52"/>
</g>
<!-- 927 -->
<g id="node14" class="node">
<title>927</title>
<ellipse fill="white" stroke="black" cx="270" cy="-385.89" rx="25" ry="25"/>
<text text-anchor="middle" x="270" y="-383.69" font-family="Times,serif" font-size="9.00">927</text>
</g>
<!-- VCoil2&#45;&gt;927 -->
<g id="edge10" class="edge">
<title>VCoil2&#45;&gt;927</title>
<path fill="none" stroke="green" stroke-width="0.22" d="M223.29,-446.6C229.62,-438.52 239.73,-425.59 248.93,-413.83"/>
<polygon fill="green" stroke="green" stroke-width="0.22" points="251.69,-415.98 255.09,-405.95 246.17,-411.67 251.69,-415.98"/>
</g>
<!-- HCoil12 -->
<g id="node6" class="node">
<title>HCoil12</title>
<polygon fill="lightgray" stroke="black" points="313,-464.64 259,-464.64 259,-446.64 313,-446.64 313,-464.64"/>
<text text-anchor="middle" x="286" y="-453.44" font-family="Times,serif" font-size="9.00">HCoil12</text>
</g>
<!-- HCoil22 -->
<g id="node7" class="node">
<title>HCoil22</title>
<polygon fill="lightgray" stroke="black" points="385,-464.64 331,-464.64 331,-446.64 385,-446.64 385,-464.64"/>
<text text-anchor="middle" x="358" y="-453.44" font-family="Times,serif" font-size="9.00">HCoil22</text>
</g>
<!-- VCoil12 -->
<g id="node8" class="node">
<title>VCoil12</title>
<polygon fill="lightgray" stroke="black" points="119.5,-305.15 66.5,-305.15 66.5,-287.15 119.5,-287.15 119.5,-305.15"/>
<text text-anchor="middle" x="93" y="-293.95" font-family="Times,serif" font-size="9.00">VCoil12</text>
</g>
<!-- VCoil12&#45;&gt;485 -->
<g id="edge9" class="edge">
<title>VCoil12&#45;&gt;485</title>
<path fill="none" stroke="green" stroke-width="0.27" d="M90.05,-287.06C86.11,-276.27 78.93,-256.58 72.69,-239.47"/>
<polygon fill="green" stroke="green" stroke-width="0.27" points="75.87,-237.98 69.16,-229.78 69.3,-240.37 75.87,-237.98"/>
</g>
<!-- VCoil22 -->
<g id="node9" class="node">
<title>VCoil22</title>
<polygon fill="lightgray" stroke="black" points="411.5,-305.15 358.5,-305.15 358.5,-287.15 411.5,-287.15 411.5,-305.15"/>
<text text-anchor="middle" x="385" y="-293.95" font-family="Times,serif" font-size="9.00">VCoil22</text>
</g>
<!-- VCoil22&#45;&gt;Activate propulsor -->
<g id="edge3" class="edge">
<title>VCoil22&#45;&gt;Activate propulsor</title>
<path fill="none" stroke="red" stroke-width="0.27" stroke-dasharray="1,5" d="M378.5,-286.95C363.35,-267.95 324.31,-219.66 289,-181.66 273.29,-164.76 255.68,-147 239.22,-130.88"/>
<polygon fill="red" stroke="red" stroke-width="0.27" points="241.36,-128.08 231.76,-123.6 236.47,-133.09 241.36,-128.08"/>
</g>
<!-- VCoil22&#45;&gt;712 -->
<g id="edge6" class="edge">
<title>VCoil22&#45;&gt;712</title>
<path fill="none" stroke="green" stroke-width="0.12" d="M375.42,-287.01C368.51,-281.25 358.88,-273.47 350,-267.16 328.85,-252.12 303.99,-236.56 285,-225.09"/>
<polygon fill="green" stroke="green" stroke-width="0.12" points="286.58,-221.95 276.2,-219.8 282.97,-227.95 286.58,-221.95"/>
</g>
<!-- 485&#45;&gt;Activate propulsor -->
<g id="edge5" class="edge">
<title>485&#45;&gt;Activate propulsor</title>
<path fill="none" stroke="red" stroke-width="0.62" d="M77.16,-187.39C89.36,-173.79 106.87,-154.26 123.94,-135.23"/>
<polygon fill="red" stroke="red" stroke-width="0.62" points="126.63,-137.47 130.7,-127.69 121.42,-132.8 126.63,-137.47"/>
</g>
<!-- 712&#45;&gt;Activate propulsor -->
<g id="edge7" class="edge">
<title>712&#45;&gt;Activate propulsor</title>
<path fill="none" stroke="green" stroke-width="0.3" d="M242.96,-184.56C236.68,-173.7 228.6,-159.71 220.31,-145.35"/>
<polygon fill="green" stroke="green" stroke-width="0.3" points="223.16,-143.3 215.13,-136.39 217.1,-146.8 223.16,-143.3"/>
</g>
<!-- 1003 -->
<g id="node13" class="node">
<title>1003</title>
<ellipse fill="white" stroke="black" cx="312" cy="-296.15" rx="28.98" ry="28.98"/>
<text text-anchor="middle" x="312" y="-293.95" font-family="Times,serif" font-size="9.00">1003</text>
</g>
<!-- 1003&#45;&gt;712 -->
<g id="edge13" class="edge">
<title>1003&#45;&gt;712</title>
<path fill="none" stroke="green" stroke-width="0.31" d="M296.42,-271.18C289.4,-260.37 281.05,-247.51 273.69,-236.19"/>
<polygon fill="green" stroke="green" stroke-width="0.31" points="276.43,-233.98 268.05,-227.5 270.56,-237.79 276.43,-233.98"/>
</g>
<!-- 927&#45;&gt;712 -->
<g id="edge11" class="edge">
<title>927&#45;&gt;712</title>
<path fill="none" stroke="red" stroke-width="0.14" stroke-dasharray="1,5" d="M267.98,-360.96C265.38,-330.17 260.84,-276.51 257.88,-241.48"/>
<polygon fill="red" stroke="red" stroke-width="0.14" points="261.34,-240.92 257.01,-231.25 254.37,-241.51 261.34,-240.92"/>
</g>
<!-- 927&#45;&gt;1003 -->
<g id="edge12" class="edge">
<title>927&#45;&gt;1003</title>
<path fill="none" stroke="green" stroke-width="0.3" d="M280.38,-363.2C284.93,-353.71 290.38,-342.33 295.46,-331.71"/>
<polygon fill="green" stroke="green" stroke-width="0.3" points="298.64,-333.17 299.8,-322.64 292.33,-330.15 298.64,-333.17"/>
</g>
</g>
</svg>
