<?xml version="1.0" encoding="UTF-8" standalone="no"?>
<!DOCTYPE svg PUBLIC "-//W3C//DTD SVG 1.1//EN"
 "http://www.w3.org/Graphics/SVG/1.1/DTD/svg11.dtd">
<!-- Generated by graphviz version 2.43.0 (0)
 -->
<!-- Title: %3 Pages: 1 -->
<svg width="638pt" height="208pt"
 viewBox="0.00 0.00 638.00 207.66" xmlns="http://www.w3.org/2000/svg" xmlns:xlink="http://www.w3.org/1999/xlink">
<g id="graph0" class="graph" transform="scale(1 1) rotate(0) translate(4 203.66)">
<title>%3</title>
<polygon fill="white" stroke="transparent" points="-4,4 -4,-203.66 634,-203.66 634,4 -4,4"/>
<!-- Player_height -->
<g id="node1" class="node">
<title>Player_height</title>
<polygon fill="lightgray" stroke="black" points="80,-199.66 0,-199.66 0,-181.66 80,-181.66 80,-199.66"/>
<text text-anchor="middle" x="40" y="-188.46" font-family="Times,serif" font-size="9.00">Player_height</text>
</g>
<!-- HCoil1 -->
<g id="node2" class="node">
<title>HCoil1</title>
<polygon fill="lightgray" stroke="black" points="283,-199.66 235,-199.66 235,-181.66 283,-181.66 283,-199.66"/>
<text text-anchor="middle" x="259" y="-188.46" font-family="Times,serif" font-size="9.00">HCoil1</text>
</g>
<!-- Activate propulsor -->
<g id="node10" class="node">
<title>Activate propulsor</title>
<ellipse fill="lightblue" stroke="black" cx="200" cy="-72.83" rx="72.66" ry="72.66"/>
<text text-anchor="middle" x="200" y="-70.63" font-family="Times,serif" font-size="9.00">Activate propulsor</text>
</g>
<!-- HCoil1&#45;&gt;Activate propulsor -->
<g id="edge9" class="edge">
<title>HCoil1&#45;&gt;Activate propulsor</title>
<path fill="none" stroke="green" stroke-width="0.12" d="M254.76,-181.33C250.79,-173.55 244.44,-161.08 237.45,-147.36"/>
<polygon fill="green" stroke="green" stroke-width="0.12" points="240.44,-145.51 232.78,-138.19 234.2,-148.69 240.44,-145.51"/>
</g>
<!-- 521 -->
<g id="node11" class="node">
<title>521</title>
<ellipse fill="white" stroke="black" cx="325" cy="-72.83" rx="25" ry="25"/>
<text text-anchor="middle" x="325" y="-70.63" font-family="Times,serif" font-size="9.00">521</text>
</g>
<!-- HCoil1&#45;&gt;521 -->
<g id="edge8" class="edge">
<title>HCoil1&#45;&gt;521</title>
<path fill="none" stroke="red" stroke-width="0.62" d="M263.75,-181.33C272.89,-165.28 293.37,-129.35 308.13,-103.44"/>
<polygon fill="red" stroke="red" stroke-width="0.62" points="311.17,-105.17 313.08,-94.75 305.09,-101.7 311.17,-105.17"/>
</g>
<!-- HCoil2 -->
<g id="node3" class="node">
<title>HCoil2</title>
<polygon fill="lightgray" stroke="black" points="486,-199.66 438,-199.66 438,-181.66 486,-181.66 486,-199.66"/>
<text text-anchor="middle" x="462" y="-188.46" font-family="Times,serif" font-size="9.00">HCoil2</text>
</g>
<!-- 485 -->
<g id="node12" class="node">
<title>485</title>
<ellipse fill="white" stroke="black" cx="427" cy="-72.83" rx="25" ry="25"/>
<text text-anchor="middle" x="427" y="-70.63" font-family="Times,serif" font-size="9.00">485</text>
</g>
<!-- HCoil2&#45;&gt;485 -->
<g id="edge4" class="edge">
<title>HCoil2&#45;&gt;485</title>
<path fill="none" stroke="red" stroke-width="0.17" stroke-dasharray="1,5" d="M459.48,-181.33C454.83,-165.95 444.67,-132.31 436.94,-106.73"/>
<polygon fill="red" stroke="red" stroke-width="0.17" points="440.25,-105.59 434.01,-97.03 433.55,-107.61 440.25,-105.59"/>
</g>
<!-- VCoil1 -->
<g id="node4" class="node">
<title>VCoil1</title>
<polygon fill="lightgray" stroke="black" points="348.5,-199.66 301.5,-199.66 301.5,-181.66 348.5,-181.66 348.5,-199.66"/>
<text text-anchor="middle" x="325" y="-188.46" font-family="Times,serif" font-size="9.00">VCoil1</text>
</g>
<!-- VCoil1&#45;&gt;Activate propulsor -->
<g id="edge1" class="edge">
<title>VCoil1&#45;&gt;Activate propulsor</title>
<path fill="none" stroke="red" stroke-width="0.59" d="M316.01,-181.33C304.09,-170.29 282.02,-149.84 260.3,-129.71"/>
<polygon fill="red" stroke="red" stroke-width="0.59" points="262.68,-127.15 252.97,-122.92 257.92,-132.28 262.68,-127.15"/>
</g>
<!-- VCoil1&#45;&gt;521 -->
<g id="edge7" class="edge">
<title>VCoil1&#45;&gt;521</title>
<path fill="none" stroke="red" stroke-width="0.19" stroke-dasharray="1,5" d="M325,-181.33C325,-166.2 325,-133.4 325,-107.98"/>
<polygon fill="red" stroke="red" stroke-width="0.19" points="328.5,-107.96 325,-97.96 321.5,-107.96 328.5,-107.96"/>
</g>
<!-- VCoil1&#45;&gt;485 -->
<g id="edge5" class="edge">
<title>VCoil1&#45;&gt;485</title>
<path fill="none" stroke="red" stroke-width="0.15" stroke-dasharray="1,5" d="M332.34,-181.33C347.16,-164.5 381.2,-125.84 404.16,-99.77"/>
<polygon fill="red" stroke="red" stroke-width="0.15" points="406.92,-101.94 410.9,-92.12 401.66,-97.31 406.92,-101.94"/>
</g>
<!-- VCoil2 -->
<g id="node5" class="node">
<title>VCoil2</title>
<polygon fill="lightgray" stroke="black" points="145.5,-199.66 98.5,-199.66 98.5,-181.66 145.5,-181.66 145.5,-199.66"/>
<text text-anchor="middle" x="122" y="-188.46" font-family="Times,serif" font-size="9.00">VCoil2</text>
</g>
<!-- VCoil2&#45;&gt;Activate propulsor -->
<g id="edge2" class="edge">
<title>VCoil2&#45;&gt;Activate propulsor</title>
<path fill="none" stroke="green" stroke-width="0.71" d="M127.61,-181.33C133.53,-172.54 143.46,-157.8 154.1,-142"/>
<polygon fill="green" stroke="green" stroke-width="0.71" points="157.03,-143.91 159.71,-133.66 151.22,-140 157.03,-143.91"/>
</g>
<!-- HCoil12 -->
<g id="node6" class="node">
<title>HCoil12</title>
<polygon fill="lightgray" stroke="black" points="558,-199.66 504,-199.66 504,-181.66 558,-181.66 558,-199.66"/>
<text text-anchor="middle" x="531" y="-188.46" font-family="Times,serif" font-size="9.00">HCoil12</text>
</g>
<!-- HCoil22 -->
<g id="node7" class="node">
<title>HCoil22</title>
<polygon fill="lightgray" stroke="black" points="630,-199.66 576,-199.66 576,-181.66 630,-181.66 630,-199.66"/>
<text text-anchor="middle" x="603" y="-188.46" font-family="Times,serif" font-size="9.00">HCoil22</text>
</g>
<!-- VCoil12 -->
<g id="node8" class="node">
<title>VCoil12</title>
<polygon fill="lightgray" stroke="black" points="419.5,-199.66 366.5,-199.66 366.5,-181.66 419.5,-181.66 419.5,-199.66"/>
<text text-anchor="middle" x="393" y="-188.46" font-family="Times,serif" font-size="9.00">VCoil12</text>
</g>
<!-- VCoil12&#45;&gt;521 -->
<g id="edge6" class="edge">
<title>VCoil12&#45;&gt;521</title>
<path fill="none" stroke="red" stroke-width="0.42" d="M388.11,-181.33C378.68,-165.28 357.59,-129.35 342.38,-103.44"/>
<polygon fill="red" stroke="red" stroke-width="0.42" points="345.36,-101.6 337.28,-94.75 339.32,-105.14 345.36,-101.6"/>
</g>
<!-- VCoil22 -->
<g id="node9" class="node">
<title>VCoil22</title>
<polygon fill="lightgray" stroke="black" points="216.5,-199.66 163.5,-199.66 163.5,-181.66 216.5,-181.66 216.5,-199.66"/>
<text text-anchor="middle" x="190" y="-188.46" font-family="Times,serif" font-size="9.00">VCoil22</text>
</g>
<!-- VCoil22&#45;&gt;Activate propulsor -->
<g id="edge3" class="edge">
<title>VCoil22&#45;&gt;Activate propulsor</title>
<path fill="none" stroke="red" stroke-width="0.24" d="M190.72,-181.33C191.25,-175.16 192.04,-166.05 192.93,-155.71"/>
<polygon fill="red" stroke="red" stroke-width="0.24" points="196.44,-155.73 193.82,-145.46 189.47,-155.12 196.44,-155.73"/>
</g>
</g>
</svg>
