<?xml version="1.0" encoding="UTF-8" standalone="no"?>
<!DOCTYPE svg PUBLIC "-//W3C//DTD SVG 1.1//EN"
 "http://www.w3.org/Graphics/SVG/1.1/DTD/svg11.dtd">
<!-- Generated by graphviz version 2.43.0 (0)
 -->
<!-- Title: %3 Pages: 1 -->
<svg width="636pt" height="293pt"
 viewBox="0.00 0.00 635.50 293.16" xmlns="http://www.w3.org/2000/svg" xmlns:xlink="http://www.w3.org/1999/xlink">
<g id="graph0" class="graph" transform="scale(1 1) rotate(0) translate(4 289.16)">
<title>%3</title>
<polygon fill="white" stroke="transparent" points="-4,4 -4,-289.16 631.5,-289.16 631.5,4 -4,4"/>
<!-- Player_height -->
<g id="node1" class="node">
<title>Player_height</title>
<polygon fill="lightgray" stroke="black" points="80,-215.41 0,-215.41 0,-197.41 80,-197.41 80,-215.41"/>
<text text-anchor="middle" x="40" y="-204.21" font-family="Times,serif" font-size="9.00">Player_height</text>
</g>
<!-- Activate propulsor -->
<g id="node10" class="node">
<title>Activate propulsor</title>
<ellipse fill="lightblue" stroke="black" cx="154" cy="-72.83" rx="72.66" ry="72.66"/>
<text text-anchor="middle" x="154" y="-70.63" font-family="Times,serif" font-size="9.00">Activate propulsor</text>
</g>
<!-- Player_height&#45;&gt;Activate propulsor -->
<g id="edge6" class="edge">
<title>Player_height&#45;&gt;Activate propulsor</title>
<path fill="none" stroke="green" stroke-width="0.24" d="M47.13,-197.18C57.86,-184.79 79.13,-160.25 99.88,-136.3"/>
<polygon fill="green" stroke="green" stroke-width="0.24" points="102.68,-138.41 106.59,-128.56 97.39,-133.82 102.68,-138.41"/>
</g>
<!-- HCoil1 -->
<g id="node2" class="node">
<title>HCoil1</title>
<polygon fill="lightgray" stroke="black" points="346,-285.16 298,-285.16 298,-267.16 346,-267.16 346,-285.16"/>
<text text-anchor="middle" x="322" y="-273.96" font-family="Times,serif" font-size="9.00">HCoil1</text>
</g>
<!-- 521 -->
<g id="node11" class="node">
<title>521</title>
<ellipse fill="white" stroke="black" cx="322" cy="-206.41" rx="25" ry="25"/>
<text text-anchor="middle" x="322" y="-204.21" font-family="Times,serif" font-size="9.00">521</text>
</g>
<!-- HCoil1&#45;&gt;521 -->
<g id="edge5" class="edge">
<title>HCoil1&#45;&gt;521</title>
<path fill="none" stroke="green" stroke-width="0.13" d="M322,-267.12C322,-260.69 322,-251.19 322,-241.65"/>
<polygon fill="green" stroke="green" stroke-width="0.13" points="325.5,-241.43 322,-231.43 318.5,-241.43 325.5,-241.43"/>
</g>
<!-- HCoil2 -->
<g id="node3" class="node">
<title>HCoil2</title>
<polygon fill="lightgray" stroke="black" points="412,-285.16 364,-285.16 364,-267.16 412,-267.16 412,-285.16"/>
<text text-anchor="middle" x="388" y="-273.96" font-family="Times,serif" font-size="9.00">HCoil2</text>
</g>
<!-- VCoil1 -->
<g id="node4" class="node">
<title>VCoil1</title>
<polygon fill="lightgray" stroke="black" points="145.5,-215.41 98.5,-215.41 98.5,-197.41 145.5,-197.41 145.5,-215.41"/>
<text text-anchor="middle" x="122" y="-204.21" font-family="Times,serif" font-size="9.00">VCoil1</text>
</g>
<!-- VCoil1&#45;&gt;Activate propulsor -->
<g id="edge1" class="edge">
<title>VCoil1&#45;&gt;Activate propulsor</title>
<path fill="none" stroke="red" stroke-width="0.91" d="M124,-197.18C126.28,-187.83 130.24,-171.55 134.55,-153.83"/>
<polygon fill="red" stroke="red" stroke-width="0.91" points="138.01,-154.41 136.97,-143.86 131.2,-152.75 138.01,-154.41"/>
</g>
<!-- VCoil2 -->
<g id="node5" class="node">
<title>VCoil2</title>
<polygon fill="lightgray" stroke="black" points="210.5,-215.41 163.5,-215.41 163.5,-197.41 210.5,-197.41 210.5,-215.41"/>
<text text-anchor="middle" x="187" y="-204.21" font-family="Times,serif" font-size="9.00">VCoil2</text>
</g>
<!-- VCoil2&#45;&gt;Activate propulsor -->
<g id="edge2" class="edge">
<title>VCoil2&#45;&gt;Activate propulsor</title>
<path fill="none" stroke="green" stroke-width="0.91" d="M184.94,-197.18C182.58,-187.78 178.47,-171.38 173.99,-153.56"/>
<polygon fill="green" stroke="green" stroke-width="0.91" points="177.31,-152.39 171.48,-143.54 170.52,-154.09 177.31,-152.39"/>
</g>
<!-- HCoil12 -->
<g id="node6" class="node">
<title>HCoil12</title>
<polygon fill="lightgray" stroke="black" points="484,-285.16 430,-285.16 430,-267.16 484,-267.16 484,-285.16"/>
<text text-anchor="middle" x="457" y="-273.96" font-family="Times,serif" font-size="9.00">HCoil12</text>
</g>
<!-- HCoil22 -->
<g id="node7" class="node">
<title>HCoil22</title>
<polygon fill="lightgray" stroke="black" points="556,-285.16 502,-285.16 502,-267.16 556,-267.16 556,-285.16"/>
<text text-anchor="middle" x="529" y="-273.96" font-family="Times,serif" font-size="9.00">HCoil22</text>
</g>
<!-- VCoil12 -->
<g id="node8" class="node">
<title>VCoil12</title>
<polygon fill="lightgray" stroke="black" points="627.5,-285.16 574.5,-285.16 574.5,-267.16 627.5,-267.16 627.5,-285.16"/>
<text text-anchor="middle" x="601" y="-273.96" font-family="Times,serif" font-size="9.00">VCoil12</text>
</g>
<!-- VCoil22 -->
<g id="node9" class="node">
<title>VCoil22</title>
<polygon fill="lightgray" stroke="black" points="279.5,-285.16 226.5,-285.16 226.5,-267.16 279.5,-267.16 279.5,-285.16"/>
<text text-anchor="middle" x="253" y="-273.96" font-family="Times,serif" font-size="9.00">VCoil22</text>
</g>
<!-- 712 -->
<g id="node12" class="node">
<title>712</title>
<ellipse fill="white" stroke="black" cx="253" cy="-206.41" rx="25" ry="25"/>
<text text-anchor="middle" x="253" y="-204.21" font-family="Times,serif" font-size="9.00">712</text>
</g>
<!-- VCoil22&#45;&gt;712 -->
<g id="edge3" class="edge">
<title>VCoil22&#45;&gt;712</title>
<path fill="none" stroke="green" stroke-width="0.52" d="M253,-267.12C253,-260.69 253,-251.19 253,-241.65"/>
<polygon fill="green" stroke="green" stroke-width="0.52" points="256.5,-241.43 253,-231.43 249.5,-241.43 256.5,-241.43"/>
</g>
<!-- 712&#45;&gt;Activate propulsor -->
<g id="edge4" class="edge">
<title>712&#45;&gt;Activate propulsor</title>
<path fill="none" stroke="green" stroke-width="0.23" d="M238.6,-186.28C229.25,-173.85 216.45,-156.83 203.63,-139.8"/>
<polygon fill="green" stroke="green" stroke-width="0.23" points="206.16,-137.34 197.36,-131.46 200.57,-141.55 206.16,-137.34"/>
</g>
</g>
</svg>
