<?xml version="1.0" encoding="UTF-8" standalone="no"?>
<!DOCTYPE svg PUBLIC "-//W3C//DTD SVG 1.1//EN"
 "http://www.w3.org/Graphics/SVG/1.1/DTD/svg11.dtd">
<!-- Generated by graphviz version 2.43.0 (0)
 -->
<!-- Title: %3 Pages: 1 -->
<svg width="538pt" height="387pt"
 viewBox="0.00 0.00 538.00 387.14" xmlns="http://www.w3.org/2000/svg" xmlns:xlink="http://www.w3.org/1999/xlink">
<g id="graph0" class="graph" transform="scale(1 1) rotate(0) translate(4 383.14)">
<title>%3</title>
<polygon fill="white" stroke="transparent" points="-4,4 -4,-383.14 534,-383.14 534,4 -4,4"/>
<!-- Player_height -->
<g id="node1" class="node">
<title>Player_height</title>
<polygon fill="lightgray" stroke="black" points="80,-379.14 0,-379.14 0,-361.14 80,-361.14 80,-379.14"/>
<text text-anchor="middle" x="40" y="-367.94" font-family="Times,serif" font-size="9.00">Player_height</text>
</g>
<!-- HCoil1 -->
<g id="node2" class="node">
<title>HCoil1</title>
<polygon fill="lightgray" stroke="black" points="146,-379.14 98,-379.14 98,-361.14 146,-361.14 146,-379.14"/>
<text text-anchor="middle" x="122" y="-367.94" font-family="Times,serif" font-size="9.00">HCoil1</text>
</g>
<!-- HCoil2 -->
<g id="node3" class="node">
<title>HCoil2</title>
<polygon fill="lightgray" stroke="black" points="314,-379.14 266,-379.14 266,-361.14 314,-361.14 314,-379.14"/>
<text text-anchor="middle" x="290" y="-367.94" font-family="Times,serif" font-size="9.00">HCoil2</text>
</g>
<!-- 1059 -->
<g id="node11" class="node">
<title>1059</title>
<ellipse fill="white" stroke="black" cx="302" cy="-296.15" rx="28.98" ry="28.98"/>
<text text-anchor="middle" x="302" y="-293.95" font-family="Times,serif" font-size="9.00">1059</text>
</g>
<!-- HCoil2&#45;&gt;1059 -->
<g id="edge10" class="edge">
<title>HCoil2&#45;&gt;1059</title>
<path fill="none" stroke="green" stroke-width="0.12" d="M291.38,-360.89C292.46,-354.36 294.07,-344.75 295.7,-334.97"/>
<polygon fill="green" stroke="green" stroke-width="0.12" points="299.2,-335.26 297.39,-324.82 292.29,-334.11 299.2,-335.26"/>
</g>
<!-- VCoil1 -->
<g id="node4" class="node">
<title>VCoil1</title>
<polygon fill="lightgray" stroke="black" points="211.5,-379.14 164.5,-379.14 164.5,-361.14 211.5,-361.14 211.5,-379.14"/>
<text text-anchor="middle" x="188" y="-367.94" font-family="Times,serif" font-size="9.00">VCoil1</text>
</g>
<!-- Activate propulsor -->
<g id="node10" class="node">
<title>Activate propulsor</title>
<ellipse fill="lightblue" stroke="black" cx="278" cy="-72.83" rx="72.66" ry="72.66"/>
<text text-anchor="middle" x="278" y="-70.63" font-family="Times,serif" font-size="9.00">Activate propulsor</text>
</g>
<!-- VCoil1&#45;&gt;Activate propulsor -->
<g id="edge1" class="edge">
<title>VCoil1&#45;&gt;Activate propulsor</title>
<path fill="none" stroke="red" stroke-width="0.65" d="M177.65,-361C168.4,-353.01 155.49,-339.9 150,-325.14 141.01,-300.99 142.57,-291.84 150,-267.16 164.56,-218.78 195.61,-171.37 223.48,-135.61"/>
<polygon fill="red" stroke="red" stroke-width="0.65" points="226.28,-137.71 229.74,-127.7 220.79,-133.37 226.28,-137.71"/>
</g>
<!-- 485 -->
<g id="node12" class="node">
<title>485</title>
<ellipse fill="white" stroke="black" cx="245" cy="-206.41" rx="25" ry="25"/>
<text text-anchor="middle" x="245" y="-204.21" font-family="Times,serif" font-size="9.00">485</text>
</g>
<!-- VCoil1&#45;&gt;485 -->
<g id="edge5" class="edge">
<title>VCoil1&#45;&gt;485</title>
<path fill="none" stroke="red" stroke-width="0.72" stroke-dasharray="1,5" d="M197.48,-361.09C206.37,-352.97 219.26,-339.6 226,-325.14 238.27,-298.83 242.8,-266.01 244.38,-241.71"/>
<polygon fill="red" stroke="red" stroke-width="0.72" points="247.89,-241.7 244.91,-231.54 240.9,-241.34 247.89,-241.7"/>
</g>
<!-- 1080 -->
<g id="node14" class="node">
<title>1080</title>
<ellipse fill="white" stroke="black" cx="188" cy="-296.15" rx="28.98" ry="28.98"/>
<text text-anchor="middle" x="188" y="-293.95" font-family="Times,serif" font-size="9.00">1080</text>
</g>
<!-- VCoil1&#45;&gt;1080 -->
<g id="edge11" class="edge">
<title>VCoil1&#45;&gt;1080</title>
<path fill="none" stroke="green" stroke-width="0.26" d="M188,-360.89C188,-354.42 188,-344.91 188,-335.21"/>
<polygon fill="green" stroke="green" stroke-width="0.26" points="191.5,-335.15 188,-325.15 184.5,-335.15 191.5,-335.15"/>
</g>
<!-- VCoil2 -->
<g id="node5" class="node">
<title>VCoil2</title>
<polygon fill="lightgray" stroke="black" points="334.5,-215.41 287.5,-215.41 287.5,-197.41 334.5,-197.41 334.5,-215.41"/>
<text text-anchor="middle" x="311" y="-204.21" font-family="Times,serif" font-size="9.00">VCoil2</text>
</g>
<!-- VCoil2&#45;&gt;Activate propulsor -->
<g id="edge2" class="edge">
<title>VCoil2&#45;&gt;Activate propulsor</title>
<path fill="none" stroke="green" stroke-width="0.67" d="M308.94,-197.18C306.58,-187.78 302.47,-171.38 297.99,-153.56"/>
<polygon fill="green" stroke="green" stroke-width="0.67" points="301.31,-152.39 295.48,-143.54 294.52,-154.09 301.31,-152.39"/>
</g>
<!-- HCoil12 -->
<g id="node6" class="node">
<title>HCoil12</title>
<polygon fill="lightgray" stroke="black" points="458,-379.14 404,-379.14 404,-361.14 458,-361.14 458,-379.14"/>
<text text-anchor="middle" x="431" y="-367.94" font-family="Times,serif" font-size="9.00">HCoil12</text>
</g>
<!-- HCoil22 -->
<g id="node7" class="node">
<title>HCoil22</title>
<polygon fill="lightgray" stroke="black" points="530,-379.14 476,-379.14 476,-361.14 530,-361.14 530,-379.14"/>
<text text-anchor="middle" x="503" y="-367.94" font-family="Times,serif" font-size="9.00">HCoil22</text>
</g>
<!-- 521 -->
<g id="node13" class="node">
<title>521</title>
<ellipse fill="white" stroke="black" cx="503" cy="-296.15" rx="25" ry="25"/>
<text text-anchor="middle" x="503" y="-293.95" font-family="Times,serif" font-size="9.00">521</text>
</g>
<!-- HCoil22&#45;&gt;521 -->
<g id="edge6" class="edge">
<title>HCoil22&#45;&gt;521</title>
<path fill="none" stroke="green" stroke-width="0.6" d="M503,-360.89C503,-353.48 503,-342.09 503,-330.98"/>
<polygon fill="green" stroke="green" stroke-width="0.6" points="506.5,-330.98 503,-320.98 499.5,-330.98 506.5,-330.98"/>
</g>
<!-- VCoil12 -->
<g id="node8" class="node">
<title>VCoil12</title>
<polygon fill="lightgray" stroke="black" points="385.5,-379.14 332.5,-379.14 332.5,-361.14 385.5,-361.14 385.5,-379.14"/>
<text text-anchor="middle" x="359" y="-367.94" font-family="Times,serif" font-size="9.00">VCoil12</text>
</g>
<!-- VCoil12&#45;&gt;1059 -->
<g id="edge8" class="edge">
<title>VCoil12&#45;&gt;1059</title>
<path fill="none" stroke="green" stroke-width="0.26" stroke-dasharray="1,5" d="M352.46,-360.89C345.94,-352.65 335.52,-339.48 325.83,-327.25"/>
<polygon fill="green" stroke="green" stroke-width="0.26" points="328.58,-325.08 319.63,-319.41 323.09,-329.43 328.58,-325.08"/>
</g>
<!-- VCoil12&#45;&gt;485 -->
<g id="edge7" class="edge">
<title>VCoil12&#45;&gt;485</title>
<path fill="none" stroke="green" stroke-width="0.5" d="M359.64,-361.14C360.68,-342.74 360.87,-296.74 340,-267.16 321.63,-241.13 304.74,-248.49 278,-231.16 276.36,-230.1 274.68,-228.98 273,-227.84"/>
<polygon fill="green" stroke="green" stroke-width="0.5" points="274.88,-224.89 264.68,-222.05 270.88,-230.63 274.88,-224.89"/>
</g>
<!-- VCoil22 -->
<g id="node9" class="node">
<title>VCoil22</title>
<polygon fill="lightgray" stroke="black" points="405.5,-215.41 352.5,-215.41 352.5,-197.41 405.5,-197.41 405.5,-215.41"/>
<text text-anchor="middle" x="379" y="-204.21" font-family="Times,serif" font-size="9.00">VCoil22</text>
</g>
<!-- VCoil22&#45;&gt;Activate propulsor -->
<g id="edge3" class="edge">
<title>VCoil22&#45;&gt;Activate propulsor</title>
<path fill="none" stroke="green" stroke-width="0.13" d="M372.68,-197.18C363.56,-185.3 345.87,-162.25 328.22,-139.26"/>
<polygon fill="green" stroke="green" stroke-width="0.13" points="330.86,-136.95 321.99,-131.14 325.31,-141.21 330.86,-136.95"/>
</g>
<!-- 1059&#45;&gt;485 -->
<g id="edge9" class="edge">
<title>1059&#45;&gt;485</title>
<path fill="none" stroke="green" stroke-width="0.21" d="M286.42,-271.18C279.4,-260.37 271.05,-247.51 263.69,-236.19"/>
<polygon fill="green" stroke="green" stroke-width="0.21" points="266.43,-233.98 258.05,-227.5 260.56,-237.79 266.43,-233.98"/>
</g>
<!-- 485&#45;&gt;Activate propulsor -->
<g id="edge4" class="edge">
<title>485&#45;&gt;Activate propulsor</title>
<path fill="none" stroke="green" stroke-width="0.25" d="M250.82,-182.19C252.92,-173.83 255.42,-163.86 258.04,-153.41"/>
<polygon fill="green" stroke="green" stroke-width="0.25" points="261.44,-154.26 260.48,-143.71 254.65,-152.55 261.44,-154.26"/>
</g>
<!-- 1080&#45;&gt;485 -->
<g id="edge12" class="edge">
<title>1080&#45;&gt;485</title>
<path fill="none" stroke="red" stroke-width="0.72" d="M203.58,-271.18C210.6,-260.37 218.95,-247.51 226.31,-236.19"/>
<polygon fill="red" stroke="red" stroke-width="0.72" points="229.44,-237.79 231.95,-227.5 223.57,-233.98 229.44,-237.79"/>
</g>
</g>
</svg>
