<?xml version="1.0" encoding="UTF-8" standalone="no"?>
<!DOCTYPE svg PUBLIC "-//W3C//DTD SVG 1.1//EN"
 "http://www.w3.org/Graphics/SVG/1.1/DTD/svg11.dtd">
<!-- Generated by graphviz version 2.43.0 (0)
 -->
<!-- Title: %3 Pages: 1 -->
<svg width="542pt" height="302pt"
 viewBox="0.00 0.00 542.00 301.65" xmlns="http://www.w3.org/2000/svg" xmlns:xlink="http://www.w3.org/1999/xlink">
<g id="graph0" class="graph" transform="scale(1 1) rotate(0) translate(4 297.65)">
<title>%3</title>
<polygon fill="white" stroke="transparent" points="-4,4 -4,-297.65 538,-297.65 538,4 -4,4"/>
<!-- Player_height -->
<g id="node1" class="node">
<title>Player_height</title>
<polygon fill="lightgray" stroke="black" points="80,-219.66 0,-219.66 0,-201.66 80,-201.66 80,-219.66"/>
<text text-anchor="middle" x="40" y="-208.46" font-family="Times,serif" font-size="9.00">Player_height</text>
</g>
<!-- 888 -->
<g id="node12" class="node">
<title>888</title>
<ellipse fill="white" stroke="black" cx="122" cy="-72.83" rx="25" ry="25"/>
<text text-anchor="middle" x="122" y="-70.63" font-family="Times,serif" font-size="9.00">888</text>
</g>
<!-- Player_height&#45;&gt;888 -->
<g id="edge8" class="edge">
<title>Player_height&#45;&gt;888</title>
<path fill="none" stroke="red" stroke-width="0.25" d="M44.88,-201.57C56.31,-182.65 85.23,-134.73 104.23,-103.26"/>
<polygon fill="red" stroke="red" stroke-width="0.25" points="107.37,-104.84 109.54,-94.47 101.38,-101.22 107.37,-104.84"/>
</g>
<!-- HCoil1 -->
<g id="node2" class="node">
<title>HCoil1</title>
<polygon fill="lightgray" stroke="black" points="146,-219.66 98,-219.66 98,-201.66 146,-201.66 146,-219.66"/>
<text text-anchor="middle" x="122" y="-208.46" font-family="Times,serif" font-size="9.00">HCoil1</text>
</g>
<!-- HCoil1&#45;&gt;888 -->
<g id="edge9" class="edge">
<title>HCoil1&#45;&gt;888</title>
<path fill="none" stroke="red" stroke-width="0.29" d="M122,-201.57C122,-183.56 122,-139.27 122,-107.92"/>
<polygon fill="red" stroke="red" stroke-width="0.29" points="125.5,-107.83 122,-97.83 118.5,-107.83 125.5,-107.83"/>
</g>
<!-- HCoil2 -->
<g id="node3" class="node">
<title>HCoil2</title>
<polygon fill="lightgray" stroke="black" points="367,-293.65 319,-293.65 319,-275.65 367,-275.65 367,-293.65"/>
<text text-anchor="middle" x="343" y="-282.45" font-family="Times,serif" font-size="9.00">HCoil2</text>
</g>
<!-- VCoil1 -->
<g id="node4" class="node">
<title>VCoil1</title>
<polygon fill="lightgray" stroke="black" points="396.5,-219.66 349.5,-219.66 349.5,-201.66 396.5,-201.66 396.5,-219.66"/>
<text text-anchor="middle" x="373" y="-208.46" font-family="Times,serif" font-size="9.00">VCoil1</text>
</g>
<!-- Activate propulsor -->
<g id="node10" class="node">
<title>Activate propulsor</title>
<ellipse fill="lightblue" stroke="black" cx="303" cy="-72.83" rx="72.66" ry="72.66"/>
<text text-anchor="middle" x="303" y="-70.63" font-family="Times,serif" font-size="9.00">Activate propulsor</text>
</g>
<!-- VCoil1&#45;&gt;Activate propulsor -->
<g id="edge1" class="edge">
<title>VCoil1&#45;&gt;Activate propulsor</title>
<path fill="none" stroke="red" stroke-width="0.91" d="M368.83,-201.57C363.06,-190.37 352.06,-169.03 340.68,-146.95"/>
<polygon fill="red" stroke="red" stroke-width="0.91" points="343.66,-145.09 335.97,-137.81 337.44,-148.3 343.66,-145.09"/>
</g>
<!-- VCoil2 -->
<g id="node5" class="node">
<title>VCoil2</title>
<polygon fill="lightgray" stroke="black" points="461.5,-219.66 414.5,-219.66 414.5,-201.66 461.5,-201.66 461.5,-219.66"/>
<text text-anchor="middle" x="438" y="-208.46" font-family="Times,serif" font-size="9.00">VCoil2</text>
</g>
<!-- VCoil2&#45;&gt;Activate propulsor -->
<g id="edge2" class="edge">
<title>VCoil2&#45;&gt;Activate propulsor</title>
<path fill="none" stroke="green" stroke-width="1.04" d="M429.96,-201.57C416.36,-187.88 387.69,-159.04 361.03,-132.21"/>
<polygon fill="green" stroke="green" stroke-width="1.04" points="363.47,-129.71 353.94,-125.08 358.51,-134.64 363.47,-129.71"/>
</g>
<!-- HCoil12 -->
<g id="node6" class="node">
<title>HCoil12</title>
<polygon fill="lightgray" stroke="black" points="439,-293.65 385,-293.65 385,-275.65 439,-275.65 439,-293.65"/>
<text text-anchor="middle" x="412" y="-282.45" font-family="Times,serif" font-size="9.00">HCoil12</text>
</g>
<!-- HCoil22 -->
<g id="node7" class="node">
<title>HCoil22</title>
<polygon fill="lightgray" stroke="black" points="534,-219.66 480,-219.66 480,-201.66 534,-201.66 534,-219.66"/>
<text text-anchor="middle" x="507" y="-208.46" font-family="Times,serif" font-size="9.00">HCoil22</text>
</g>
<!-- 521 -->
<g id="node11" class="node">
<title>521</title>
<ellipse fill="white" stroke="black" cx="463" cy="-72.83" rx="25" ry="25"/>
<text text-anchor="middle" x="463" y="-70.63" font-family="Times,serif" font-size="9.00">521</text>
</g>
<!-- HCoil22&#45;&gt;521 -->
<g id="edge4" class="edge">
<title>HCoil22&#45;&gt;521</title>
<path fill="none" stroke="green" stroke-width="0.16" d="M504.38,-201.57C498.44,-183.22 483.66,-137.61 473.48,-106.17"/>
<polygon fill="green" stroke="green" stroke-width="0.16" points="476.76,-104.95 470.35,-96.52 470.1,-107.11 476.76,-104.95"/>
</g>
<!-- VCoil12 -->
<g id="node8" class="node">
<title>VCoil12</title>
<polygon fill="lightgray" stroke="black" points="300.5,-293.65 247.5,-293.65 247.5,-275.65 300.5,-275.65 300.5,-293.65"/>
<text text-anchor="middle" x="274" y="-282.45" font-family="Times,serif" font-size="9.00">VCoil12</text>
</g>
<!-- VCoil12&#45;&gt;Activate propulsor -->
<g id="edge7" class="edge">
<title>VCoil12&#45;&gt;Activate propulsor</title>
<path fill="none" stroke="green" stroke-width="0.19" stroke-dasharray="1,5" d="M271.85,-275.61C269.62,-266.85 266.29,-252.37 265,-239.65 262.4,-214.01 260.66,-207.07 265,-181.66 266.76,-171.36 269.41,-160.73 272.5,-150.35"/>
<polygon fill="green" stroke="green" stroke-width="0.19" points="275.94,-151.07 275.58,-140.49 269.26,-148.98 275.94,-151.07"/>
</g>
<!-- 1377 -->
<g id="node13" class="node">
<title>1377</title>
<ellipse fill="white" stroke="black" cx="303" cy="-210.66" rx="28.98" ry="28.98"/>
<text text-anchor="middle" x="303" y="-208.46" font-family="Times,serif" font-size="9.00">1377</text>
</g>
<!-- VCoil12&#45;&gt;1377 -->
<g id="edge10" class="edge">
<title>VCoil12&#45;&gt;1377</title>
<path fill="none" stroke="green" stroke-width="0.23" d="M277.33,-275.39C280.15,-268.38 284.41,-257.8 288.65,-247.27"/>
<polygon fill="green" stroke="green" stroke-width="0.23" points="292.01,-248.29 292.5,-237.71 285.52,-245.68 292.01,-248.29"/>
</g>
<!-- VCoil22 -->
<g id="node9" class="node">
<title>VCoil22</title>
<polygon fill="lightgray" stroke="black" points="217.5,-219.66 164.5,-219.66 164.5,-201.66 217.5,-201.66 217.5,-219.66"/>
<text text-anchor="middle" x="191" y="-208.46" font-family="Times,serif" font-size="9.00">VCoil22</text>
</g>
<!-- VCoil22&#45;&gt;Activate propulsor -->
<g id="edge3" class="edge">
<title>VCoil22&#45;&gt;Activate propulsor</title>
<path fill="none" stroke="green" stroke-width="0.2" d="M197.67,-201.57C208.21,-188.78 229.67,-162.76 250.48,-137.52"/>
<polygon fill="green" stroke="green" stroke-width="0.2" points="253.25,-139.67 256.91,-129.73 247.85,-135.22 253.25,-139.67"/>
</g>
<!-- VCoil22&#45;&gt;521 -->
<g id="edge6" class="edge">
<title>VCoil22&#45;&gt;521</title>
<path fill="none" stroke="green" stroke-width="0.31" d="M211.28,-201.55C226.07,-195.74 246.66,-187.88 265,-181.66 317.74,-163.8 336.62,-173.23 385,-145.66 405.98,-133.71 425.93,-115.16 440.4,-99.9"/>
<polygon fill="green" stroke="green" stroke-width="0.31" points="443.24,-101.99 447.45,-92.27 438.09,-97.24 443.24,-101.99"/>
</g>
<!-- VCoil22&#45;&gt;888 -->
<g id="edge5" class="edge">
<title>VCoil22&#45;&gt;888</title>
<path fill="none" stroke="green" stroke-width="0.16" d="M186.89,-201.57C177.4,-182.88 153.54,-135.92 137.55,-104.45"/>
<polygon fill="green" stroke="green" stroke-width="0.16" points="140.52,-102.56 132.87,-95.23 134.28,-105.73 140.52,-102.56"/>
</g>
<!-- 1377&#45;&gt;Activate propulsor -->
<g id="edge11" class="edge">
<title>1377&#45;&gt;Activate propulsor</title>
<path fill="none" stroke="green" stroke-width="0.11" d="M303,-181.51C303,-173.89 303,-165.24 303,-156.23"/>
<polygon fill="green" stroke="green" stroke-width="0.11" points="306.5,-155.94 303,-145.94 299.5,-155.94 306.5,-155.94"/>
</g>
</g>
</svg>
