<?xml version="1.0" encoding="UTF-8" standalone="no"?>
<!DOCTYPE svg PUBLIC "-//W3C//DTD SVG 1.1//EN"
 "http://www.w3.org/Graphics/SVG/1.1/DTD/svg11.dtd">
<!-- Generated by graphviz version 2.43.0 (0)
 -->
<!-- Title: %3 Pages: 1 -->
<svg width="637pt" height="208pt"
 viewBox="0.00 0.00 637.00 207.66" xmlns="http://www.w3.org/2000/svg" xmlns:xlink="http://www.w3.org/1999/xlink">
<g id="graph0" class="graph" transform="scale(1 1) rotate(0) translate(4 203.66)">
<title>%3</title>
<polygon fill="white" stroke="transparent" points="-4,4 -4,-203.66 633,-203.66 633,4 -4,4"/>
<!-- Player_height -->
<g id="node1" class="node">
<title>Player_height</title>
<polygon fill="lightgray" stroke="black" points="80,-199.66 0,-199.66 0,-181.66 80,-181.66 80,-199.66"/>
<text text-anchor="middle" x="40" y="-188.46" font-family="Times,serif" font-size="9.00">Player_height</text>
</g>
<!-- HCoil1 -->
<g id="node2" class="node">
<title>HCoil1</title>
<polygon fill="lightgray" stroke="black" points="146,-199.66 98,-199.66 98,-181.66 146,-181.66 146,-199.66"/>
<text text-anchor="middle" x="122" y="-188.46" font-family="Times,serif" font-size="9.00">HCoil1</text>
</g>
<!-- 888 -->
<g id="node12" class="node">
<title>888</title>
<ellipse fill="white" stroke="black" cx="143" cy="-72.83" rx="25" ry="25"/>
<text text-anchor="middle" x="143" y="-70.63" font-family="Times,serif" font-size="9.00">888</text>
</g>
<!-- HCoil1&#45;&gt;888 -->
<g id="edge8" class="edge">
<title>HCoil1&#45;&gt;888</title>
<path fill="none" stroke="red" stroke-width="0.13" d="M123.51,-181.33C126.27,-166.11 132.27,-133 136.89,-107.52"/>
<polygon fill="red" stroke="red" stroke-width="0.13" points="140.37,-107.96 138.71,-97.49 133.48,-106.71 140.37,-107.96"/>
</g>
<!-- HCoil2 -->
<g id="node3" class="node">
<title>HCoil2</title>
<polygon fill="lightgray" stroke="black" points="557,-199.66 509,-199.66 509,-181.66 557,-181.66 557,-199.66"/>
<text text-anchor="middle" x="533" y="-188.46" font-family="Times,serif" font-size="9.00">HCoil2</text>
</g>
<!-- VCoil1 -->
<g id="node4" class="node">
<title>VCoil1</title>
<polygon fill="lightgray" stroke="black" points="282.5,-199.66 235.5,-199.66 235.5,-181.66 282.5,-181.66 282.5,-199.66"/>
<text text-anchor="middle" x="259" y="-188.46" font-family="Times,serif" font-size="9.00">VCoil1</text>
</g>
<!-- Activate propulsor -->
<g id="node10" class="node">
<title>Activate propulsor</title>
<ellipse fill="lightblue" stroke="black" cx="269" cy="-72.83" rx="72.66" ry="72.66"/>
<text text-anchor="middle" x="269" y="-70.63" font-family="Times,serif" font-size="9.00">Activate propulsor</text>
</g>
<!-- VCoil1&#45;&gt;Activate propulsor -->
<g id="edge1" class="edge">
<title>VCoil1&#45;&gt;Activate propulsor</title>
<path fill="none" stroke="red" stroke-width="0.86" d="M259.72,-181.33C260.25,-175.16 261.04,-166.05 261.93,-155.71"/>
<polygon fill="red" stroke="red" stroke-width="0.86" points="265.44,-155.73 262.82,-145.46 258.47,-155.12 265.44,-155.73"/>
</g>
<!-- VCoil2 -->
<g id="node5" class="node">
<title>VCoil2</title>
<polygon fill="lightgray" stroke="black" points="418.5,-199.66 371.5,-199.66 371.5,-181.66 418.5,-181.66 418.5,-199.66"/>
<text text-anchor="middle" x="395" y="-188.46" font-family="Times,serif" font-size="9.00">VCoil2</text>
</g>
<!-- VCoil2&#45;&gt;Activate propulsor -->
<g id="edge2" class="edge">
<title>VCoil2&#45;&gt;Activate propulsor</title>
<path fill="none" stroke="green" stroke-width="1.13" d="M385.94,-181.33C373.92,-170.29 351.68,-149.84 329.79,-129.71"/>
<polygon fill="green" stroke="green" stroke-width="1.13" points="332.12,-127.11 322.39,-122.92 327.39,-132.26 332.12,-127.11"/>
</g>
<!-- 521 -->
<g id="node11" class="node">
<title>521</title>
<ellipse fill="white" stroke="black" cx="395" cy="-72.83" rx="25" ry="25"/>
<text text-anchor="middle" x="395" y="-70.63" font-family="Times,serif" font-size="9.00">521</text>
</g>
<!-- VCoil2&#45;&gt;521 -->
<g id="edge9" class="edge">
<title>VCoil2&#45;&gt;521</title>
<path fill="none" stroke="green" stroke-width="0.33" d="M395,-181.33C395,-166.2 395,-133.4 395,-107.98"/>
<polygon fill="green" stroke="green" stroke-width="0.33" points="398.5,-107.96 395,-97.96 391.5,-107.96 398.5,-107.96"/>
</g>
<!-- HCoil12 -->
<g id="node6" class="node">
<title>HCoil12</title>
<polygon fill="lightgray" stroke="black" points="629,-199.66 575,-199.66 575,-181.66 629,-181.66 629,-199.66"/>
<text text-anchor="middle" x="602" y="-188.46" font-family="Times,serif" font-size="9.00">HCoil12</text>
</g>
<!-- HCoil22 -->
<g id="node7" class="node">
<title>HCoil22</title>
<polygon fill="lightgray" stroke="black" points="491,-199.66 437,-199.66 437,-181.66 491,-181.66 491,-199.66"/>
<text text-anchor="middle" x="464" y="-188.46" font-family="Times,serif" font-size="9.00">HCoil22</text>
</g>
<!-- HCoil22&#45;&gt;521 -->
<g id="edge4" class="edge">
<title>HCoil22&#45;&gt;521</title>
<path fill="none" stroke="green" stroke-width="0.45" d="M459.04,-181.33C449.47,-165.28 428.07,-129.35 412.64,-103.44"/>
<polygon fill="green" stroke="green" stroke-width="0.45" points="415.58,-101.55 407.46,-94.75 409.57,-105.13 415.58,-101.55"/>
</g>
<!-- VCoil12 -->
<g id="node8" class="node">
<title>VCoil12</title>
<polygon fill="lightgray" stroke="black" points="353.5,-199.66 300.5,-199.66 300.5,-181.66 353.5,-181.66 353.5,-199.66"/>
<text text-anchor="middle" x="327" y="-188.46" font-family="Times,serif" font-size="9.00">VCoil12</text>
</g>
<!-- VCoil12&#45;&gt;Activate propulsor -->
<g id="edge7" class="edge">
<title>VCoil12&#45;&gt;Activate propulsor</title>
<path fill="none" stroke="green" stroke-width="0.47" d="M322.83,-181.33C318.93,-173.55 312.69,-161.08 305.82,-147.36"/>
<polygon fill="green" stroke="green" stroke-width="0.47" points="308.83,-145.57 301.23,-138.19 302.57,-148.7 308.83,-145.57"/>
</g>
<!-- VCoil22 -->
<g id="node9" class="node">
<title>VCoil22</title>
<polygon fill="lightgray" stroke="black" points="217.5,-199.66 164.5,-199.66 164.5,-181.66 217.5,-181.66 217.5,-199.66"/>
<text text-anchor="middle" x="191" y="-188.46" font-family="Times,serif" font-size="9.00">VCoil22</text>
</g>
<!-- VCoil22&#45;&gt;Activate propulsor -->
<g id="edge3" class="edge">
<title>VCoil22&#45;&gt;Activate propulsor</title>
<path fill="none" stroke="red" stroke-width="0.21" d="M196.61,-181.33C202.53,-172.54 212.46,-157.8 223.1,-142"/>
<polygon fill="red" stroke="red" stroke-width="0.21" points="226.03,-143.91 228.71,-133.66 220.22,-140 226.03,-143.91"/>
</g>
<!-- VCoil22&#45;&gt;521 -->
<g id="edge6" class="edge">
<title>VCoil22&#45;&gt;521</title>
<path fill="none" stroke="red" stroke-width="0.14" d="M217.6,-183.48C260.25,-173.4 340.26,-153.74 351,-145.66 364.49,-135.52 374.75,-119.93 381.96,-105.86"/>
<polygon fill="red" stroke="red" stroke-width="0.14" points="385.31,-106.98 386.47,-96.45 378.99,-103.96 385.31,-106.98"/>
</g>
<!-- VCoil22&#45;&gt;888 -->
<g id="edge5" class="edge">
<title>VCoil22&#45;&gt;888</title>
<path fill="none" stroke="green" stroke-width="0.22" d="M187.55,-181.33C181.07,-165.69 166.77,-131.2 156.11,-105.48"/>
<polygon fill="green" stroke="green" stroke-width="0.22" points="159.29,-104 152.23,-96.11 152.82,-106.68 159.29,-104"/>
</g>
</g>
</svg>
