<?xml version="1.0" encoding="UTF-8" standalone="no"?>
<!DOCTYPE svg PUBLIC "-//W3C//DTD SVG 1.1//EN"
 "http://www.w3.org/Graphics/SVG/1.1/DTD/svg11.dtd">
<!-- Generated by graphviz version 2.43.0 (0)
 -->
<!-- Title: %3 Pages: 1 -->
<svg width="637pt" height="208pt"
 viewBox="0.00 0.00 637.00 207.66" xmlns="http://www.w3.org/2000/svg" xmlns:xlink="http://www.w3.org/1999/xlink">
<g id="graph0" class="graph" transform="scale(1 1) rotate(0) translate(4 203.66)">
<title>%3</title>
<polygon fill="white" stroke="transparent" points="-4,4 -4,-203.66 633,-203.66 633,4 -4,4"/>
<!-- Player_height -->
<g id="node1" class="node">
<title>Player_height</title>
<polygon fill="lightgray" stroke="black" points="80,-199.66 0,-199.66 0,-181.66 80,-181.66 80,-199.66"/>
<text text-anchor="middle" x="40" y="-188.46" font-family="Times,serif" font-size="9.00">Player_height</text>
</g>
<!-- 888 -->
<g id="node12" class="node">
<title>888</title>
<ellipse fill="white" stroke="black" cx="61" cy="-72.83" rx="25" ry="25"/>
<text text-anchor="middle" x="61" y="-70.63" font-family="Times,serif" font-size="9.00">888</text>
</g>
<!-- Player_height&#45;&gt;888 -->
<g id="edge10" class="edge">
<title>Player_height&#45;&gt;888</title>
<path fill="none" stroke="green" stroke-width="0.43" d="M41.51,-181.33C44.27,-166.11 50.27,-133 54.89,-107.52"/>
<polygon fill="green" stroke="green" stroke-width="0.43" points="58.37,-107.96 56.71,-97.49 51.48,-106.71 58.37,-107.96"/>
</g>
<!-- HCoil1 -->
<g id="node2" class="node">
<title>HCoil1</title>
<polygon fill="lightgray" stroke="black" points="557,-199.66 509,-199.66 509,-181.66 557,-181.66 557,-199.66"/>
<text text-anchor="middle" x="533" y="-188.46" font-family="Times,serif" font-size="9.00">HCoil1</text>
</g>
<!-- HCoil2 -->
<g id="node3" class="node">
<title>HCoil2</title>
<polygon fill="lightgray" stroke="black" points="491,-199.66 443,-199.66 443,-181.66 491,-181.66 491,-199.66"/>
<text text-anchor="middle" x="467" y="-188.46" font-family="Times,serif" font-size="9.00">HCoil2</text>
</g>
<!-- 485 -->
<g id="node13" class="node">
<title>485</title>
<ellipse fill="white" stroke="black" cx="434" cy="-72.83" rx="25" ry="25"/>
<text text-anchor="middle" x="434" y="-70.63" font-family="Times,serif" font-size="9.00">485</text>
</g>
<!-- HCoil2&#45;&gt;485 -->
<g id="edge4" class="edge">
<title>HCoil2&#45;&gt;485</title>
<path fill="none" stroke="red" stroke-width="0.28" d="M464.63,-181.33C460.24,-165.95 450.66,-132.31 443.37,-106.73"/>
<polygon fill="red" stroke="red" stroke-width="0.28" points="446.71,-105.69 440.61,-97.03 439.98,-107.6 446.71,-105.69"/>
</g>
<!-- VCoil1 -->
<g id="node4" class="node">
<title>VCoil1</title>
<polygon fill="lightgray" stroke="black" points="424.5,-199.66 377.5,-199.66 377.5,-181.66 424.5,-181.66 424.5,-199.66"/>
<text text-anchor="middle" x="401" y="-188.46" font-family="Times,serif" font-size="9.00">VCoil1</text>
</g>
<!-- Activate propulsor -->
<g id="node10" class="node">
<title>Activate propulsor</title>
<ellipse fill="lightblue" stroke="black" cx="275" cy="-72.83" rx="72.66" ry="72.66"/>
<text text-anchor="middle" x="275" y="-70.63" font-family="Times,serif" font-size="9.00">Activate propulsor</text>
</g>
<!-- VCoil1&#45;&gt;Activate propulsor -->
<g id="edge1" class="edge">
<title>VCoil1&#45;&gt;Activate propulsor</title>
<path fill="none" stroke="red" stroke-width="0.51" d="M391.94,-181.33C379.92,-170.29 357.68,-149.84 335.79,-129.71"/>
<polygon fill="red" stroke="red" stroke-width="0.51" points="338.12,-127.11 328.39,-122.92 333.39,-132.26 338.12,-127.11"/>
</g>
<!-- VCoil1&#45;&gt;485 -->
<g id="edge5" class="edge">
<title>VCoil1&#45;&gt;485</title>
<path fill="none" stroke="green" stroke-width="0.58" d="M403.37,-181.33C407.76,-165.95 417.34,-132.31 424.63,-106.73"/>
<polygon fill="green" stroke="green" stroke-width="0.58" points="428.02,-107.6 427.39,-97.03 421.29,-105.69 428.02,-107.6"/>
</g>
<!-- VCoil2 -->
<g id="node5" class="node">
<title>VCoil2</title>
<polygon fill="lightgray" stroke="black" points="288.5,-199.66 241.5,-199.66 241.5,-181.66 288.5,-181.66 288.5,-199.66"/>
<text text-anchor="middle" x="265" y="-188.46" font-family="Times,serif" font-size="9.00">VCoil2</text>
</g>
<!-- VCoil2&#45;&gt;Activate propulsor -->
<g id="edge2" class="edge">
<title>VCoil2&#45;&gt;Activate propulsor</title>
<path fill="none" stroke="green" stroke-width="0.45" d="M265.72,-181.33C266.25,-175.16 267.04,-166.05 267.93,-155.71"/>
<polygon fill="green" stroke="green" stroke-width="0.45" points="271.44,-155.73 268.82,-145.46 264.47,-155.12 271.44,-155.73"/>
</g>
<!-- HCoil12 -->
<g id="node6" class="node">
<title>HCoil12</title>
<polygon fill="lightgray" stroke="black" points="629,-199.66 575,-199.66 575,-181.66 629,-181.66 629,-199.66"/>
<text text-anchor="middle" x="602" y="-188.46" font-family="Times,serif" font-size="9.00">HCoil12</text>
</g>
<!-- HCoil22 -->
<g id="node7" class="node">
<title>HCoil22</title>
<polygon fill="lightgray" stroke="black" points="152,-199.66 98,-199.66 98,-181.66 152,-181.66 152,-199.66"/>
<text text-anchor="middle" x="125" y="-188.46" font-family="Times,serif" font-size="9.00">HCoil22</text>
</g>
<!-- 521 -->
<g id="node11" class="node">
<title>521</title>
<ellipse fill="white" stroke="black" cx="137" cy="-72.83" rx="25" ry="25"/>
<text text-anchor="middle" x="137" y="-70.63" font-family="Times,serif" font-size="9.00">521</text>
</g>
<!-- HCoil22&#45;&gt;521 -->
<g id="edge6" class="edge">
<title>HCoil22&#45;&gt;521</title>
<path fill="none" stroke="green" stroke-width="0.11" d="M125.86,-181.33C127.44,-166.11 130.87,-133 133.51,-107.52"/>
<polygon fill="green" stroke="green" stroke-width="0.11" points="137,-107.8 134.55,-97.49 130.04,-107.08 137,-107.8"/>
</g>
<!-- VCoil12 -->
<g id="node8" class="node">
<title>VCoil12</title>
<polygon fill="lightgray" stroke="black" points="359.5,-199.66 306.5,-199.66 306.5,-181.66 359.5,-181.66 359.5,-199.66"/>
<text text-anchor="middle" x="333" y="-188.46" font-family="Times,serif" font-size="9.00">VCoil12</text>
</g>
<!-- VCoil12&#45;&gt;Activate propulsor -->
<g id="edge9" class="edge">
<title>VCoil12&#45;&gt;Activate propulsor</title>
<path fill="none" stroke="green" stroke-width="0.22" d="M328.83,-181.33C324.93,-173.55 318.69,-161.08 311.82,-147.36"/>
<polygon fill="green" stroke="green" stroke-width="0.22" points="314.83,-145.57 307.23,-138.19 308.57,-148.7 314.83,-145.57"/>
</g>
<!-- VCoil22 -->
<g id="node9" class="node">
<title>VCoil22</title>
<polygon fill="lightgray" stroke="black" points="223.5,-199.66 170.5,-199.66 170.5,-181.66 223.5,-181.66 223.5,-199.66"/>
<text text-anchor="middle" x="197" y="-188.46" font-family="Times,serif" font-size="9.00">VCoil22</text>
</g>
<!-- VCoil22&#45;&gt;Activate propulsor -->
<g id="edge3" class="edge">
<title>VCoil22&#45;&gt;Activate propulsor</title>
<path fill="none" stroke="green" stroke-width="0.21" stroke-dasharray="1,5" d="M202.61,-181.33C208.53,-172.54 218.46,-157.8 229.1,-142"/>
<polygon fill="green" stroke="green" stroke-width="0.21" points="232.03,-143.91 234.71,-133.66 226.22,-140 232.03,-143.91"/>
</g>
<!-- VCoil22&#45;&gt;521 -->
<g id="edge8" class="edge">
<title>VCoil22&#45;&gt;521</title>
<path fill="none" stroke="red" stroke-width="0.39" d="M192.68,-181.33C184.45,-165.44 166.13,-130.08 152.75,-104.23"/>
<polygon fill="red" stroke="red" stroke-width="0.39" points="155.77,-102.47 148.07,-95.2 149.56,-105.68 155.77,-102.47"/>
</g>
<!-- VCoil22&#45;&gt;888 -->
<g id="edge7" class="edge">
<title>VCoil22&#45;&gt;888</title>
<path fill="none" stroke="green" stroke-width="0.57" d="M170.19,-181.95C149.89,-175.05 122.3,-163.28 103,-145.66 90.86,-134.59 81.22,-119.17 74.25,-105.46"/>
<polygon fill="green" stroke="green" stroke-width="0.57" points="77.34,-103.81 69.85,-96.31 71.03,-106.84 77.34,-103.81"/>
</g>
</g>
</svg>
