<?xml version="1.0" encoding="UTF-8" standalone="no"?>
<!DOCTYPE svg PUBLIC "-//W3C//DTD SVG 1.1//EN"
 "http://www.w3.org/Graphics/SVG/1.1/DTD/svg11.dtd">
<!-- Generated by graphviz version 2.43.0 (0)
 -->
<!-- Title: %3 Pages: 1 -->
<svg width="648pt" height="302pt"
 viewBox="0.00 0.00 648.00 301.65" xmlns="http://www.w3.org/2000/svg" xmlns:xlink="http://www.w3.org/1999/xlink">
<g id="graph0" class="graph" transform="scale(1 1) rotate(0) translate(4 297.65)">
<title>%3</title>
<polygon fill="white" stroke="transparent" points="-4,4 -4,-297.65 644,-297.65 644,4 -4,4"/>
<!-- Player_height -->
<g id="node1" class="node">
<title>Player_height</title>
<polygon fill="lightgray" stroke="black" points="80,-219.66 0,-219.66 0,-201.66 80,-201.66 80,-219.66"/>
<text text-anchor="middle" x="40" y="-208.46" font-family="Times,serif" font-size="9.00">Player_height</text>
</g>
<!-- 888 -->
<g id="node14" class="node">
<title>888</title>
<ellipse fill="white" stroke="black" cx="81" cy="-72.83" rx="25" ry="25"/>
<text text-anchor="middle" x="81" y="-70.63" font-family="Times,serif" font-size="9.00">888</text>
</g>
<!-- Player_height&#45;&gt;888 -->
<g id="edge10" class="edge">
<title>Player_height&#45;&gt;888</title>
<path fill="none" stroke="green" stroke-width="0.47" d="M42.44,-201.57C47.96,-183.27 61.67,-137.87 71.16,-106.44"/>
<polygon fill="green" stroke="green" stroke-width="0.47" points="74.53,-107.36 74.07,-96.78 67.83,-105.34 74.53,-107.36"/>
</g>
<!-- HCoil1 -->
<g id="node2" class="node">
<title>HCoil1</title>
<polygon fill="lightgray" stroke="black" points="568,-293.65 520,-293.65 520,-275.65 568,-275.65 568,-293.65"/>
<text text-anchor="middle" x="544" y="-282.45" font-family="Times,serif" font-size="9.00">HCoil1</text>
</g>
<!-- HCoil2 -->
<g id="node3" class="node">
<title>HCoil2</title>
<polygon fill="lightgray" stroke="black" points="419,-219.66 371,-219.66 371,-201.66 419,-201.66 419,-219.66"/>
<text text-anchor="middle" x="395" y="-208.46" font-family="Times,serif" font-size="9.00">HCoil2</text>
</g>
<!-- 485 -->
<g id="node11" class="node">
<title>485</title>
<ellipse fill="white" stroke="black" cx="354" cy="-72.83" rx="25" ry="25"/>
<text text-anchor="middle" x="354" y="-70.63" font-family="Times,serif" font-size="9.00">485</text>
</g>
<!-- HCoil2&#45;&gt;485 -->
<g id="edge4" class="edge">
<title>HCoil2&#45;&gt;485</title>
<path fill="none" stroke="red" stroke-width="0.3" stroke-dasharray="1,5" d="M392.56,-201.57C387.04,-183.27 373.33,-137.87 363.84,-106.44"/>
<polygon fill="red" stroke="red" stroke-width="0.3" points="367.17,-105.34 360.93,-96.78 360.47,-107.36 367.17,-105.34"/>
</g>
<!-- VCoil1 -->
<g id="node4" class="node">
<title>VCoil1</title>
<polygon fill="lightgray" stroke="black" points="352.5,-219.66 305.5,-219.66 305.5,-201.66 352.5,-201.66 352.5,-219.66"/>
<text text-anchor="middle" x="329" y="-208.46" font-family="Times,serif" font-size="9.00">VCoil1</text>
</g>
<!-- Activate propulsor -->
<g id="node10" class="node">
<title>Activate propulsor</title>
<ellipse fill="lightblue" stroke="black" cx="215" cy="-72.83" rx="72.66" ry="72.66"/>
<text text-anchor="middle" x="215" y="-70.63" font-family="Times,serif" font-size="9.00">Activate propulsor</text>
</g>
<!-- VCoil1&#45;&gt;Activate propulsor -->
<g id="edge1" class="edge">
<title>VCoil1&#45;&gt;Activate propulsor</title>
<path fill="none" stroke="red" stroke-width="0.8" d="M322.21,-201.57C311.39,-188.68 289.29,-162.34 267.94,-136.91"/>
<polygon fill="red" stroke="red" stroke-width="0.8" points="270.47,-134.47 261.36,-129.06 265.1,-138.97 270.47,-134.47"/>
</g>
<!-- VCoil1&#45;&gt;485 -->
<g id="edge5" class="edge">
<title>VCoil1&#45;&gt;485</title>
<path fill="none" stroke="green" stroke-width="0.2" d="M330.49,-201.57C333.82,-183.45 342.05,-138.77 347.82,-107.38"/>
<polygon fill="green" stroke="green" stroke-width="0.2" points="351.31,-107.77 349.68,-97.3 344.43,-106.51 351.31,-107.77"/>
</g>
<!-- VCoil2 -->
<g id="node5" class="node">
<title>VCoil2</title>
<polygon fill="lightgray" stroke="black" points="216.5,-219.66 169.5,-219.66 169.5,-201.66 216.5,-201.66 216.5,-219.66"/>
<text text-anchor="middle" x="193" y="-208.46" font-family="Times,serif" font-size="9.00">VCoil2</text>
</g>
<!-- VCoil2&#45;&gt;Activate propulsor -->
<g id="edge2" class="edge">
<title>VCoil2&#45;&gt;Activate propulsor</title>
<path fill="none" stroke="green" stroke-width="0.99" d="M194.31,-201.57C195.9,-191.74 198.76,-174.1 201.85,-155"/>
<polygon fill="green" stroke="green" stroke-width="0.99" points="205.34,-155.35 203.49,-144.92 198.43,-154.23 205.34,-155.35"/>
</g>
<!-- HCoil12 -->
<g id="node6" class="node">
<title>HCoil12</title>
<polygon fill="lightgray" stroke="black" points="640,-293.65 586,-293.65 586,-275.65 640,-275.65 640,-293.65"/>
<text text-anchor="middle" x="613" y="-282.45" font-family="Times,serif" font-size="9.00">HCoil12</text>
</g>
<!-- HCoil22 -->
<g id="node7" class="node">
<title>HCoil22</title>
<polygon fill="lightgray" stroke="black" points="502,-293.65 448,-293.65 448,-275.65 502,-275.65 502,-293.65"/>
<text text-anchor="middle" x="475" y="-282.45" font-family="Times,serif" font-size="9.00">HCoil22</text>
</g>
<!-- 1222 -->
<g id="node12" class="node">
<title>1222</title>
<ellipse fill="white" stroke="black" cx="504" cy="-210.66" rx="28.98" ry="28.98"/>
<text text-anchor="middle" x="504" y="-208.46" font-family="Times,serif" font-size="9.00">1222</text>
</g>
<!-- HCoil22&#45;&gt;1222 -->
<g id="edge11" class="edge">
<title>HCoil22&#45;&gt;1222</title>
<path fill="none" stroke="green" stroke-width="0.1" d="M478.33,-275.39C481.15,-268.38 485.41,-257.8 489.65,-247.27"/>
<polygon fill="green" stroke="green" stroke-width="0.1" points="493.01,-248.29 493.5,-237.71 486.52,-245.68 493.01,-248.29"/>
</g>
<!-- 521 -->
<g id="node13" class="node">
<title>521</title>
<ellipse fill="white" stroke="black" cx="447" cy="-72.83" rx="25" ry="25"/>
<text text-anchor="middle" x="447" y="-70.63" font-family="Times,serif" font-size="9.00">521</text>
</g>
<!-- HCoil22&#45;&gt;521 -->
<g id="edge6" class="edge">
<title>HCoil22&#45;&gt;521</title>
<path fill="none" stroke="red" stroke-width="0.47" d="M473.13,-275.58C471.14,-266.78 468.01,-252.27 466,-239.65 458.76,-194.2 453.19,-141.33 450.01,-107.73"/>
<polygon fill="red" stroke="red" stroke-width="0.47" points="453.47,-107.17 449.06,-97.54 446.5,-107.82 453.47,-107.17"/>
</g>
<!-- VCoil12 -->
<g id="node8" class="node">
<title>VCoil12</title>
<polygon fill="lightgray" stroke="black" points="287.5,-219.66 234.5,-219.66 234.5,-201.66 287.5,-201.66 287.5,-219.66"/>
<text text-anchor="middle" x="261" y="-208.46" font-family="Times,serif" font-size="9.00">VCoil12</text>
</g>
<!-- VCoil12&#45;&gt;Activate propulsor -->
<g id="edge9" class="edge">
<title>VCoil12&#45;&gt;Activate propulsor</title>
<path fill="none" stroke="green" stroke-width="0.42" d="M258.26,-201.57C254.75,-191.21 248.31,-172.18 241.44,-151.9"/>
<polygon fill="green" stroke="green" stroke-width="0.42" points="244.68,-150.56 238.16,-142.21 238.05,-152.8 244.68,-150.56"/>
</g>
<!-- VCoil22 -->
<g id="node9" class="node">
<title>VCoil22</title>
<polygon fill="lightgray" stroke="black" points="151.5,-219.66 98.5,-219.66 98.5,-201.66 151.5,-201.66 151.5,-219.66"/>
<text text-anchor="middle" x="125" y="-208.46" font-family="Times,serif" font-size="9.00">VCoil22</text>
</g>
<!-- VCoil22&#45;&gt;Activate propulsor -->
<g id="edge3" class="edge">
<title>VCoil22&#45;&gt;Activate propulsor</title>
<path fill="none" stroke="red" stroke-width="0.24" d="M130.36,-201.57C138.28,-189.61 153.87,-166.08 169.54,-142.44"/>
<polygon fill="red" stroke="red" stroke-width="0.24" points="172.46,-144.36 175.07,-134.09 166.63,-140.49 172.46,-144.36"/>
</g>
<!-- VCoil22&#45;&gt;521 -->
<g id="edge8" class="edge">
<title>VCoil22&#45;&gt;521</title>
<path fill="none" stroke="green" stroke-width="0.58" d="M132.81,-201.4C139.41,-194.94 149.46,-186.31 160,-181.66 253.86,-140.25 298.97,-196.63 388,-145.66 405.33,-135.75 419.69,-118.64 429.9,-103.6"/>
<polygon fill="green" stroke="green" stroke-width="0.58" points="432.93,-105.36 435.43,-95.06 427.06,-101.56 432.93,-105.36"/>
</g>
<!-- VCoil22&#45;&gt;888 -->
<g id="edge7" class="edge">
<title>VCoil22&#45;&gt;888</title>
<path fill="none" stroke="green" stroke-width="0.43" d="M122.38,-201.57C116.44,-183.22 101.66,-137.61 91.48,-106.17"/>
<polygon fill="green" stroke="green" stroke-width="0.43" points="94.76,-104.95 88.35,-96.52 88.1,-107.11 94.76,-104.95"/>
</g>
<!-- 1222&#45;&gt;521 -->
<g id="edge12" class="edge">
<title>1222&#45;&gt;521</title>
<path fill="none" stroke="green" stroke-width="0.28" d="M493.01,-183.47C483.63,-161.11 470.11,-128.9 460.15,-105.17"/>
<polygon fill="green" stroke="green" stroke-width="0.28" points="463.36,-103.77 456.26,-95.9 456.9,-106.48 463.36,-103.77"/>
</g>
</g>
</svg>
