<?xml version="1.0" encoding="UTF-8" standalone="no"?>
<!DOCTYPE svg PUBLIC "-//W3C//DTD SVG 1.1//EN"
 "http://www.w3.org/Graphics/SVG/1.1/DTD/svg11.dtd">
<!-- Generated by graphviz version 2.43.0 (0)
 -->
<!-- Title: %3 Pages: 1 -->
<svg width="532pt" height="285pt"
 viewBox="0.00 0.00 531.50 284.68" xmlns="http://www.w3.org/2000/svg" xmlns:xlink="http://www.w3.org/1999/xlink">
<g id="graph0" class="graph" transform="scale(1 1) rotate(0) translate(4 280.68)">
<title>%3</title>
<polygon fill="white" stroke="transparent" points="-4,4 -4,-280.68 527.5,-280.68 527.5,4 -4,4"/>
<!-- Player_height -->
<g id="node1" class="node">
<title>Player_height</title>
<polygon fill="lightgray" stroke="black" points="80,-211.17 0,-211.17 0,-193.17 80,-193.17 80,-211.17"/>
<text text-anchor="middle" x="40" y="-199.97" font-family="Times,serif" font-size="9.00">Player_height</text>
</g>
<!-- Activate propulsor -->
<g id="node10" class="node">
<title>Activate propulsor</title>
<ellipse fill="lightblue" stroke="black" cx="284" cy="-72.83" rx="72.66" ry="72.66"/>
<text text-anchor="middle" x="284" y="-70.63" font-family="Times,serif" font-size="9.00">Activate propulsor</text>
</g>
<!-- Player_height&#45;&gt;Activate propulsor -->
<g id="edge1" class="edge">
<title>Player_height&#45;&gt;Activate propulsor</title>
<path fill="none" stroke="green" stroke-width="0.1" d="M55.63,-193.01C86.37,-176.97 156.42,-140.41 210.89,-111.99"/>
<polygon fill="green" stroke="green" stroke-width="0.1" points="212.58,-115.05 219.83,-107.32 209.34,-108.85 212.58,-115.05"/>
</g>
<!-- HCoil1 -->
<g id="node2" class="node">
<title>HCoil1</title>
<polygon fill="lightgray" stroke="black" points="429,-276.68 381,-276.68 381,-258.68 429,-258.68 429,-276.68"/>
<text text-anchor="middle" x="405" y="-265.48" font-family="Times,serif" font-size="9.00">HCoil1</text>
</g>
<!-- HCoil2 -->
<g id="node3" class="node">
<title>HCoil2</title>
<polygon fill="lightgray" stroke="black" points="146,-211.17 98,-211.17 98,-193.17 146,-193.17 146,-211.17"/>
<text text-anchor="middle" x="122" y="-199.97" font-family="Times,serif" font-size="9.00">HCoil2</text>
</g>
<!-- HCoil2&#45;&gt;Activate propulsor -->
<g id="edge2" class="edge">
<title>HCoil2&#45;&gt;Activate propulsor</title>
<path fill="none" stroke="red" stroke-width="0.18" d="M132.63,-192.82C150.09,-179.09 186.14,-150.75 218.69,-125.17"/>
<polygon fill="red" stroke="red" stroke-width="0.18" points="221.17,-127.67 226.87,-118.74 216.85,-122.17 221.17,-127.67"/>
</g>
<!-- VCoil1 -->
<g id="node4" class="node">
<title>VCoil1</title>
<polygon fill="lightgray" stroke="black" points="494.5,-276.68 447.5,-276.68 447.5,-258.68 494.5,-258.68 494.5,-276.68"/>
<text text-anchor="middle" x="471" y="-265.48" font-family="Times,serif" font-size="9.00">VCoil1</text>
</g>
<!-- VCoil2 -->
<g id="node5" class="node">
<title>VCoil2</title>
<polygon fill="lightgray" stroke="black" points="211.5,-211.17 164.5,-211.17 164.5,-193.17 211.5,-193.17 211.5,-211.17"/>
<text text-anchor="middle" x="188" y="-199.97" font-family="Times,serif" font-size="9.00">VCoil2</text>
</g>
<!-- VCoil2&#45;&gt;Activate propulsor -->
<g id="edge3" class="edge">
<title>VCoil2&#45;&gt;Activate propulsor</title>
<path fill="none" stroke="green" stroke-width="0.37" d="M194.3,-192.82C202.73,-181.63 218.49,-160.72 234.48,-139.52"/>
<polygon fill="green" stroke="green" stroke-width="0.37" points="237.37,-141.49 240.6,-131.4 231.78,-137.28 237.37,-141.49"/>
</g>
<!-- HCoil12 -->
<g id="node6" class="node">
<title>HCoil12</title>
<polygon fill="lightgray" stroke="black" points="284,-211.17 230,-211.17 230,-193.17 284,-193.17 284,-211.17"/>
<text text-anchor="middle" x="257" y="-199.97" font-family="Times,serif" font-size="9.00">HCoil12</text>
</g>
<!-- HCoil12&#45;&gt;Activate propulsor -->
<g id="edge4" class="edge">
<title>HCoil12&#45;&gt;Activate propulsor</title>
<path fill="none" stroke="red" stroke-width="0.11" d="M258.77,-192.82C260.59,-184.25 263.61,-169.98 266.95,-154.24"/>
<polygon fill="red" stroke="red" stroke-width="0.11" points="270.41,-154.79 269.06,-144.29 263.56,-153.34 270.41,-154.79"/>
</g>
<!-- HCoil22 -->
<g id="node7" class="node">
<title>HCoil22</title>
<polygon fill="lightgray" stroke="black" points="363,-276.68 309,-276.68 309,-258.68 363,-258.68 363,-276.68"/>
<text text-anchor="middle" x="336" y="-265.48" font-family="Times,serif" font-size="9.00">HCoil22</text>
</g>
<!-- HCoil22&#45;&gt;Activate propulsor -->
<g id="edge5" class="edge">
<title>HCoil22&#45;&gt;Activate propulsor</title>
<path fill="none" stroke="green" stroke-width="0.13" d="M333.77,-258.39C328.83,-240.1 316.57,-194.63 305.46,-153.41"/>
<polygon fill="green" stroke="green" stroke-width="0.13" points="308.79,-152.33 302.81,-143.59 302.03,-154.16 308.79,-152.33"/>
</g>
<!-- 16 -->
<g id="node11" class="node">
<title>16</title>
<ellipse fill="white" stroke="black" cx="361" cy="-202.17" rx="20.51" ry="20.51"/>
<text text-anchor="middle" x="361" y="-199.97" font-family="Times,serif" font-size="9.00">16</text>
</g>
<!-- HCoil22&#45;&gt;16 -->
<g id="edge9" class="edge">
<title>HCoil22&#45;&gt;16</title>
<path fill="none" stroke="red" stroke-width="0.25" d="M339.17,-258.63C341.93,-251.6 346.12,-240.97 350.09,-230.88"/>
<polygon fill="red" stroke="red" stroke-width="0.25" points="353.37,-232.11 353.78,-221.52 346.86,-229.54 353.37,-232.11"/>
</g>
<!-- VCoil12 -->
<g id="node8" class="node">
<title>VCoil12</title>
<polygon fill="lightgray" stroke="black" points="452.5,-211.17 399.5,-211.17 399.5,-193.17 452.5,-193.17 452.5,-211.17"/>
<text text-anchor="middle" x="426" y="-199.97" font-family="Times,serif" font-size="9.00">VCoil12</text>
</g>
<!-- VCoil12&#45;&gt;Activate propulsor -->
<g id="edge6" class="edge">
<title>VCoil12&#45;&gt;Activate propulsor</title>
<path fill="none" stroke="green" stroke-width="0.31" d="M416.68,-192.82C402.13,-179.77 372.84,-153.5 345.47,-128.95"/>
<polygon fill="green" stroke="green" stroke-width="0.31" points="347.59,-126.16 337.81,-122.09 342.92,-131.37 347.59,-126.16"/>
</g>
<!-- VCoil22 -->
<g id="node9" class="node">
<title>VCoil22</title>
<polygon fill="lightgray" stroke="black" points="523.5,-211.17 470.5,-211.17 470.5,-193.17 523.5,-193.17 523.5,-211.17"/>
<text text-anchor="middle" x="497" y="-199.97" font-family="Times,serif" font-size="9.00">VCoil22</text>
</g>
<!-- VCoil22&#45;&gt;Activate propulsor -->
<g id="edge7" class="edge">
<title>VCoil22&#45;&gt;Activate propulsor</title>
<path fill="none" stroke="green" stroke-width="0.17" d="M483.35,-193.01C457.91,-177.8 401.6,-144.14 355.29,-116.45"/>
<polygon fill="green" stroke="green" stroke-width="0.17" points="356.86,-113.31 346.48,-111.18 353.27,-119.32 356.86,-113.31"/>
</g>
<!-- 16&#45;&gt;Activate propulsor -->
<g id="edge8" class="edge">
<title>16&#45;&gt;Activate propulsor</title>
<path fill="none" stroke="red" stroke-width="0.44" d="M350.77,-184.26C344.38,-173.69 335.67,-159.27 326.64,-144.35"/>
<polygon fill="red" stroke="red" stroke-width="0.44" points="329.48,-142.28 321.31,-135.54 323.49,-145.9 329.48,-142.28"/>
</g>
</g>
</svg>
