<?xml version="1.0" encoding="UTF-8" standalone="no"?>
<!DOCTYPE svg PUBLIC "-//W3C//DTD SVG 1.1//EN"
 "http://www.w3.org/Graphics/SVG/1.1/DTD/svg11.dtd">
<!-- Generated by graphviz version 2.43.0 (0)
 -->
<!-- Title: %3 Pages: 1 -->
<svg width="570pt" height="302pt"
 viewBox="0.00 0.00 569.50 301.65" xmlns="http://www.w3.org/2000/svg" xmlns:xlink="http://www.w3.org/1999/xlink">
<g id="graph0" class="graph" transform="scale(1 1) rotate(0) translate(4 297.65)">
<title>%3</title>
<polygon fill="white" stroke="transparent" points="-4,4 -4,-297.65 565.5,-297.65 565.5,4 -4,4"/>
<!-- Player_height -->
<g id="node1" class="node">
<title>Player_height</title>
<polygon fill="lightgray" stroke="black" points="80,-219.66 0,-219.66 0,-201.66 80,-201.66 80,-219.66"/>
<text text-anchor="middle" x="40" y="-208.46" font-family="Times,serif" font-size="9.00">Player_height</text>
</g>
<!-- 888 -->
<g id="node14" class="node">
<title>888</title>
<ellipse fill="white" stroke="black" cx="55" cy="-72.83" rx="25" ry="25"/>
<text text-anchor="middle" x="55" y="-70.63" font-family="Times,serif" font-size="9.00">888</text>
</g>
<!-- Player_height&#45;&gt;888 -->
<g id="edge7" class="edge">
<title>Player_height&#45;&gt;888</title>
<path fill="none" stroke="green" stroke-width="0.5" d="M40.89,-201.57C42.89,-183.5 47.8,-139.02 51.27,-107.65"/>
<polygon fill="green" stroke="green" stroke-width="0.5" points="54.76,-107.89 52.38,-97.57 47.8,-107.12 54.76,-107.89"/>
</g>
<!-- HCoil1 -->
<g id="node2" class="node">
<title>HCoil1</title>
<polygon fill="lightgray" stroke="black" points="418,-293.65 370,-293.65 370,-275.65 418,-275.65 418,-293.65"/>
<text text-anchor="middle" x="394" y="-282.45" font-family="Times,serif" font-size="9.00">HCoil1</text>
</g>
<!-- HCoil2 -->
<g id="node3" class="node">
<title>HCoil2</title>
<polygon fill="lightgray" stroke="black" points="352,-293.65 304,-293.65 304,-275.65 352,-275.65 352,-293.65"/>
<text text-anchor="middle" x="328" y="-282.45" font-family="Times,serif" font-size="9.00">HCoil2</text>
</g>
<!-- 1250 -->
<g id="node11" class="node">
<title>1250</title>
<ellipse fill="white" stroke="black" cx="328" cy="-210.66" rx="28.98" ry="28.98"/>
<text text-anchor="middle" x="328" y="-208.46" font-family="Times,serif" font-size="9.00">1250</text>
</g>
<!-- HCoil2&#45;&gt;1250 -->
<g id="edge10" class="edge">
<title>HCoil2&#45;&gt;1250</title>
<path fill="none" stroke="green" stroke-width="0.44" d="M328,-275.39C328,-268.92 328,-259.42 328,-249.72"/>
<polygon fill="green" stroke="green" stroke-width="0.44" points="331.5,-249.65 328,-239.65 324.5,-249.65 331.5,-249.65"/>
</g>
<!-- VCoil1 -->
<g id="node4" class="node">
<title>VCoil1</title>
<polygon fill="lightgray" stroke="black" points="145.5,-219.66 98.5,-219.66 98.5,-201.66 145.5,-201.66 145.5,-219.66"/>
<text text-anchor="middle" x="122" y="-208.46" font-family="Times,serif" font-size="9.00">VCoil1</text>
</g>
<!-- Activate propulsor -->
<g id="node10" class="node">
<title>Activate propulsor</title>
<ellipse fill="lightblue" stroke="black" cx="179" cy="-72.83" rx="72.66" ry="72.66"/>
<text text-anchor="middle" x="179" y="-70.63" font-family="Times,serif" font-size="9.00">Activate propulsor</text>
</g>
<!-- VCoil1&#45;&gt;Activate propulsor -->
<g id="edge1" class="edge">
<title>VCoil1&#45;&gt;Activate propulsor</title>
<path fill="none" stroke="red" stroke-width="0.98" d="M125.39,-201.57C129.9,-190.82 138.34,-170.72 147.2,-149.6"/>
<polygon fill="red" stroke="red" stroke-width="0.98" points="150.52,-150.75 151.16,-140.18 144.06,-148.04 150.52,-150.75"/>
</g>
<!-- 485 -->
<g id="node12" class="node">
<title>485</title>
<ellipse fill="white" stroke="black" cx="295" cy="-72.83" rx="25" ry="25"/>
<text text-anchor="middle" x="295" y="-70.63" font-family="Times,serif" font-size="9.00">485</text>
</g>
<!-- VCoil1&#45;&gt;485 -->
<g id="edge4" class="edge">
<title>VCoil1&#45;&gt;485</title>
<path fill="none" stroke="green" stroke-width="0.88" stroke-dasharray="1,5" d="M129.72,-201.31C135.81,-195.15 144.78,-186.96 154,-181.66 197.5,-156.66 223.5,-179 261,-145.66 272.53,-135.41 280.48,-120.41 285.77,-106.76"/>
<polygon fill="green" stroke="green" stroke-width="0.88" points="289.14,-107.74 289.17,-97.15 282.54,-105.41 289.14,-107.74"/>
</g>
<!-- VCoil1&#45;&gt;888 -->
<g id="edge9" class="edge">
<title>VCoil1&#45;&gt;888</title>
<path fill="none" stroke="red" stroke-width="0.25" d="M118.01,-201.57C108.79,-182.88 85.63,-135.92 70.1,-104.45"/>
<polygon fill="red" stroke="red" stroke-width="0.25" points="73.12,-102.65 65.56,-95.23 66.84,-105.75 73.12,-102.65"/>
</g>
<!-- VCoil2 -->
<g id="node5" class="node">
<title>VCoil2</title>
<polygon fill="lightgray" stroke="black" points="210.5,-219.66 163.5,-219.66 163.5,-201.66 210.5,-201.66 210.5,-219.66"/>
<text text-anchor="middle" x="187" y="-208.46" font-family="Times,serif" font-size="9.00">VCoil2</text>
</g>
<!-- VCoil2&#45;&gt;Activate propulsor -->
<g id="edge2" class="edge">
<title>VCoil2&#45;&gt;Activate propulsor</title>
<path fill="none" stroke="green" stroke-width="0.86" d="M186.52,-201.57C185.95,-191.88 184.94,-174.61 183.83,-155.83"/>
<polygon fill="green" stroke="green" stroke-width="0.86" points="187.31,-155.37 183.23,-145.6 180.32,-155.79 187.31,-155.37"/>
</g>
<!-- HCoil12 -->
<g id="node6" class="node">
<title>HCoil12</title>
<polygon fill="lightgray" stroke="black" points="490,-293.65 436,-293.65 436,-275.65 490,-275.65 490,-293.65"/>
<text text-anchor="middle" x="463" y="-282.45" font-family="Times,serif" font-size="9.00">HCoil12</text>
</g>
<!-- HCoil22 -->
<g id="node7" class="node">
<title>HCoil22</title>
<polygon fill="lightgray" stroke="black" points="429,-219.66 375,-219.66 375,-201.66 429,-201.66 429,-219.66"/>
<text text-anchor="middle" x="402" y="-208.46" font-family="Times,serif" font-size="9.00">HCoil22</text>
</g>
<!-- 521 -->
<g id="node13" class="node">
<title>521</title>
<ellipse fill="white" stroke="black" cx="382" cy="-72.83" rx="25" ry="25"/>
<text text-anchor="middle" x="382" y="-70.63" font-family="Times,serif" font-size="9.00">521</text>
</g>
<!-- HCoil22&#45;&gt;521 -->
<g id="edge5" class="edge">
<title>HCoil22&#45;&gt;521</title>
<path fill="none" stroke="green" stroke-width="0.67" d="M400.81,-201.57C398.15,-183.5 391.6,-139.02 386.98,-107.65"/>
<polygon fill="green" stroke="green" stroke-width="0.67" points="390.41,-106.95 385.5,-97.57 383.49,-107.97 390.41,-106.95"/>
</g>
<!-- VCoil12 -->
<g id="node8" class="node">
<title>VCoil12</title>
<polygon fill="lightgray" stroke="black" points="561.5,-293.65 508.5,-293.65 508.5,-275.65 561.5,-275.65 561.5,-293.65"/>
<text text-anchor="middle" x="535" y="-282.45" font-family="Times,serif" font-size="9.00">VCoil12</text>
</g>
<!-- VCoil22 -->
<g id="node9" class="node">
<title>VCoil22</title>
<polygon fill="lightgray" stroke="black" points="281.5,-219.66 228.5,-219.66 228.5,-201.66 281.5,-201.66 281.5,-219.66"/>
<text text-anchor="middle" x="255" y="-208.46" font-family="Times,serif" font-size="9.00">VCoil22</text>
</g>
<!-- VCoil22&#45;&gt;Activate propulsor -->
<g id="edge3" class="edge">
<title>VCoil22&#45;&gt;Activate propulsor</title>
<path fill="none" stroke="green" stroke-width="0.27" d="M250.47,-201.57C244.1,-190.17 231.84,-168.26 219.25,-145.76"/>
<polygon fill="green" stroke="green" stroke-width="0.27" points="222.17,-143.81 214.23,-136.79 216.06,-147.23 222.17,-143.81"/>
</g>
<!-- VCoil22&#45;&gt;485 -->
<g id="edge8" class="edge">
<title>VCoil22&#45;&gt;485</title>
<path fill="none" stroke="green" stroke-width="0.57" d="M257.38,-201.57C262.77,-183.27 276.14,-137.87 285.4,-106.44"/>
<polygon fill="green" stroke="green" stroke-width="0.57" points="288.77,-107.36 288.24,-96.78 282.06,-105.38 288.77,-107.36"/>
</g>
<!-- VCoil22&#45;&gt;521 -->
<g id="edge6" class="edge">
<title>VCoil22&#45;&gt;521</title>
<path fill="none" stroke="red" stroke-width="0.11" stroke-dasharray="1,5" d="M265.03,-201.45C282.59,-187.02 318.04,-157.51 329,-145.66 341.35,-132.32 353.51,-116.12 363.06,-102.49"/>
<polygon fill="red" stroke="red" stroke-width="0.11" points="366.15,-104.18 368.94,-93.96 360.38,-100.21 366.15,-104.18"/>
</g>
<!-- 1250&#45;&gt;485 -->
<g id="edge11" class="edge">
<title>1250&#45;&gt;485</title>
<path fill="none" stroke="green" stroke-width="0.47" d="M321.32,-182.17C316.06,-160.52 308.71,-130.27 303.11,-107.23"/>
<polygon fill="green" stroke="green" stroke-width="0.47" points="306.44,-106.1 300.68,-97.21 299.64,-107.75 306.44,-106.1"/>
</g>
</g>
</svg>
