<?xml version="1.0" encoding="UTF-8" standalone="no"?>
<!DOCTYPE svg PUBLIC "-//W3C//DTD SVG 1.1//EN"
 "http://www.w3.org/Graphics/SVG/1.1/DTD/svg11.dtd">
<!-- Generated by graphviz version 2.43.0 (0)
 -->
<!-- Title: %3 Pages: 1 -->
<svg width="638pt" height="208pt"
 viewBox="0.00 0.00 638.00 207.66" xmlns="http://www.w3.org/2000/svg" xmlns:xlink="http://www.w3.org/1999/xlink">
<g id="graph0" class="graph" transform="scale(1 1) rotate(0) translate(4 203.66)">
<title>%3</title>
<polygon fill="white" stroke="transparent" points="-4,4 -4,-203.66 634,-203.66 634,4 -4,4"/>
<!-- Player_height -->
<g id="node1" class="node">
<title>Player_height</title>
<polygon fill="lightgray" stroke="black" points="80,-199.66 0,-199.66 0,-181.66 80,-181.66 80,-199.66"/>
<text text-anchor="middle" x="40" y="-188.46" font-family="Times,serif" font-size="9.00">Player_height</text>
</g>
<!-- Activate propulsor -->
<g id="node10" class="node">
<title>Activate propulsor</title>
<ellipse fill="lightblue" stroke="black" cx="287" cy="-72.83" rx="72.66" ry="72.66"/>
<text text-anchor="middle" x="287" y="-70.63" font-family="Times,serif" font-size="9.00">Activate propulsor</text>
</g>
<!-- Player_height&#45;&gt;Activate propulsor -->
<g id="edge1" class="edge">
<title>Player_height&#45;&gt;Activate propulsor</title>
<path fill="none" stroke="green" stroke-width="0.39" d="M57.37,-181.52C89.08,-166.65 158.08,-134.29 212.21,-108.91"/>
<polygon fill="green" stroke="green" stroke-width="0.39" points="213.87,-111.99 221.44,-104.58 210.9,-105.65 213.87,-111.99"/>
</g>
<!-- HCoil1 -->
<g id="node2" class="node">
<title>HCoil1</title>
<polygon fill="lightgray" stroke="black" points="146,-199.66 98,-199.66 98,-181.66 146,-181.66 146,-199.66"/>
<text text-anchor="middle" x="122" y="-188.46" font-family="Times,serif" font-size="9.00">HCoil1</text>
</g>
<!-- HCoil1&#45;&gt;Activate propulsor -->
<g id="edge2" class="edge">
<title>HCoil1&#45;&gt;Activate propulsor</title>
<path fill="none" stroke="red" stroke-width="0.28" d="M133.6,-181.52C151.38,-169.04 186.69,-144.25 218.96,-121.59"/>
<polygon fill="red" stroke="red" stroke-width="0.28" points="221.35,-124.19 227.53,-115.58 217.33,-118.46 221.35,-124.19"/>
</g>
<!-- HCoil2 -->
<g id="node3" class="node">
<title>HCoil2</title>
<polygon fill="lightgray" stroke="black" points="630,-199.66 582,-199.66 582,-181.66 630,-181.66 630,-199.66"/>
<text text-anchor="middle" x="606" y="-188.46" font-family="Times,serif" font-size="9.00">HCoil2</text>
</g>
<!-- VCoil1 -->
<g id="node4" class="node">
<title>VCoil1</title>
<polygon fill="lightgray" stroke="black" points="211.5,-199.66 164.5,-199.66 164.5,-181.66 211.5,-181.66 211.5,-199.66"/>
<text text-anchor="middle" x="188" y="-188.46" font-family="Times,serif" font-size="9.00">VCoil1</text>
</g>
<!-- VCoil1&#45;&gt;Activate propulsor -->
<g id="edge3" class="edge">
<title>VCoil1&#45;&gt;Activate propulsor</title>
<path fill="none" stroke="red" stroke-width="0.18" d="M195.12,-181.33C203.5,-171.53 218.21,-154.31 233.44,-136.5"/>
<polygon fill="red" stroke="red" stroke-width="0.18" points="236.15,-138.72 239.98,-128.84 230.82,-134.17 236.15,-138.72"/>
</g>
<!-- VCoil2 -->
<g id="node5" class="node">
<title>VCoil2</title>
<polygon fill="lightgray" stroke="black" points="276.5,-199.66 229.5,-199.66 229.5,-181.66 276.5,-181.66 276.5,-199.66"/>
<text text-anchor="middle" x="253" y="-188.46" font-family="Times,serif" font-size="9.00">VCoil2</text>
</g>
<!-- VCoil2&#45;&gt;Activate propulsor -->
<g id="edge4" class="edge">
<title>VCoil2&#45;&gt;Activate propulsor</title>
<path fill="none" stroke="green" stroke-width="0.12" d="M255.45,-181.33C257.42,-174.61 260.42,-164.39 263.8,-152.88"/>
<polygon fill="green" stroke="green" stroke-width="0.12" points="267.25,-153.54 266.71,-142.96 260.53,-151.57 267.25,-153.54"/>
</g>
<!-- HCoil12 -->
<g id="node6" class="node">
<title>HCoil12</title>
<polygon fill="lightgray" stroke="black" points="349,-199.66 295,-199.66 295,-181.66 349,-181.66 349,-199.66"/>
<text text-anchor="middle" x="322" y="-188.46" font-family="Times,serif" font-size="9.00">HCoil12</text>
</g>
<!-- HCoil12&#45;&gt;Activate propulsor -->
<g id="edge5" class="edge">
<title>HCoil12&#45;&gt;Activate propulsor</title>
<path fill="none" stroke="green" stroke-width="0.11" d="M319.48,-181.33C317.42,-174.5 314.26,-164.06 310.72,-152.33"/>
<polygon fill="green" stroke="green" stroke-width="0.11" points="314.05,-151.24 307.8,-142.68 307.35,-153.27 314.05,-151.24"/>
</g>
<!-- HCoil22 -->
<g id="node7" class="node">
<title>HCoil22</title>
<polygon fill="lightgray" stroke="black" points="421,-199.66 367,-199.66 367,-181.66 421,-181.66 421,-199.66"/>
<text text-anchor="middle" x="394" y="-188.46" font-family="Times,serif" font-size="9.00">HCoil22</text>
</g>
<!-- HCoil22&#45;&gt;Activate propulsor -->
<g id="edge6" class="edge">
<title>HCoil22&#45;&gt;Activate propulsor</title>
<path fill="none" stroke="green" stroke-width="0.11" d="M386.3,-181.33C376.87,-171.12 360.01,-152.87 342.83,-134.27"/>
<polygon fill="green" stroke="green" stroke-width="0.11" points="345.34,-131.83 335.99,-126.86 340.2,-136.58 345.34,-131.83"/>
</g>
<!-- VCoil12 -->
<g id="node8" class="node">
<title>VCoil12</title>
<polygon fill="lightgray" stroke="black" points="492.5,-199.66 439.5,-199.66 439.5,-181.66 492.5,-181.66 492.5,-199.66"/>
<text text-anchor="middle" x="466" y="-188.46" font-family="Times,serif" font-size="9.00">VCoil12</text>
</g>
<!-- VCoil12&#45;&gt;Activate propulsor -->
<g id="edge7" class="edge">
<title>VCoil12&#45;&gt;Activate propulsor</title>
<path fill="none" stroke="red" stroke-width="0.2" d="M453.41,-181.52C433.3,-168.5 392.49,-142.1 356.33,-118.69"/>
<polygon fill="red" stroke="red" stroke-width="0.2" points="358.03,-115.62 347.73,-113.13 354.22,-121.5 358.03,-115.62"/>
</g>
<!-- VCoil22 -->
<g id="node9" class="node">
<title>VCoil22</title>
<polygon fill="lightgray" stroke="black" points="563.5,-199.66 510.5,-199.66 510.5,-181.66 563.5,-181.66 563.5,-199.66"/>
<text text-anchor="middle" x="537" y="-188.46" font-family="Times,serif" font-size="9.00">VCoil22</text>
</g>
<!-- VCoil22&#45;&gt;Activate propulsor -->
<g id="edge8" class="edge">
<title>VCoil22&#45;&gt;Activate propulsor</title>
<path fill="none" stroke="red" stroke-width="0.64" d="M519.42,-181.52C487.22,-166.6 417.03,-134.08 362.16,-108.66"/>
<polygon fill="red" stroke="red" stroke-width="0.64" points="363.35,-105.35 352.81,-104.32 360.41,-111.7 363.35,-105.35"/>
</g>
</g>
</svg>
