<?xml version="1.0" encoding="UTF-8" standalone="no"?>
<!DOCTYPE svg PUBLIC "-//W3C//DTD SVG 1.1//EN"
 "http://www.w3.org/Graphics/SVG/1.1/DTD/svg11.dtd">
<!-- Generated by graphviz version 2.43.0 (0)
 -->
<!-- Title: %3 Pages: 1 -->
<svg width="638pt" height="293pt"
 viewBox="0.00 0.00 638.00 293.16" xmlns="http://www.w3.org/2000/svg" xmlns:xlink="http://www.w3.org/1999/xlink">
<g id="graph0" class="graph" transform="scale(1 1) rotate(0) translate(4 289.16)">
<title>%3</title>
<polygon fill="white" stroke="transparent" points="-4,4 -4,-289.16 634,-289.16 634,4 -4,4"/>
<!-- Player_height -->
<g id="node1" class="node">
<title>Player_height</title>
<polygon fill="lightgray" stroke="black" points="80,-285.16 0,-285.16 0,-267.16 80,-267.16 80,-285.16"/>
<text text-anchor="middle" x="40" y="-273.96" font-family="Times,serif" font-size="9.00">Player_height</text>
</g>
<!-- 1195 -->
<g id="node12" class="node">
<title>1195</title>
<ellipse fill="white" stroke="black" cx="100" cy="-158.33" rx="28.98" ry="28.98"/>
<text text-anchor="middle" x="100" y="-156.13" font-family="Times,serif" font-size="9.00">1195</text>
</g>
<!-- Player_height&#45;&gt;1195 -->
<g id="edge8" class="edge">
<title>Player_height&#45;&gt;1195</title>
<path fill="none" stroke="green" stroke-width="0.37" d="M44.32,-266.83C52.16,-251.68 69.18,-218.82 82.35,-193.39"/>
<polygon fill="green" stroke="green" stroke-width="0.37" points="85.52,-194.9 87.01,-184.41 79.3,-191.68 85.52,-194.9"/>
</g>
<!-- HCoil1 -->
<g id="node2" class="node">
<title>HCoil1</title>
<polygon fill="lightgray" stroke="black" points="492,-285.16 444,-285.16 444,-267.16 492,-267.16 492,-285.16"/>
<text text-anchor="middle" x="468" y="-273.96" font-family="Times,serif" font-size="9.00">HCoil1</text>
</g>
<!-- HCoil2 -->
<g id="node3" class="node">
<title>HCoil2</title>
<polygon fill="lightgray" stroke="black" points="558,-285.16 510,-285.16 510,-267.16 558,-267.16 558,-285.16"/>
<text text-anchor="middle" x="534" y="-273.96" font-family="Times,serif" font-size="9.00">HCoil2</text>
</g>
<!-- VCoil1 -->
<g id="node4" class="node">
<title>VCoil1</title>
<polygon fill="lightgray" stroke="black" points="210.5,-285.16 163.5,-285.16 163.5,-267.16 210.5,-267.16 210.5,-285.16"/>
<text text-anchor="middle" x="187" y="-273.96" font-family="Times,serif" font-size="9.00">VCoil1</text>
</g>
<!-- Activate propulsor -->
<g id="node10" class="node">
<title>Activate propulsor</title>
<ellipse fill="lightblue" stroke="black" cx="220" cy="-158.33" rx="72.66" ry="72.66"/>
<text text-anchor="middle" x="220" y="-156.13" font-family="Times,serif" font-size="9.00">Activate propulsor</text>
</g>
<!-- VCoil1&#45;&gt;Activate propulsor -->
<g id="edge1" class="edge">
<title>VCoil1&#45;&gt;Activate propulsor</title>
<path fill="none" stroke="red" stroke-width="0.78" d="M189.37,-266.83C191.29,-260.1 194.2,-249.89 197.48,-238.38"/>
<polygon fill="red" stroke="red" stroke-width="0.78" points="200.93,-239.04 200.3,-228.46 194.2,-237.12 200.93,-239.04"/>
</g>
<!-- VCoil2 -->
<g id="node5" class="node">
<title>VCoil2</title>
<polygon fill="lightgray" stroke="black" points="145.5,-285.16 98.5,-285.16 98.5,-267.16 145.5,-267.16 145.5,-285.16"/>
<text text-anchor="middle" x="122" y="-273.96" font-family="Times,serif" font-size="9.00">VCoil2</text>
</g>
<!-- VCoil2&#45;&gt;Activate propulsor -->
<g id="edge2" class="edge">
<title>VCoil2&#45;&gt;Activate propulsor</title>
<path fill="none" stroke="green" stroke-width="0.99" d="M129.05,-266.83C137.23,-257.16 151.51,-240.28 166.37,-222.72"/>
<polygon fill="green" stroke="green" stroke-width="0.99" points="169.43,-224.52 173.22,-214.62 164.09,-220 169.43,-224.52"/>
</g>
<!-- VCoil2&#45;&gt;1195 -->
<g id="edge12" class="edge">
<title>VCoil2&#45;&gt;1195</title>
<path fill="none" stroke="red" stroke-width="0.13" d="M120.42,-266.83C117.68,-252.42 111.91,-222.01 107.19,-197.2"/>
<polygon fill="red" stroke="red" stroke-width="0.13" points="110.62,-196.49 105.32,-187.32 103.74,-197.8 110.62,-196.49"/>
</g>
<!-- HCoil12 -->
<g id="node6" class="node">
<title>HCoil12</title>
<polygon fill="lightgray" stroke="black" points="630,-285.16 576,-285.16 576,-267.16 630,-267.16 630,-285.16"/>
<text text-anchor="middle" x="603" y="-273.96" font-family="Times,serif" font-size="9.00">HCoil12</text>
</g>
<!-- HCoil22 -->
<g id="node7" class="node">
<title>HCoil22</title>
<polygon fill="lightgray" stroke="black" points="354,-285.16 300,-285.16 300,-267.16 354,-267.16 354,-285.16"/>
<text text-anchor="middle" x="327" y="-273.96" font-family="Times,serif" font-size="9.00">HCoil22</text>
</g>
<!-- 521 -->
<g id="node11" class="node">
<title>521</title>
<ellipse fill="white" stroke="black" cx="336" cy="-158.33" rx="25" ry="25"/>
<text text-anchor="middle" x="336" y="-156.13" font-family="Times,serif" font-size="9.00">521</text>
</g>
<!-- HCoil22&#45;&gt;521 -->
<g id="edge4" class="edge">
<title>HCoil22&#45;&gt;521</title>
<path fill="none" stroke="red" stroke-width="0.24" d="M327.65,-266.83C328.82,-251.69 331.37,-218.89 333.35,-193.48"/>
<polygon fill="red" stroke="red" stroke-width="0.24" points="336.84,-193.7 334.12,-183.46 329.86,-193.16 336.84,-193.7"/>
</g>
<!-- VCoil12 -->
<g id="node8" class="node">
<title>VCoil12</title>
<polygon fill="lightgray" stroke="black" points="281.5,-285.16 228.5,-285.16 228.5,-267.16 281.5,-267.16 281.5,-285.16"/>
<text text-anchor="middle" x="255" y="-273.96" font-family="Times,serif" font-size="9.00">VCoil12</text>
</g>
<!-- VCoil12&#45;&gt;Activate propulsor -->
<g id="edge7" class="edge">
<title>VCoil12&#45;&gt;Activate propulsor</title>
<path fill="none" stroke="green" stroke-width="0.19" d="M252.48,-266.83C250.42,-260 247.26,-249.56 243.72,-237.82"/>
<polygon fill="green" stroke="green" stroke-width="0.19" points="247.05,-236.74 240.8,-228.18 240.35,-238.77 247.05,-236.74"/>
</g>
<!-- VCoil22 -->
<g id="node9" class="node">
<title>VCoil22</title>
<polygon fill="lightgray" stroke="black" points="425.5,-285.16 372.5,-285.16 372.5,-267.16 425.5,-267.16 425.5,-285.16"/>
<text text-anchor="middle" x="399" y="-273.96" font-family="Times,serif" font-size="9.00">VCoil22</text>
</g>
<!-- VCoil22&#45;&gt;Activate propulsor -->
<g id="edge3" class="edge">
<title>VCoil22&#45;&gt;Activate propulsor</title>
<path fill="none" stroke="red" stroke-width="0.13" d="M376.47,-267.12C356.18,-259.38 325.93,-246.59 302,-231.16 294.8,-226.52 287.58,-221.27 280.57,-215.78"/>
<polygon fill="red" stroke="red" stroke-width="0.13" points="282.44,-212.79 272.46,-209.24 278.05,-218.24 282.44,-212.79"/>
</g>
<!-- VCoil22&#45;&gt;521 -->
<g id="edge6" class="edge">
<title>VCoil22&#45;&gt;521</title>
<path fill="none" stroke="red" stroke-width="0.45" d="M394.57,-267.05C389.75,-258.23 381.82,-243.7 375,-231.16 367.52,-217.42 359.25,-202.19 352.26,-189.31"/>
<polygon fill="red" stroke="red" stroke-width="0.45" points="355.27,-187.51 347.42,-180.39 349.12,-190.85 355.27,-187.51"/>
</g>
<!-- 888 -->
<g id="node13" class="node">
<title>888</title>
<ellipse fill="white" stroke="black" cx="389" cy="-24.75" rx="25" ry="25"/>
<text text-anchor="middle" x="389" y="-22.55" font-family="Times,serif" font-size="9.00">888</text>
</g>
<!-- VCoil22&#45;&gt;888 -->
<g id="edge5" class="edge">
<title>VCoil22&#45;&gt;888</title>
<path fill="none" stroke="green" stroke-width="0.93" stroke-dasharray="1,5" d="M398.68,-267.15C397.41,-235.59 392.73,-118.8 390.37,-60.01"/>
<polygon fill="green" stroke="green" stroke-width="0.93" points="393.86,-59.6 389.96,-49.75 386.87,-59.88 393.86,-59.6"/>
</g>
<!-- 1274 -->
<g id="node14" class="node">
<title>1274</title>
<ellipse fill="white" stroke="black" cx="446" cy="-158.33" rx="28.98" ry="28.98"/>
<text text-anchor="middle" x="446" y="-156.13" font-family="Times,serif" font-size="9.00">1274</text>
</g>
<!-- VCoil22&#45;&gt;1274 -->
<g id="edge10" class="edge">
<title>VCoil22&#45;&gt;1274</title>
<path fill="none" stroke="green" stroke-width="0.21" d="M402.38,-266.83C408.43,-251.93 421.42,-219.9 431.66,-194.66"/>
<polygon fill="green" stroke="green" stroke-width="0.21" points="434.92,-195.95 435.43,-185.37 428.43,-193.32 434.92,-195.95"/>
</g>
<!-- 1195&#45;&gt;888 -->
<g id="edge9" class="edge">
<title>1195&#45;&gt;888</title>
<path fill="none" stroke="green" stroke-width="0.13" d="M108.02,-130.42C113.93,-115.08 123.5,-96.73 138,-85.5 202.28,-35.72 301.58,-26.49 353.93,-25.34"/>
<polygon fill="green" stroke="green" stroke-width="0.13" points="354.1,-28.83 364.05,-25.2 354.01,-21.84 354.1,-28.83"/>
</g>
<!-- 1274&#45;&gt;888 -->
<g id="edge11" class="edge">
<title>1274&#45;&gt;888</title>
<path fill="none" stroke="red" stroke-width="0.14" d="M434.74,-131.33C425.48,-109.97 412.34,-79.64 402.52,-56.96"/>
<polygon fill="red" stroke="red" stroke-width="0.14" points="405.72,-55.55 398.54,-47.76 399.3,-58.33 405.72,-55.55"/>
</g>
</g>
</svg>
