<?xml version="1.0" encoding="UTF-8" standalone="no"?>
<!DOCTYPE svg PUBLIC "-//W3C//DTD SVG 1.1//EN"
 "http://www.w3.org/Graphics/SVG/1.1/DTD/svg11.dtd">
<!-- Generated by graphviz version 2.43.0 (0)
 -->
<!-- Title: %3 Pages: 1 -->
<svg width="666pt" height="387pt"
 viewBox="0.00 0.00 665.50 387.14" xmlns="http://www.w3.org/2000/svg" xmlns:xlink="http://www.w3.org/1999/xlink">
<g id="graph0" class="graph" transform="scale(1 1) rotate(0) translate(4 383.14)">
<title>%3</title>
<polygon fill="white" stroke="transparent" points="-4,4 -4,-383.14 661.5,-383.14 661.5,4 -4,4"/>
<!-- Player_height -->
<g id="node1" class="node">
<title>Player_height</title>
<polygon fill="lightgray" stroke="black" points="80,-215.41 0,-215.41 0,-197.41 80,-197.41 80,-215.41"/>
<text text-anchor="middle" x="40" y="-204.21" font-family="Times,serif" font-size="9.00">Player_height</text>
</g>
<!-- Activate propulsor -->
<g id="node10" class="node">
<title>Activate propulsor</title>
<ellipse fill="lightblue" stroke="black" cx="154" cy="-72.83" rx="72.66" ry="72.66"/>
<text text-anchor="middle" x="154" y="-70.63" font-family="Times,serif" font-size="9.00">Activate propulsor</text>
</g>
<!-- Player_height&#45;&gt;Activate propulsor -->
<g id="edge6" class="edge">
<title>Player_height&#45;&gt;Activate propulsor</title>
<path fill="none" stroke="green" stroke-width="0.24" d="M47.13,-197.18C57.86,-184.79 79.13,-160.25 99.88,-136.3"/>
<polygon fill="green" stroke="green" stroke-width="0.24" points="102.68,-138.41 106.59,-128.56 97.39,-133.82 102.68,-138.41"/>
</g>
<!-- HCoil1 -->
<g id="node2" class="node">
<title>HCoil1</title>
<polygon fill="lightgray" stroke="black" points="376,-379.14 328,-379.14 328,-361.14 376,-361.14 376,-379.14"/>
<text text-anchor="middle" x="352" y="-367.94" font-family="Times,serif" font-size="9.00">HCoil1</text>
</g>
<!-- 521 -->
<g id="node11" class="node">
<title>521</title>
<ellipse fill="white" stroke="black" cx="352" cy="-296.15" rx="25" ry="25"/>
<text text-anchor="middle" x="352" y="-293.95" font-family="Times,serif" font-size="9.00">521</text>
</g>
<!-- HCoil1&#45;&gt;521 -->
<g id="edge5" class="edge">
<title>HCoil1&#45;&gt;521</title>
<path fill="none" stroke="green" stroke-width="0.63" d="M352,-360.89C352,-353.48 352,-342.09 352,-330.98"/>
<polygon fill="green" stroke="green" stroke-width="0.63" points="355.5,-330.98 352,-320.98 348.5,-330.98 355.5,-330.98"/>
</g>
<!-- HCoil2 -->
<g id="node3" class="node">
<title>HCoil2</title>
<polygon fill="lightgray" stroke="black" points="442,-379.14 394,-379.14 394,-361.14 442,-361.14 442,-379.14"/>
<text text-anchor="middle" x="418" y="-367.94" font-family="Times,serif" font-size="9.00">HCoil2</text>
</g>
<!-- VCoil1 -->
<g id="node4" class="node">
<title>VCoil1</title>
<polygon fill="lightgray" stroke="black" points="145.5,-215.41 98.5,-215.41 98.5,-197.41 145.5,-197.41 145.5,-215.41"/>
<text text-anchor="middle" x="122" y="-204.21" font-family="Times,serif" font-size="9.00">VCoil1</text>
</g>
<!-- VCoil1&#45;&gt;Activate propulsor -->
<g id="edge1" class="edge">
<title>VCoil1&#45;&gt;Activate propulsor</title>
<path fill="none" stroke="red" stroke-width="0.71" d="M124,-197.18C126.28,-187.83 130.24,-171.55 134.55,-153.83"/>
<polygon fill="red" stroke="red" stroke-width="0.71" points="138.01,-154.41 136.97,-143.86 131.2,-152.75 138.01,-154.41"/>
</g>
<!-- VCoil2 -->
<g id="node5" class="node">
<title>VCoil2</title>
<polygon fill="lightgray" stroke="black" points="210.5,-215.41 163.5,-215.41 163.5,-197.41 210.5,-197.41 210.5,-215.41"/>
<text text-anchor="middle" x="187" y="-204.21" font-family="Times,serif" font-size="9.00">VCoil2</text>
</g>
<!-- VCoil2&#45;&gt;Activate propulsor -->
<g id="edge2" class="edge">
<title>VCoil2&#45;&gt;Activate propulsor</title>
<path fill="none" stroke="green" stroke-width="0.94" d="M184.94,-197.18C182.58,-187.78 178.47,-171.38 173.99,-153.56"/>
<polygon fill="green" stroke="green" stroke-width="0.94" points="177.31,-152.39 171.48,-143.54 170.52,-154.09 177.31,-152.39"/>
</g>
<!-- HCoil12 -->
<g id="node6" class="node">
<title>HCoil12</title>
<polygon fill="lightgray" stroke="black" points="514,-379.14 460,-379.14 460,-361.14 514,-361.14 514,-379.14"/>
<text text-anchor="middle" x="487" y="-367.94" font-family="Times,serif" font-size="9.00">HCoil12</text>
</g>
<!-- HCoil22 -->
<g id="node7" class="node">
<title>HCoil22</title>
<polygon fill="lightgray" stroke="black" points="586,-379.14 532,-379.14 532,-361.14 586,-361.14 586,-379.14"/>
<text text-anchor="middle" x="559" y="-367.94" font-family="Times,serif" font-size="9.00">HCoil22</text>
</g>
<!-- VCoil12 -->
<g id="node8" class="node">
<title>VCoil12</title>
<polygon fill="lightgray" stroke="black" points="657.5,-379.14 604.5,-379.14 604.5,-361.14 657.5,-361.14 657.5,-379.14"/>
<text text-anchor="middle" x="631" y="-367.94" font-family="Times,serif" font-size="9.00">VCoil12</text>
</g>
<!-- VCoil22 -->
<g id="node9" class="node">
<title>VCoil22</title>
<polygon fill="lightgray" stroke="black" points="289.5,-379.14 236.5,-379.14 236.5,-361.14 289.5,-361.14 289.5,-379.14"/>
<text text-anchor="middle" x="263" y="-367.94" font-family="Times,serif" font-size="9.00">VCoil22</text>
</g>
<!-- 1271 -->
<g id="node12" class="node">
<title>1271</title>
<ellipse fill="white" stroke="black" cx="224" cy="-296.15" rx="28.98" ry="28.98"/>
<text text-anchor="middle" x="224" y="-293.95" font-family="Times,serif" font-size="9.00">1271</text>
</g>
<!-- VCoil22&#45;&gt;1271 -->
<g id="edge7" class="edge">
<title>VCoil22&#45;&gt;1271</title>
<path fill="none" stroke="green" stroke-width="0.13" d="M258.53,-360.89C254.48,-353.43 248.26,-341.93 242.2,-330.75"/>
<polygon fill="green" stroke="green" stroke-width="0.13" points="245.26,-329.05 237.42,-321.93 239.11,-332.39 245.26,-329.05"/>
</g>
<!-- 712 -->
<g id="node13" class="node">
<title>712</title>
<ellipse fill="white" stroke="black" cx="253" cy="-206.41" rx="25" ry="25"/>
<text text-anchor="middle" x="253" y="-204.21" font-family="Times,serif" font-size="9.00">712</text>
</g>
<!-- VCoil22&#45;&gt;712 -->
<g id="edge3" class="edge">
<title>VCoil22&#45;&gt;712</title>
<path fill="none" stroke="green" stroke-width="0.57" stroke-dasharray="1,5" d="M263.31,-360.93C263.87,-343.58 264.78,-301.93 262,-267.16 261.32,-258.61 260.15,-249.43 258.88,-240.89"/>
<polygon fill="green" stroke="green" stroke-width="0.57" points="262.32,-240.21 257.31,-230.88 255.41,-241.3 262.32,-240.21"/>
</g>
<!-- 1271&#45;&gt;712 -->
<g id="edge8" class="edge">
<title>1271&#45;&gt;712</title>
<path fill="none" stroke="green" stroke-width="0.74" d="M232.86,-268.35C235.82,-259.39 239.15,-249.31 242.24,-239.97"/>
<polygon fill="green" stroke="green" stroke-width="0.74" points="245.65,-240.8 245.47,-230.2 239.01,-238.6 245.65,-240.8"/>
</g>
<!-- 712&#45;&gt;Activate propulsor -->
<g id="edge4" class="edge">
<title>712&#45;&gt;Activate propulsor</title>
<path fill="none" stroke="green" stroke-width="0.27" d="M238.6,-186.28C229.25,-173.85 216.45,-156.83 203.63,-139.8"/>
<polygon fill="green" stroke="green" stroke-width="0.27" points="206.16,-137.34 197.36,-131.46 200.57,-141.55 206.16,-137.34"/>
</g>
</g>
</svg>
