<?xml version="1.0" encoding="UTF-8" standalone="no"?>
<!DOCTYPE svg PUBLIC "-//W3C//DTD SVG 1.1//EN"
 "http://www.w3.org/Graphics/SVG/1.1/DTD/svg11.dtd">
<!-- Generated by graphviz version 2.43.0 (0)
 -->
<!-- Title: %3 Pages: 1 -->
<svg width="562pt" height="302pt"
 viewBox="0.00 0.00 561.97 301.65" xmlns="http://www.w3.org/2000/svg" xmlns:xlink="http://www.w3.org/1999/xlink">
<g id="graph0" class="graph" transform="scale(1 1) rotate(0) translate(4 297.65)">
<title>%3</title>
<polygon fill="white" stroke="transparent" points="-4,4 -4,-297.65 557.97,-297.65 557.97,4 -4,4"/>
<!-- Player_height -->
<g id="node1" class="node">
<title>Player_height</title>
<polygon fill="lightgray" stroke="black" points="154.97,-293.65 74.97,-293.65 74.97,-275.65 154.97,-275.65 154.97,-293.65"/>
<text text-anchor="middle" x="114.97" y="-282.45" font-family="Times,serif" font-size="9.00">Player_height</text>
</g>
<!-- Activate propulsor -->
<g id="node10" class="node">
<title>Activate propulsor</title>
<ellipse fill="lightblue" stroke="black" cx="167.97" cy="-166.81" rx="72.66" ry="72.66"/>
<text text-anchor="middle" x="167.97" y="-164.61" font-family="Times,serif" font-size="9.00">Activate propulsor</text>
</g>
<!-- Player_height&#45;&gt;Activate propulsor -->
<g id="edge11" class="edge">
<title>Player_height&#45;&gt;Activate propulsor</title>
<path fill="none" stroke="green" stroke-width="0.29" d="M118.79,-275.32C122.24,-267.77 127.7,-255.84 133.75,-242.62"/>
<polygon fill="green" stroke="green" stroke-width="0.29" points="137.03,-243.85 138.01,-233.3 130.67,-240.94 137.03,-243.85"/>
</g>
<!-- HCoil1 -->
<g id="node2" class="node">
<title>HCoil1</title>
<polygon fill="lightgray" stroke="black" points="409.97,-293.65 361.97,-293.65 361.97,-275.65 409.97,-275.65 409.97,-293.65"/>
<text text-anchor="middle" x="385.97" y="-282.45" font-family="Times,serif" font-size="9.00">HCoil1</text>
</g>
<!-- HCoil2 -->
<g id="node3" class="node">
<title>HCoil2</title>
<polygon fill="lightgray" stroke="black" points="306.97,-175.81 258.97,-175.81 258.97,-157.81 306.97,-157.81 306.97,-175.81"/>
<text text-anchor="middle" x="282.97" y="-164.61" font-family="Times,serif" font-size="9.00">HCoil2</text>
</g>
<!-- 485 -->
<g id="node11" class="node">
<title>485</title>
<ellipse fill="white" stroke="black" cx="109.97" cy="-28.99" rx="25" ry="25"/>
<text text-anchor="middle" x="109.97" y="-26.79" font-family="Times,serif" font-size="9.00">485</text>
</g>
<!-- HCoil2&#45;&gt;485 -->
<g id="edge3" class="edge">
<title>HCoil2&#45;&gt;485</title>
<path fill="none" stroke="red" stroke-width="0.19" stroke-dasharray="1,5" d="M281.21,-157.63C277.67,-143.05 268.43,-112.4 249.97,-93.98 220.49,-64.55 175.01,-47.24 143.94,-38.2"/>
<polygon fill="red" stroke="red" stroke-width="0.19" points="144.57,-34.74 134,-35.44 142.7,-41.48 144.57,-34.74"/>
</g>
<!-- 1204 -->
<g id="node13" class="node">
<title>1204</title>
<ellipse fill="white" stroke="black" cx="282.97" cy="-28.99" rx="28.98" ry="28.98"/>
<text text-anchor="middle" x="282.97" y="-26.79" font-family="Times,serif" font-size="9.00">1204</text>
</g>
<!-- HCoil2&#45;&gt;1204 -->
<g id="edge7" class="edge">
<title>HCoil2&#45;&gt;1204</title>
<path fill="none" stroke="green" stroke-width="0.16" d="M282.97,-157.73C282.97,-140.49 282.97,-99.17 282.97,-68.16"/>
<polygon fill="green" stroke="green" stroke-width="0.16" points="286.47,-68.09 282.97,-58.09 279.47,-68.09 286.47,-68.09"/>
</g>
<!-- VCoil1 -->
<g id="node4" class="node">
<title>VCoil1</title>
<polygon fill="lightgray" stroke="black" points="343.47,-293.65 296.47,-293.65 296.47,-275.65 343.47,-275.65 343.47,-293.65"/>
<text text-anchor="middle" x="319.97" y="-282.45" font-family="Times,serif" font-size="9.00">VCoil1</text>
</g>
<!-- VCoil1&#45;&gt;Activate propulsor -->
<g id="edge1" class="edge">
<title>VCoil1&#45;&gt;Activate propulsor</title>
<path fill="none" stroke="red" stroke-width="0.37" d="M305.6,-275.51C291.13,-267.12 268.39,-253.37 249.97,-239.65 243.1,-234.53 236.1,-228.97 229.22,-223.29"/>
<polygon fill="red" stroke="red" stroke-width="0.37" points="231.13,-220.33 221.22,-216.59 226.63,-225.7 231.13,-220.33"/>
</g>
<!-- 888 -->
<g id="node14" class="node">
<title>888</title>
<ellipse fill="white" stroke="black" cx="349.97" cy="-166.81" rx="25" ry="25"/>
<text text-anchor="middle" x="349.97" y="-164.61" font-family="Times,serif" font-size="9.00">888</text>
</g>
<!-- VCoil1&#45;&gt;888 -->
<g id="edge9" class="edge">
<title>VCoil1&#45;&gt;888</title>
<path fill="none" stroke="red" stroke-width="0.29" d="M322.13,-275.32C326.12,-259.93 334.83,-226.29 341.45,-200.71"/>
<polygon fill="red" stroke="red" stroke-width="0.29" points="344.85,-201.57 343.97,-191.01 338.07,-199.81 344.85,-201.57"/>
</g>
<!-- VCoil2 -->
<g id="node5" class="node">
<title>VCoil2</title>
<polygon fill="lightgray" stroke="black" points="220.47,-293.65 173.47,-293.65 173.47,-275.65 220.47,-275.65 220.47,-293.65"/>
<text text-anchor="middle" x="196.97" y="-282.45" font-family="Times,serif" font-size="9.00">VCoil2</text>
</g>
<!-- VCoil2&#45;&gt;Activate propulsor -->
<g id="edge2" class="edge">
<title>VCoil2&#45;&gt;Activate propulsor</title>
<path fill="none" stroke="green" stroke-width="0.85" d="M194.89,-275.32C193.24,-268.71 190.74,-258.74 187.92,-247.49"/>
<polygon fill="green" stroke="green" stroke-width="0.85" points="191.32,-246.63 185.49,-237.78 184.52,-248.33 191.32,-246.63"/>
</g>
<!-- HCoil12 -->
<g id="node6" class="node">
<title>HCoil12</title>
<polygon fill="lightgray" stroke="black" points="481.97,-293.65 427.97,-293.65 427.97,-275.65 481.97,-275.65 481.97,-293.65"/>
<text text-anchor="middle" x="454.97" y="-282.45" font-family="Times,serif" font-size="9.00">HCoil12</text>
</g>
<!-- HCoil22 -->
<g id="node7" class="node">
<title>HCoil22</title>
<polygon fill="lightgray" stroke="black" points="553.97,-293.65 499.97,-293.65 499.97,-275.65 553.97,-275.65 553.97,-293.65"/>
<text text-anchor="middle" x="526.97" y="-282.45" font-family="Times,serif" font-size="9.00">HCoil22</text>
</g>
<!-- 521 -->
<g id="node12" class="node">
<title>521</title>
<ellipse fill="white" stroke="black" cx="526.97" cy="-166.81" rx="25" ry="25"/>
<text text-anchor="middle" x="526.97" y="-164.61" font-family="Times,serif" font-size="9.00">521</text>
</g>
<!-- HCoil22&#45;&gt;521 -->
<g id="edge4" class="edge">
<title>HCoil22&#45;&gt;521</title>
<path fill="none" stroke="green" stroke-width="0.85" d="M526.97,-275.32C526.97,-260.18 526.97,-227.38 526.97,-201.97"/>
<polygon fill="green" stroke="green" stroke-width="0.85" points="530.47,-201.95 526.97,-191.95 523.47,-201.95 530.47,-201.95"/>
</g>
<!-- VCoil12 -->
<g id="node8" class="node">
<title>VCoil12</title>
<polygon fill="lightgray" stroke="black" points="54.47,-293.65 1.47,-293.65 1.47,-275.65 54.47,-275.65 54.47,-293.65"/>
<text text-anchor="middle" x="27.97" y="-282.45" font-family="Times,serif" font-size="9.00">VCoil12</text>
</g>
<!-- VCoil12&#45;&gt;Activate propulsor -->
<g id="edge5" class="edge">
<title>VCoil12&#45;&gt;Activate propulsor</title>
<path fill="none" stroke="green" stroke-width="0.47" d="M39.27,-275.44C51.1,-266.77 70.11,-252.59 85.97,-239.65 92.51,-234.32 99.26,-228.66 105.94,-222.97"/>
<polygon fill="green" stroke="green" stroke-width="0.47" points="108.43,-225.44 113.74,-216.27 103.87,-220.13 108.43,-225.44"/>
</g>
<!-- VCoil12&#45;&gt;485 -->
<g id="edge8" class="edge">
<title>VCoil12&#45;&gt;485</title>
<path fill="none" stroke="red" stroke-width="0.15" d="M24.52,-275.43C13.47,-247.83 -18.36,-156.63 14.97,-93.98 28.08,-69.36 55.33,-52.51 77.31,-42.31"/>
<polygon fill="red" stroke="red" stroke-width="0.15" points="78.9,-45.43 86.65,-38.21 76.09,-39.02 78.9,-45.43"/>
</g>
<!-- VCoil22 -->
<g id="node9" class="node">
<title>VCoil22</title>
<polygon fill="lightgray" stroke="black" points="77.47,-175.81 24.47,-175.81 24.47,-157.81 77.47,-157.81 77.47,-175.81"/>
<text text-anchor="middle" x="50.97" y="-164.61" font-family="Times,serif" font-size="9.00">VCoil22</text>
</g>
<!-- VCoil22&#45;&gt;485 -->
<g id="edge6" class="edge">
<title>VCoil22&#45;&gt;485</title>
<path fill="none" stroke="green" stroke-width="0.39" stroke-dasharray="1,5" d="M54.49,-157.73C62.56,-139.14 82.78,-92.6 96.45,-61.13"/>
<polygon fill="green" stroke="green" stroke-width="0.39" points="99.68,-62.47 100.46,-51.9 93.26,-59.68 99.68,-62.47"/>
</g>
<!-- Activate propulsor&#45;&gt;485 -->
<g id="edge10" class="edge">
<title>Activate propulsor&#45;&gt;485</title>
<path fill="none" stroke="red" stroke-width="0.21" d="M139.65,-99.49C134,-86.27 128.32,-72.96 123.46,-61.58"/>
<polygon fill="red" stroke="red" stroke-width="0.21" points="126.57,-59.94 119.42,-52.12 120.13,-62.69 126.57,-59.94"/>
</g>
</g>
</svg>
