<?xml version="1.0" encoding="UTF-8" standalone="no"?>
<!DOCTYPE svg PUBLIC "-//W3C//DTD SVG 1.1//EN"
 "http://www.w3.org/Graphics/SVG/1.1/DTD/svg11.dtd">
<!-- Generated by graphviz version 2.43.0 (0)
 -->
<!-- Title: %3 Pages: 1 -->
<svg width="639pt" height="302pt"
 viewBox="0.00 0.00 638.50 301.65" xmlns="http://www.w3.org/2000/svg" xmlns:xlink="http://www.w3.org/1999/xlink">
<g id="graph0" class="graph" transform="scale(1 1) rotate(0) translate(4 297.65)">
<title>%3</title>
<polygon fill="white" stroke="transparent" points="-4,4 -4,-297.65 634.5,-297.65 634.5,4 -4,4"/>
<!-- Player_height -->
<g id="node1" class="node">
<title>Player_height</title>
<polygon fill="lightgray" stroke="black" points="80,-219.66 0,-219.66 0,-201.66 80,-201.66 80,-219.66"/>
<text text-anchor="middle" x="40" y="-208.46" font-family="Times,serif" font-size="9.00">Player_height</text>
</g>
<!-- Activate propulsor -->
<g id="node10" class="node">
<title>Activate propulsor</title>
<ellipse fill="lightblue" stroke="black" cx="187" cy="-72.83" rx="72.66" ry="72.66"/>
<text text-anchor="middle" x="187" y="-70.63" font-family="Times,serif" font-size="9.00">Activate propulsor</text>
</g>
<!-- Player_height&#45;&gt;Activate propulsor -->
<g id="edge6" class="edge">
<title>Player_height&#45;&gt;Activate propulsor</title>
<path fill="none" stroke="green" stroke-width="0.43" d="M48.76,-201.57C63.97,-187.51 96.51,-157.45 126.19,-130.02"/>
<polygon fill="green" stroke="green" stroke-width="0.43" points="128.7,-132.47 133.67,-123.11 123.95,-127.33 128.7,-132.47"/>
</g>
<!-- HCoil1 -->
<g id="node2" class="node">
<title>HCoil1</title>
<polygon fill="lightgray" stroke="black" points="421,-293.65 373,-293.65 373,-275.65 421,-275.65 421,-293.65"/>
<text text-anchor="middle" x="397" y="-282.45" font-family="Times,serif" font-size="9.00">HCoil1</text>
</g>
<!-- HCoil2 -->
<g id="node3" class="node">
<title>HCoil2</title>
<polygon fill="lightgray" stroke="black" points="487,-293.65 439,-293.65 439,-275.65 487,-275.65 487,-293.65"/>
<text text-anchor="middle" x="463" y="-282.45" font-family="Times,serif" font-size="9.00">HCoil2</text>
</g>
<!-- VCoil1 -->
<g id="node4" class="node">
<title>VCoil1</title>
<polygon fill="lightgray" stroke="black" points="145.5,-219.66 98.5,-219.66 98.5,-201.66 145.5,-201.66 145.5,-219.66"/>
<text text-anchor="middle" x="122" y="-208.46" font-family="Times,serif" font-size="9.00">VCoil1</text>
</g>
<!-- VCoil1&#45;&gt;Activate propulsor -->
<g id="edge1" class="edge">
<title>VCoil1&#45;&gt;Activate propulsor</title>
<path fill="none" stroke="red" stroke-width="0.51" d="M125.87,-201.57C131.13,-190.57 141.08,-169.79 151.44,-148.13"/>
<polygon fill="red" stroke="red" stroke-width="0.51" points="154.74,-149.35 155.9,-138.82 148.42,-146.33 154.74,-149.35"/>
</g>
<!-- VCoil2 -->
<g id="node5" class="node">
<title>VCoil2</title>
<polygon fill="lightgray" stroke="black" points="210.5,-219.66 163.5,-219.66 163.5,-201.66 210.5,-201.66 210.5,-219.66"/>
<text text-anchor="middle" x="187" y="-208.46" font-family="Times,serif" font-size="9.00">VCoil2</text>
</g>
<!-- VCoil2&#45;&gt;Activate propulsor -->
<g id="edge2" class="edge">
<title>VCoil2&#45;&gt;Activate propulsor</title>
<path fill="none" stroke="green" stroke-width="0.87" d="M187,-201.57C187,-191.93 187,-174.78 187,-156.11"/>
<polygon fill="green" stroke="green" stroke-width="0.87" points="190.5,-155.93 187,-145.94 183.5,-155.94 190.5,-155.93"/>
</g>
<!-- HCoil12 -->
<g id="node6" class="node">
<title>HCoil12</title>
<polygon fill="lightgray" stroke="black" points="355,-293.65 301,-293.65 301,-275.65 355,-275.65 355,-293.65"/>
<text text-anchor="middle" x="328" y="-282.45" font-family="Times,serif" font-size="9.00">HCoil12</text>
</g>
<!-- 1397 -->
<g id="node11" class="node">
<title>1397</title>
<ellipse fill="white" stroke="black" cx="328" cy="-210.66" rx="28.98" ry="28.98"/>
<text text-anchor="middle" x="328" y="-208.46" font-family="Times,serif" font-size="9.00">1397</text>
</g>
<!-- HCoil12&#45;&gt;1397 -->
<g id="edge5" class="edge">
<title>HCoil12&#45;&gt;1397</title>
<path fill="none" stroke="red" stroke-width="0.57" d="M328,-275.39C328,-268.92 328,-259.42 328,-249.72"/>
<polygon fill="red" stroke="red" stroke-width="0.57" points="331.5,-249.65 328,-239.65 324.5,-249.65 331.5,-249.65"/>
</g>
<!-- HCoil22 -->
<g id="node7" class="node">
<title>HCoil22</title>
<polygon fill="lightgray" stroke="black" points="559,-293.65 505,-293.65 505,-275.65 559,-275.65 559,-293.65"/>
<text text-anchor="middle" x="532" y="-282.45" font-family="Times,serif" font-size="9.00">HCoil22</text>
</g>
<!-- VCoil12 -->
<g id="node8" class="node">
<title>VCoil12</title>
<polygon fill="lightgray" stroke="black" points="630.5,-293.65 577.5,-293.65 577.5,-275.65 630.5,-275.65 630.5,-293.65"/>
<text text-anchor="middle" x="604" y="-282.45" font-family="Times,serif" font-size="9.00">VCoil12</text>
</g>
<!-- VCoil22 -->
<g id="node9" class="node">
<title>VCoil22</title>
<polygon fill="lightgray" stroke="black" points="281.5,-219.66 228.5,-219.66 228.5,-201.66 281.5,-201.66 281.5,-219.66"/>
<text text-anchor="middle" x="255" y="-208.46" font-family="Times,serif" font-size="9.00">VCoil22</text>
</g>
<!-- VCoil22&#45;&gt;Activate propulsor -->
<g id="edge3" class="edge">
<title>VCoil22&#45;&gt;Activate propulsor</title>
<path fill="none" stroke="green" stroke-width="0.34" d="M250.95,-201.57C245.4,-190.47 234.85,-169.41 223.9,-147.54"/>
<polygon fill="green" stroke="green" stroke-width="0.34" points="226.97,-145.86 219.37,-138.48 220.72,-148.99 226.97,-145.86"/>
</g>
<!-- 1397&#45;&gt;Activate propulsor -->
<g id="edge4" class="edge">
<title>1397&#45;&gt;Activate propulsor</title>
<path fill="none" stroke="green" stroke-width="0.26" d="M307.5,-189.91C291.44,-174.44 268.25,-152.1 246.5,-131.15"/>
<polygon fill="green" stroke="green" stroke-width="0.26" points="248.82,-128.52 239.19,-124.1 243.96,-133.56 248.82,-128.52"/>
</g>
</g>
</svg>
