<?xml version="1.0" encoding="UTF-8" standalone="no"?>
<!DOCTYPE svg PUBLIC "-//W3C//DTD SVG 1.1//EN"
 "http://www.w3.org/Graphics/SVG/1.1/DTD/svg11.dtd">
<!-- Generated by graphviz version 2.43.0 (0)
 -->
<!-- Title: %3 Pages: 1 -->
<svg width="638pt" height="208pt"
 viewBox="0.00 0.00 638.00 207.66" xmlns="http://www.w3.org/2000/svg" xmlns:xlink="http://www.w3.org/1999/xlink">
<g id="graph0" class="graph" transform="scale(1 1) rotate(0) translate(4 203.66)">
<title>%3</title>
<polygon fill="white" stroke="transparent" points="-4,4 -4,-203.66 634,-203.66 634,4 -4,4"/>
<!-- Player_height -->
<g id="node1" class="node">
<title>Player_height</title>
<polygon fill="lightgray" stroke="black" points="80,-199.66 0,-199.66 0,-181.66 80,-181.66 80,-199.66"/>
<text text-anchor="middle" x="40" y="-188.46" font-family="Times,serif" font-size="9.00">Player_height</text>
</g>
<!-- Activate propulsor -->
<g id="node10" class="node">
<title>Activate propulsor</title>
<ellipse fill="lightblue" stroke="black" cx="286" cy="-72.83" rx="72.66" ry="72.66"/>
<text text-anchor="middle" x="286" y="-70.63" font-family="Times,serif" font-size="9.00">Activate propulsor</text>
</g>
<!-- Player_height&#45;&gt;Activate propulsor -->
<g id="edge1" class="edge">
<title>Player_height&#45;&gt;Activate propulsor</title>
<path fill="none" stroke="red" stroke-width="0.2" d="M57.3,-181.52C88.83,-166.67 157.37,-134.4 211.24,-109.03"/>
<polygon fill="red" stroke="red" stroke-width="0.2" points="212.88,-112.13 220.44,-104.7 209.9,-105.8 212.88,-112.13"/>
</g>
<!-- HCoil1 -->
<g id="node2" class="node">
<title>HCoil1</title>
<polygon fill="lightgray" stroke="black" points="146,-199.66 98,-199.66 98,-181.66 146,-181.66 146,-199.66"/>
<text text-anchor="middle" x="122" y="-188.46" font-family="Times,serif" font-size="9.00">HCoil1</text>
</g>
<!-- HCoil1&#45;&gt;Activate propulsor -->
<g id="edge2" class="edge">
<title>HCoil1&#45;&gt;Activate propulsor</title>
<path fill="none" stroke="red" stroke-width="0.14" d="M133.53,-181.52C151.2,-169.04 186.3,-144.25 218.38,-121.59"/>
<polygon fill="red" stroke="red" stroke-width="0.14" points="220.74,-124.21 226.89,-115.58 216.7,-118.49 220.74,-124.21"/>
</g>
<!-- HCoil2 -->
<g id="node3" class="node">
<title>HCoil2</title>
<polygon fill="lightgray" stroke="black" points="212,-199.66 164,-199.66 164,-181.66 212,-181.66 212,-199.66"/>
<text text-anchor="middle" x="188" y="-188.46" font-family="Times,serif" font-size="9.00">HCoil2</text>
</g>
<!-- HCoil2&#45;&gt;Activate propulsor -->
<g id="edge3" class="edge">
<title>HCoil2&#45;&gt;Activate propulsor</title>
<path fill="none" stroke="green" stroke-width="0.2" d="M195.05,-181.33C203.23,-171.66 217.51,-154.78 232.37,-137.22"/>
<polygon fill="green" stroke="green" stroke-width="0.2" points="235.43,-139.02 239.22,-129.13 230.09,-134.5 235.43,-139.02"/>
</g>
<!-- VCoil1 -->
<g id="node4" class="node">
<title>VCoil1</title>
<polygon fill="lightgray" stroke="black" points="277.5,-199.66 230.5,-199.66 230.5,-181.66 277.5,-181.66 277.5,-199.66"/>
<text text-anchor="middle" x="254" y="-188.46" font-family="Times,serif" font-size="9.00">VCoil1</text>
</g>
<!-- VCoil1&#45;&gt;Activate propulsor -->
<g id="edge4" class="edge">
<title>VCoil1&#45;&gt;Activate propulsor</title>
<path fill="none" stroke="red" stroke-width="0.32" d="M256.3,-181.33C258.15,-174.65 260.95,-164.51 264.1,-153.09"/>
<polygon fill="red" stroke="red" stroke-width="0.32" points="267.54,-153.81 266.82,-143.24 260.79,-151.95 267.54,-153.81"/>
</g>
<!-- VCoil2 -->
<g id="node5" class="node">
<title>VCoil2</title>
<polygon fill="lightgray" stroke="black" points="342.5,-199.66 295.5,-199.66 295.5,-181.66 342.5,-181.66 342.5,-199.66"/>
<text text-anchor="middle" x="319" y="-188.46" font-family="Times,serif" font-size="9.00">VCoil2</text>
</g>
<!-- VCoil2&#45;&gt;Activate propulsor -->
<g id="edge5" class="edge">
<title>VCoil2&#45;&gt;Activate propulsor</title>
<path fill="none" stroke="red" stroke-width="0.2" stroke-dasharray="1,5" d="M316.63,-181.33C314.71,-174.61 311.8,-164.39 308.52,-152.88"/>
<polygon fill="red" stroke="red" stroke-width="0.2" points="311.8,-151.62 305.7,-142.96 305.07,-153.54 311.8,-151.62"/>
</g>
<!-- HCoil12 -->
<g id="node6" class="node">
<title>HCoil12</title>
<polygon fill="lightgray" stroke="black" points="630,-199.66 576,-199.66 576,-181.66 630,-181.66 630,-199.66"/>
<text text-anchor="middle" x="603" y="-188.46" font-family="Times,serif" font-size="9.00">HCoil12</text>
</g>
<!-- HCoil22 -->
<g id="node7" class="node">
<title>HCoil22</title>
<polygon fill="lightgray" stroke="black" points="415,-199.66 361,-199.66 361,-181.66 415,-181.66 415,-199.66"/>
<text text-anchor="middle" x="388" y="-188.46" font-family="Times,serif" font-size="9.00">HCoil22</text>
</g>
<!-- HCoil22&#45;&gt;Activate propulsor -->
<g id="edge6" class="edge">
<title>HCoil22&#45;&gt;Activate propulsor</title>
<path fill="none" stroke="green" stroke-width="0.56" stroke-dasharray="1,5" d="M380.66,-181.33C371.91,-171.39 356.45,-153.84 340.53,-135.75"/>
<polygon fill="green" stroke="green" stroke-width="0.56" points="342.93,-133.19 333.69,-127.99 337.68,-137.81 342.93,-133.19"/>
</g>
<!-- VCoil12 -->
<g id="node8" class="node">
<title>VCoil12</title>
<polygon fill="lightgray" stroke="black" points="486.5,-199.66 433.5,-199.66 433.5,-181.66 486.5,-181.66 486.5,-199.66"/>
<text text-anchor="middle" x="460" y="-188.46" font-family="Times,serif" font-size="9.00">VCoil12</text>
</g>
<!-- VCoil12&#45;&gt;Activate propulsor -->
<g id="edge7" class="edge">
<title>VCoil12&#45;&gt;Activate propulsor</title>
<path fill="none" stroke="red" stroke-width="0.22" d="M447.76,-181.52C428.51,-168.7 389.75,-142.9 354.99,-119.76"/>
<polygon fill="red" stroke="red" stroke-width="0.22" points="356.52,-116.57 346.26,-113.94 352.64,-122.4 356.52,-116.57"/>
</g>
<!-- VCoil22 -->
<g id="node9" class="node">
<title>VCoil22</title>
<polygon fill="lightgray" stroke="black" points="557.5,-199.66 504.5,-199.66 504.5,-181.66 557.5,-181.66 557.5,-199.66"/>
<text text-anchor="middle" x="531" y="-188.46" font-family="Times,serif" font-size="9.00">VCoil22</text>
</g>
<!-- VCoil22&#45;&gt;Activate propulsor -->
<g id="edge8" class="edge">
<title>VCoil22&#45;&gt;Activate propulsor</title>
<path fill="none" stroke="green" stroke-width="0.18" d="M513.77,-181.52C482.42,-166.7 414.33,-134.5 360.72,-109.16"/>
<polygon fill="green" stroke="green" stroke-width="0.18" points="362.1,-105.94 351.57,-104.83 359.11,-112.27 362.1,-105.94"/>
</g>
</g>
</svg>
