<?xml version="1.0" encoding="UTF-8" standalone="no"?>
<!DOCTYPE svg PUBLIC "-//W3C//DTD SVG 1.1//EN"
 "http://www.w3.org/Graphics/SVG/1.1/DTD/svg11.dtd">
<!-- Generated by graphviz version 2.43.0 (0)
 -->
<!-- Title: %3 Pages: 1 -->
<svg width="667pt" height="333pt"
 viewBox="0.00 0.00 666.50 333.14" xmlns="http://www.w3.org/2000/svg" xmlns:xlink="http://www.w3.org/1999/xlink">
<g id="graph0" class="graph" transform="scale(1 1) rotate(0) translate(4 329.14)">
<title>%3</title>
<polygon fill="white" stroke="transparent" points="-4,4 -4,-329.14 662.5,-329.14 662.5,4 -4,4"/>
<!-- Player_height -->
<g id="node1" class="node">
<title>Player_height</title>
<polygon fill="lightgray" stroke="black" points="80,-305.15 0,-305.15 0,-287.15 80,-287.15 80,-305.15"/>
<text text-anchor="middle" x="40" y="-293.95" font-family="Times,serif" font-size="9.00">Player_height</text>
</g>
<!-- HCoil1 -->
<g id="node2" class="node">
<title>HCoil1</title>
<polygon fill="lightgray" stroke="black" points="146,-305.15 98,-305.15 98,-287.15 146,-287.15 146,-305.15"/>
<text text-anchor="middle" x="122" y="-293.95" font-family="Times,serif" font-size="9.00">HCoil1</text>
</g>
<!-- HCoil2 -->
<g id="node3" class="node">
<title>HCoil2</title>
<polygon fill="lightgray" stroke="black" points="212,-305.15 164,-305.15 164,-287.15 212,-287.15 212,-305.15"/>
<text text-anchor="middle" x="188" y="-293.95" font-family="Times,serif" font-size="9.00">HCoil2</text>
</g>
<!-- VCoil1 -->
<g id="node4" class="node">
<title>VCoil1</title>
<polygon fill="lightgray" stroke="black" points="277.5,-305.15 230.5,-305.15 230.5,-287.15 277.5,-287.15 277.5,-305.15"/>
<text text-anchor="middle" x="254" y="-293.95" font-family="Times,serif" font-size="9.00">VCoil1</text>
</g>
<!-- Activate propulsor -->
<g id="node10" class="node">
<title>Activate propulsor</title>
<ellipse fill="lightblue" stroke="black" cx="319" cy="-158.33" rx="72.66" ry="72.66"/>
<text text-anchor="middle" x="319" y="-156.13" font-family="Times,serif" font-size="9.00">Activate propulsor</text>
</g>
<!-- VCoil1&#45;&gt;Activate propulsor -->
<g id="edge1" class="edge">
<title>VCoil1&#45;&gt;Activate propulsor</title>
<path fill="none" stroke="red" stroke-width="0.9" d="M257.87,-287.06C263.13,-276.07 273.08,-255.29 283.44,-233.63"/>
<polygon fill="red" stroke="red" stroke-width="0.9" points="286.74,-234.85 287.9,-224.32 280.42,-231.83 286.74,-234.85"/>
</g>
<!-- VCoil2 -->
<g id="node5" class="node">
<title>VCoil2</title>
<polygon fill="lightgray" stroke="black" points="342.5,-305.15 295.5,-305.15 295.5,-287.15 342.5,-287.15 342.5,-305.15"/>
<text text-anchor="middle" x="319" y="-293.95" font-family="Times,serif" font-size="9.00">VCoil2</text>
</g>
<!-- VCoil2&#45;&gt;Activate propulsor -->
<g id="edge2" class="edge">
<title>VCoil2&#45;&gt;Activate propulsor</title>
<path fill="none" stroke="green" stroke-width="0.96" d="M319,-287.06C319,-277.43 319,-260.28 319,-241.61"/>
<polygon fill="green" stroke="green" stroke-width="0.96" points="322.5,-241.43 319,-231.43 315.5,-241.43 322.5,-241.43"/>
</g>
<!-- HCoil12 -->
<g id="node6" class="node">
<title>HCoil12</title>
<polygon fill="lightgray" stroke="black" points="486,-305.15 432,-305.15 432,-287.15 486,-287.15 486,-305.15"/>
<text text-anchor="middle" x="459" y="-293.95" font-family="Times,serif" font-size="9.00">HCoil12</text>
</g>
<!-- HCoil22 -->
<g id="node7" class="node">
<title>HCoil22</title>
<polygon fill="lightgray" stroke="black" points="558,-305.15 504,-305.15 504,-287.15 558,-287.15 558,-305.15"/>
<text text-anchor="middle" x="531" y="-293.95" font-family="Times,serif" font-size="9.00">HCoil22</text>
</g>
<!-- 521 -->
<g id="node11" class="node">
<title>521</title>
<ellipse fill="white" stroke="black" cx="559" cy="-24.75" rx="25" ry="25"/>
<text text-anchor="middle" x="559" y="-22.55" font-family="Times,serif" font-size="9.00">521</text>
</g>
<!-- HCoil22&#45;&gt;521 -->
<g id="edge3" class="edge">
<title>HCoil22&#45;&gt;521</title>
<path fill="none" stroke="green" stroke-width="0.5" d="M528.73,-286.93C521.25,-258.37 499,-161.07 521,-85.5 524.37,-73.93 530.72,-62.46 537.29,-52.71"/>
<polygon fill="green" stroke="green" stroke-width="0.5" points="540.34,-54.47 543.3,-44.29 534.64,-50.4 540.34,-54.47"/>
</g>
<!-- 1222 -->
<g id="node13" class="node">
<title>1222</title>
<ellipse fill="white" stroke="black" cx="559" cy="-158.33" rx="28.98" ry="28.98"/>
<text text-anchor="middle" x="559" y="-156.13" font-family="Times,serif" font-size="9.00">1222</text>
</g>
<!-- HCoil22&#45;&gt;1222 -->
<g id="edge6" class="edge">
<title>HCoil22&#45;&gt;1222</title>
<path fill="none" stroke="red" stroke-width="0.15" stroke-dasharray="1,5" d="M532.67,-287.06C536.24,-269.72 544.84,-228.02 551.24,-196.95"/>
<polygon fill="red" stroke="red" stroke-width="0.15" points="554.73,-197.37 553.32,-186.87 547.88,-195.96 554.73,-197.37"/>
</g>
<!-- VCoil12 -->
<g id="node8" class="node">
<title>VCoil12</title>
<polygon fill="lightgray" stroke="black" points="413.5,-305.15 360.5,-305.15 360.5,-287.15 413.5,-287.15 413.5,-305.15"/>
<text text-anchor="middle" x="387" y="-293.95" font-family="Times,serif" font-size="9.00">VCoil12</text>
</g>
<!-- VCoil12&#45;&gt;Activate propulsor -->
<g id="edge5" class="edge">
<title>VCoil12&#45;&gt;Activate propulsor</title>
<path fill="none" stroke="green" stroke-width="0.29" d="M382.95,-287.06C377.4,-275.97 366.85,-254.91 355.9,-233.04"/>
<polygon fill="green" stroke="green" stroke-width="0.29" points="358.97,-231.36 351.37,-223.98 352.72,-234.49 358.97,-231.36"/>
</g>
<!-- VCoil22 -->
<g id="node9" class="node">
<title>VCoil22</title>
<polygon fill="lightgray" stroke="black" points="658.5,-167.33 605.5,-167.33 605.5,-149.33 658.5,-149.33 658.5,-167.33"/>
<text text-anchor="middle" x="632" y="-156.13" font-family="Times,serif" font-size="9.00">VCoil22</text>
</g>
<!-- VCoil22&#45;&gt;521 -->
<g id="edge4" class="edge">
<title>VCoil22&#45;&gt;521</title>
<path fill="none" stroke="red" stroke-width="0.25" d="M628.41,-149.21C622.36,-135.73 609.59,-108.02 597,-85.5 591.17,-75.06 584.28,-63.94 577.99,-54.15"/>
<polygon fill="red" stroke="red" stroke-width="0.25" points="580.81,-52.07 572.42,-45.59 574.94,-55.88 580.81,-52.07"/>
</g>
<!-- 1582 -->
<g id="node12" class="node">
<title>1582</title>
<ellipse fill="white" stroke="black" cx="605" cy="-296.15" rx="28.98" ry="28.98"/>
<text text-anchor="middle" x="605" y="-293.95" font-family="Times,serif" font-size="9.00">1582</text>
</g>
<!-- 1222&#45;&gt;521 -->
<g id="edge7" class="edge">
<title>1222&#45;&gt;521</title>
<path fill="none" stroke="red" stroke-width="0.43" d="M559,-129.1C559,-108.73 559,-81.12 559,-59.56"/>
<polygon fill="red" stroke="red" stroke-width="0.43" points="562.5,-59.53 559,-49.53 555.5,-59.53 562.5,-59.53"/>
</g>
</g>
</svg>
