<?xml version="1.0" encoding="UTF-8" standalone="no"?>
<!DOCTYPE svg PUBLIC "-//W3C//DTD SVG 1.1//EN"
 "http://www.w3.org/Graphics/SVG/1.1/DTD/svg11.dtd">
<!-- Generated by graphviz version 2.43.0 (0)
 -->
<!-- Title: %3 Pages: 1 -->
<svg width="716pt" height="333pt"
 viewBox="0.00 0.00 715.99 333.14" xmlns="http://www.w3.org/2000/svg" xmlns:xlink="http://www.w3.org/1999/xlink">
<g id="graph0" class="graph" transform="scale(1 1) rotate(0) translate(4 329.14)">
<title>%3</title>
<polygon fill="white" stroke="transparent" points="-4,4 -4,-329.14 711.99,-329.14 711.99,4 -4,4"/>
<!-- Player_height -->
<g id="node1" class="node">
<title>Player_height</title>
<polygon fill="lightgray" stroke="black" points="80,-167.33 0,-167.33 0,-149.33 80,-149.33 80,-167.33"/>
<text text-anchor="middle" x="40" y="-156.13" font-family="Times,serif" font-size="9.00">Player_height</text>
</g>
<!-- 888 -->
<g id="node12" class="node">
<title>888</title>
<ellipse fill="white" stroke="black" cx="83" cy="-24.75" rx="25" ry="25"/>
<text text-anchor="middle" x="83" y="-22.55" font-family="Times,serif" font-size="9.00">888</text>
</g>
<!-- Player_height&#45;&gt;888 -->
<g id="edge4" class="edge">
<title>Player_height&#45;&gt;888</title>
<path fill="none" stroke="green" stroke-width="0.34" stroke-dasharray="1,5" d="M42.69,-149.1C48.5,-131.31 62.52,-88.43 72.38,-58.25"/>
<polygon fill="green" stroke="green" stroke-width="0.34" points="75.77,-59.15 75.55,-48.56 69.11,-56.97 75.77,-59.15"/>
</g>
<!-- HCoil1 -->
<g id="node2" class="node">
<title>HCoil1</title>
<polygon fill="lightgray" stroke="black" points="220,-305.15 172,-305.15 172,-287.15 220,-287.15 220,-305.15"/>
<text text-anchor="middle" x="196" y="-293.95" font-family="Times,serif" font-size="9.00">HCoil1</text>
</g>
<!-- HCoil2 -->
<g id="node3" class="node">
<title>HCoil2</title>
<polygon fill="lightgray" stroke="black" points="286,-305.15 238,-305.15 238,-287.15 286,-287.15 286,-305.15"/>
<text text-anchor="middle" x="262" y="-293.95" font-family="Times,serif" font-size="9.00">HCoil2</text>
</g>
<!-- VCoil1 -->
<g id="node4" class="node">
<title>VCoil1</title>
<polygon fill="lightgray" stroke="black" points="351.5,-305.15 304.5,-305.15 304.5,-287.15 351.5,-287.15 351.5,-305.15"/>
<text text-anchor="middle" x="328" y="-293.95" font-family="Times,serif" font-size="9.00">VCoil1</text>
</g>
<!-- Activate propulsor -->
<g id="node10" class="node">
<title>Activate propulsor</title>
<ellipse fill="lightblue" stroke="black" cx="393" cy="-158.33" rx="72.66" ry="72.66"/>
<text text-anchor="middle" x="393" y="-156.13" font-family="Times,serif" font-size="9.00">Activate propulsor</text>
</g>
<!-- VCoil1&#45;&gt;Activate propulsor -->
<g id="edge1" class="edge">
<title>VCoil1&#45;&gt;Activate propulsor</title>
<path fill="none" stroke="red" stroke-width="0.56" d="M331.87,-287.06C337.13,-276.07 347.08,-255.29 357.44,-233.63"/>
<polygon fill="red" stroke="red" stroke-width="0.56" points="360.74,-234.85 361.9,-224.32 354.42,-231.83 360.74,-234.85"/>
</g>
<!-- VCoil2 -->
<g id="node5" class="node">
<title>VCoil2</title>
<polygon fill="lightgray" stroke="black" points="416.5,-305.15 369.5,-305.15 369.5,-287.15 416.5,-287.15 416.5,-305.15"/>
<text text-anchor="middle" x="393" y="-293.95" font-family="Times,serif" font-size="9.00">VCoil2</text>
</g>
<!-- VCoil2&#45;&gt;Activate propulsor -->
<g id="edge2" class="edge">
<title>VCoil2&#45;&gt;Activate propulsor</title>
<path fill="none" stroke="green" stroke-width="0.78" d="M393,-287.06C393,-277.43 393,-260.28 393,-241.61"/>
<polygon fill="green" stroke="green" stroke-width="0.78" points="396.5,-241.43 393,-231.43 389.5,-241.43 396.5,-241.43"/>
</g>
<!-- HCoil12 -->
<g id="node6" class="node">
<title>HCoil12</title>
<polygon fill="lightgray" stroke="black" points="560,-305.15 506,-305.15 506,-287.15 560,-287.15 560,-305.15"/>
<text text-anchor="middle" x="533" y="-293.95" font-family="Times,serif" font-size="9.00">HCoil12</text>
</g>
<!-- HCoil22 -->
<g id="node7" class="node">
<title>HCoil22</title>
<polygon fill="lightgray" stroke="black" points="632,-305.15 578,-305.15 578,-287.15 632,-287.15 632,-305.15"/>
<text text-anchor="middle" x="605" y="-293.95" font-family="Times,serif" font-size="9.00">HCoil22</text>
</g>
<!-- VCoil12 -->
<g id="node8" class="node">
<title>VCoil12</title>
<polygon fill="lightgray" stroke="black" points="487.5,-305.15 434.5,-305.15 434.5,-287.15 487.5,-287.15 487.5,-305.15"/>
<text text-anchor="middle" x="461" y="-293.95" font-family="Times,serif" font-size="9.00">VCoil12</text>
</g>
<!-- VCoil12&#45;&gt;Activate propulsor -->
<g id="edge3" class="edge">
<title>VCoil12&#45;&gt;Activate propulsor</title>
<path fill="none" stroke="green" stroke-width="0.41" d="M456.95,-287.06C451.4,-275.97 440.85,-254.91 429.9,-233.04"/>
<polygon fill="green" stroke="green" stroke-width="0.41" points="432.97,-231.36 425.37,-223.98 426.72,-234.49 432.97,-231.36"/>
</g>
<!-- VCoil22 -->
<g id="node9" class="node">
<title>VCoil22</title>
<polygon fill="lightgray" stroke="black" points="153.5,-305.15 100.5,-305.15 100.5,-287.15 153.5,-287.15 153.5,-305.15"/>
<text text-anchor="middle" x="127" y="-293.95" font-family="Times,serif" font-size="9.00">VCoil22</text>
</g>
<!-- 1551 -->
<g id="node13" class="node">
<title>1551</title>
<ellipse fill="white" stroke="black" cx="127" cy="-158.33" rx="28.98" ry="28.98"/>
<text text-anchor="middle" x="127" y="-156.13" font-family="Times,serif" font-size="9.00">1551</text>
</g>
<!-- VCoil22&#45;&gt;1551 -->
<g id="edge5" class="edge">
<title>VCoil22&#45;&gt;1551</title>
<path fill="none" stroke="green" stroke-width="0.51" d="M127,-287.06C127,-269.82 127,-228.51 127,-197.5"/>
<polygon fill="green" stroke="green" stroke-width="0.51" points="130.5,-197.43 127,-187.43 123.5,-197.43 130.5,-197.43"/>
</g>
<!-- 1499 -->
<g id="node11" class="node">
<title>1499</title>
<ellipse fill="white" stroke="black" cx="679" cy="-296.15" rx="28.98" ry="28.98"/>
<text text-anchor="middle" x="679" y="-293.95" font-family="Times,serif" font-size="9.00">1499</text>
</g>
<!-- 1551&#45;&gt;888 -->
<g id="edge6" class="edge">
<title>1551&#45;&gt;888</title>
<path fill="none" stroke="green" stroke-width="0.15" d="M118.1,-130.7C111.08,-109.73 101.28,-80.42 93.82,-58.1"/>
<polygon fill="green" stroke="green" stroke-width="0.15" points="97.06,-56.77 90.57,-48.39 90.42,-58.99 97.06,-56.77"/>
</g>
</g>
</svg>
