<?xml version="1.0" encoding="UTF-8" standalone="no"?>
<!DOCTYPE svg PUBLIC "-//W3C//DTD SVG 1.1//EN"
 "http://www.w3.org/Graphics/SVG/1.1/DTD/svg11.dtd">
<!-- Generated by graphviz version 2.43.0 (0)
 -->
<!-- Title: %3 Pages: 1 -->
<svg width="713pt" height="248pt"
 viewBox="0.00 0.00 712.99 247.65" xmlns="http://www.w3.org/2000/svg" xmlns:xlink="http://www.w3.org/1999/xlink">
<g id="graph0" class="graph" transform="scale(1 1) rotate(0) translate(4 243.65)">
<title>%3</title>
<polygon fill="white" stroke="transparent" points="-4,4 -4,-243.65 708.99,-243.65 708.99,4 -4,4"/>
<!-- Player_height -->
<g id="node1" class="node">
<title>Player_height</title>
<polygon fill="lightgray" stroke="black" points="80,-219.66 0,-219.66 0,-201.66 80,-201.66 80,-219.66"/>
<text text-anchor="middle" x="40" y="-208.46" font-family="Times,serif" font-size="9.00">Player_height</text>
</g>
<!-- Activate propulsor -->
<g id="node10" class="node">
<title>Activate propulsor</title>
<ellipse fill="lightblue" stroke="black" cx="154" cy="-72.83" rx="72.66" ry="72.66"/>
<text text-anchor="middle" x="154" y="-70.63" font-family="Times,serif" font-size="9.00">Activate propulsor</text>
</g>
<!-- Player_height&#45;&gt;Activate propulsor -->
<g id="edge4" class="edge">
<title>Player_height&#45;&gt;Activate propulsor</title>
<path fill="none" stroke="green" stroke-width="0.38" d="M46.79,-201.57C57.61,-188.68 79.71,-162.34 101.06,-136.91"/>
<polygon fill="green" stroke="green" stroke-width="0.38" points="103.9,-138.97 107.64,-129.06 98.53,-134.47 103.9,-138.97"/>
</g>
<!-- HCoil1 -->
<g id="node2" class="node">
<title>HCoil1</title>
<polygon fill="lightgray" stroke="black" points="348,-219.66 300,-219.66 300,-201.66 348,-201.66 348,-219.66"/>
<text text-anchor="middle" x="324" y="-208.46" font-family="Times,serif" font-size="9.00">HCoil1</text>
</g>
<!-- HCoil2 -->
<g id="node3" class="node">
<title>HCoil2</title>
<polygon fill="lightgray" stroke="black" points="414,-219.66 366,-219.66 366,-201.66 414,-201.66 414,-219.66"/>
<text text-anchor="middle" x="390" y="-208.46" font-family="Times,serif" font-size="9.00">HCoil2</text>
</g>
<!-- VCoil1 -->
<g id="node4" class="node">
<title>VCoil1</title>
<polygon fill="lightgray" stroke="black" points="145.5,-219.66 98.5,-219.66 98.5,-201.66 145.5,-201.66 145.5,-219.66"/>
<text text-anchor="middle" x="122" y="-208.46" font-family="Times,serif" font-size="9.00">VCoil1</text>
</g>
<!-- VCoil1&#45;&gt;Activate propulsor -->
<g id="edge1" class="edge">
<title>VCoil1&#45;&gt;Activate propulsor</title>
<path fill="none" stroke="green" stroke-width="0.23" stroke-dasharray="1,5" d="M123.91,-201.57C126.27,-191.55 130.54,-173.41 135.14,-153.89"/>
<polygon fill="green" stroke="green" stroke-width="0.23" points="138.6,-154.44 137.49,-143.9 131.79,-152.83 138.6,-154.44"/>
</g>
<!-- VCoil2 -->
<g id="node5" class="node">
<title>VCoil2</title>
<polygon fill="lightgray" stroke="black" points="210.5,-219.66 163.5,-219.66 163.5,-201.66 210.5,-201.66 210.5,-219.66"/>
<text text-anchor="middle" x="187" y="-208.46" font-family="Times,serif" font-size="9.00">VCoil2</text>
</g>
<!-- VCoil2&#45;&gt;Activate propulsor -->
<g id="edge2" class="edge">
<title>VCoil2&#45;&gt;Activate propulsor</title>
<path fill="none" stroke="green" stroke-width="0.64" d="M185.03,-201.57C182.6,-191.55 178.19,-173.41 173.45,-153.89"/>
<polygon fill="green" stroke="green" stroke-width="0.64" points="176.79,-152.79 171.02,-143.9 169.98,-154.45 176.79,-152.79"/>
</g>
<!-- HCoil12 -->
<g id="node6" class="node">
<title>HCoil12</title>
<polygon fill="lightgray" stroke="black" points="486,-219.66 432,-219.66 432,-201.66 486,-201.66 486,-219.66"/>
<text text-anchor="middle" x="459" y="-208.46" font-family="Times,serif" font-size="9.00">HCoil12</text>
</g>
<!-- HCoil22 -->
<g id="node7" class="node">
<title>HCoil22</title>
<polygon fill="lightgray" stroke="black" points="558,-219.66 504,-219.66 504,-201.66 558,-201.66 558,-219.66"/>
<text text-anchor="middle" x="531" y="-208.46" font-family="Times,serif" font-size="9.00">HCoil22</text>
</g>
<!-- VCoil12 -->
<g id="node8" class="node">
<title>VCoil12</title>
<polygon fill="lightgray" stroke="black" points="281.5,-219.66 228.5,-219.66 228.5,-201.66 281.5,-201.66 281.5,-219.66"/>
<text text-anchor="middle" x="255" y="-208.46" font-family="Times,serif" font-size="9.00">VCoil12</text>
</g>
<!-- VCoil12&#45;&gt;Activate propulsor -->
<g id="edge3" class="edge">
<title>VCoil12&#45;&gt;Activate propulsor</title>
<path fill="none" stroke="green" stroke-width="0.4" d="M248.98,-201.57C239.79,-189.2 221.38,-164.45 203.2,-140"/>
<polygon fill="green" stroke="green" stroke-width="0.4" points="205.84,-137.67 197.06,-131.74 200.22,-141.85 205.84,-137.67"/>
</g>
<!-- VCoil22 -->
<g id="node9" class="node">
<title>VCoil22</title>
<polygon fill="lightgray" stroke="black" points="629.5,-219.66 576.5,-219.66 576.5,-201.66 629.5,-201.66 629.5,-219.66"/>
<text text-anchor="middle" x="603" y="-208.46" font-family="Times,serif" font-size="9.00">VCoil22</text>
</g>
<!-- 1770 -->
<g id="node11" class="node">
<title>1770</title>
<ellipse fill="white" stroke="black" cx="676" cy="-210.66" rx="28.98" ry="28.98"/>
<text text-anchor="middle" x="676" y="-208.46" font-family="Times,serif" font-size="9.00">1770</text>
</g>
</g>
</svg>
