<?xml version="1.0" encoding="UTF-8" standalone="no"?>
<!DOCTYPE svg PUBLIC "-//W3C//DTD SVG 1.1//EN"
 "http://www.w3.org/Graphics/SVG/1.1/DTD/svg11.dtd">
<!-- Generated by graphviz version 2.43.0 (0)
 -->
<!-- Title: %3 Pages: 1 -->
<svg width="638pt" height="208pt"
 viewBox="0.00 0.00 637.50 207.66" xmlns="http://www.w3.org/2000/svg" xmlns:xlink="http://www.w3.org/1999/xlink">
<g id="graph0" class="graph" transform="scale(1 1) rotate(0) translate(4 203.66)">
<title>%3</title>
<polygon fill="white" stroke="transparent" points="-4,4 -4,-203.66 633.5,-203.66 633.5,4 -4,4"/>
<!-- Player_height -->
<g id="node1" class="node">
<title>Player_height</title>
<polygon fill="lightgray" stroke="black" points="80,-199.66 0,-199.66 0,-181.66 80,-181.66 80,-199.66"/>
<text text-anchor="middle" x="40" y="-188.46" font-family="Times,serif" font-size="9.00">Player_height</text>
</g>
<!-- HCoil1 -->
<g id="node2" class="node">
<title>HCoil1</title>
<polygon fill="lightgray" stroke="black" points="146,-199.66 98,-199.66 98,-181.66 146,-181.66 146,-199.66"/>
<text text-anchor="middle" x="122" y="-188.46" font-family="Times,serif" font-size="9.00">HCoil1</text>
</g>
<!-- Activate propulsor -->
<g id="node10" class="node">
<title>Activate propulsor</title>
<ellipse fill="lightblue" stroke="black" cx="323" cy="-72.83" rx="72.66" ry="72.66"/>
<text text-anchor="middle" x="323" y="-70.63" font-family="Times,serif" font-size="9.00">Activate propulsor</text>
</g>
<!-- HCoil1&#45;&gt;Activate propulsor -->
<g id="edge1" class="edge">
<title>HCoil1&#45;&gt;Activate propulsor</title>
<path fill="none" stroke="red" stroke-width="0.36" d="M136.13,-181.52C159.83,-167.87 209.09,-139.47 251.09,-115.27"/>
<polygon fill="red" stroke="red" stroke-width="0.36" points="253.02,-118.2 259.93,-110.18 249.52,-112.14 253.02,-118.2"/>
</g>
<!-- HCoil2 -->
<g id="node3" class="node">
<title>HCoil2</title>
<polygon fill="lightgray" stroke="black" points="212,-199.66 164,-199.66 164,-181.66 212,-181.66 212,-199.66"/>
<text text-anchor="middle" x="188" y="-188.46" font-family="Times,serif" font-size="9.00">HCoil2</text>
</g>
<!-- HCoil2&#45;&gt;Activate propulsor -->
<g id="edge2" class="edge">
<title>HCoil2&#45;&gt;Activate propulsor</title>
<path fill="none" stroke="green" stroke-width="0.19" d="M197.71,-181.33C211.02,-169.91 236.05,-148.43 260.26,-127.66"/>
<polygon fill="green" stroke="green" stroke-width="0.19" points="262.77,-130.12 268.08,-120.96 258.21,-124.81 262.77,-130.12"/>
</g>
<!-- VCoil1 -->
<g id="node4" class="node">
<title>VCoil1</title>
<polygon fill="lightgray" stroke="black" points="629.5,-199.66 582.5,-199.66 582.5,-181.66 629.5,-181.66 629.5,-199.66"/>
<text text-anchor="middle" x="606" y="-188.46" font-family="Times,serif" font-size="9.00">VCoil1</text>
</g>
<!-- VCoil2 -->
<g id="node5" class="node">
<title>VCoil2</title>
<polygon fill="lightgray" stroke="black" points="277.5,-199.66 230.5,-199.66 230.5,-181.66 277.5,-181.66 277.5,-199.66"/>
<text text-anchor="middle" x="254" y="-188.46" font-family="Times,serif" font-size="9.00">VCoil2</text>
</g>
<!-- VCoil2&#45;&gt;Activate propulsor -->
<g id="edge3" class="edge">
<title>VCoil2&#45;&gt;Activate propulsor</title>
<path fill="none" stroke="green" stroke-width="0.17" d="M258.96,-181.33C263.9,-173.05 271.98,-159.48 280.77,-144.72"/>
<polygon fill="green" stroke="green" stroke-width="0.17" points="283.9,-146.31 286.01,-135.93 277.88,-142.73 283.9,-146.31"/>
</g>
<!-- HCoil12 -->
<g id="node6" class="node">
<title>HCoil12</title>
<polygon fill="lightgray" stroke="black" points="350,-199.66 296,-199.66 296,-181.66 350,-181.66 350,-199.66"/>
<text text-anchor="middle" x="323" y="-188.46" font-family="Times,serif" font-size="9.00">HCoil12</text>
</g>
<!-- HCoil12&#45;&gt;Activate propulsor -->
<g id="edge4" class="edge">
<title>HCoil12&#45;&gt;Activate propulsor</title>
<path fill="none" stroke="green" stroke-width="0.18" d="M323,-181.33C323,-175.2 323,-166.17 323,-155.9"/>
<polygon fill="green" stroke="green" stroke-width="0.18" points="326.5,-155.74 323,-145.74 319.5,-155.74 326.5,-155.74"/>
</g>
<!-- HCoil22 -->
<g id="node7" class="node">
<title>HCoil22</title>
<polygon fill="lightgray" stroke="black" points="422,-199.66 368,-199.66 368,-181.66 422,-181.66 422,-199.66"/>
<text text-anchor="middle" x="395" y="-188.46" font-family="Times,serif" font-size="9.00">HCoil22</text>
</g>
<!-- HCoil22&#45;&gt;Activate propulsor -->
<g id="edge5" class="edge">
<title>HCoil22&#45;&gt;Activate propulsor</title>
<path fill="none" stroke="green" stroke-width="0.1" d="M389.82,-181.33C384.54,-172.84 375.81,-158.79 366.37,-143.61"/>
<polygon fill="green" stroke="green" stroke-width="0.1" points="369.32,-141.73 361.07,-135.08 363.38,-145.42 369.32,-141.73"/>
</g>
<!-- VCoil12 -->
<g id="node8" class="node">
<title>VCoil12</title>
<polygon fill="lightgray" stroke="black" points="493.5,-199.66 440.5,-199.66 440.5,-181.66 493.5,-181.66 493.5,-199.66"/>
<text text-anchor="middle" x="467" y="-188.46" font-family="Times,serif" font-size="9.00">VCoil12</text>
</g>
<!-- VCoil12&#45;&gt;Activate propulsor -->
<g id="edge6" class="edge">
<title>VCoil12&#45;&gt;Activate propulsor</title>
<path fill="none" stroke="green" stroke-width="0.25" d="M456.64,-181.33C441.97,-169.53 413.94,-146.99 387.33,-125.58"/>
<polygon fill="green" stroke="green" stroke-width="0.25" points="389.49,-122.83 379.51,-119.28 385.1,-128.28 389.49,-122.83"/>
</g>
<!-- VCoil22 -->
<g id="node9" class="node">
<title>VCoil22</title>
<polygon fill="lightgray" stroke="black" points="564.5,-199.66 511.5,-199.66 511.5,-181.66 564.5,-181.66 564.5,-199.66"/>
<text text-anchor="middle" x="538" y="-188.46" font-family="Times,serif" font-size="9.00">VCoil22</text>
</g>
<!-- VCoil22&#45;&gt;Activate propulsor -->
<g id="edge7" class="edge">
<title>VCoil22&#45;&gt;Activate propulsor</title>
<path fill="none" stroke="green" stroke-width="0.26" d="M522.88,-181.52C496.81,-167.47 441.77,-137.82 396.04,-113.18"/>
<polygon fill="green" stroke="green" stroke-width="0.26" points="397.49,-109.99 387.03,-108.33 394.17,-116.15 397.49,-109.99"/>
</g>
</g>
</svg>
