<?xml version="1.0" encoding="UTF-8" standalone="no"?>
<!DOCTYPE svg PUBLIC "-//W3C//DTD SVG 1.1//EN"
 "http://www.w3.org/Graphics/SVG/1.1/DTD/svg11.dtd">
<!-- Generated by graphviz version 2.43.0 (0)
 -->
<!-- Title: %3 Pages: 1 -->
<svg width="637pt" height="208pt"
 viewBox="0.00 0.00 637.00 207.66" xmlns="http://www.w3.org/2000/svg" xmlns:xlink="http://www.w3.org/1999/xlink">
<g id="graph0" class="graph" transform="scale(1 1) rotate(0) translate(4 203.66)">
<title>%3</title>
<polygon fill="white" stroke="transparent" points="-4,4 -4,-203.66 633,-203.66 633,4 -4,4"/>
<!-- Player_height -->
<g id="node1" class="node">
<title>Player_height</title>
<polygon fill="lightgray" stroke="black" points="80,-199.66 0,-199.66 0,-181.66 80,-181.66 80,-199.66"/>
<text text-anchor="middle" x="40" y="-188.46" font-family="Times,serif" font-size="9.00">Player_height</text>
</g>
<!-- HCoil1 -->
<g id="node2" class="node">
<title>HCoil1</title>
<polygon fill="lightgray" stroke="black" points="146,-199.66 98,-199.66 98,-181.66 146,-181.66 146,-199.66"/>
<text text-anchor="middle" x="122" y="-188.46" font-family="Times,serif" font-size="9.00">HCoil1</text>
</g>
<!-- HCoil2 -->
<g id="node3" class="node">
<title>HCoil2</title>
<polygon fill="lightgray" stroke="black" points="212,-199.66 164,-199.66 164,-181.66 212,-181.66 212,-199.66"/>
<text text-anchor="middle" x="188" y="-188.46" font-family="Times,serif" font-size="9.00">HCoil2</text>
</g>
<!-- VCoil1 -->
<g id="node4" class="node">
<title>VCoil1</title>
<polygon fill="lightgray" stroke="black" points="277.5,-199.66 230.5,-199.66 230.5,-181.66 277.5,-181.66 277.5,-199.66"/>
<text text-anchor="middle" x="254" y="-188.46" font-family="Times,serif" font-size="9.00">VCoil1</text>
</g>
<!-- Activate propulsor -->
<g id="node10" class="node">
<title>Activate propulsor</title>
<ellipse fill="lightblue" stroke="black" cx="332" cy="-72.83" rx="72.66" ry="72.66"/>
<text text-anchor="middle" x="332" y="-70.63" font-family="Times,serif" font-size="9.00">Activate propulsor</text>
</g>
<!-- VCoil1&#45;&gt;Activate propulsor -->
<g id="edge1" class="edge">
<title>VCoil1&#45;&gt;Activate propulsor</title>
<path fill="none" stroke="red" stroke-width="0.91" d="M259.61,-181.33C265.53,-172.54 275.46,-157.8 286.1,-142"/>
<polygon fill="red" stroke="red" stroke-width="0.91" points="289.03,-143.91 291.71,-133.66 283.22,-140 289.03,-143.91"/>
</g>
<!-- VCoil2 -->
<g id="node5" class="node">
<title>VCoil2</title>
<polygon fill="lightgray" stroke="black" points="413.5,-199.66 366.5,-199.66 366.5,-181.66 413.5,-181.66 413.5,-199.66"/>
<text text-anchor="middle" x="390" y="-188.46" font-family="Times,serif" font-size="9.00">VCoil2</text>
</g>
<!-- VCoil2&#45;&gt;Activate propulsor -->
<g id="edge2" class="edge">
<title>VCoil2&#45;&gt;Activate propulsor</title>
<path fill="none" stroke="green" stroke-width="1.14" d="M385.83,-181.33C381.93,-173.55 375.69,-161.08 368.82,-147.36"/>
<polygon fill="green" stroke="green" stroke-width="1.14" points="371.83,-145.57 364.23,-138.19 365.57,-148.7 371.83,-145.57"/>
</g>
<!-- 521 -->
<g id="node11" class="node">
<title>521</title>
<ellipse fill="white" stroke="black" cx="453" cy="-72.83" rx="25" ry="25"/>
<text text-anchor="middle" x="453" y="-70.63" font-family="Times,serif" font-size="9.00">521</text>
</g>
<!-- VCoil2&#45;&gt;521 -->
<g id="edge6" class="edge">
<title>VCoil2&#45;&gt;521</title>
<path fill="none" stroke="green" stroke-width="0.21" d="M394.43,-181.56C399.25,-172.73 407.18,-158.2 414,-145.66 421.48,-131.92 429.75,-116.7 436.74,-103.81"/>
<polygon fill="green" stroke="green" stroke-width="0.21" points="439.88,-105.36 441.58,-94.9 433.73,-102.02 439.88,-105.36"/>
</g>
<!-- HCoil12 -->
<g id="node6" class="node">
<title>HCoil12</title>
<polygon fill="lightgray" stroke="black" points="557,-199.66 503,-199.66 503,-181.66 557,-181.66 557,-199.66"/>
<text text-anchor="middle" x="530" y="-188.46" font-family="Times,serif" font-size="9.00">HCoil12</text>
</g>
<!-- HCoil22 -->
<g id="node7" class="node">
<title>HCoil22</title>
<polygon fill="lightgray" stroke="black" points="629,-199.66 575,-199.66 575,-181.66 629,-181.66 629,-199.66"/>
<text text-anchor="middle" x="602" y="-188.46" font-family="Times,serif" font-size="9.00">HCoil22</text>
</g>
<!-- VCoil12 -->
<g id="node8" class="node">
<title>VCoil12</title>
<polygon fill="lightgray" stroke="black" points="348.5,-199.66 295.5,-199.66 295.5,-181.66 348.5,-181.66 348.5,-199.66"/>
<text text-anchor="middle" x="322" y="-188.46" font-family="Times,serif" font-size="9.00">VCoil12</text>
</g>
<!-- VCoil12&#45;&gt;Activate propulsor -->
<g id="edge5" class="edge">
<title>VCoil12&#45;&gt;Activate propulsor</title>
<path fill="none" stroke="green" stroke-width="0.27" d="M322.72,-181.33C323.25,-175.16 324.04,-166.05 324.93,-155.71"/>
<polygon fill="green" stroke="green" stroke-width="0.27" points="328.44,-155.73 325.82,-145.46 321.47,-155.12 328.44,-155.73"/>
</g>
<!-- VCoil22 -->
<g id="node9" class="node">
<title>VCoil22</title>
<polygon fill="lightgray" stroke="black" points="484.5,-199.66 431.5,-199.66 431.5,-181.66 484.5,-181.66 484.5,-199.66"/>
<text text-anchor="middle" x="458" y="-188.46" font-family="Times,serif" font-size="9.00">VCoil22</text>
</g>
<!-- VCoil22&#45;&gt;Activate propulsor -->
<g id="edge3" class="edge">
<title>VCoil22&#45;&gt;Activate propulsor</title>
<path fill="none" stroke="green" stroke-width="0.17" d="M448.94,-181.33C436.92,-170.29 414.68,-149.84 392.79,-129.71"/>
<polygon fill="green" stroke="green" stroke-width="0.17" points="395.12,-127.11 385.39,-122.92 390.39,-132.26 395.12,-127.11"/>
</g>
<!-- VCoil22&#45;&gt;521 -->
<g id="edge4" class="edge">
<title>VCoil22&#45;&gt;521</title>
<path fill="none" stroke="red" stroke-width="0.31" d="M457.64,-181.33C456.99,-166.2 455.57,-133.4 454.47,-107.98"/>
<polygon fill="red" stroke="red" stroke-width="0.31" points="457.97,-107.8 454.04,-97.96 450.98,-108.11 457.97,-107.8"/>
</g>
</g>
</svg>
