<?xml version="1.0" encoding="UTF-8" standalone="no"?>
<!DOCTYPE svg PUBLIC "-//W3C//DTD SVG 1.1//EN"
 "http://www.w3.org/Graphics/SVG/1.1/DTD/svg11.dtd">
<!-- Generated by graphviz version 2.43.0 (0)
 -->
<!-- Title: %3 Pages: 1 -->
<svg width="638pt" height="208pt"
 viewBox="0.00 0.00 637.50 207.66" xmlns="http://www.w3.org/2000/svg" xmlns:xlink="http://www.w3.org/1999/xlink">
<g id="graph0" class="graph" transform="scale(1 1) rotate(0) translate(4 203.66)">
<title>%3</title>
<polygon fill="white" stroke="transparent" points="-4,4 -4,-203.66 633.5,-203.66 633.5,4 -4,4"/>
<!-- Player_height -->
<g id="node1" class="node">
<title>Player_height</title>
<polygon fill="lightgray" stroke="black" points="80,-199.66 0,-199.66 0,-181.66 80,-181.66 80,-199.66"/>
<text text-anchor="middle" x="40" y="-188.46" font-family="Times,serif" font-size="9.00">Player_height</text>
</g>
<!-- HCoil1 -->
<g id="node2" class="node">
<title>HCoil1</title>
<polygon fill="lightgray" stroke="black" points="146,-199.66 98,-199.66 98,-181.66 146,-181.66 146,-199.66"/>
<text text-anchor="middle" x="122" y="-188.46" font-family="Times,serif" font-size="9.00">HCoil1</text>
</g>
<!-- Activate propulsor -->
<g id="node10" class="node">
<title>Activate propulsor</title>
<ellipse fill="lightblue" stroke="black" cx="188" cy="-72.83" rx="72.66" ry="72.66"/>
<text text-anchor="middle" x="188" y="-70.63" font-family="Times,serif" font-size="9.00">Activate propulsor</text>
</g>
<!-- HCoil1&#45;&gt;Activate propulsor -->
<g id="edge3" class="edge">
<title>HCoil1&#45;&gt;Activate propulsor</title>
<path fill="none" stroke="green" stroke-width="0.15" d="M126.75,-181.33C131.42,-173.14 139.04,-159.76 147.34,-145.19"/>
<polygon fill="green" stroke="green" stroke-width="0.15" points="150.38,-146.92 152.29,-136.5 144.3,-143.45 150.38,-146.92"/>
</g>
<!-- HCoil2 -->
<g id="node3" class="node">
<title>HCoil2</title>
<polygon fill="lightgray" stroke="black" points="343,-199.66 295,-199.66 295,-181.66 343,-181.66 343,-199.66"/>
<text text-anchor="middle" x="319" y="-188.46" font-family="Times,serif" font-size="9.00">HCoil2</text>
</g>
<!-- VCoil1 -->
<g id="node4" class="node">
<title>VCoil1</title>
<polygon fill="lightgray" stroke="black" points="211.5,-199.66 164.5,-199.66 164.5,-181.66 211.5,-181.66 211.5,-199.66"/>
<text text-anchor="middle" x="188" y="-188.46" font-family="Times,serif" font-size="9.00">VCoil1</text>
</g>
<!-- VCoil1&#45;&gt;Activate propulsor -->
<g id="edge1" class="edge">
<title>VCoil1&#45;&gt;Activate propulsor</title>
<path fill="none" stroke="red" stroke-width="0.88" d="M188,-181.33C188,-175.2 188,-166.17 188,-155.9"/>
<polygon fill="red" stroke="red" stroke-width="0.88" points="191.5,-155.74 188,-145.74 184.5,-155.74 191.5,-155.74"/>
</g>
<!-- VCoil2 -->
<g id="node5" class="node">
<title>VCoil2</title>
<polygon fill="lightgray" stroke="black" points="276.5,-199.66 229.5,-199.66 229.5,-181.66 276.5,-181.66 276.5,-199.66"/>
<text text-anchor="middle" x="253" y="-188.46" font-family="Times,serif" font-size="9.00">VCoil2</text>
</g>
<!-- VCoil2&#45;&gt;Activate propulsor -->
<g id="edge2" class="edge">
<title>VCoil2&#45;&gt;Activate propulsor</title>
<path fill="none" stroke="green" stroke-width="0.83" d="M248.33,-181.33C243.79,-173.26 236.44,-160.15 228.4,-145.82"/>
<polygon fill="green" stroke="green" stroke-width="0.83" points="231.27,-143.79 223.32,-136.78 225.17,-147.21 231.27,-143.79"/>
</g>
<!-- HCoil12 -->
<g id="node6" class="node">
<title>HCoil12</title>
<polygon fill="lightgray" stroke="black" points="415,-199.66 361,-199.66 361,-181.66 415,-181.66 415,-199.66"/>
<text text-anchor="middle" x="388" y="-188.46" font-family="Times,serif" font-size="9.00">HCoil12</text>
</g>
<!-- HCoil22 -->
<g id="node7" class="node">
<title>HCoil22</title>
<polygon fill="lightgray" stroke="black" points="487,-199.66 433,-199.66 433,-181.66 487,-181.66 487,-199.66"/>
<text text-anchor="middle" x="460" y="-188.46" font-family="Times,serif" font-size="9.00">HCoil22</text>
</g>
<!-- VCoil12 -->
<g id="node8" class="node">
<title>VCoil12</title>
<polygon fill="lightgray" stroke="black" points="558.5,-199.66 505.5,-199.66 505.5,-181.66 558.5,-181.66 558.5,-199.66"/>
<text text-anchor="middle" x="532" y="-188.46" font-family="Times,serif" font-size="9.00">VCoil12</text>
</g>
<!-- VCoil22 -->
<g id="node9" class="node">
<title>VCoil22</title>
<polygon fill="lightgray" stroke="black" points="629.5,-199.66 576.5,-199.66 576.5,-181.66 629.5,-181.66 629.5,-199.66"/>
<text text-anchor="middle" x="603" y="-188.46" font-family="Times,serif" font-size="9.00">VCoil22</text>
</g>
</g>
</svg>
