<?xml version="1.0" encoding="UTF-8" standalone="no"?>
<!DOCTYPE svg PUBLIC "-//W3C//DTD SVG 1.1//EN"
 "http://www.w3.org/Graphics/SVG/1.1/DTD/svg11.dtd">
<!-- Generated by graphviz version 2.43.0 (0)
 -->
<!-- Title: %3 Pages: 1 -->
<svg width="591pt" height="293pt"
 viewBox="0.00 0.00 590.50 293.16" xmlns="http://www.w3.org/2000/svg" xmlns:xlink="http://www.w3.org/1999/xlink">
<g id="graph0" class="graph" transform="scale(1 1) rotate(0) translate(4 289.16)">
<title>%3</title>
<polygon fill="white" stroke="transparent" points="-4,4 -4,-289.16 586.5,-289.16 586.5,4 -4,4"/>
<!-- Player_height -->
<g id="node1" class="node">
<title>Player_height</title>
<polygon fill="lightgray" stroke="black" points="433.5,-167.33 353.5,-167.33 353.5,-149.33 433.5,-149.33 433.5,-167.33"/>
<text text-anchor="middle" x="393.5" y="-156.13" font-family="Times,serif" font-size="9.00">Player_height</text>
</g>
<!-- 888 -->
<g id="node12" class="node">
<title>888</title>
<ellipse fill="white" stroke="black" cx="315.5" cy="-24.75" rx="25" ry="25"/>
<text text-anchor="middle" x="315.5" y="-22.55" font-family="Times,serif" font-size="9.00">888</text>
</g>
<!-- Player_height&#45;&gt;888 -->
<g id="edge6" class="edge">
<title>Player_height&#45;&gt;888</title>
<path fill="none" stroke="green" stroke-width="0.52" d="M388.62,-149.1C377.74,-130.74 351.04,-85.7 333.09,-55.43"/>
<polygon fill="green" stroke="green" stroke-width="0.52" points="335.94,-53.37 327.83,-46.55 329.92,-56.94 335.94,-53.37"/>
</g>
<!-- HCoil1 -->
<g id="node2" class="node">
<title>HCoil1</title>
<polygon fill="lightgray" stroke="black" points="510.5,-285.16 462.5,-285.16 462.5,-267.16 510.5,-267.16 510.5,-285.16"/>
<text text-anchor="middle" x="486.5" y="-273.96" font-family="Times,serif" font-size="9.00">HCoil1</text>
</g>
<!-- HCoil2 -->
<g id="node3" class="node">
<title>HCoil2</title>
<polygon fill="lightgray" stroke="black" points="444.5,-285.16 396.5,-285.16 396.5,-267.16 444.5,-267.16 444.5,-285.16"/>
<text text-anchor="middle" x="420.5" y="-273.96" font-family="Times,serif" font-size="9.00">HCoil2</text>
</g>
<!-- HCoil2&#45;&gt;888 -->
<g id="edge9" class="edge">
<title>HCoil2&#45;&gt;888</title>
<path fill="none" stroke="red" stroke-width="0.18" d="M426.14,-266.85C431.55,-258.32 439.36,-244.46 442.5,-231.16 457.37,-168.15 477.19,-140.16 442.5,-85.5 422.35,-53.75 380.35,-38.57 350.16,-31.51"/>
<polygon fill="red" stroke="red" stroke-width="0.18" points="350.54,-28.02 340.03,-29.35 349.08,-34.86 350.54,-28.02"/>
</g>
<!-- 485 -->
<g id="node13" class="node">
<title>485</title>
<ellipse fill="white" stroke="black" cx="310.5" cy="-158.33" rx="25" ry="25"/>
<text text-anchor="middle" x="310.5" y="-156.13" font-family="Times,serif" font-size="9.00">485</text>
</g>
<!-- HCoil2&#45;&gt;485 -->
<g id="edge3" class="edge">
<title>HCoil2&#45;&gt;485</title>
<path fill="none" stroke="green" stroke-width="0.27" stroke-dasharray="1,5" d="M399.49,-267.14C382.8,-259.87 359.78,-247.76 344.5,-231.16 334.2,-219.97 326.46,-205.1 321,-191.79"/>
<polygon fill="green" stroke="green" stroke-width="0.27" points="324.26,-190.53 317.41,-182.45 317.73,-193.04 324.26,-190.53"/>
</g>
<!-- VCoil1 -->
<g id="node4" class="node">
<title>VCoil1</title>
<polygon fill="lightgray" stroke="black" points="199,-285.16 152,-285.16 152,-267.16 199,-267.16 199,-285.16"/>
<text text-anchor="middle" x="175.5" y="-273.96" font-family="Times,serif" font-size="9.00">VCoil1</text>
</g>
<!-- Activate propulsor -->
<g id="node10" class="node">
<title>Activate propulsor</title>
<ellipse fill="lightblue" stroke="black" cx="80.5" cy="-158.33" rx="72.66" ry="72.66"/>
<text text-anchor="middle" x="80.5" y="-156.13" font-family="Times,serif" font-size="9.00">Activate propulsor</text>
</g>
<!-- VCoil1&#45;&gt;Activate propulsor -->
<g id="edge1" class="edge">
<title>VCoil1&#45;&gt;Activate propulsor</title>
<path fill="none" stroke="red" stroke-width="0.56" d="M168.67,-266.83C160.81,-257.25 147.15,-240.59 132.89,-223.21"/>
<polygon fill="red" stroke="red" stroke-width="0.56" points="135.36,-220.7 126.32,-215.19 129.95,-225.14 135.36,-220.7"/>
</g>
<!-- 1428 -->
<g id="node11" class="node">
<title>1428</title>
<ellipse fill="white" stroke="black" cx="238.5" cy="-158.33" rx="28.98" ry="28.98"/>
<text text-anchor="middle" x="238.5" y="-156.13" font-family="Times,serif" font-size="9.00">1428</text>
</g>
<!-- VCoil1&#45;&gt;1428 -->
<g id="edge10" class="edge">
<title>VCoil1&#45;&gt;1428</title>
<path fill="none" stroke="green" stroke-width="0.39" d="M180.03,-266.83C188.27,-251.68 206.14,-218.82 219.97,-193.39"/>
<polygon fill="green" stroke="green" stroke-width="0.39" points="223.16,-194.87 224.86,-184.41 217.01,-191.52 223.16,-194.87"/>
</g>
<!-- VCoil1&#45;&gt;888 -->
<g id="edge8" class="edge">
<title>VCoil1&#45;&gt;888</title>
<path fill="none" stroke="green" stroke-width="0.24" stroke-dasharray="1,5" d="M174.12,-267.02C169.83,-238.88 159.32,-144.24 200.5,-85.5 219.62,-58.21 255.1,-42.5 281.62,-34.11"/>
<polygon fill="green" stroke="green" stroke-width="0.24" points="282.69,-37.44 291.29,-31.24 280.7,-30.73 282.69,-37.44"/>
</g>
<!-- VCoil1&#45;&gt;485 -->
<g id="edge4" class="edge">
<title>VCoil1&#45;&gt;485</title>
<path fill="none" stroke="red" stroke-width="0.18" stroke-dasharray="1,5" d="M199.01,-267.1C225.07,-257.8 264.96,-242.34 276.5,-231.16 287.5,-220.5 295.36,-205.57 300.72,-192.08"/>
<polygon fill="red" stroke="red" stroke-width="0.18" points="304.05,-193.19 304.2,-182.6 297.47,-190.78 304.05,-193.19"/>
</g>
<!-- VCoil2 -->
<g id="node5" class="node">
<title>VCoil2</title>
<polygon fill="lightgray" stroke="black" points="47,-285.16 0,-285.16 0,-267.16 47,-267.16 47,-285.16"/>
<text text-anchor="middle" x="23.5" y="-273.96" font-family="Times,serif" font-size="9.00">VCoil2</text>
</g>
<!-- VCoil2&#45;&gt;Activate propulsor -->
<g id="edge2" class="edge">
<title>VCoil2&#45;&gt;Activate propulsor</title>
<path fill="none" stroke="green" stroke-width="0.73" d="M27.6,-266.83C31.41,-259.09 37.5,-246.72 44.21,-233.08"/>
<polygon fill="green" stroke="green" stroke-width="0.73" points="47.42,-234.49 48.69,-223.97 41.13,-231.4 47.42,-234.49"/>
</g>
<!-- HCoil12 -->
<g id="node6" class="node">
<title>HCoil12</title>
<polygon fill="lightgray" stroke="black" points="582.5,-285.16 528.5,-285.16 528.5,-267.16 582.5,-267.16 582.5,-285.16"/>
<text text-anchor="middle" x="555.5" y="-273.96" font-family="Times,serif" font-size="9.00">HCoil12</text>
</g>
<!-- HCoil22 -->
<g id="node7" class="node">
<title>HCoil22</title>
<polygon fill="lightgray" stroke="black" points="271.5,-285.16 217.5,-285.16 217.5,-267.16 271.5,-267.16 271.5,-285.16"/>
<text text-anchor="middle" x="244.5" y="-273.96" font-family="Times,serif" font-size="9.00">HCoil22</text>
</g>
<!-- HCoil22&#45;&gt;1428 -->
<g id="edge12" class="edge">
<title>HCoil22&#45;&gt;1428</title>
<path fill="none" stroke="red" stroke-width="0.3" d="M244.07,-266.83C243.33,-252.49 241.76,-222.28 240.48,-197.53"/>
<polygon fill="red" stroke="red" stroke-width="0.3" points="243.96,-197.13 239.95,-187.32 236.97,-197.49 243.96,-197.13"/>
</g>
<!-- VCoil12 -->
<g id="node8" class="node">
<title>VCoil12</title>
<polygon fill="lightgray" stroke="black" points="118,-285.16 65,-285.16 65,-267.16 118,-267.16 118,-285.16"/>
<text text-anchor="middle" x="91.5" y="-273.96" font-family="Times,serif" font-size="9.00">VCoil12</text>
</g>
<!-- VCoil12&#45;&gt;Activate propulsor -->
<g id="edge5" class="edge">
<title>VCoil12&#45;&gt;Activate propulsor</title>
<path fill="none" stroke="green" stroke-width="0.37" d="M90.71,-266.83C90.12,-260.66 89.26,-251.55 88.28,-241.2"/>
<polygon fill="green" stroke="green" stroke-width="0.37" points="91.73,-240.58 87.3,-230.96 84.76,-241.25 91.73,-240.58"/>
</g>
<!-- VCoil22 -->
<g id="node9" class="node">
<title>VCoil22</title>
<polygon fill="lightgray" stroke="black" points="343,-285.16 290,-285.16 290,-267.16 343,-267.16 343,-285.16"/>
<text text-anchor="middle" x="316.5" y="-273.96" font-family="Times,serif" font-size="9.00">VCoil22</text>
</g>
<!-- VCoil22&#45;&gt;485 -->
<g id="edge7" class="edge">
<title>VCoil22&#45;&gt;485</title>
<path fill="none" stroke="green" stroke-width="0.44" d="M316.07,-266.83C315.28,-251.69 313.59,-218.89 312.27,-193.48"/>
<polygon fill="green" stroke="green" stroke-width="0.44" points="315.76,-193.27 311.75,-183.46 308.77,-193.63 315.76,-193.27"/>
</g>
<!-- 1428&#45;&gt;888 -->
<g id="edge11" class="edge">
<title>1428&#45;&gt;888</title>
<path fill="none" stroke="red" stroke-width="0.46" d="M251.14,-132.09C258.28,-118.17 267.55,-100.69 276.5,-85.5 282.61,-75.12 289.71,-64.01 296.16,-54.21"/>
<polygon fill="red" stroke="red" stroke-width="0.46" points="299.23,-55.91 301.85,-45.65 293.4,-52.04 299.23,-55.91"/>
</g>
</g>
</svg>
