<?xml version="1.0" encoding="UTF-8" standalone="no"?>
<!DOCTYPE svg PUBLIC "-//W3C//DTD SVG 1.1//EN"
 "http://www.w3.org/Graphics/SVG/1.1/DTD/svg11.dtd">
<!-- Generated by graphviz version 2.43.0 (0)
 -->
<!-- Title: %3 Pages: 1 -->
<svg width="639pt" height="208pt"
 viewBox="0.00 0.00 638.50 207.66" xmlns="http://www.w3.org/2000/svg" xmlns:xlink="http://www.w3.org/1999/xlink">
<g id="graph0" class="graph" transform="scale(1 1) rotate(0) translate(4 203.66)">
<title>%3</title>
<polygon fill="white" stroke="transparent" points="-4,4 -4,-203.66 634.5,-203.66 634.5,4 -4,4"/>
<!-- Player_height -->
<g id="node1" class="node">
<title>Player_height</title>
<polygon fill="lightgray" stroke="black" points="80,-199.66 0,-199.66 0,-181.66 80,-181.66 80,-199.66"/>
<text text-anchor="middle" x="40" y="-188.46" font-family="Times,serif" font-size="9.00">Player_height</text>
</g>
<!-- Activate propulsor -->
<g id="node10" class="node">
<title>Activate propulsor</title>
<ellipse fill="lightblue" stroke="black" cx="222" cy="-72.83" rx="72.66" ry="72.66"/>
<text text-anchor="middle" x="222" y="-70.63" font-family="Times,serif" font-size="9.00">Activate propulsor</text>
</g>
<!-- Player_height&#45;&gt;Activate propulsor -->
<g id="edge1" class="edge">
<title>Player_height&#45;&gt;Activate propulsor</title>
<path fill="none" stroke="red" stroke-width="0.11" stroke-dasharray="1,5" d="M52.8,-181.52C73.32,-168.46 115.04,-141.9 151.92,-118.44"/>
<polygon fill="red" stroke="red" stroke-width="0.11" points="154.12,-121.18 160.68,-112.86 150.36,-115.28 154.12,-121.18"/>
</g>
<!-- HCoil1 -->
<g id="node2" class="node">
<title>HCoil1</title>
<polygon fill="lightgray" stroke="black" points="494,-199.66 446,-199.66 446,-181.66 494,-181.66 494,-199.66"/>
<text text-anchor="middle" x="470" y="-188.46" font-family="Times,serif" font-size="9.00">HCoil1</text>
</g>
<!-- HCoil2 -->
<g id="node3" class="node">
<title>HCoil2</title>
<polygon fill="lightgray" stroke="black" points="146,-199.66 98,-199.66 98,-181.66 146,-181.66 146,-199.66"/>
<text text-anchor="middle" x="122" y="-188.46" font-family="Times,serif" font-size="9.00">HCoil2</text>
</g>
<!-- HCoil2&#45;&gt;Activate propulsor -->
<g id="edge2" class="edge">
<title>HCoil2&#45;&gt;Activate propulsor</title>
<path fill="none" stroke="green" stroke-width="0.11" d="M129.19,-181.33C137.69,-171.48 152.66,-154.16 168.11,-136.25"/>
<polygon fill="green" stroke="green" stroke-width="0.11" points="170.87,-138.42 174.75,-128.56 165.57,-133.84 170.87,-138.42"/>
</g>
<!-- VCoil1 -->
<g id="node4" class="node">
<title>VCoil1</title>
<polygon fill="lightgray" stroke="black" points="211.5,-199.66 164.5,-199.66 164.5,-181.66 211.5,-181.66 211.5,-199.66"/>
<text text-anchor="middle" x="188" y="-188.46" font-family="Times,serif" font-size="9.00">VCoil1</text>
</g>
<!-- VCoil1&#45;&gt;Activate propulsor -->
<g id="edge3" class="edge">
<title>VCoil1&#45;&gt;Activate propulsor</title>
<path fill="none" stroke="green" stroke-width="0.22" d="M190.45,-181.33C192.42,-174.61 195.42,-164.39 198.8,-152.88"/>
<polygon fill="green" stroke="green" stroke-width="0.22" points="202.25,-153.54 201.71,-142.96 195.53,-151.57 202.25,-153.54"/>
</g>
<!-- VCoil2 -->
<g id="node5" class="node">
<title>VCoil2</title>
<polygon fill="lightgray" stroke="black" points="559.5,-199.66 512.5,-199.66 512.5,-181.66 559.5,-181.66 559.5,-199.66"/>
<text text-anchor="middle" x="536" y="-188.46" font-family="Times,serif" font-size="9.00">VCoil2</text>
</g>
<!-- HCoil12 -->
<g id="node6" class="node">
<title>HCoil12</title>
<polygon fill="lightgray" stroke="black" points="284,-199.66 230,-199.66 230,-181.66 284,-181.66 284,-199.66"/>
<text text-anchor="middle" x="257" y="-188.46" font-family="Times,serif" font-size="9.00">HCoil12</text>
</g>
<!-- HCoil12&#45;&gt;Activate propulsor -->
<g id="edge4" class="edge">
<title>HCoil12&#45;&gt;Activate propulsor</title>
<path fill="none" stroke="green" stroke-width="0.49" d="M254.48,-181.33C252.42,-174.5 249.26,-164.06 245.72,-152.33"/>
<polygon fill="green" stroke="green" stroke-width="0.49" points="249.05,-151.24 242.8,-142.68 242.35,-153.27 249.05,-151.24"/>
</g>
<!-- HCoil22 -->
<g id="node7" class="node">
<title>HCoil22</title>
<polygon fill="lightgray" stroke="black" points="356,-199.66 302,-199.66 302,-181.66 356,-181.66 356,-199.66"/>
<text text-anchor="middle" x="329" y="-188.46" font-family="Times,serif" font-size="9.00">HCoil22</text>
</g>
<!-- HCoil22&#45;&gt;Activate propulsor -->
<g id="edge5" class="edge">
<title>HCoil22&#45;&gt;Activate propulsor</title>
<path fill="none" stroke="red" stroke-width="0.42" d="M321.3,-181.33C311.87,-171.12 295.01,-152.87 277.83,-134.27"/>
<polygon fill="red" stroke="red" stroke-width="0.42" points="280.34,-131.83 270.99,-126.86 275.2,-136.58 280.34,-131.83"/>
</g>
<!-- VCoil12 -->
<g id="node8" class="node">
<title>VCoil12</title>
<polygon fill="lightgray" stroke="black" points="427.5,-199.66 374.5,-199.66 374.5,-181.66 427.5,-181.66 427.5,-199.66"/>
<text text-anchor="middle" x="401" y="-188.46" font-family="Times,serif" font-size="9.00">VCoil12</text>
</g>
<!-- VCoil12&#45;&gt;Activate propulsor -->
<g id="edge6" class="edge">
<title>VCoil12&#45;&gt;Activate propulsor</title>
<path fill="none" stroke="green" stroke-width="0.44" d="M388.41,-181.52C368.3,-168.5 327.49,-142.1 291.33,-118.69"/>
<polygon fill="green" stroke="green" stroke-width="0.44" points="293.03,-115.62 282.73,-113.13 289.22,-121.5 293.03,-115.62"/>
</g>
<!-- VCoil22 -->
<g id="node9" class="node">
<title>VCoil22</title>
<polygon fill="lightgray" stroke="black" points="630.5,-199.66 577.5,-199.66 577.5,-181.66 630.5,-181.66 630.5,-199.66"/>
<text text-anchor="middle" x="604" y="-188.46" font-family="Times,serif" font-size="9.00">VCoil22</text>
</g>
</g>
</svg>
