<?xml version="1.0" encoding="UTF-8" standalone="no"?>
<!DOCTYPE svg PUBLIC "-//W3C//DTD SVG 1.1//EN"
 "http://www.w3.org/Graphics/SVG/1.1/DTD/svg11.dtd">
<!-- Generated by graphviz version 2.43.0 (0)
 -->
<!-- Title: %3 Pages: 1 -->
<svg width="639pt" height="208pt"
 viewBox="0.00 0.00 638.50 207.66" xmlns="http://www.w3.org/2000/svg" xmlns:xlink="http://www.w3.org/1999/xlink">
<g id="graph0" class="graph" transform="scale(1 1) rotate(0) translate(4 203.66)">
<title>%3</title>
<polygon fill="white" stroke="transparent" points="-4,4 -4,-203.66 634.5,-203.66 634.5,4 -4,4"/>
<!-- Player_height -->
<g id="node1" class="node">
<title>Player_height</title>
<polygon fill="lightgray" stroke="black" points="80,-199.66 0,-199.66 0,-181.66 80,-181.66 80,-199.66"/>
<text text-anchor="middle" x="40" y="-188.46" font-family="Times,serif" font-size="9.00">Player_height</text>
</g>
<!-- Activate propulsor -->
<g id="node10" class="node">
<title>Activate propulsor</title>
<ellipse fill="lightblue" stroke="black" cx="254" cy="-72.83" rx="72.66" ry="72.66"/>
<text text-anchor="middle" x="254" y="-70.63" font-family="Times,serif" font-size="9.00">Activate propulsor</text>
</g>
<!-- Player_height&#45;&gt;Activate propulsor -->
<g id="edge1" class="edge">
<title>Player_height&#45;&gt;Activate propulsor</title>
<path fill="none" stroke="green" stroke-width="0.19" d="M55.05,-181.52C81,-167.47 135.78,-137.82 181.3,-113.18"/>
<polygon fill="green" stroke="green" stroke-width="0.19" points="183.14,-116.16 190.27,-108.33 179.81,-110.01 183.14,-116.16"/>
</g>
<!-- HCoil1 -->
<g id="node2" class="node">
<title>HCoil1</title>
<polygon fill="lightgray" stroke="black" points="146,-199.66 98,-199.66 98,-181.66 146,-181.66 146,-199.66"/>
<text text-anchor="middle" x="122" y="-188.46" font-family="Times,serif" font-size="9.00">HCoil1</text>
</g>
<!-- HCoil1&#45;&gt;Activate propulsor -->
<g id="edge2" class="edge">
<title>HCoil1&#45;&gt;Activate propulsor</title>
<path fill="none" stroke="red" stroke-width="0.27" stroke-dasharray="1,5" d="M131.49,-181.33C144.4,-170.01 168.58,-148.79 192.07,-128.17"/>
<polygon fill="red" stroke="red" stroke-width="0.27" points="194.45,-130.74 199.66,-121.51 189.84,-125.48 194.45,-130.74"/>
</g>
<!-- HCoil2 -->
<g id="node3" class="node">
<title>HCoil2</title>
<polygon fill="lightgray" stroke="black" points="212,-199.66 164,-199.66 164,-181.66 212,-181.66 212,-199.66"/>
<text text-anchor="middle" x="188" y="-188.46" font-family="Times,serif" font-size="9.00">HCoil2</text>
</g>
<!-- HCoil2&#45;&gt;Activate propulsor -->
<g id="edge3" class="edge">
<title>HCoil2&#45;&gt;Activate propulsor</title>
<path fill="none" stroke="green" stroke-width="0.5" d="M192.75,-181.33C197.42,-173.14 205.04,-159.76 213.34,-145.19"/>
<polygon fill="green" stroke="green" stroke-width="0.5" points="216.38,-146.92 218.29,-136.5 210.3,-143.45 216.38,-146.92"/>
</g>
<!-- VCoil1 -->
<g id="node4" class="node">
<title>VCoil1</title>
<polygon fill="lightgray" stroke="black" points="277.5,-199.66 230.5,-199.66 230.5,-181.66 277.5,-181.66 277.5,-199.66"/>
<text text-anchor="middle" x="254" y="-188.46" font-family="Times,serif" font-size="9.00">VCoil1</text>
</g>
<!-- VCoil1&#45;&gt;Activate propulsor -->
<g id="edge4" class="edge">
<title>VCoil1&#45;&gt;Activate propulsor</title>
<path fill="none" stroke="green" stroke-width="0.44" stroke-dasharray="1,5" d="M254,-181.33C254,-175.2 254,-166.17 254,-155.9"/>
<polygon fill="green" stroke="green" stroke-width="0.44" points="257.5,-155.74 254,-145.74 250.5,-155.74 257.5,-155.74"/>
</g>
<!-- VCoil2 -->
<g id="node5" class="node">
<title>VCoil2</title>
<polygon fill="lightgray" stroke="black" points="342.5,-199.66 295.5,-199.66 295.5,-181.66 342.5,-181.66 342.5,-199.66"/>
<text text-anchor="middle" x="319" y="-188.46" font-family="Times,serif" font-size="9.00">VCoil2</text>
</g>
<!-- VCoil2&#45;&gt;Activate propulsor -->
<g id="edge5" class="edge">
<title>VCoil2&#45;&gt;Activate propulsor</title>
<path fill="none" stroke="green" stroke-width="0.48" d="M314.33,-181.33C309.79,-173.26 302.44,-160.15 294.4,-145.82"/>
<polygon fill="green" stroke="green" stroke-width="0.48" points="297.27,-143.79 289.32,-136.78 291.17,-147.21 297.27,-143.79"/>
</g>
<!-- HCoil12 -->
<g id="node6" class="node">
<title>HCoil12</title>
<polygon fill="lightgray" stroke="black" points="415,-199.66 361,-199.66 361,-181.66 415,-181.66 415,-199.66"/>
<text text-anchor="middle" x="388" y="-188.46" font-family="Times,serif" font-size="9.00">HCoil12</text>
</g>
<!-- HCoil12&#45;&gt;Activate propulsor -->
<g id="edge6" class="edge">
<title>HCoil12&#45;&gt;Activate propulsor</title>
<path fill="none" stroke="green" stroke-width="0.13" d="M378.36,-181.33C365.2,-169.96 340.51,-148.61 316.57,-127.92"/>
<polygon fill="green" stroke="green" stroke-width="0.13" points="318.69,-125.13 308.84,-121.24 314.11,-130.42 318.69,-125.13"/>
</g>
<!-- HCoil22 -->
<g id="node7" class="node">
<title>HCoil22</title>
<polygon fill="lightgray" stroke="black" points="559,-199.66 505,-199.66 505,-181.66 559,-181.66 559,-199.66"/>
<text text-anchor="middle" x="532" y="-188.46" font-family="Times,serif" font-size="9.00">HCoil22</text>
</g>
<!-- VCoil12 -->
<g id="node8" class="node">
<title>VCoil12</title>
<polygon fill="lightgray" stroke="black" points="486.5,-199.66 433.5,-199.66 433.5,-181.66 486.5,-181.66 486.5,-199.66"/>
<text text-anchor="middle" x="460" y="-188.46" font-family="Times,serif" font-size="9.00">VCoil12</text>
</g>
<!-- VCoil12&#45;&gt;Activate propulsor -->
<g id="edge7" class="edge">
<title>VCoil12&#45;&gt;Activate propulsor</title>
<path fill="none" stroke="green" stroke-width="0.24" d="M445.51,-181.52C420.92,-167.69 369.46,-138.75 326.06,-114.35"/>
<polygon fill="green" stroke="green" stroke-width="0.24" points="327.65,-111.23 317.22,-109.38 324.22,-117.33 327.65,-111.23"/>
</g>
<!-- VCoil22 -->
<g id="node9" class="node">
<title>VCoil22</title>
<polygon fill="lightgray" stroke="black" points="630.5,-199.66 577.5,-199.66 577.5,-181.66 630.5,-181.66 630.5,-199.66"/>
<text text-anchor="middle" x="604" y="-188.46" font-family="Times,serif" font-size="9.00">VCoil22</text>
</g>
</g>
</svg>
