<?xml version="1.0" encoding="UTF-8" standalone="no"?>
<!DOCTYPE svg PUBLIC "-//W3C//DTD SVG 1.1//EN"
 "http://www.w3.org/Graphics/SVG/1.1/DTD/svg11.dtd">
<!-- Generated by graphviz version 2.43.0 (0)
 -->
<!-- Title: %3 Pages: 1 -->
<svg width="676pt" height="302pt"
 viewBox="0.00 0.00 676.00 301.65" xmlns="http://www.w3.org/2000/svg" xmlns:xlink="http://www.w3.org/1999/xlink">
<g id="graph0" class="graph" transform="scale(1 1) rotate(0) translate(4 297.65)">
<title>%3</title>
<polygon fill="white" stroke="transparent" points="-4,4 -4,-297.65 672,-297.65 672,4 -4,4"/>
<!-- Player_height -->
<g id="node1" class="node">
<title>Player_height</title>
<polygon fill="lightgray" stroke="black" points="80,-219.66 0,-219.66 0,-201.66 80,-201.66 80,-219.66"/>
<text text-anchor="middle" x="40" y="-208.46" font-family="Times,serif" font-size="9.00">Player_height</text>
</g>
<!-- 485 -->
<g id="node11" class="node">
<title>485</title>
<ellipse fill="white" stroke="black" cx="122" cy="-72.83" rx="25" ry="25"/>
<text text-anchor="middle" x="122" y="-70.63" font-family="Times,serif" font-size="9.00">485</text>
</g>
<!-- Player_height&#45;&gt;485 -->
<g id="edge12" class="edge">
<title>Player_height&#45;&gt;485</title>
<path fill="none" stroke="red" stroke-width="0.11" d="M44.88,-201.57C56.31,-182.65 85.23,-134.73 104.23,-103.26"/>
<polygon fill="red" stroke="red" stroke-width="0.11" points="107.37,-104.84 109.54,-94.47 101.38,-101.22 107.37,-104.84"/>
</g>
<!-- HCoil1 -->
<g id="node2" class="node">
<title>HCoil1</title>
<polygon fill="lightgray" stroke="black" points="596,-293.65 548,-293.65 548,-275.65 596,-275.65 596,-293.65"/>
<text text-anchor="middle" x="572" y="-282.45" font-family="Times,serif" font-size="9.00">HCoil1</text>
</g>
<!-- HCoil2 -->
<g id="node3" class="node">
<title>HCoil2</title>
<polygon fill="lightgray" stroke="black" points="146,-219.66 98,-219.66 98,-201.66 146,-201.66 146,-219.66"/>
<text text-anchor="middle" x="122" y="-208.46" font-family="Times,serif" font-size="9.00">HCoil2</text>
</g>
<!-- HCoil2&#45;&gt;485 -->
<g id="edge4" class="edge">
<title>HCoil2&#45;&gt;485</title>
<path fill="none" stroke="red" stroke-width="0.13" stroke-dasharray="1,5" d="M122,-201.57C122,-183.56 122,-139.27 122,-107.92"/>
<polygon fill="red" stroke="red" stroke-width="0.13" points="125.5,-107.83 122,-97.83 118.5,-107.83 125.5,-107.83"/>
</g>
<!-- VCoil1 -->
<g id="node4" class="node">
<title>VCoil1</title>
<polygon fill="lightgray" stroke="black" points="211.5,-219.66 164.5,-219.66 164.5,-201.66 211.5,-201.66 211.5,-219.66"/>
<text text-anchor="middle" x="188" y="-208.46" font-family="Times,serif" font-size="9.00">VCoil1</text>
</g>
<!-- Activate propulsor -->
<g id="node10" class="node">
<title>Activate propulsor</title>
<ellipse fill="lightblue" stroke="black" cx="266" cy="-72.83" rx="72.66" ry="72.66"/>
<text text-anchor="middle" x="266" y="-70.63" font-family="Times,serif" font-size="9.00">Activate propulsor</text>
</g>
<!-- VCoil1&#45;&gt;Activate propulsor -->
<g id="edge1" class="edge">
<title>VCoil1&#45;&gt;Activate propulsor</title>
<path fill="none" stroke="red" stroke-width="0.73" d="M192.65,-201.57C199.25,-190.07 212,-167.87 225.04,-145.16"/>
<polygon fill="red" stroke="red" stroke-width="0.73" points="228.09,-146.87 230.04,-136.45 222.02,-143.38 228.09,-146.87"/>
</g>
<!-- VCoil1&#45;&gt;485 -->
<g id="edge5" class="edge">
<title>VCoil1&#45;&gt;485</title>
<path fill="none" stroke="red" stroke-width="0.14" d="M184.07,-201.57C175.02,-182.93 152.3,-136.18 137.01,-104.71"/>
<polygon fill="red" stroke="red" stroke-width="0.14" points="140.04,-102.95 132.52,-95.49 133.74,-106.01 140.04,-102.95"/>
</g>
<!-- VCoil2 -->
<g id="node5" class="node">
<title>VCoil2</title>
<polygon fill="lightgray" stroke="black" points="347.5,-219.66 300.5,-219.66 300.5,-201.66 347.5,-201.66 347.5,-219.66"/>
<text text-anchor="middle" x="324" y="-208.46" font-family="Times,serif" font-size="9.00">VCoil2</text>
</g>
<!-- VCoil2&#45;&gt;Activate propulsor -->
<g id="edge2" class="edge">
<title>VCoil2&#45;&gt;Activate propulsor</title>
<path fill="none" stroke="green" stroke-width="0.83" d="M320.55,-201.57C315.96,-190.82 307.37,-170.72 298.35,-149.6"/>
<polygon fill="green" stroke="green" stroke-width="0.83" points="301.48,-148 294.33,-140.18 295.04,-150.75 301.48,-148"/>
</g>
<!-- 521 -->
<g id="node13" class="node">
<title>521</title>
<ellipse fill="white" stroke="black" cx="392" cy="-72.83" rx="25" ry="25"/>
<text text-anchor="middle" x="392" y="-70.63" font-family="Times,serif" font-size="9.00">521</text>
</g>
<!-- VCoil2&#45;&gt;521 -->
<g id="edge11" class="edge">
<title>VCoil2&#45;&gt;521</title>
<path fill="none" stroke="red" stroke-width="0.68" d="M328.05,-201.57C337.4,-182.88 360.91,-135.92 376.67,-104.45"/>
<polygon fill="red" stroke="red" stroke-width="0.68" points="379.94,-105.74 381.29,-95.23 373.68,-102.6 379.94,-105.74"/>
</g>
<!-- HCoil12 -->
<g id="node6" class="node">
<title>HCoil12</title>
<polygon fill="lightgray" stroke="black" points="668,-293.65 614,-293.65 614,-275.65 668,-275.65 668,-293.65"/>
<text text-anchor="middle" x="641" y="-282.45" font-family="Times,serif" font-size="9.00">HCoil12</text>
</g>
<!-- HCoil22 -->
<g id="node7" class="node">
<title>HCoil22</title>
<polygon fill="lightgray" stroke="black" points="530,-293.65 476,-293.65 476,-275.65 530,-275.65 530,-293.65"/>
<text text-anchor="middle" x="503" y="-282.45" font-family="Times,serif" font-size="9.00">HCoil22</text>
</g>
<!-- 1222 -->
<g id="node12" class="node">
<title>1222</title>
<ellipse fill="white" stroke="black" cx="465" cy="-210.66" rx="28.98" ry="28.98"/>
<text text-anchor="middle" x="465" y="-208.46" font-family="Times,serif" font-size="9.00">1222</text>
</g>
<!-- HCoil22&#45;&gt;1222 -->
<g id="edge8" class="edge">
<title>HCoil22&#45;&gt;1222</title>
<path fill="none" stroke="red" stroke-width="0.3" d="M498.64,-275.39C494.77,-268.06 488.85,-256.84 483.05,-245.84"/>
<polygon fill="red" stroke="red" stroke-width="0.3" points="486.01,-243.96 478.25,-236.75 479.82,-247.23 486.01,-243.96"/>
</g>
<!-- 1582 -->
<g id="node14" class="node">
<title>1582</title>
<ellipse fill="white" stroke="black" cx="541" cy="-210.66" rx="28.98" ry="28.98"/>
<text text-anchor="middle" x="541" y="-208.46" font-family="Times,serif" font-size="9.00">1582</text>
</g>
<!-- HCoil22&#45;&gt;1582 -->
<g id="edge10" class="edge">
<title>HCoil22&#45;&gt;1582</title>
<path fill="none" stroke="red" stroke-width="0.19" d="M507.36,-275.39C511.23,-268.06 517.15,-256.84 522.95,-245.84"/>
<polygon fill="red" stroke="red" stroke-width="0.19" points="526.18,-247.23 527.75,-236.75 519.99,-243.96 526.18,-247.23"/>
</g>
<!-- VCoil12 -->
<g id="node8" class="node">
<title>VCoil12</title>
<polygon fill="lightgray" stroke="black" points="282.5,-219.66 229.5,-219.66 229.5,-201.66 282.5,-201.66 282.5,-219.66"/>
<text text-anchor="middle" x="256" y="-208.46" font-family="Times,serif" font-size="9.00">VCoil12</text>
</g>
<!-- VCoil12&#45;&gt;Activate propulsor -->
<g id="edge7" class="edge">
<title>VCoil12&#45;&gt;Activate propulsor</title>
<path fill="none" stroke="green" stroke-width="0.14" d="M256.6,-201.57C257.31,-191.84 258.59,-174.45 259.98,-155.57"/>
<polygon fill="green" stroke="green" stroke-width="0.14" points="263.47,-155.83 260.72,-145.6 256.49,-155.31 263.47,-155.83"/>
</g>
<!-- VCoil22 -->
<g id="node9" class="node">
<title>VCoil22</title>
<polygon fill="lightgray" stroke="black" points="418.5,-219.66 365.5,-219.66 365.5,-201.66 418.5,-201.66 418.5,-219.66"/>
<text text-anchor="middle" x="392" y="-208.46" font-family="Times,serif" font-size="9.00">VCoil22</text>
</g>
<!-- VCoil22&#45;&gt;Activate propulsor -->
<g id="edge3" class="edge">
<title>VCoil22&#45;&gt;Activate propulsor</title>
<path fill="none" stroke="red" stroke-width="0.16" stroke-dasharray="1,5" d="M384.5,-201.57C372.1,-188.2 346.28,-160.37 321.9,-134.09"/>
<polygon fill="red" stroke="red" stroke-width="0.16" points="324.44,-131.68 315.08,-126.73 319.31,-136.45 324.44,-131.68"/>
</g>
<!-- VCoil22&#45;&gt;521 -->
<g id="edge6" class="edge">
<title>VCoil22&#45;&gt;521</title>
<path fill="none" stroke="red" stroke-width="0.42" d="M392,-201.57C392,-183.56 392,-139.27 392,-107.92"/>
<polygon fill="red" stroke="red" stroke-width="0.42" points="395.5,-107.83 392,-97.83 388.5,-107.83 395.5,-107.83"/>
</g>
<!-- 1222&#45;&gt;521 -->
<g id="edge9" class="edge">
<title>1222&#45;&gt;521</title>
<path fill="none" stroke="red" stroke-width="0.45" d="M451.61,-184.74C439.4,-162.03 421.33,-128.41 408.29,-104.14"/>
<polygon fill="red" stroke="red" stroke-width="0.45" points="411.2,-102.17 403.39,-95.02 405.04,-105.48 411.2,-102.17"/>
</g>
</g>
</svg>
