<?xml version="1.0" encoding="UTF-8" standalone="no"?>
<!DOCTYPE svg PUBLIC "-//W3C//DTD SVG 1.1//EN"
 "http://www.w3.org/Graphics/SVG/1.1/DTD/svg11.dtd">
<!-- Generated by graphviz version 2.43.0 (0)
 -->
<!-- Title: %3 Pages: 1 -->
<svg width="639pt" height="208pt"
 viewBox="0.00 0.00 638.50 207.66" xmlns="http://www.w3.org/2000/svg" xmlns:xlink="http://www.w3.org/1999/xlink">
<g id="graph0" class="graph" transform="scale(1 1) rotate(0) translate(4 203.66)">
<title>%3</title>
<polygon fill="white" stroke="transparent" points="-4,4 -4,-203.66 634.5,-203.66 634.5,4 -4,4"/>
<!-- Player_height -->
<g id="node1" class="node">
<title>Player_height</title>
<polygon fill="lightgray" stroke="black" points="80,-199.66 0,-199.66 0,-181.66 80,-181.66 80,-199.66"/>
<text text-anchor="middle" x="40" y="-188.46" font-family="Times,serif" font-size="9.00">Player_height</text>
</g>
<!-- Activate propulsor -->
<g id="node10" class="node">
<title>Activate propulsor</title>
<ellipse fill="lightblue" stroke="black" cx="253" cy="-72.83" rx="72.66" ry="72.66"/>
<text text-anchor="middle" x="253" y="-70.63" font-family="Times,serif" font-size="9.00">Activate propulsor</text>
</g>
<!-- Player_height&#45;&gt;Activate propulsor -->
<g id="edge1" class="edge">
<title>Player_height&#45;&gt;Activate propulsor</title>
<path fill="none" stroke="green" stroke-width="0.11" d="M54.98,-181.52C80.72,-167.52 134.96,-138.02 180.18,-113.44"/>
<polygon fill="green" stroke="green" stroke-width="0.11" points="181.97,-116.44 189.09,-108.59 178.63,-110.29 181.97,-116.44"/>
</g>
<!-- HCoil1 -->
<g id="node2" class="node">
<title>HCoil1</title>
<polygon fill="lightgray" stroke="black" points="559,-199.66 511,-199.66 511,-181.66 559,-181.66 559,-199.66"/>
<text text-anchor="middle" x="535" y="-188.46" font-family="Times,serif" font-size="9.00">HCoil1</text>
</g>
<!-- HCoil2 -->
<g id="node3" class="node">
<title>HCoil2</title>
<polygon fill="lightgray" stroke="black" points="146,-199.66 98,-199.66 98,-181.66 146,-181.66 146,-199.66"/>
<text text-anchor="middle" x="122" y="-188.46" font-family="Times,serif" font-size="9.00">HCoil2</text>
</g>
<!-- HCoil2&#45;&gt;Activate propulsor -->
<g id="edge2" class="edge">
<title>HCoil2&#45;&gt;Activate propulsor</title>
<path fill="none" stroke="red" stroke-width="0.37" d="M131.42,-181.33C144.18,-170.05 168.03,-148.96 191.25,-128.43"/>
<polygon fill="red" stroke="red" stroke-width="0.37" points="193.58,-131.04 198.76,-121.79 188.95,-125.8 193.58,-131.04"/>
</g>
<!-- VCoil1 -->
<g id="node4" class="node">
<title>VCoil1</title>
<polygon fill="lightgray" stroke="black" points="211.5,-199.66 164.5,-199.66 164.5,-181.66 211.5,-181.66 211.5,-199.66"/>
<text text-anchor="middle" x="188" y="-188.46" font-family="Times,serif" font-size="9.00">VCoil1</text>
</g>
<!-- VCoil1&#45;&gt;Activate propulsor -->
<g id="edge3" class="edge">
<title>VCoil1&#45;&gt;Activate propulsor</title>
<path fill="none" stroke="red" stroke-width="0.24" d="M192.67,-181.33C197.21,-173.26 204.56,-160.15 212.6,-145.82"/>
<polygon fill="red" stroke="red" stroke-width="0.24" points="215.83,-147.21 217.68,-136.78 209.73,-143.79 215.83,-147.21"/>
</g>
<!-- VCoil2 -->
<g id="node5" class="node">
<title>VCoil2</title>
<polygon fill="lightgray" stroke="black" points="276.5,-199.66 229.5,-199.66 229.5,-181.66 276.5,-181.66 276.5,-199.66"/>
<text text-anchor="middle" x="253" y="-188.46" font-family="Times,serif" font-size="9.00">VCoil2</text>
</g>
<!-- VCoil2&#45;&gt;Activate propulsor -->
<g id="edge4" class="edge">
<title>VCoil2&#45;&gt;Activate propulsor</title>
<path fill="none" stroke="green" stroke-width="0.31" d="M253,-181.33C253,-175.2 253,-166.17 253,-155.9"/>
<polygon fill="green" stroke="green" stroke-width="0.31" points="256.5,-155.74 253,-145.74 249.5,-155.74 256.5,-155.74"/>
</g>
<!-- HCoil12 -->
<g id="node6" class="node">
<title>HCoil12</title>
<polygon fill="lightgray" stroke="black" points="349,-199.66 295,-199.66 295,-181.66 349,-181.66 349,-199.66"/>
<text text-anchor="middle" x="322" y="-188.46" font-family="Times,serif" font-size="9.00">HCoil12</text>
</g>
<!-- HCoil12&#45;&gt;Activate propulsor -->
<g id="edge5" class="edge">
<title>HCoil12&#45;&gt;Activate propulsor</title>
<path fill="none" stroke="green" stroke-width="0.25" d="M317.04,-181.33C312.1,-173.05 304.02,-159.48 295.23,-144.72"/>
<polygon fill="green" stroke="green" stroke-width="0.25" points="298.12,-142.73 289.99,-135.93 292.1,-146.31 298.12,-142.73"/>
</g>
<!-- HCoil22 -->
<g id="node7" class="node">
<title>HCoil22</title>
<polygon fill="lightgray" stroke="black" points="421,-199.66 367,-199.66 367,-181.66 421,-181.66 421,-199.66"/>
<text text-anchor="middle" x="394" y="-188.46" font-family="Times,serif" font-size="9.00">HCoil22</text>
</g>
<!-- HCoil22&#45;&gt;Activate propulsor -->
<g id="edge6" class="edge">
<title>HCoil22&#45;&gt;Activate propulsor</title>
<path fill="none" stroke="red" stroke-width="0.2" stroke-dasharray="1,5" d="M383.86,-181.33C369.67,-169.68 342.72,-147.54 316.95,-126.37"/>
<polygon fill="red" stroke="red" stroke-width="0.2" points="318.95,-123.48 309.01,-119.84 314.51,-128.89 318.95,-123.48"/>
</g>
<!-- VCoil12 -->
<g id="node8" class="node">
<title>VCoil12</title>
<polygon fill="lightgray" stroke="black" points="492.5,-199.66 439.5,-199.66 439.5,-181.66 492.5,-181.66 492.5,-199.66"/>
<text text-anchor="middle" x="466" y="-188.46" font-family="Times,serif" font-size="9.00">VCoil12</text>
</g>
<!-- VCoil12&#45;&gt;Activate propulsor -->
<g id="edge7" class="edge">
<title>VCoil12&#45;&gt;Activate propulsor</title>
<path fill="none" stroke="green" stroke-width="0.41" d="M451.02,-181.52C425.28,-167.52 371.04,-138.02 325.82,-113.44"/>
<polygon fill="green" stroke="green" stroke-width="0.41" points="327.37,-110.29 316.91,-108.59 324.03,-116.44 327.37,-110.29"/>
</g>
<!-- VCoil22 -->
<g id="node9" class="node">
<title>VCoil22</title>
<polygon fill="lightgray" stroke="black" points="630.5,-199.66 577.5,-199.66 577.5,-181.66 630.5,-181.66 630.5,-199.66"/>
<text text-anchor="middle" x="604" y="-188.46" font-family="Times,serif" font-size="9.00">VCoil22</text>
</g>
</g>
</svg>
