<?xml version="1.0" encoding="UTF-8" standalone="no"?>
<!DOCTYPE svg PUBLIC "-//W3C//DTD SVG 1.1//EN"
 "http://www.w3.org/Graphics/SVG/1.1/DTD/svg11.dtd">
<!-- Generated by graphviz version 2.43.0 (0)
 -->
<!-- Title: %3 Pages: 1 -->
<svg width="638pt" height="293pt"
 viewBox="0.00 0.00 638.00 293.16" xmlns="http://www.w3.org/2000/svg" xmlns:xlink="http://www.w3.org/1999/xlink">
<g id="graph0" class="graph" transform="scale(1 1) rotate(0) translate(4 289.16)">
<title>%3</title>
<polygon fill="white" stroke="transparent" points="-4,4 -4,-289.16 634,-289.16 634,4 -4,4"/>
<!-- Player_height -->
<g id="node1" class="node">
<title>Player_height</title>
<polygon fill="lightgray" stroke="black" points="80,-285.16 0,-285.16 0,-267.16 80,-267.16 80,-285.16"/>
<text text-anchor="middle" x="40" y="-273.96" font-family="Times,serif" font-size="9.00">Player_height</text>
</g>
<!-- Activate propulsor -->
<g id="node10" class="node">
<title>Activate propulsor</title>
<ellipse fill="lightblue" stroke="black" cx="287" cy="-158.33" rx="72.66" ry="72.66"/>
<text text-anchor="middle" x="287" y="-156.13" font-family="Times,serif" font-size="9.00">Activate propulsor</text>
</g>
<!-- Player_height&#45;&gt;Activate propulsor -->
<g id="edge1" class="edge">
<title>Player_height&#45;&gt;Activate propulsor</title>
<path fill="none" stroke="green" stroke-width="0.15" d="M57.37,-267.02C89.08,-252.14 158.08,-219.79 212.21,-194.4"/>
<polygon fill="green" stroke="green" stroke-width="0.15" points="213.87,-197.49 221.44,-190.07 210.9,-191.15 213.87,-197.49"/>
</g>
<!-- HCoil1 -->
<g id="node2" class="node">
<title>HCoil1</title>
<polygon fill="lightgray" stroke="black" points="558,-285.16 510,-285.16 510,-267.16 558,-267.16 558,-285.16"/>
<text text-anchor="middle" x="534" y="-273.96" font-family="Times,serif" font-size="9.00">HCoil1</text>
</g>
<!-- HCoil2 -->
<g id="node3" class="node">
<title>HCoil2</title>
<polygon fill="lightgray" stroke="black" points="146,-285.16 98,-285.16 98,-267.16 146,-267.16 146,-285.16"/>
<text text-anchor="middle" x="122" y="-273.96" font-family="Times,serif" font-size="9.00">HCoil2</text>
</g>
<!-- HCoil2&#45;&gt;Activate propulsor -->
<g id="edge2" class="edge">
<title>HCoil2&#45;&gt;Activate propulsor</title>
<path fill="none" stroke="red" stroke-width="0.46" d="M133.6,-267.02C151.38,-254.54 186.69,-229.74 218.96,-207.09"/>
<polygon fill="red" stroke="red" stroke-width="0.46" points="221.35,-209.69 227.53,-201.08 217.33,-203.96 221.35,-209.69"/>
</g>
<!-- VCoil1 -->
<g id="node4" class="node">
<title>VCoil1</title>
<polygon fill="lightgray" stroke="black" points="211.5,-285.16 164.5,-285.16 164.5,-267.16 211.5,-267.16 211.5,-285.16"/>
<text text-anchor="middle" x="188" y="-273.96" font-family="Times,serif" font-size="9.00">VCoil1</text>
</g>
<!-- VCoil1&#45;&gt;Activate propulsor -->
<g id="edge3" class="edge">
<title>VCoil1&#45;&gt;Activate propulsor</title>
<path fill="none" stroke="red" stroke-width="0.22" d="M195.12,-266.83C203.5,-257.03 218.21,-239.81 233.44,-221.99"/>
<polygon fill="red" stroke="red" stroke-width="0.22" points="236.15,-224.22 239.98,-214.34 230.82,-219.67 236.15,-224.22"/>
</g>
<!-- VCoil2 -->
<g id="node5" class="node">
<title>VCoil2</title>
<polygon fill="lightgray" stroke="black" points="276.5,-285.16 229.5,-285.16 229.5,-267.16 276.5,-267.16 276.5,-285.16"/>
<text text-anchor="middle" x="253" y="-273.96" font-family="Times,serif" font-size="9.00">VCoil2</text>
</g>
<!-- VCoil2&#45;&gt;Activate propulsor -->
<g id="edge4" class="edge">
<title>VCoil2&#45;&gt;Activate propulsor</title>
<path fill="none" stroke="green" stroke-width="0.52" d="M255.45,-266.83C257.42,-260.1 260.42,-249.89 263.8,-238.38"/>
<polygon fill="green" stroke="green" stroke-width="0.52" points="267.25,-239.04 266.71,-228.46 260.53,-237.07 267.25,-239.04"/>
</g>
<!-- HCoil12 -->
<g id="node6" class="node">
<title>HCoil12</title>
<polygon fill="lightgray" stroke="black" points="349,-285.16 295,-285.16 295,-267.16 349,-267.16 349,-285.16"/>
<text text-anchor="middle" x="322" y="-273.96" font-family="Times,serif" font-size="9.00">HCoil12</text>
</g>
<!-- HCoil12&#45;&gt;Activate propulsor -->
<g id="edge5" class="edge">
<title>HCoil12&#45;&gt;Activate propulsor</title>
<path fill="none" stroke="green" stroke-width="0.22" d="M319.48,-266.83C317.42,-260 314.26,-249.56 310.72,-237.82"/>
<polygon fill="green" stroke="green" stroke-width="0.22" points="314.05,-236.74 307.8,-228.18 307.35,-238.77 314.05,-236.74"/>
</g>
<!-- HCoil22 -->
<g id="node7" class="node">
<title>HCoil22</title>
<polygon fill="lightgray" stroke="black" points="630,-285.16 576,-285.16 576,-267.16 630,-267.16 630,-285.16"/>
<text text-anchor="middle" x="603" y="-273.96" font-family="Times,serif" font-size="9.00">HCoil22</text>
</g>
<!-- VCoil12 -->
<g id="node8" class="node">
<title>VCoil12</title>
<polygon fill="lightgray" stroke="black" points="420.5,-285.16 367.5,-285.16 367.5,-267.16 420.5,-267.16 420.5,-285.16"/>
<text text-anchor="middle" x="394" y="-273.96" font-family="Times,serif" font-size="9.00">VCoil12</text>
</g>
<!-- VCoil12&#45;&gt;Activate propulsor -->
<g id="edge6" class="edge">
<title>VCoil12&#45;&gt;Activate propulsor</title>
<path fill="none" stroke="green" stroke-width="0.34" d="M386.3,-266.83C376.87,-256.62 360.01,-238.37 342.83,-219.77"/>
<polygon fill="green" stroke="green" stroke-width="0.34" points="345.34,-217.33 335.99,-212.36 340.2,-222.08 345.34,-217.33"/>
</g>
<!-- VCoil22 -->
<g id="node9" class="node">
<title>VCoil22</title>
<polygon fill="lightgray" stroke="black" points="491.5,-285.16 438.5,-285.16 438.5,-267.16 491.5,-267.16 491.5,-285.16"/>
<text text-anchor="middle" x="465" y="-273.96" font-family="Times,serif" font-size="9.00">VCoil22</text>
</g>
<!-- VCoil22&#45;&gt;Activate propulsor -->
<g id="edge7" class="edge">
<title>VCoil22&#45;&gt;Activate propulsor</title>
<path fill="none" stroke="red" stroke-width="0.37" stroke-dasharray="1,5" d="M452.48,-267.02C432.56,-254.05 392.2,-227.79 356.33,-204.45"/>
<polygon fill="red" stroke="red" stroke-width="0.37" points="358.1,-201.42 347.81,-198.9 354.28,-207.29 358.1,-201.42"/>
</g>
<!-- 163 -->
<g id="node11" class="node">
<title>163</title>
<ellipse fill="white" stroke="black" cx="337" cy="-24.75" rx="25" ry="25"/>
<text text-anchor="middle" x="337" y="-22.55" font-family="Times,serif" font-size="9.00">163</text>
</g>
<!-- VCoil22&#45;&gt;163 -->
<g id="edge8" class="edge">
<title>VCoil22&#45;&gt;163</title>
<path fill="none" stroke="red" stroke-width="0.22" d="M460.86,-266.81C447.66,-240.22 405.31,-155.22 369,-85.5 363.99,-75.87 358.43,-65.42 353.37,-56"/>
<polygon fill="red" stroke="red" stroke-width="0.22" points="356.34,-54.13 348.52,-46.98 350.18,-57.44 356.34,-54.13"/>
</g>
<!-- Activate propulsor&#45;&gt;163 -->
<g id="edge9" class="edge">
<title>Activate propulsor&#45;&gt;163</title>
<path fill="none" stroke="red" stroke-width="0.37" d="M312.59,-90C316.91,-78.62 321.21,-67.3 324.97,-57.4"/>
<polygon fill="red" stroke="red" stroke-width="0.37" points="328.25,-58.62 328.53,-48.03 321.71,-56.14 328.25,-58.62"/>
</g>
</g>
</svg>
