<?xml version="1.0" encoding="UTF-8" standalone="no"?>
<!DOCTYPE svg PUBLIC "-//W3C//DTD SVG 1.1//EN"
 "http://www.w3.org/Graphics/SVG/1.1/DTD/svg11.dtd">
<!-- Generated by graphviz version 2.43.0 (0)
 -->
<!-- Title: %3 Pages: 1 -->
<svg width="639pt" height="208pt"
 viewBox="0.00 0.00 638.50 207.66" xmlns="http://www.w3.org/2000/svg" xmlns:xlink="http://www.w3.org/1999/xlink">
<g id="graph0" class="graph" transform="scale(1 1) rotate(0) translate(4 203.66)">
<title>%3</title>
<polygon fill="white" stroke="transparent" points="-4,4 -4,-203.66 634.5,-203.66 634.5,4 -4,4"/>
<!-- Player_height -->
<g id="node1" class="node">
<title>Player_height</title>
<polygon fill="lightgray" stroke="black" points="80,-199.66 0,-199.66 0,-181.66 80,-181.66 80,-199.66"/>
<text text-anchor="middle" x="40" y="-188.46" font-family="Times,serif" font-size="9.00">Player_height</text>
</g>
<!-- Activate propulsor -->
<g id="node10" class="node">
<title>Activate propulsor</title>
<ellipse fill="lightblue" stroke="black" cx="122" cy="-72.83" rx="72.66" ry="72.66"/>
<text text-anchor="middle" x="122" y="-70.63" font-family="Times,serif" font-size="9.00">Activate propulsor</text>
</g>
<!-- Player_height&#45;&gt;Activate propulsor -->
<g id="edge1" class="edge">
<title>Player_height&#45;&gt;Activate propulsor</title>
<path fill="none" stroke="green" stroke-width="0.52" d="M45.9,-181.33C52.21,-172.41 62.88,-157.35 74.25,-141.28"/>
<polygon fill="green" stroke="green" stroke-width="0.52" points="77.32,-143 80.25,-132.81 71.61,-138.95 77.32,-143"/>
</g>
<!-- HCoil1 -->
<g id="node2" class="node">
<title>HCoil1</title>
<polygon fill="lightgray" stroke="black" points="283,-199.66 235,-199.66 235,-181.66 283,-181.66 283,-199.66"/>
<text text-anchor="middle" x="259" y="-188.46" font-family="Times,serif" font-size="9.00">HCoil1</text>
</g>
<!-- HCoil2 -->
<g id="node3" class="node">
<title>HCoil2</title>
<polygon fill="lightgray" stroke="black" points="349,-199.66 301,-199.66 301,-181.66 349,-181.66 349,-199.66"/>
<text text-anchor="middle" x="325" y="-188.46" font-family="Times,serif" font-size="9.00">HCoil2</text>
</g>
<!-- VCoil1 -->
<g id="node4" class="node">
<title>VCoil1</title>
<polygon fill="lightgray" stroke="black" points="414.5,-199.66 367.5,-199.66 367.5,-181.66 414.5,-181.66 414.5,-199.66"/>
<text text-anchor="middle" x="391" y="-188.46" font-family="Times,serif" font-size="9.00">VCoil1</text>
</g>
<!-- VCoil2 -->
<g id="node5" class="node">
<title>VCoil2</title>
<polygon fill="lightgray" stroke="black" points="145.5,-199.66 98.5,-199.66 98.5,-181.66 145.5,-181.66 145.5,-199.66"/>
<text text-anchor="middle" x="122" y="-188.46" font-family="Times,serif" font-size="9.00">VCoil2</text>
</g>
<!-- VCoil2&#45;&gt;Activate propulsor -->
<g id="edge2" class="edge">
<title>VCoil2&#45;&gt;Activate propulsor</title>
<path fill="none" stroke="green" stroke-width="0.71" d="M122,-181.33C122,-175.2 122,-166.17 122,-155.9"/>
<polygon fill="green" stroke="green" stroke-width="0.71" points="125.5,-155.74 122,-145.74 118.5,-155.74 125.5,-155.74"/>
</g>
<!-- HCoil12 -->
<g id="node6" class="node">
<title>HCoil12</title>
<polygon fill="lightgray" stroke="black" points="487,-199.66 433,-199.66 433,-181.66 487,-181.66 487,-199.66"/>
<text text-anchor="middle" x="460" y="-188.46" font-family="Times,serif" font-size="9.00">HCoil12</text>
</g>
<!-- HCoil22 -->
<g id="node7" class="node">
<title>HCoil22</title>
<polygon fill="lightgray" stroke="black" points="559,-199.66 505,-199.66 505,-181.66 559,-181.66 559,-199.66"/>
<text text-anchor="middle" x="532" y="-188.46" font-family="Times,serif" font-size="9.00">HCoil22</text>
</g>
<!-- VCoil12 -->
<g id="node8" class="node">
<title>VCoil12</title>
<polygon fill="lightgray" stroke="black" points="216.5,-199.66 163.5,-199.66 163.5,-181.66 216.5,-181.66 216.5,-199.66"/>
<text text-anchor="middle" x="190" y="-188.46" font-family="Times,serif" font-size="9.00">VCoil12</text>
</g>
<!-- VCoil12&#45;&gt;Activate propulsor -->
<g id="edge3" class="edge">
<title>VCoil12&#45;&gt;Activate propulsor</title>
<path fill="none" stroke="green" stroke-width="0.37" d="M185.11,-181.33C180.25,-173.05 172.28,-159.48 163.62,-144.72"/>
<polygon fill="green" stroke="green" stroke-width="0.37" points="166.54,-142.78 158.46,-135.93 160.5,-146.33 166.54,-142.78"/>
</g>
<!-- VCoil22 -->
<g id="node9" class="node">
<title>VCoil22</title>
<polygon fill="lightgray" stroke="black" points="630.5,-199.66 577.5,-199.66 577.5,-181.66 630.5,-181.66 630.5,-199.66"/>
<text text-anchor="middle" x="604" y="-188.46" font-family="Times,serif" font-size="9.00">VCoil22</text>
</g>
</g>
</svg>
