<?xml version="1.0" encoding="UTF-8" standalone="no"?>
<!DOCTYPE svg PUBLIC "-//W3C//DTD SVG 1.1//EN"
 "http://www.w3.org/Graphics/SVG/1.1/DTD/svg11.dtd">
<!-- Generated by graphviz version 2.43.0 (0)
 -->
<!-- Title: %3 Pages: 1 -->
<svg width="377pt" height="370pt"
 viewBox="0.00 0.00 376.83 370.17" xmlns="http://www.w3.org/2000/svg" xmlns:xlink="http://www.w3.org/1999/xlink">
<g id="graph0" class="graph" transform="scale(1 1) rotate(0) translate(4 366.17)">
<title>%3</title>
<polygon fill="white" stroke="transparent" points="-4,4 -4,-366.17 372.83,-366.17 372.83,4 -4,4"/>
<!-- Player_height -->
<g id="node1" class="node">
<title>Player_height</title>
<polygon fill="lightgray" stroke="black" points="80,-362.17 0,-362.17 0,-344.17 80,-344.17 80,-362.17"/>
<text text-anchor="middle" x="40" y="-350.97" font-family="Times,serif" font-size="9.00">Player_height</text>
</g>
<!-- HCoil1 -->
<g id="node2" class="node">
<title>HCoil1</title>
<polygon fill="lightgray" stroke="black" points="146,-362.17 98,-362.17 98,-344.17 146,-344.17 146,-362.17"/>
<text text-anchor="middle" x="122" y="-350.97" font-family="Times,serif" font-size="9.00">HCoil1</text>
</g>
<!-- HCoil2 -->
<g id="node3" class="node">
<title>HCoil2</title>
<polygon fill="lightgray" stroke="black" points="212,-362.17 164,-362.17 164,-344.17 212,-344.17 212,-362.17"/>
<text text-anchor="middle" x="188" y="-350.97" font-family="Times,serif" font-size="9.00">HCoil2</text>
</g>
<!-- VCoil1 -->
<g id="node4" class="node">
<title>VCoil1</title>
<polygon fill="lightgray" stroke="black" points="277.5,-362.17 230.5,-362.17 230.5,-344.17 277.5,-344.17 277.5,-362.17"/>
<text text-anchor="middle" x="254" y="-350.97" font-family="Times,serif" font-size="9.00">VCoil1</text>
</g>
<!-- Activate propulsor -->
<g id="node6" class="node">
<title>Activate propulsor</title>
<ellipse fill="lightblue" stroke="black" cx="296" cy="-72.83" rx="72.66" ry="72.66"/>
<text text-anchor="middle" x="296" y="-70.63" font-family="Times,serif" font-size="9.00">Activate propulsor</text>
</g>
<!-- VCoil1&#45;&gt;Activate propulsor -->
<g id="edge1" class="edge">
<title>VCoil1&#45;&gt;Activate propulsor</title>
<path fill="none" stroke="red" stroke-width="0.56" d="M253.64,-343.93C252.71,-319.14 251.04,-243.23 262,-181.66 263.77,-171.71 266.21,-161.39 268.97,-151.26"/>
<polygon fill="red" stroke="red" stroke-width="0.56" points="272.34,-152.2 271.71,-141.62 265.61,-150.28 272.34,-152.2"/>
</g>
<!-- 26 -->
<g id="node7" class="node">
<title>26</title>
<ellipse fill="white" stroke="black" cx="296" cy="-287.67" rx="20.51" ry="20.51"/>
<text text-anchor="middle" x="296" y="-285.47" font-family="Times,serif" font-size="9.00">26</text>
</g>
<!-- VCoil1&#45;&gt;26 -->
<g id="edge3" class="edge">
<title>VCoil1&#45;&gt;26</title>
<path fill="none" stroke="green" stroke-width="0.16" stroke-dasharray="1,5" d="M259.32,-344.13C264.41,-336.44 272.34,-324.44 279.53,-313.57"/>
<polygon fill="green" stroke="green" stroke-width="0.16" points="282.48,-315.46 285.07,-305.19 276.64,-311.6 282.48,-315.46"/>
</g>
<!-- VCoil2 -->
<g id="node5" class="node">
<title>VCoil2</title>
<polygon fill="lightgray" stroke="black" points="362.5,-362.17 315.5,-362.17 315.5,-344.17 362.5,-344.17 362.5,-362.17"/>
<text text-anchor="middle" x="339" y="-350.97" font-family="Times,serif" font-size="9.00">VCoil2</text>
</g>
<!-- VCoil2&#45;&gt;Activate propulsor -->
<g id="edge2" class="edge">
<title>VCoil2&#45;&gt;Activate propulsor</title>
<path fill="none" stroke="green" stroke-width="0.45" d="M339.3,-343.93C340.03,-319.14 341.14,-243.21 330,-181.66 328.2,-171.71 325.74,-161.39 322.97,-151.27"/>
<polygon fill="green" stroke="green" stroke-width="0.45" points="326.33,-150.29 320.23,-141.63 319.6,-152.21 326.33,-150.29"/>
</g>
<!-- VCoil2&#45;&gt;26 -->
<g id="edge4" class="edge">
<title>VCoil2&#45;&gt;26</title>
<path fill="none" stroke="red" stroke-width="0.19" d="M333.55,-344.13C328.35,-336.44 320.22,-324.44 312.86,-313.57"/>
<polygon fill="red" stroke="red" stroke-width="0.19" points="315.69,-311.51 307.19,-305.19 309.9,-315.43 315.69,-311.51"/>
</g>
<!-- 125 -->
<g id="node8" class="node">
<title>125</title>
<ellipse fill="white" stroke="black" cx="296" cy="-206.41" rx="25" ry="25"/>
<text text-anchor="middle" x="296" y="-204.21" font-family="Times,serif" font-size="9.00">125</text>
</g>
<!-- 26&#45;&gt;125 -->
<g id="edge6" class="edge">
<title>26&#45;&gt;125</title>
<path fill="none" stroke="red" stroke-width="0.63" d="M296,-267.08C296,-259.3 296,-250.13 296,-241.34"/>
<polygon fill="red" stroke="red" stroke-width="0.63" points="299.5,-241.3 296,-231.3 292.5,-241.3 299.5,-241.3"/>
</g>
<!-- 125&#45;&gt;Activate propulsor -->
<g id="edge5" class="edge">
<title>125&#45;&gt;Activate propulsor</title>
<path fill="none" stroke="green" stroke-width="0.53" d="M296,-181.58C296,-174.02 296,-165.2 296,-155.91"/>
<polygon fill="green" stroke="green" stroke-width="0.53" points="299.5,-155.68 296,-145.68 292.5,-155.68 299.5,-155.68"/>
</g>
</g>
</svg>
