<?xml version="1.0" encoding="UTF-8" standalone="no"?>
<!DOCTYPE svg PUBLIC "-//W3C//DTD SVG 1.1//EN"
 "http://www.w3.org/Graphics/SVG/1.1/DTD/svg11.dtd">
<!-- Generated by graphviz version 2.43.0 (0)
 -->
<!-- Title: %3 Pages: 1 -->
<svg width="380pt" height="285pt"
 viewBox="0.00 0.00 380.01 284.68" xmlns="http://www.w3.org/2000/svg" xmlns:xlink="http://www.w3.org/1999/xlink">
<g id="graph0" class="graph" transform="scale(1 1) rotate(0) translate(4 280.68)">
<title>%3</title>
<polygon fill="white" stroke="transparent" points="-4,4 -4,-280.68 376.01,-280.68 376.01,4 -4,4"/>
<!-- Player_height -->
<g id="node1" class="node">
<title>Player_height</title>
<polygon fill="lightgray" stroke="black" points="109.51,-276.68 29.51,-276.68 29.51,-258.68 109.51,-258.68 109.51,-276.68"/>
<text text-anchor="middle" x="69.51" y="-265.48" font-family="Times,serif" font-size="9.00">Player_height</text>
</g>
<!-- 91 -->
<g id="node7" class="node">
<title>91</title>
<ellipse fill="white" stroke="black" cx="20.51" cy="-202.17" rx="20.51" ry="20.51"/>
<text text-anchor="middle" x="20.51" y="-199.97" font-family="Times,serif" font-size="9.00">91</text>
</g>
<!-- Player_height&#45;&gt;91 -->
<g id="edge4" class="edge">
<title>Player_height&#45;&gt;91</title>
<path fill="none" stroke="green" stroke-width="0.15" d="M63.3,-258.63C57.18,-250.71 47.54,-238.2 38.95,-227.07"/>
<polygon fill="green" stroke="green" stroke-width="0.15" points="41.54,-224.7 32.66,-218.93 36,-228.98 41.54,-224.7"/>
</g>
<!-- 84 -->
<g id="node8" class="node">
<title>84</title>
<ellipse fill="white" stroke="black" cx="118.51" cy="-202.17" rx="20.51" ry="20.51"/>
<text text-anchor="middle" x="118.51" y="-199.97" font-family="Times,serif" font-size="9.00">84</text>
</g>
<!-- Player_height&#45;&gt;84 -->
<g id="edge2" class="edge">
<title>Player_height&#45;&gt;84</title>
<path fill="none" stroke="green" stroke-width="0.19" d="M75.71,-258.63C81.83,-250.71 91.48,-238.2 100.06,-227.07"/>
<polygon fill="green" stroke="green" stroke-width="0.19" points="103.01,-228.98 106.35,-218.93 97.47,-224.7 103.01,-228.98"/>
</g>
<!-- 46 -->
<g id="node9" class="node">
<title>46</title>
<ellipse fill="white" stroke="black" cx="44.51" cy="-72.83" rx="20.51" ry="20.51"/>
<text text-anchor="middle" x="44.51" y="-70.63" font-family="Times,serif" font-size="9.00">46</text>
</g>
<!-- Player_height&#45;&gt;46 -->
<g id="edge1" class="edge">
<title>Player_height&#45;&gt;46</title>
<path fill="none" stroke="red" stroke-width="0.11" stroke-dasharray="1,5" d="M68.43,-258.39C65,-231.89 54.16,-148.34 48.33,-103.29"/>
<polygon fill="red" stroke="red" stroke-width="0.11" points="51.78,-102.72 47.02,-93.25 44.84,-103.62 51.78,-102.72"/>
</g>
<!-- HCoil1 -->
<g id="node2" class="node">
<title>HCoil1</title>
<polygon fill="lightgray" stroke="black" points="175.51,-276.68 127.51,-276.68 127.51,-258.68 175.51,-258.68 175.51,-276.68"/>
<text text-anchor="middle" x="151.51" y="-265.48" font-family="Times,serif" font-size="9.00">HCoil1</text>
</g>
<!-- HCoil2 -->
<g id="node3" class="node">
<title>HCoil2</title>
<polygon fill="lightgray" stroke="black" points="241.51,-276.68 193.51,-276.68 193.51,-258.68 241.51,-258.68 241.51,-276.68"/>
<text text-anchor="middle" x="217.51" y="-265.48" font-family="Times,serif" font-size="9.00">HCoil2</text>
</g>
<!-- VCoil1 -->
<g id="node4" class="node">
<title>VCoil1</title>
<polygon fill="lightgray" stroke="black" points="307.01,-276.68 260.01,-276.68 260.01,-258.68 307.01,-258.68 307.01,-276.68"/>
<text text-anchor="middle" x="283.51" y="-265.48" font-family="Times,serif" font-size="9.00">VCoil1</text>
</g>
<!-- VCoil2 -->
<g id="node5" class="node">
<title>VCoil2</title>
<polygon fill="lightgray" stroke="black" points="372.01,-276.68 325.01,-276.68 325.01,-258.68 372.01,-258.68 372.01,-276.68"/>
<text text-anchor="middle" x="348.51" y="-265.48" font-family="Times,serif" font-size="9.00">VCoil2</text>
</g>
<!-- Activate propulsor -->
<g id="node6" class="node">
<title>Activate propulsor</title>
<ellipse fill="lightblue" stroke="black" cx="155.51" cy="-72.83" rx="72.66" ry="72.66"/>
<text text-anchor="middle" x="155.51" y="-70.63" font-family="Times,serif" font-size="9.00">Activate propulsor</text>
</g>
<!-- 91&#45;&gt;46 -->
<g id="edge5" class="edge">
<title>91&#45;&gt;46</title>
<path fill="none" stroke="red" stroke-width="0.25" d="M24.15,-181.83C28.08,-160.98 34.38,-127.54 38.93,-103.39"/>
<polygon fill="red" stroke="red" stroke-width="0.25" points="42.41,-103.83 40.83,-93.35 35.54,-102.53 42.41,-103.83"/>
</g>
<!-- 84&#45;&gt;Activate propulsor -->
<g id="edge6" class="edge">
<title>84&#45;&gt;Activate propulsor</title>
<path fill="none" stroke="red" stroke-width="0.48" d="M123.97,-182.38C126.38,-174.09 129.39,-163.73 132.58,-152.72"/>
<polygon fill="red" stroke="red" stroke-width="0.48" points="136,-153.5 135.43,-142.92 129.28,-151.55 136,-153.5"/>
</g>
<!-- 84&#45;&gt;46 -->
<g id="edge3" class="edge">
<title>84&#45;&gt;46</title>
<path fill="none" stroke="red" stroke-width="0.6" d="M104.59,-186.53C94.95,-175.82 82.32,-160.63 73.51,-145.66 65.51,-132.09 58.76,-115.9 53.79,-102.33"/>
<polygon fill="red" stroke="red" stroke-width="0.6" points="56.97,-100.82 50.34,-92.55 50.36,-103.14 56.97,-100.82"/>
</g>
</g>
</svg>
