<?xml version="1.0" encoding="UTF-8" standalone="no"?>
<!DOCTYPE svg PUBLIC "-//W3C//DTD SVG 1.1//EN"
 "http://www.w3.org/Graphics/SVG/1.1/DTD/svg11.dtd">
<!-- Generated by graphviz version 2.43.0 (0)
 -->
<!-- Title: %3 Pages: 1 -->
<svg width="351pt" height="208pt"
 viewBox="0.00 0.00 351.00 207.66" xmlns="http://www.w3.org/2000/svg" xmlns:xlink="http://www.w3.org/1999/xlink">
<g id="graph0" class="graph" transform="scale(1 1) rotate(0) translate(4 203.66)">
<title>%3</title>
<polygon fill="white" stroke="transparent" points="-4,4 -4,-203.66 347,-203.66 347,4 -4,4"/>
<!-- Player_height -->
<g id="node1" class="node">
<title>Player_height</title>
<polygon fill="lightgray" stroke="black" points="80,-199.66 0,-199.66 0,-181.66 80,-181.66 80,-199.66"/>
<text text-anchor="middle" x="40" y="-188.46" font-family="Times,serif" font-size="9.00">Player_height</text>
</g>
<!-- Activate propulsor -->
<g id="node6" class="node">
<title>Activate propulsor</title>
<ellipse fill="lightblue" stroke="black" cx="155" cy="-72.83" rx="72.66" ry="72.66"/>
<text text-anchor="middle" x="155" y="-70.63" font-family="Times,serif" font-size="9.00">Activate propulsor</text>
</g>
<!-- Player_height&#45;&gt;Activate propulsor -->
<g id="edge4" class="edge">
<title>Player_height&#45;&gt;Activate propulsor</title>
<path fill="none" stroke="green" stroke-width="0.13" d="M48.27,-181.33C58.73,-170.8 77.68,-151.71 96.74,-132.51"/>
<polygon fill="green" stroke="green" stroke-width="0.13" points="99.47,-134.73 104.03,-125.17 94.5,-129.8 99.47,-134.73"/>
</g>
<!-- HCoil1 -->
<g id="node2" class="node">
<title>HCoil1</title>
<polygon fill="lightgray" stroke="black" points="146,-199.66 98,-199.66 98,-181.66 146,-181.66 146,-199.66"/>
<text text-anchor="middle" x="122" y="-188.46" font-family="Times,serif" font-size="9.00">HCoil1</text>
</g>
<!-- HCoil1&#45;&gt;Activate propulsor -->
<g id="edge1" class="edge">
<title>HCoil1&#45;&gt;Activate propulsor</title>
<path fill="none" stroke="green" stroke-width="0.11" d="M124.37,-181.33C126.29,-174.61 129.2,-164.39 132.48,-152.88"/>
<polygon fill="green" stroke="green" stroke-width="0.11" points="135.93,-153.54 135.3,-142.96 129.2,-151.62 135.93,-153.54"/>
</g>
<!-- HCoil2 -->
<g id="node3" class="node">
<title>HCoil2</title>
<polygon fill="lightgray" stroke="black" points="343,-199.66 295,-199.66 295,-181.66 343,-181.66 343,-199.66"/>
<text text-anchor="middle" x="319" y="-188.46" font-family="Times,serif" font-size="9.00">HCoil2</text>
</g>
<!-- VCoil1 -->
<g id="node4" class="node">
<title>VCoil1</title>
<polygon fill="lightgray" stroke="black" points="211.5,-199.66 164.5,-199.66 164.5,-181.66 211.5,-181.66 211.5,-199.66"/>
<text text-anchor="middle" x="188" y="-188.46" font-family="Times,serif" font-size="9.00">VCoil1</text>
</g>
<!-- VCoil1&#45;&gt;Activate propulsor -->
<g id="edge2" class="edge">
<title>VCoil1&#45;&gt;Activate propulsor</title>
<path fill="none" stroke="red" stroke-width="0.22" d="M185.63,-181.33C183.71,-174.61 180.8,-164.39 177.52,-152.88"/>
<polygon fill="red" stroke="red" stroke-width="0.22" points="180.8,-151.62 174.7,-142.96 174.07,-153.54 180.8,-151.62"/>
</g>
<!-- VCoil2 -->
<g id="node5" class="node">
<title>VCoil2</title>
<polygon fill="lightgray" stroke="black" points="276.5,-199.66 229.5,-199.66 229.5,-181.66 276.5,-181.66 276.5,-199.66"/>
<text text-anchor="middle" x="253" y="-188.46" font-family="Times,serif" font-size="9.00">VCoil2</text>
</g>
<!-- VCoil2&#45;&gt;Activate propulsor -->
<g id="edge3" class="edge">
<title>VCoil2&#45;&gt;Activate propulsor</title>
<path fill="none" stroke="green" stroke-width="0.26" d="M245.95,-181.33C237.77,-171.66 223.49,-154.78 208.63,-137.22"/>
<polygon fill="green" stroke="green" stroke-width="0.26" points="210.91,-134.5 201.78,-129.13 205.57,-139.02 210.91,-134.5"/>
</g>
</g>
</svg>
