<?xml version="1.0" encoding="UTF-8" standalone="no"?>
<!DOCTYPE svg PUBLIC "-//W3C//DTD SVG 1.1//EN"
 "http://www.w3.org/Graphics/SVG/1.1/DTD/svg11.dtd">
<!-- Generated by graphviz version 2.43.0 (0)
 -->
<!-- Title: %3 Pages: 1 -->
<svg width="364pt" height="370pt"
 viewBox="0.00 0.00 363.50 370.17" xmlns="http://www.w3.org/2000/svg" xmlns:xlink="http://www.w3.org/1999/xlink">
<g id="graph0" class="graph" transform="scale(1 1) rotate(0) translate(4 366.17)">
<title>%3</title>
<polygon fill="white" stroke="transparent" points="-4,4 -4,-366.17 359.5,-366.17 359.5,4 -4,4"/>
<!-- Player_height -->
<g id="node1" class="node">
<title>Player_height</title>
<polygon fill="lightgray" stroke="black" points="108,-362.17 28,-362.17 28,-344.17 108,-344.17 108,-362.17"/>
<text text-anchor="middle" x="68" y="-350.97" font-family="Times,serif" font-size="9.00">Player_height</text>
</g>
<!-- HCoil1 -->
<g id="node2" class="node">
<title>HCoil1</title>
<polygon fill="lightgray" stroke="black" points="174,-362.17 126,-362.17 126,-344.17 174,-344.17 174,-362.17"/>
<text text-anchor="middle" x="150" y="-350.97" font-family="Times,serif" font-size="9.00">HCoil1</text>
</g>
<!-- HCoil2 -->
<g id="node3" class="node">
<title>HCoil2</title>
<polygon fill="lightgray" stroke="black" points="48,-211.17 0,-211.17 0,-193.17 48,-193.17 48,-211.17"/>
<text text-anchor="middle" x="24" y="-199.97" font-family="Times,serif" font-size="9.00">HCoil2</text>
</g>
<!-- Activate propulsor -->
<g id="node10" class="node">
<title>Activate propulsor</title>
<ellipse fill="lightblue" stroke="black" cx="166" cy="-72.83" rx="72.66" ry="72.66"/>
<text text-anchor="middle" x="166" y="-70.63" font-family="Times,serif" font-size="9.00">Activate propulsor</text>
</g>
<!-- HCoil2&#45;&gt;Activate propulsor -->
<g id="edge1" class="edge">
<title>HCoil2&#45;&gt;Activate propulsor</title>
<path fill="none" stroke="green" stroke-width="0.18" stroke-dasharray="1,5" d="M33.32,-192.82C47.87,-179.77 77.16,-153.5 104.53,-128.95"/>
<polygon fill="green" stroke="green" stroke-width="0.18" points="107.08,-131.37 112.19,-122.09 102.41,-126.16 107.08,-131.37"/>
</g>
<!-- VCoil1 -->
<g id="node4" class="node">
<title>VCoil1</title>
<polygon fill="lightgray" stroke="black" points="113.5,-211.17 66.5,-211.17 66.5,-193.17 113.5,-193.17 113.5,-211.17"/>
<text text-anchor="middle" x="90" y="-199.97" font-family="Times,serif" font-size="9.00">VCoil1</text>
</g>
<!-- VCoil1&#45;&gt;Activate propulsor -->
<g id="edge2" class="edge">
<title>VCoil1&#45;&gt;Activate propulsor</title>
<path fill="none" stroke="red" stroke-width="0.45" d="M94.99,-192.82C101.14,-182.5 112.23,-163.92 123.84,-144.47"/>
<polygon fill="red" stroke="red" stroke-width="0.45" points="126.9,-146.18 129.02,-135.8 120.89,-142.59 126.9,-146.18"/>
</g>
<!-- VCoil2 -->
<g id="node5" class="node">
<title>VCoil2</title>
<polygon fill="lightgray" stroke="black" points="164.5,-292.42 117.5,-292.42 117.5,-274.42 164.5,-274.42 164.5,-292.42"/>
<text text-anchor="middle" x="141" y="-281.22" font-family="Times,serif" font-size="9.00">VCoil2</text>
</g>
<!-- VCoil2&#45;&gt;Activate propulsor -->
<g id="edge3" class="edge">
<title>VCoil2&#45;&gt;Activate propulsor</title>
<path fill="none" stroke="green" stroke-width="0.35" d="M141.98,-274.25C144.36,-254.35 150.68,-201.65 156.24,-155.28"/>
<polygon fill="green" stroke="green" stroke-width="0.35" points="159.73,-155.54 157.45,-145.2 152.78,-154.71 159.73,-155.54"/>
</g>
<!-- 34 -->
<g id="node11" class="node">
<title>34</title>
<ellipse fill="white" stroke="black" cx="191" cy="-202.17" rx="20.51" ry="20.51"/>
<text text-anchor="middle" x="191" y="-199.97" font-family="Times,serif" font-size="9.00">34</text>
</g>
<!-- VCoil2&#45;&gt;34 -->
<g id="edge8" class="edge">
<title>VCoil2&#45;&gt;34</title>
<path fill="none" stroke="red" stroke-width="0.27" stroke-dasharray="1,5" d="M146.16,-274.24C152.88,-263.6 164.93,-244.5 174.84,-228.78"/>
<polygon fill="red" stroke="red" stroke-width="0.27" points="178,-230.33 180.38,-220.01 172.08,-226.6 178,-230.33"/>
</g>
<!-- HCoil12 -->
<g id="node6" class="node">
<title>HCoil12</title>
<polygon fill="lightgray" stroke="black" points="318,-362.17 264,-362.17 264,-344.17 318,-344.17 318,-362.17"/>
<text text-anchor="middle" x="291" y="-350.97" font-family="Times,serif" font-size="9.00">HCoil12</text>
</g>
<!-- HCoil22 -->
<g id="node7" class="node">
<title>HCoil22</title>
<polygon fill="lightgray" stroke="black" points="284,-211.17 230,-211.17 230,-193.17 284,-193.17 284,-211.17"/>
<text text-anchor="middle" x="257" y="-199.97" font-family="Times,serif" font-size="9.00">HCoil22</text>
</g>
<!-- HCoil22&#45;&gt;Activate propulsor -->
<g id="edge4" class="edge">
<title>HCoil22&#45;&gt;Activate propulsor</title>
<path fill="none" stroke="green" stroke-width="0.26" stroke-dasharray="1,5" d="M251.03,-192.82C243.21,-181.87 228.75,-161.63 213.94,-140.91"/>
<polygon fill="green" stroke="green" stroke-width="0.26" points="216.7,-138.76 208.04,-132.66 211,-142.83 216.7,-138.76"/>
</g>
<!-- VCoil12 -->
<g id="node8" class="node">
<title>VCoil12</title>
<polygon fill="lightgray" stroke="black" points="245.5,-362.17 192.5,-362.17 192.5,-344.17 245.5,-344.17 245.5,-362.17"/>
<text text-anchor="middle" x="219" y="-350.97" font-family="Times,serif" font-size="9.00">VCoil12</text>
</g>
<!-- VCoil12&#45;&gt;34 -->
<g id="edge7" class="edge">
<title>VCoil12&#45;&gt;34</title>
<path fill="none" stroke="green" stroke-width="0.47" stroke-dasharray="1,5" d="M217.49,-344.16C213.6,-323.46 203.06,-267.34 196.51,-232.47"/>
<polygon fill="green" stroke="green" stroke-width="0.47" points="199.9,-231.57 194.61,-222.39 193.02,-232.87 199.9,-231.57"/>
</g>
<!-- 143 -->
<g id="node12" class="node">
<title>143</title>
<ellipse fill="white" stroke="black" cx="246" cy="-283.42" rx="25" ry="25"/>
<text text-anchor="middle" x="246" y="-281.22" font-family="Times,serif" font-size="9.00">143</text>
</g>
<!-- VCoil12&#45;&gt;143 -->
<g id="edge9" class="edge">
<title>VCoil12&#45;&gt;143</title>
<path fill="none" stroke="green" stroke-width="0.32" d="M222.2,-344.14C225.01,-337.11 229.26,-326.42 233.41,-316.02"/>
<polygon fill="green" stroke="green" stroke-width="0.32" points="236.69,-317.25 237.14,-306.66 230.18,-314.66 236.69,-317.25"/>
</g>
<!-- VCoil22 -->
<g id="node9" class="node">
<title>VCoil22</title>
<polygon fill="lightgray" stroke="black" points="355.5,-211.17 302.5,-211.17 302.5,-193.17 355.5,-193.17 355.5,-211.17"/>
<text text-anchor="middle" x="329" y="-199.97" font-family="Times,serif" font-size="9.00">VCoil22</text>
</g>
<!-- VCoil22&#45;&gt;Activate propulsor -->
<g id="edge5" class="edge">
<title>VCoil22&#45;&gt;Activate propulsor</title>
<path fill="none" stroke="red" stroke-width="0.2" d="M318.31,-192.82C300.68,-179.04 264.19,-150.54 231.35,-124.89"/>
<polygon fill="red" stroke="red" stroke-width="0.2" points="233.13,-121.83 223.1,-118.44 228.82,-127.35 233.13,-121.83"/>
</g>
<!-- 34&#45;&gt;Activate propulsor -->
<g id="edge6" class="edge">
<title>34&#45;&gt;Activate propulsor</title>
<path fill="none" stroke="green" stroke-width="0.26" d="M187.2,-181.83C185.67,-174.03 183.79,-164.46 181.79,-154.28"/>
<polygon fill="green" stroke="green" stroke-width="0.26" points="185.21,-153.5 179.85,-144.36 178.34,-154.85 185.21,-153.5"/>
</g>
<!-- 143&#45;&gt;34 -->
<g id="edge10" class="edge">
<title>143&#45;&gt;34</title>
<path fill="none" stroke="green" stroke-width="0.11" d="M232.12,-262.43C224.84,-251.93 215.85,-238.98 208.14,-227.87"/>
<polygon fill="green" stroke="green" stroke-width="0.11" points="210.86,-225.65 202.28,-219.43 205.11,-229.64 210.86,-225.65"/>
</g>
</g>
</svg>
