<?xml version="1.0" encoding="UTF-8" standalone="no"?>
<!DOCTYPE svg PUBLIC "-//W3C//DTD SVG 1.1//EN"
 "http://www.w3.org/Graphics/SVG/1.1/DTD/svg11.dtd">
<!-- Generated by graphviz version 2.43.0 (0)
 -->
<!-- Title: %3 Pages: 1 -->
<svg width="801pt" height="154pt"
 viewBox="0.00 0.00 800.83 153.66" xmlns="http://www.w3.org/2000/svg" xmlns:xlink="http://www.w3.org/1999/xlink">
<g id="graph0" class="graph" transform="scale(1 1) rotate(0) translate(4 149.66)">
<title>%3</title>
<polygon fill="white" stroke="transparent" points="-4,4 -4,-149.66 796.83,-149.66 796.83,4 -4,4"/>
<!-- Player_height -->
<g id="node1" class="node">
<title>Player_height</title>
<polygon fill="lightgray" stroke="black" points="80,-81.83 0,-81.83 0,-63.83 80,-63.83 80,-81.83"/>
<text text-anchor="middle" x="40" y="-70.63" font-family="Times,serif" font-size="9.00">Player_height</text>
</g>
<!-- HCoil1 -->
<g id="node2" class="node">
<title>HCoil1</title>
<polygon fill="lightgray" stroke="black" points="146,-81.83 98,-81.83 98,-63.83 146,-63.83 146,-81.83"/>
<text text-anchor="middle" x="122" y="-70.63" font-family="Times,serif" font-size="9.00">HCoil1</text>
</g>
<!-- HCoil2 -->
<g id="node3" class="node">
<title>HCoil2</title>
<polygon fill="lightgray" stroke="black" points="212,-81.83 164,-81.83 164,-63.83 212,-63.83 212,-81.83"/>
<text text-anchor="middle" x="188" y="-70.63" font-family="Times,serif" font-size="9.00">HCoil2</text>
</g>
<!-- VCoil1 -->
<g id="node4" class="node">
<title>VCoil1</title>
<polygon fill="lightgray" stroke="black" points="277.5,-81.83 230.5,-81.83 230.5,-63.83 277.5,-63.83 277.5,-81.83"/>
<text text-anchor="middle" x="254" y="-70.63" font-family="Times,serif" font-size="9.00">VCoil1</text>
</g>
<!-- VCoil2 -->
<g id="node5" class="node">
<title>VCoil2</title>
<polygon fill="lightgray" stroke="black" points="342.5,-81.83 295.5,-81.83 295.5,-63.83 342.5,-63.83 342.5,-81.83"/>
<text text-anchor="middle" x="319" y="-70.63" font-family="Times,serif" font-size="9.00">VCoil2</text>
</g>
<!-- HCoil12 -->
<g id="node6" class="node">
<title>HCoil12</title>
<polygon fill="lightgray" stroke="black" points="415,-81.83 361,-81.83 361,-63.83 415,-63.83 415,-81.83"/>
<text text-anchor="middle" x="388" y="-70.63" font-family="Times,serif" font-size="9.00">HCoil12</text>
</g>
<!-- HCoil22 -->
<g id="node7" class="node">
<title>HCoil22</title>
<polygon fill="lightgray" stroke="black" points="487,-81.83 433,-81.83 433,-63.83 487,-63.83 487,-81.83"/>
<text text-anchor="middle" x="460" y="-70.63" font-family="Times,serif" font-size="9.00">HCoil22</text>
</g>
<!-- VCoil12 -->
<g id="node8" class="node">
<title>VCoil12</title>
<polygon fill="lightgray" stroke="black" points="558.5,-81.83 505.5,-81.83 505.5,-63.83 558.5,-63.83 558.5,-81.83"/>
<text text-anchor="middle" x="532" y="-70.63" font-family="Times,serif" font-size="9.00">VCoil12</text>
</g>
<!-- VCoil22 -->
<g id="node9" class="node">
<title>VCoil22</title>
<polygon fill="lightgray" stroke="black" points="629.5,-81.83 576.5,-81.83 576.5,-63.83 629.5,-63.83 629.5,-81.83"/>
<text text-anchor="middle" x="603" y="-70.63" font-family="Times,serif" font-size="9.00">VCoil22</text>
</g>
<!-- Activate propulsor -->
<g id="node10" class="node">
<title>Activate propulsor</title>
<ellipse fill="lightblue" stroke="black" cx="720" cy="-72.83" rx="72.66" ry="72.66"/>
<text text-anchor="middle" x="720" y="-70.63" font-family="Times,serif" font-size="9.00">Activate propulsor</text>
</g>
</g>
</svg>
