<?xml version="1.0" encoding="UTF-8" standalone="no"?>
<!DOCTYPE svg PUBLIC "-//W3C//DTD SVG 1.1//EN"
 "http://www.w3.org/Graphics/SVG/1.1/DTD/svg11.dtd">
<!-- Generated by graphviz version 2.43.0 (0)
 -->
<!-- Title: %3 Pages: 1 -->
<svg width="637pt" height="208pt"
 viewBox="0.00 0.00 637.00 207.66" xmlns="http://www.w3.org/2000/svg" xmlns:xlink="http://www.w3.org/1999/xlink">
<g id="graph0" class="graph" transform="scale(1 1) rotate(0) translate(4 203.66)">
<title>%3</title>
<polygon fill="white" stroke="transparent" points="-4,4 -4,-203.66 633,-203.66 633,4 -4,4"/>
<!-- Player_height -->
<g id="node1" class="node">
<title>Player_height</title>
<polygon fill="lightgray" stroke="black" points="80,-199.66 0,-199.66 0,-181.66 80,-181.66 80,-199.66"/>
<text text-anchor="middle" x="40" y="-188.46" font-family="Times,serif" font-size="9.00">Player_height</text>
</g>
<!-- Activate propulsor -->
<g id="node10" class="node">
<title>Activate propulsor</title>
<ellipse fill="lightblue" stroke="black" cx="187" cy="-72.83" rx="72.66" ry="72.66"/>
<text text-anchor="middle" x="187" y="-70.63" font-family="Times,serif" font-size="9.00">Activate propulsor</text>
</g>
<!-- Player_height&#45;&gt;Activate propulsor -->
<g id="edge4" class="edge">
<title>Player_height&#45;&gt;Activate propulsor</title>
<path fill="none" stroke="green" stroke-width="0.36" d="M50.57,-181.33C65.67,-169.44 94.62,-146.62 121.98,-125.07"/>
<polygon fill="green" stroke="green" stroke-width="0.36" points="124.33,-127.67 130.02,-118.73 120,-122.17 124.33,-127.67"/>
</g>
<!-- HCoil1 -->
<g id="node2" class="node">
<title>HCoil1</title>
<polygon fill="lightgray" stroke="black" points="419,-199.66 371,-199.66 371,-181.66 419,-181.66 419,-199.66"/>
<text text-anchor="middle" x="395" y="-188.46" font-family="Times,serif" font-size="9.00">HCoil1</text>
</g>
<!-- HCoil2 -->
<g id="node3" class="node">
<title>HCoil2</title>
<polygon fill="lightgray" stroke="black" points="485,-199.66 437,-199.66 437,-181.66 485,-181.66 485,-199.66"/>
<text text-anchor="middle" x="461" y="-188.46" font-family="Times,serif" font-size="9.00">HCoil2</text>
</g>
<!-- VCoil1 -->
<g id="node4" class="node">
<title>VCoil1</title>
<polygon fill="lightgray" stroke="black" points="145.5,-199.66 98.5,-199.66 98.5,-181.66 145.5,-181.66 145.5,-199.66"/>
<text text-anchor="middle" x="122" y="-188.46" font-family="Times,serif" font-size="9.00">VCoil1</text>
</g>
<!-- VCoil1&#45;&gt;Activate propulsor -->
<g id="edge5" class="edge">
<title>VCoil1&#45;&gt;Activate propulsor</title>
<path fill="none" stroke="red" stroke-width="0.33" d="M126.67,-181.33C131.21,-173.26 138.56,-160.15 146.6,-145.82"/>
<polygon fill="red" stroke="red" stroke-width="0.33" points="149.83,-147.21 151.68,-136.78 143.73,-143.79 149.83,-147.21"/>
</g>
<!-- VCoil2 -->
<g id="node5" class="node">
<title>VCoil2</title>
<polygon fill="lightgray" stroke="black" points="210.5,-199.66 163.5,-199.66 163.5,-181.66 210.5,-181.66 210.5,-199.66"/>
<text text-anchor="middle" x="187" y="-188.46" font-family="Times,serif" font-size="9.00">VCoil2</text>
</g>
<!-- VCoil2&#45;&gt;Activate propulsor -->
<g id="edge1" class="edge">
<title>VCoil2&#45;&gt;Activate propulsor</title>
<path fill="none" stroke="green" stroke-width="0.72" d="M187,-181.33C187,-175.2 187,-166.17 187,-155.9"/>
<polygon fill="green" stroke="green" stroke-width="0.72" points="190.5,-155.74 187,-145.74 183.5,-155.74 190.5,-155.74"/>
</g>
<!-- HCoil12 -->
<g id="node6" class="node">
<title>HCoil12</title>
<polygon fill="lightgray" stroke="black" points="557,-199.66 503,-199.66 503,-181.66 557,-181.66 557,-199.66"/>
<text text-anchor="middle" x="530" y="-188.46" font-family="Times,serif" font-size="9.00">HCoil12</text>
</g>
<!-- HCoil22 -->
<g id="node7" class="node">
<title>HCoil22</title>
<polygon fill="lightgray" stroke="black" points="629,-199.66 575,-199.66 575,-181.66 629,-181.66 629,-199.66"/>
<text text-anchor="middle" x="602" y="-188.46" font-family="Times,serif" font-size="9.00">HCoil22</text>
</g>
<!-- VCoil12 -->
<g id="node8" class="node">
<title>VCoil12</title>
<polygon fill="lightgray" stroke="black" points="281.5,-199.66 228.5,-199.66 228.5,-181.66 281.5,-181.66 281.5,-199.66"/>
<text text-anchor="middle" x="255" y="-188.46" font-family="Times,serif" font-size="9.00">VCoil12</text>
</g>
<!-- VCoil12&#45;&gt;Activate propulsor -->
<g id="edge2" class="edge">
<title>VCoil12&#45;&gt;Activate propulsor</title>
<path fill="none" stroke="green" stroke-width="0.23" d="M250.11,-181.33C245.25,-173.05 237.28,-159.48 228.62,-144.72"/>
<polygon fill="green" stroke="green" stroke-width="0.23" points="231.54,-142.78 223.46,-135.93 225.5,-146.33 231.54,-142.78"/>
</g>
<!-- VCoil22 -->
<g id="node9" class="node">
<title>VCoil22</title>
<polygon fill="lightgray" stroke="black" points="352.5,-199.66 299.5,-199.66 299.5,-181.66 352.5,-181.66 352.5,-199.66"/>
<text text-anchor="middle" x="326" y="-188.46" font-family="Times,serif" font-size="9.00">VCoil22</text>
</g>
<!-- VCoil22&#45;&gt;Activate propulsor -->
<g id="edge3" class="edge">
<title>VCoil22&#45;&gt;Activate propulsor</title>
<path fill="none" stroke="green" stroke-width="1.1" stroke-dasharray="1,5" d="M316,-181.33C302.07,-169.72 275.66,-147.72 250.35,-126.62"/>
<polygon fill="green" stroke="green" stroke-width="1.1" points="252.47,-123.83 242.55,-120.12 247.99,-129.21 252.47,-123.83"/>
</g>
</g>
</svg>
