<?xml version="1.0" encoding="UTF-8" standalone="no"?>
<!DOCTYPE svg PUBLIC "-//W3C//DTD SVG 1.1//EN"
 "http://www.w3.org/Graphics/SVG/1.1/DTD/svg11.dtd">
<!-- Generated by graphviz version 2.43.0 (0)
 -->
<!-- Title: %3 Pages: 1 -->
<svg width="539pt" height="379pt"
 viewBox="0.00 0.00 538.50 378.66" xmlns="http://www.w3.org/2000/svg" xmlns:xlink="http://www.w3.org/1999/xlink">
<g id="graph0" class="graph" transform="scale(1 1) rotate(0) translate(4 374.66)">
<title>%3</title>
<polygon fill="white" stroke="transparent" points="-4,4 -4,-374.66 534.5,-374.66 534.5,4 -4,4"/>
<!-- Player_height -->
<g id="node1" class="node">
<title>Player_height</title>
<polygon fill="lightgray" stroke="black" points="80,-215.41 0,-215.41 0,-197.41 80,-197.41 80,-215.41"/>
<text text-anchor="middle" x="40" y="-204.21" font-family="Times,serif" font-size="9.00">Player_height</text>
</g>
<!-- Activate propulsor -->
<g id="node10" class="node">
<title>Activate propulsor</title>
<ellipse fill="lightblue" stroke="black" cx="265" cy="-72.83" rx="72.66" ry="72.66"/>
<text text-anchor="middle" x="265" y="-70.63" font-family="Times,serif" font-size="9.00">Activate propulsor</text>
</g>
<!-- Player_height&#45;&gt;Activate propulsor -->
<g id="edge12" class="edge">
<title>Player_height&#45;&gt;Activate propulsor</title>
<path fill="none" stroke="green" stroke-width="0.47" d="M53.74,-197.38C80.96,-181.46 143.47,-144.9 193.47,-115.66"/>
<polygon fill="green" stroke="green" stroke-width="0.47" points="195.46,-118.55 202.33,-110.48 191.93,-112.51 195.46,-118.55"/>
</g>
<!-- HCoil1 -->
<g id="node2" class="node">
<title>HCoil1</title>
<polygon fill="lightgray" stroke="black" points="158,-370.66 110,-370.66 110,-352.66 158,-352.66 158,-370.66"/>
<text text-anchor="middle" x="134" y="-359.46" font-family="Times,serif" font-size="9.00">HCoil1</text>
</g>
<!-- HCoil1&#45;&gt;Activate propulsor -->
<g id="edge1" class="edge">
<title>HCoil1&#45;&gt;Activate propulsor</title>
<path fill="none" stroke="red" stroke-width="0.18" stroke-dasharray="1,5" d="M132.32,-352.6C130.59,-343.81 128,-329.3 127,-316.66 122.19,-255.83 120.28,-233.79 152,-181.66 164.64,-160.89 182.3,-141.43 199.9,-124.93"/>
<polygon fill="red" stroke="red" stroke-width="0.18" points="202.41,-127.37 207.42,-118.04 197.68,-122.21 202.41,-127.37"/>
</g>
<!-- 309 -->
<g id="node12" class="node">
<title>309</title>
<ellipse fill="white" stroke="black" cx="161" cy="-291.91" rx="25" ry="25"/>
<text text-anchor="middle" x="161" y="-289.71" font-family="Times,serif" font-size="9.00">309</text>
</g>
<!-- HCoil1&#45;&gt;309 -->
<g id="edge6" class="edge">
<title>HCoil1&#45;&gt;309</title>
<path fill="none" stroke="green" stroke-width="0.91" d="M137.2,-352.62C140.01,-345.59 144.26,-334.9 148.41,-324.5"/>
<polygon fill="green" stroke="green" stroke-width="0.91" points="151.69,-325.73 152.14,-315.15 145.18,-323.14 151.69,-325.73"/>
</g>
<!-- HCoil2 -->
<g id="node3" class="node">
<title>HCoil2</title>
<polygon fill="lightgray" stroke="black" points="224,-370.66 176,-370.66 176,-352.66 224,-352.66 224,-370.66"/>
<text text-anchor="middle" x="200" y="-359.46" font-family="Times,serif" font-size="9.00">HCoil2</text>
</g>
<!-- VCoil1 -->
<g id="node4" class="node">
<title>VCoil1</title>
<polygon fill="lightgray" stroke="black" points="288.5,-215.41 241.5,-215.41 241.5,-197.41 288.5,-197.41 288.5,-215.41"/>
<text text-anchor="middle" x="265" y="-204.21" font-family="Times,serif" font-size="9.00">VCoil1</text>
</g>
<!-- VCoil1&#45;&gt;Activate propulsor -->
<g id="edge2" class="edge">
<title>VCoil1&#45;&gt;Activate propulsor</title>
<path fill="none" stroke="red" stroke-width="0.54" d="M265,-197.18C265,-188.2 265,-172.82 265,-155.92"/>
<polygon fill="red" stroke="red" stroke-width="0.54" points="268.5,-155.82 265,-145.82 261.5,-155.82 268.5,-155.82"/>
</g>
<!-- VCoil2 -->
<g id="node5" class="node">
<title>VCoil2</title>
<polygon fill="lightgray" stroke="black" points="353.5,-215.41 306.5,-215.41 306.5,-197.41 353.5,-197.41 353.5,-215.41"/>
<text text-anchor="middle" x="330" y="-204.21" font-family="Times,serif" font-size="9.00">VCoil2</text>
</g>
<!-- VCoil2&#45;&gt;Activate propulsor -->
<g id="edge3" class="edge">
<title>VCoil2&#45;&gt;Activate propulsor</title>
<path fill="none" stroke="green" stroke-width="1.16" d="M325.93,-197.18C320.8,-186.79 311.44,-167.84 301.57,-147.86"/>
<polygon fill="green" stroke="green" stroke-width="1.16" points="304.58,-146.05 297.01,-138.64 298.31,-149.15 304.58,-146.05"/>
</g>
<!-- HCoil12 -->
<g id="node6" class="node">
<title>HCoil12</title>
<polygon fill="lightgray" stroke="black" points="296,-370.66 242,-370.66 242,-352.66 296,-352.66 296,-370.66"/>
<text text-anchor="middle" x="269" y="-359.46" font-family="Times,serif" font-size="9.00">HCoil12</text>
</g>
<!-- HCoil22 -->
<g id="node7" class="node">
<title>HCoil22</title>
<polygon fill="lightgray" stroke="black" points="435,-300.91 381,-300.91 381,-282.91 435,-282.91 435,-300.91"/>
<text text-anchor="middle" x="408" y="-289.71" font-family="Times,serif" font-size="9.00">HCoil22</text>
</g>
<!-- HCoil22&#45;&gt;Activate propulsor -->
<g id="edge5" class="edge">
<title>HCoil22&#45;&gt;Activate propulsor</title>
<path fill="none" stroke="red" stroke-width="0.18" stroke-dasharray="1,5" d="M405.61,-282.79C399.88,-264.02 384.17,-216.59 362,-181.66 351.14,-164.56 337.52,-147.55 323.96,-132.27"/>
<polygon fill="red" stroke="red" stroke-width="0.18" points="326.18,-129.51 316.88,-124.44 320.99,-134.21 326.18,-129.51"/>
</g>
<!-- 370 -->
<g id="node11" class="node">
<title>370</title>
<ellipse fill="white" stroke="black" cx="435" cy="-206.41" rx="25" ry="25"/>
<text text-anchor="middle" x="435" y="-204.21" font-family="Times,serif" font-size="9.00">370</text>
</g>
<!-- HCoil22&#45;&gt;370 -->
<g id="edge8" class="edge">
<title>HCoil22&#45;&gt;370</title>
<path fill="none" stroke="green" stroke-width="0.16" d="M410.59,-282.9C413.77,-273.06 419.37,-255.74 424.41,-240.17"/>
<polygon fill="green" stroke="green" stroke-width="0.16" points="427.86,-240.88 427.6,-230.29 421.2,-238.73 427.86,-240.88"/>
</g>
<!-- VCoil12 -->
<g id="node8" class="node">
<title>VCoil12</title>
<polygon fill="lightgray" stroke="black" points="367.5,-370.66 314.5,-370.66 314.5,-352.66 367.5,-352.66 367.5,-370.66"/>
<text text-anchor="middle" x="341" y="-359.46" font-family="Times,serif" font-size="9.00">VCoil12</text>
</g>
<!-- VCoil22 -->
<g id="node9" class="node">
<title>VCoil22</title>
<polygon fill="lightgray" stroke="black" points="530.5,-215.41 477.5,-215.41 477.5,-197.41 530.5,-197.41 530.5,-215.41"/>
<text text-anchor="middle" x="504" y="-204.21" font-family="Times,serif" font-size="9.00">VCoil22</text>
</g>
<!-- VCoil22&#45;&gt;Activate propulsor -->
<g id="edge4" class="edge">
<title>VCoil22&#45;&gt;Activate propulsor</title>
<path fill="none" stroke="green" stroke-width="0.69" stroke-dasharray="1,5" d="M492.86,-197.39C486.08,-192.63 477.18,-186.58 469,-181.66 427.04,-156.44 378.66,-130.73 339.54,-110.74"/>
<polygon fill="green" stroke="green" stroke-width="0.69" points="340.82,-107.46 330.32,-106.05 337.64,-113.7 340.82,-107.46"/>
</g>
<!-- 370&#45;&gt;Activate propulsor -->
<g id="edge9" class="edge">
<title>370&#45;&gt;Activate propulsor</title>
<path fill="none" stroke="green" stroke-width="0.59" d="M415.83,-190.57C395.1,-174.53 360.93,-148.08 330.34,-124.41"/>
<polygon fill="green" stroke="green" stroke-width="0.59" points="332.29,-121.49 322.24,-118.14 328.01,-127.02 332.29,-121.49"/>
</g>
<!-- 309&#45;&gt;Activate propulsor -->
<g id="edge7" class="edge">
<title>309&#45;&gt;Activate propulsor</title>
<path fill="none" stroke="green" stroke-width="0.24" d="M157.27,-267.32C154.7,-244.49 153.54,-209.37 165,-181.66 173.26,-161.69 186.99,-143.14 201.67,-127.25"/>
<polygon fill="green" stroke="green" stroke-width="0.24" points="204.54,-129.31 208.94,-119.67 199.49,-124.47 204.54,-129.31"/>
</g>
<!-- 416 -->
<g id="node13" class="node">
<title>416</title>
<ellipse fill="white" stroke="black" cx="199" cy="-206.41" rx="25" ry="25"/>
<text text-anchor="middle" x="199" y="-204.21" font-family="Times,serif" font-size="9.00">416</text>
</g>
<!-- 309&#45;&gt;416 -->
<g id="edge10" class="edge">
<title>309&#45;&gt;416</title>
<path fill="none" stroke="green" stroke-width="0.1" d="M170.98,-268.97C175.22,-259.67 180.23,-248.66 184.83,-238.55"/>
<polygon fill="green" stroke="green" stroke-width="0.1" points="188.13,-239.76 189.08,-229.2 181.75,-236.86 188.13,-239.76"/>
</g>
<!-- 416&#45;&gt;Activate propulsor -->
<g id="edge11" class="edge">
<title>416&#45;&gt;Activate propulsor</title>
<path fill="none" stroke="red" stroke-width="0.34" d="M209.75,-183.98C214.89,-173.74 221.36,-160.83 228.06,-147.47"/>
<polygon fill="red" stroke="red" stroke-width="0.34" points="231.37,-148.69 232.72,-138.18 225.11,-145.55 231.37,-148.69"/>
</g>
</g>
</svg>
