<?xml version="1.0" encoding="UTF-8" standalone="no"?>
<!DOCTYPE svg PUBLIC "-//W3C//DTD SVG 1.1//EN"
 "http://www.w3.org/Graphics/SVG/1.1/DTD/svg11.dtd">
<!-- Generated by graphviz version 2.43.0 (0)
 -->
<!-- Title: %3 Pages: 1 -->
<svg width="606pt" height="293pt"
 viewBox="0.00 0.00 605.50 293.16" xmlns="http://www.w3.org/2000/svg" xmlns:xlink="http://www.w3.org/1999/xlink">
<g id="graph0" class="graph" transform="scale(1 1) rotate(0) translate(4 289.16)">
<title>%3</title>
<polygon fill="white" stroke="transparent" points="-4,4 -4,-289.16 601.5,-289.16 601.5,4 -4,4"/>
<!-- Player_height -->
<g id="node1" class="node">
<title>Player_height</title>
<polygon fill="lightgray" stroke="black" points="80,-215.41 0,-215.41 0,-197.41 80,-197.41 80,-215.41"/>
<text text-anchor="middle" x="40" y="-204.21" font-family="Times,serif" font-size="9.00">Player_height</text>
</g>
<!-- Activate propulsor -->
<g id="node10" class="node">
<title>Activate propulsor</title>
<ellipse fill="lightblue" stroke="black" cx="293" cy="-72.83" rx="72.66" ry="72.66"/>
<text text-anchor="middle" x="293" y="-70.63" font-family="Times,serif" font-size="9.00">Activate propulsor</text>
</g>
<!-- Player_height&#45;&gt;Activate propulsor -->
<g id="edge1" class="edge">
<title>Player_height&#45;&gt;Activate propulsor</title>
<path fill="none" stroke="red" stroke-width="0.18" d="M55.45,-197.38C87.37,-180.78 162.43,-141.74 219.7,-111.95"/>
<polygon fill="red" stroke="red" stroke-width="0.18" points="221.48,-114.97 228.73,-107.26 218.25,-108.76 221.48,-114.97"/>
</g>
<!-- HCoil1 -->
<g id="node2" class="node">
<title>HCoil1</title>
<polygon fill="lightgray" stroke="black" points="146,-215.41 98,-215.41 98,-197.41 146,-197.41 146,-215.41"/>
<text text-anchor="middle" x="122" y="-204.21" font-family="Times,serif" font-size="9.00">HCoil1</text>
</g>
<!-- HCoil1&#45;&gt;Activate propulsor -->
<g id="edge2" class="edge">
<title>HCoil1&#45;&gt;Activate propulsor</title>
<path fill="none" stroke="red" stroke-width="0.14" d="M132.44,-197.38C151.18,-182.96 191.91,-151.62 227.66,-124.11"/>
<polygon fill="red" stroke="red" stroke-width="0.14" points="229.88,-126.81 235.67,-117.94 225.62,-121.27 229.88,-126.81"/>
</g>
<!-- HCoil2 -->
<g id="node3" class="node">
<title>HCoil2</title>
<polygon fill="lightgray" stroke="black" points="224,-285.16 176,-285.16 176,-267.16 224,-267.16 224,-285.16"/>
<text text-anchor="middle" x="200" y="-273.96" font-family="Times,serif" font-size="9.00">HCoil2</text>
</g>
<!-- HCoil2&#45;&gt;Activate propulsor -->
<g id="edge3" class="edge">
<title>HCoil2&#45;&gt;Activate propulsor</title>
<path fill="none" stroke="green" stroke-width="0.12" stroke-dasharray="1,5" d="M197.11,-267.06C191.64,-250.39 181.35,-211.36 193,-181.66 200.93,-161.44 214.64,-142.75 229.4,-126.81"/>
<polygon fill="green" stroke="green" stroke-width="0.12" points="232.3,-128.84 236.71,-119.21 227.26,-123.99 232.3,-128.84"/>
</g>
<!-- 105 -->
<g id="node11" class="node">
<title>105</title>
<ellipse fill="white" stroke="black" cx="227" cy="-206.41" rx="25" ry="25"/>
<text text-anchor="middle" x="227" y="-204.21" font-family="Times,serif" font-size="9.00">105</text>
</g>
<!-- HCoil2&#45;&gt;105 -->
<g id="edge9" class="edge">
<title>HCoil2&#45;&gt;105</title>
<path fill="none" stroke="green" stroke-width="0.43" d="M203.2,-267.12C206.01,-260.09 210.26,-249.41 214.41,-239.01"/>
<polygon fill="green" stroke="green" stroke-width="0.43" points="217.69,-240.24 218.14,-229.65 211.18,-237.64 217.69,-240.24"/>
</g>
<!-- VCoil1 -->
<g id="node4" class="node">
<title>VCoil1</title>
<polygon fill="lightgray" stroke="black" points="316.5,-215.41 269.5,-215.41 269.5,-197.41 316.5,-197.41 316.5,-215.41"/>
<text text-anchor="middle" x="293" y="-204.21" font-family="Times,serif" font-size="9.00">VCoil1</text>
</g>
<!-- VCoil1&#45;&gt;Activate propulsor -->
<g id="edge4" class="edge">
<title>VCoil1&#45;&gt;Activate propulsor</title>
<path fill="none" stroke="green" stroke-width="0.2" d="M293,-197.18C293,-188.2 293,-172.82 293,-155.92"/>
<polygon fill="green" stroke="green" stroke-width="0.2" points="296.5,-155.82 293,-145.82 289.5,-155.82 296.5,-155.82"/>
</g>
<!-- VCoil2 -->
<g id="node5" class="node">
<title>VCoil2</title>
<polygon fill="lightgray" stroke="black" points="381.5,-215.41 334.5,-215.41 334.5,-197.41 381.5,-197.41 381.5,-215.41"/>
<text text-anchor="middle" x="358" y="-204.21" font-family="Times,serif" font-size="9.00">VCoil2</text>
</g>
<!-- VCoil2&#45;&gt;Activate propulsor -->
<g id="edge5" class="edge">
<title>VCoil2&#45;&gt;Activate propulsor</title>
<path fill="none" stroke="green" stroke-width="0.4" d="M353.93,-197.18C348.8,-186.79 339.44,-167.84 329.57,-147.86"/>
<polygon fill="green" stroke="green" stroke-width="0.4" points="332.58,-146.05 325.01,-138.64 326.31,-149.15 332.58,-146.05"/>
</g>
<!-- HCoil12 -->
<g id="node6" class="node">
<title>HCoil12</title>
<polygon fill="lightgray" stroke="black" points="454,-215.41 400,-215.41 400,-197.41 454,-197.41 454,-215.41"/>
<text text-anchor="middle" x="427" y="-204.21" font-family="Times,serif" font-size="9.00">HCoil12</text>
</g>
<!-- HCoil12&#45;&gt;Activate propulsor -->
<g id="edge6" class="edge">
<title>HCoil12&#45;&gt;Activate propulsor</title>
<path fill="none" stroke="green" stroke-width="0.11" d="M418.62,-197.18C405.16,-183.96 377.61,-156.91 351.73,-131.5"/>
<polygon fill="green" stroke="green" stroke-width="0.11" points="354.07,-128.89 344.48,-124.39 349.17,-133.89 354.07,-128.89"/>
</g>
<!-- HCoil22 -->
<g id="node7" class="node">
<title>HCoil22</title>
<polygon fill="lightgray" stroke="black" points="526,-215.41 472,-215.41 472,-197.41 526,-197.41 526,-215.41"/>
<text text-anchor="middle" x="499" y="-204.21" font-family="Times,serif" font-size="9.00">HCoil22</text>
</g>
<!-- HCoil22&#45;&gt;Activate propulsor -->
<g id="edge7" class="edge">
<title>HCoil22&#45;&gt;Activate propulsor</title>
<path fill="none" stroke="green" stroke-width="0.18" stroke-dasharray="1,5" d="M486.71,-197.22C479.77,-192.62 470.92,-186.79 463,-181.66 430.28,-160.49 393.8,-137.31 363.06,-117.88"/>
<polygon fill="green" stroke="green" stroke-width="0.18" points="364.87,-114.88 354.55,-112.5 361.13,-120.8 364.87,-114.88"/>
</g>
<!-- VCoil12 -->
<g id="node8" class="node">
<title>VCoil12</title>
<polygon fill="lightgray" stroke="black" points="597.5,-215.41 544.5,-215.41 544.5,-197.41 597.5,-197.41 597.5,-215.41"/>
<text text-anchor="middle" x="571" y="-204.21" font-family="Times,serif" font-size="9.00">VCoil12</text>
</g>
<!-- VCoil12&#45;&gt;Activate propulsor -->
<g id="edge8" class="edge">
<title>VCoil12&#45;&gt;Activate propulsor</title>
<path fill="none" stroke="green" stroke-width="0.44" d="M559.63,-197.22C552.69,-192.39 543.54,-186.34 535,-181.66 481.49,-152.35 418.45,-124.46 370.13,-104.39"/>
<polygon fill="green" stroke="green" stroke-width="0.44" points="371.25,-101.07 360.67,-100.48 368.58,-107.54 371.25,-101.07"/>
</g>
<!-- VCoil22 -->
<g id="node9" class="node">
<title>VCoil22</title>
<polygon fill="lightgray" stroke="black" points="295.5,-285.16 242.5,-285.16 242.5,-267.16 295.5,-267.16 295.5,-285.16"/>
<text text-anchor="middle" x="269" y="-273.96" font-family="Times,serif" font-size="9.00">VCoil22</text>
</g>
<!-- 105&#45;&gt;Activate propulsor -->
<g id="edge10" class="edge">
<title>105&#45;&gt;Activate propulsor</title>
<path fill="none" stroke="red" stroke-width="0.32" d="M237.75,-183.98C242.89,-173.74 249.36,-160.83 256.06,-147.47"/>
<polygon fill="red" stroke="red" stroke-width="0.32" points="259.37,-148.69 260.72,-138.18 253.11,-145.55 259.37,-148.69"/>
</g>
</g>
</svg>
